<?xml version="1.0" encoding="UTF-8"?>
<svg xmlns="http://www.w3.org/2000/svg" version="1.1" viewBox="0 0 1594.2671 430.7484">
  <defs>
    <style>
      .cls-1 {
        fill: #fff;
      }
    </style>
  </defs>
  <!-- Generator: Adobe Illustrator 28.6.0, SVG Export Plug-In . SVG Version: 1.2.0 Build 709)  -->
  <g>
    <g id="Layer_1">
      <path class="cls-1" d="M228.2804,430.7484h-71.9075v-49.4715C67.4484,364.3943,0,286.0849,0,192.3209,0,86.2737,86.2796,0,192.3267,0v71.9075c-66.4009,0-120.4192,54.0184-120.4192,120.4134,0,53.8779,35.5734,99.6101,84.4655,114.9361l.0585-118.6812c1.9838-61.2103,52.3916-110.395,114.0758-110.395,62.9366,0,114.1402,51.2036,114.1402,114.1402,0,93.7641-67.4425,172.0735-156.3671,188.956v49.4715ZM228.2804,192.3209v114.9361c48.8863-15.326,84.4597-61.0581,84.4597-114.9361,0-23.2845-18.9483-42.2328-42.2328-42.2328s-42.2269,18.9483-42.2269,42.2328Z"/>
      <path class="cls-1" d="M476.9267,90.092h76.6864v43.0631c18.2836-30.0894,51.3229-48.963,89.0761-48.963,68.4265,0,102.6398,44.2431,102.6398,112.0796v188.766h-76.6864v-179.9161c0-38.3432-16.5197-58.9927-46.603-58.9927h-4.7199c-35.3932,0-63.7066,34.2133-63.7066,74.9164v163.9925h-76.6864V90.092Z"/>
      <path class="cls-1" d="M912.6026,84.1921c86.7101,0,134.4931,63.1166,134.4931,149.8328,0,5.8999-.59,15.3397-1.18,27.7234h-199.3857c2.36,39.5232,35.3932,67.2466,66.6626,67.2466h4.7199c27.7234,0,46.597-15.9236,51.9069-37.1632h76.0964c-14.1537,58.4028-61.3467,99.1059-133.3131,99.1059-76.0964,0-140.399-57.8128-140.399-153.3727,0-88.4861,53.6829-153.3727,140.399-153.3727ZM972.7693,202.7616c-2.36-34.8033-28.3134-56.6328-60.7567-56.6328h-4.7199c-32.4433,0-58.4028,21.8295-60.7627,56.6328h126.2393Z"/>
      <path class="cls-1" d="M1250.6113,385.0377c-1.7639-8.2598-2.9439-20.0536-3.5339-35.9832-18.2896,25.9534-49.5529,41.8831-87.3061,41.8831-53.0929,0-96.7459-34.2133-96.7459-86.7162,0-59.5767,44.833-92.02,107.9557-97.3299l74.3264-6.4899v-7.0799c0-27.1334-18.8796-47.193-47.193-47.193h-4.7199c-28.3134,0-45.423,17.1096-47.783,35.3932h-76.6864c5.8999-56.0368,54.2728-97.3299,126.8293-97.3299,74.3264,0,123.8794,38.3432,123.8794,106.1797v129.7792c0,29.4934,1.18,51.3169,2.9499,64.8866h-71.9725ZM1245.3075,256.4384l-63.7127,6.4899c-23.0035,1.77-43.0631,14.1597-43.0631,35.9832,0,18.2896,15.3397,30.0834,36.5732,30.0834h4.7199c34.2133,0,65.4826-27.1334,65.4826-64.2966v-8.2598Z"/>
      <path class="cls-1" d="M1421.4248,287.7078c0,26.5434,19.4696,44.237,49.5529,44.237h4.7199c23.5935,0,38.9332-11.7937,38.9332-28.9034,0-15.9236-8.8498-24.7735-30.0834-29.4934l-38.3432-9.4398c-63.1227-15.9236-91.4361-41.8831-91.4361-89.0701,0-53.6829,46.013-90.8461,119.1595-90.8461,76.0964,0,120.3394,38.9332,120.3394,103.2298h-76.6864c-2.9499-28.3134-18.2896-44.2431-44.2431-44.2431h-4.7199c-21.2335,0-37.1632,11.7998-37.1632,28.9094,0,15.9236,12.3897,23.5935,37.7532,30.0834l39.5232,10.0298c56.6328,14.1537,82.5862,41.2871,82.5862,87.8901,0,50.7329-43.0631,90.8461-120.9294,90.8461-79.6363,0-127.4133-38.9332-127.4133-103.2298h78.4503Z"/>
    </g>
  </g>
</svg>