<?xml version="1.0" encoding="UTF-8" standalone="no"?>
<!-- Created with Inkscape (http://www.inkscape.org/) -->

<svg
   xmlns:dc="http://purl.org/dc/elements/1.1/"
   xmlns:cc="http://creativecommons.org/ns#"
   xmlns:rdf="http://www.w3.org/1999/02/22-rdf-syntax-ns#"
   xmlns:svg="http://www.w3.org/2000/svg"
   xmlns="http://www.w3.org/2000/svg"
   xmlns:xlink="http://www.w3.org/1999/xlink"
   xmlns:sodipodi="http://sodipodi.sourceforge.net/DTD/sodipodi-0.dtd"
   xmlns:inkscape="http://www.inkscape.org/namespaces/inkscape"
   id="svg2327"
   sodipodi:docname="network-transmit-receive.svg"
   viewBox="0 0 200.00002 200"
   sodipodi:version="0.32"
   inkscape:output_extension="org.inkscape.output.svg.inkscape"
   inkscape:version="0.92.2 (5c3e80d, 2017-08-06)"
   version="1.1"
   width="200.00002"
   height="200">
  <defs
     id="defs3">
    <linearGradient
       id="linearGradient2985"
       inkscape:collect="always">
      <stop
         id="stop2987"
         style="stop-color:#d8dfd6"
         offset="0" />
      <stop
         id="stop2989"
         style="stop-color:#d8dfd6;stop-opacity:0"
         offset="1" />
    </linearGradient>
    <linearGradient
       id="linearGradient2752">
      <stop
         id="stop2754"
         style="stop-color:#9d9d9d"
         offset="0" />
      <stop
         id="stop2756"
         style="stop-color:#b9b9b9"
         offset="1" />
    </linearGradient>
    <linearGradient
       id="linearGradient2711">
      <stop
         id="stop2713"
         style="stop-color:#909090"
         offset="0" />
      <stop
         id="stop2715"
         style="stop-color:#bebebe;stop-opacity:0"
         offset="1" />
    </linearGradient>
    <linearGradient
       id="linearGradient2701">
      <stop
         id="stop2703"
         style="stop-color:#585956"
         offset="0" />
      <stop
         id="stop2705"
         style="stop-color:#bbbeb8"
         offset="1" />
    </linearGradient>
    <linearGradient
       id="linearGradient2683"
       inkscape:collect="always">
      <stop
         id="stop2685"
         style="stop-color:#000000"
         offset="0" />
      <stop
         id="stop2687"
         style="stop-color:#000000;stop-opacity:0"
         offset="1" />
    </linearGradient>
    <linearGradient
       id="linearGradient2667">
      <stop
         id="stop2669"
         style="stop-color:#ffffff"
         offset="0" />
      <stop
         id="stop2671"
         style="stop-color:#fcfcff;stop-opacity:0"
         offset="1" />
    </linearGradient>
    <linearGradient
       id="linearGradient2635"
       inkscape:collect="always">
      <stop
         id="stop2637"
         style="stop-color:#f9fff5"
         offset="0" />
      <stop
         id="stop2639"
         style="stop-color:#f9fff5;stop-opacity:0"
         offset="1" />
    </linearGradient>
    <linearGradient
       id="linearGradient2415"
       inkscape:collect="always">
      <stop
         id="stop2417"
         style="stop-color:#ffffff"
         offset="0" />
      <stop
         id="stop2419"
         style="stop-color:#ffffff;stop-opacity:0"
         offset="1" />
    </linearGradient>
    <linearGradient
       id="linearGradient2253">
      <stop
         id="stop2255"
         style="stop-color:#8f8f8f"
         offset="0" />
      <stop
         id="stop2257"
         style="stop-color:#494949"
         offset="1" />
    </linearGradient>
    <linearGradient
       id="linearGradient2245">
      <stop
         id="stop2247"
         style="stop-color:#dde1d9"
         offset="0" />
      <stop
         id="stop2249"
         style="stop-color:#cacdc6"
         offset="1" />
    </linearGradient>
    <radialGradient
       id="radialGradient3909"
       xlink:href="#linearGradient2683"
       gradientUnits="userSpaceOnUse"
       cy="67.501999"
       cx="12.576"
       gradientTransform="scale(1.9258,0.51926)"
       r="8.7663002"
       inkscape:collect="always" />
    <linearGradient
       id="linearGradient3911"
       y2="44.879002"
       xlink:href="#linearGradient2985"
       gradientUnits="userSpaceOnUse"
       x2="-23.886"
       gradientTransform="scale(1.4929,0.66985)"
       y1="49.952999"
       x1="-23.886"
       inkscape:collect="always" />
    <linearGradient
       id="linearGradient3915"
       y2="64.892998"
       xlink:href="#linearGradient2701"
       gradientUnits="userSpaceOnUse"
       x2="12.128"
       gradientTransform="scale(1.8163,0.55056)"
       y1="53.535"
       x1="12.207"
       inkscape:collect="always" />
    <linearGradient
       id="linearGradient3917"
       y2="33.34"
       xlink:href="#linearGradient2245"
       gradientUnits="userSpaceOnUse"
       x2="34.784"
       gradientTransform="matrix(1.1299,0,0,0.88506,-1.625,-1.3044)"
       y1="7.2294002"
       x1="8.6115999"
       inkscape:collect="always" />
    <linearGradient
       id="linearGradient3919"
       y2="31.246"
       xlink:href="#linearGradient2253"
       gradientUnits="userSpaceOnUse"
       x2="32.536999"
       gradientTransform="scale(1.1044,0.90547)"
       y1="5.3818002"
       x1="10.391"
       inkscape:collect="always" />
    <linearGradient
       id="linearGradient3923"
       y2="162.45"
       xlink:href="#linearGradient2683"
       gradientUnits="userSpaceOnUse"
       x2="3.707"
       gradientTransform="matrix(5.7052,0,0,0.17528,1,-0.67937)"
       y1="171.28999"
       x1="3.707"
       inkscape:collect="always" />
    <linearGradient
       id="linearGradient3925"
       y2="55.201"
       xlink:href="#linearGradient2415"
       gradientUnits="userSpaceOnUse"
       x2="34.974998"
       gradientTransform="matrix(1.1081,0,0,0.90247,1,1)"
       y1="13.005"
       x1="17.698"
       inkscape:collect="always" />
    <linearGradient
       id="linearGradient3927"
       y2="26.729"
       xlink:href="#linearGradient2667"
       gradientUnits="userSpaceOnUse"
       x2="17.198999"
       gradientTransform="matrix(1.239,0,0,0.89596,0.59055,-1.3315)"
       y1="1.6538"
       x1="11.492"
       inkscape:collect="always" />
    <linearGradient
       id="linearGradient3931"
       y2="52.535999"
       xlink:href="#linearGradient2245"
       gradientUnits="userSpaceOnUse"
       x2="18.177"
       gradientTransform="scale(1.1299,0.88506)"
       y1="48.643002"
       x1="18.316999"
       inkscape:collect="always" />
    <linearGradient
       id="linearGradient3935"
       y2="100.2"
       xlink:href="#linearGradient2752"
       gradientUnits="userSpaceOnUse"
       x2="8.1134005"
       gradientTransform="scale(2.3099,0.43293)"
       y1="88.509003"
       x1="8.1134005"
       inkscape:collect="always" />
    <linearGradient
       id="linearGradient3941"
       y2="74.098"
       xlink:href="#linearGradient2635"
       gradientUnits="userSpaceOnUse"
       x2="8.6485004"
       gradientTransform="matrix(2.1436,0,0,0.4665,1,-0.50883)"
       y1="101.28"
       x1="13.629"
       inkscape:collect="always" />
    <linearGradient
       id="linearGradient3943"
       y2="3.8450999"
       xlink:href="#linearGradient2711"
       gradientUnits="userSpaceOnUse"
       x2="35.521"
       y1="3.9384"
       x1="34.300999"
       inkscape:collect="always" />
    <linearGradient
       id="linearGradient4033"
       y2="52.535999"
       xlink:href="#linearGradient2245"
       gradientUnits="userSpaceOnUse"
       x2="18.177"
       gradientTransform="matrix(1.1299,0,0,0.93254,0,-2.5273)"
       y1="48.643002"
       x1="18.316999"
       inkscape:collect="always" />
    <linearGradient
       id="linearGradient4035"
       y2="31.246"
       xlink:href="#linearGradient2253"
       gradientUnits="userSpaceOnUse"
       x2="32.536999"
       gradientTransform="matrix(1.1044,0,0,0.95405,0,-2.5273)"
       y1="5.3818002"
       x1="10.391"
       inkscape:collect="always" />
    <linearGradient
       id="linearGradient4043"
       y2="74.098"
       xlink:href="#linearGradient2635"
       gradientUnits="userSpaceOnUse"
       x2="8.6485004"
       gradientTransform="matrix(2.1192,0,0,0.47399,1.1616,-1.3776)"
       y1="101.28"
       x1="13.629"
       inkscape:collect="always" />
    <linearGradient
       id="linearGradient4064"
       y2="15.323"
       gradientUnits="userSpaceOnUse"
       x2="-57.494999"
       gradientTransform="matrix(0.77934,0,0,0.77934,73.639,-5.9461)"
       y1="38.653"
       x1="-57.547001"
       inkscape:collect="always">
      <stop
         id="stop3402"
         style="stop-color:#416db4"
         offset="0" />
      <stop
         id="stop3404"
         style="stop-color:#385e9b"
         offset="1" />
    </linearGradient>
    <radialGradient
       inkscape:collect="always"
       xlink:href="#linearGradient2683"
       id="radialGradient462"
       gradientUnits="userSpaceOnUse"
       gradientTransform="scale(1.9258,0.51926)"
       cx="12.576"
       cy="67.501999"
       r="8.7663002" />
    <linearGradient
       inkscape:collect="always"
       xlink:href="#linearGradient2985"
       id="linearGradient464"
       gradientUnits="userSpaceOnUse"
       gradientTransform="scale(1.4929,0.66985)"
       x1="-23.886"
       y1="49.952999"
       x2="-23.886"
       y2="44.879002" />
    <radialGradient
       inkscape:collect="always"
       xlink:href="#linearGradient2683"
       id="radialGradient466"
       gradientUnits="userSpaceOnUse"
       gradientTransform="scale(1.9258,0.51926)"
       cx="12.576"
       cy="67.501999"
       r="8.7663002" />
    <linearGradient
       inkscape:collect="always"
       xlink:href="#linearGradient2701"
       id="linearGradient468"
       gradientUnits="userSpaceOnUse"
       gradientTransform="scale(1.8163,0.55056)"
       x1="12.207"
       y1="53.535"
       x2="12.128"
       y2="64.892998" />
    <linearGradient
       inkscape:collect="always"
       xlink:href="#linearGradient2245"
       id="linearGradient470"
       gradientUnits="userSpaceOnUse"
       gradientTransform="matrix(1.1299,0,0,0.88506,-1.625,-1.3044)"
       x1="8.6115999"
       y1="7.2294002"
       x2="34.784"
       y2="33.34" />
    <linearGradient
       inkscape:collect="always"
       xlink:href="#linearGradient2253"
       id="linearGradient472"
       gradientUnits="userSpaceOnUse"
       gradientTransform="scale(1.1044,0.90547)"
       x1="10.391"
       y1="5.3818002"
       x2="32.536999"
       y2="31.246" />
    <linearGradient
       inkscape:collect="always"
       xlink:href="#linearGradient4064"
       id="linearGradient474"
       gradientUnits="userSpaceOnUse"
       gradientTransform="matrix(0.77934,0,0,0.77934,73.639,-5.9461)"
       x1="-57.547001"
       y1="38.653"
       x2="-57.494999"
       y2="15.323" />
    <linearGradient
       inkscape:collect="always"
       xlink:href="#linearGradient2683"
       id="linearGradient476"
       gradientUnits="userSpaceOnUse"
       gradientTransform="matrix(5.7052,0,0,0.17528,1,-0.67937)"
       x1="3.707"
       y1="171.28999"
       x2="3.707"
       y2="162.45" />
    <linearGradient
       inkscape:collect="always"
       xlink:href="#linearGradient2415"
       id="linearGradient478"
       gradientUnits="userSpaceOnUse"
       gradientTransform="matrix(1.1081,0,0,0.90247,1,1)"
       x1="17.698"
       y1="13.005"
       x2="34.974998"
       y2="55.201" />
    <linearGradient
       inkscape:collect="always"
       xlink:href="#linearGradient2667"
       id="linearGradient480"
       gradientUnits="userSpaceOnUse"
       gradientTransform="matrix(1.239,0,0,0.89596,0.59055,-1.3315)"
       x1="11.492"
       y1="1.6538"
       x2="17.198999"
       y2="26.729" />
    <radialGradient
       inkscape:collect="always"
       xlink:href="#linearGradient2683"
       id="radialGradient482"
       gradientUnits="userSpaceOnUse"
       gradientTransform="scale(1.9258,0.51926)"
       cx="12.576"
       cy="67.501999"
       r="8.7663002" />
    <linearGradient
       inkscape:collect="always"
       xlink:href="#linearGradient2253"
       id="linearGradient484"
       gradientUnits="userSpaceOnUse"
       gradientTransform="scale(1.1044,0.90547)"
       x1="10.391"
       y1="5.3818002"
       x2="32.536999"
       y2="31.246" />
    <linearGradient
       inkscape:collect="always"
       xlink:href="#linearGradient2752"
       id="linearGradient486"
       gradientUnits="userSpaceOnUse"
       gradientTransform="scale(2.3099,0.43293)"
       x1="8.1134005"
       y1="88.509003"
       x2="8.1134005"
       y2="100.2" />
    <linearGradient
       inkscape:collect="always"
       xlink:href="#linearGradient2752"
       id="linearGradient488"
       gradientUnits="userSpaceOnUse"
       gradientTransform="scale(2.3099,0.43293)"
       x1="8.1134005"
       y1="88.509003"
       x2="8.1134005"
       y2="100.2" />
    <linearGradient
       inkscape:collect="always"
       xlink:href="#linearGradient2752"
       id="linearGradient490"
       gradientUnits="userSpaceOnUse"
       gradientTransform="scale(2.3099,0.43293)"
       x1="8.1134005"
       y1="88.509003"
       x2="8.1134005"
       y2="100.2" />
    <linearGradient
       inkscape:collect="always"
       xlink:href="#linearGradient2711"
       id="linearGradient492"
       gradientUnits="userSpaceOnUse"
       x1="34.300999"
       y1="3.9384"
       x2="35.521"
       y2="3.8450999" />
    <linearGradient
       inkscape:collect="always"
       xlink:href="#linearGradient2711"
       id="linearGradient494"
       gradientUnits="userSpaceOnUse"
       x1="34.300999"
       y1="3.9384"
       x2="35.521"
       y2="3.8450999" />
    <linearGradient
       inkscape:collect="always"
       xlink:href="#linearGradient2711"
       id="linearGradient496"
       gradientUnits="userSpaceOnUse"
       x1="34.300999"
       y1="3.9384"
       x2="35.521"
       y2="3.8450999" />
    <linearGradient
       inkscape:collect="always"
       xlink:href="#linearGradient2711"
       id="linearGradient498"
       gradientUnits="userSpaceOnUse"
       x1="34.300999"
       y1="3.9384"
       x2="35.521"
       y2="3.8450999" />
    <linearGradient
       inkscape:collect="always"
       xlink:href="#linearGradient2711"
       id="linearGradient500"
       gradientUnits="userSpaceOnUse"
       x1="34.300999"
       y1="3.9384"
       x2="35.521"
       y2="3.8450999" />
    <radialGradient
       inkscape:collect="always"
       xlink:href="#linearGradient2683"
       id="radialGradient502"
       gradientUnits="userSpaceOnUse"
       gradientTransform="scale(1.9258,0.51926)"
       cx="12.576"
       cy="67.501999"
       r="8.7663002" />
    <radialGradient
       inkscape:collect="always"
       xlink:href="#linearGradient2683"
       id="radialGradient504"
       gradientUnits="userSpaceOnUse"
       gradientTransform="scale(1.9258,0.51926)"
       cx="12.576"
       cy="67.501999"
       r="8.7663002" />
    <linearGradient
       inkscape:collect="always"
       xlink:href="#linearGradient4064"
       id="linearGradient506"
       gradientUnits="userSpaceOnUse"
       gradientTransform="matrix(0.77934,0,0,0.77934,73.639,-5.9461)"
       x1="-57.547001"
       y1="38.653"
       x2="-57.494999"
       y2="15.323" />
    <linearGradient
       inkscape:collect="always"
       xlink:href="#linearGradient2752"
       id="linearGradient508"
       gradientUnits="userSpaceOnUse"
       gradientTransform="scale(2.3099,0.43293)"
       x1="8.1134005"
       y1="88.509003"
       x2="8.1134005"
       y2="100.2" />
    <linearGradient
       inkscape:collect="always"
       xlink:href="#linearGradient2752"
       id="linearGradient510"
       gradientUnits="userSpaceOnUse"
       gradientTransform="scale(2.3099,0.43293)"
       x1="8.1134005"
       y1="88.509003"
       x2="8.1134005"
       y2="100.2" />
    <linearGradient
       inkscape:collect="always"
       xlink:href="#linearGradient2711"
       id="linearGradient512"
       gradientUnits="userSpaceOnUse"
       x1="34.300999"
       y1="3.9384"
       x2="35.521"
       y2="3.8450999" />
    <linearGradient
       inkscape:collect="always"
       xlink:href="#linearGradient2711"
       id="linearGradient514"
       gradientUnits="userSpaceOnUse"
       x1="34.300999"
       y1="3.9384"
       x2="35.521"
       y2="3.8450999" />
    <linearGradient
       inkscape:collect="always"
       xlink:href="#linearGradient2711"
       id="linearGradient516"
       gradientUnits="userSpaceOnUse"
       x1="34.300999"
       y1="3.9384"
       x2="35.521"
       y2="3.8450999" />
    <linearGradient
       inkscape:collect="always"
       xlink:href="#linearGradient2711"
       id="linearGradient518"
       gradientUnits="userSpaceOnUse"
       x1="34.300999"
       y1="3.9384"
       x2="35.521"
       y2="3.8450999" />
  </defs>
  <sodipodi:namedview
     id="base"
     bordercolor="#666666"
     inkscape:pageshadow="2"
     inkscape:window-y="143"
     pagecolor="#ffffff"
     inkscape:window-height="533"
     inkscape:grid-bbox="true"
     inkscape:zoom="1.77"
     inkscape:window-x="2003"
     showgrid="true"
     borderopacity="0.12156863"
     inkscape:current-layer="layer1"
     inkscape:cx="100.00001"
     inkscape:cy="100"
     inkscape:showpageshadow="false"
     inkscape:window-width="953"
     inkscape:pageopacity="0.0"
     inkscape:document-units="px"
     inkscape:window-maximized="0" />
  <g
     id="layer1"
     inkscape:label="Layer 1"
     inkscape:groupmode="layer"
     transform="translate(-0.99953082,153)">
    <g
       id="g460"
       transform="matrix(4.347772,0,0,4.3477396,-3.3462367,-157.34785)">
      <g
         transform="matrix(0.77934,0,0,0.77934,4.5537,10.264)"
         id="g2860">
        <g
           transform="translate(7.1658,-12.941)"
           id="g3880">
          <ellipse
             transform="matrix(1,0,0,1.3689,-1.9786,-13.617)"
             style="color:#000000;fill:url(#radialGradient462);fill-rule:evenodd"
             id="path2862"
             cx="24.218407"
             cy="35.051105"
             rx="16.882174"
             ry="4.552" />
          <ellipse
             transform="translate(57.533,3.2034)"
             style="color:#000000;fill:#adb0aa;fill-rule:evenodd;stroke:#4b4d4a;stroke-width:1.28310001"
             id="path2864"
             cx="-35.658386"
             cy="29.716238"
             rx="9.3944187"
             ry="3.939595" />
          <ellipse
             transform="matrix(0.94027,0,0,0.94027,55.404,4.2712)"
             style="color:#000000;fill:none;stroke:#7b7f7a;stroke-width:1.28310001"
             id="path2866"
             cx="-35.658386"
             cy="29.716238"
             rx="9.3944187"
             ry="3.939595" />
          <ellipse
             transform="matrix(0.94027,0,0,0.94027,55.404,3.5212)"
             style="color:#000000;fill:none;stroke:url(#linearGradient464);stroke-width:0.87336999"
             id="path2868"
             cx="-35.658386"
             cy="29.716238"
             rx="9.3944187"
             ry="3.939595" />
          <path
             d="m 25.688,28.766 -0.063,1 c 0,0 4.324,3.599 9,4.203 2.338,0.301 4.754,0.702 6.75,1.187 1.996,0.485 3.588,1.12 4.125,1.656 0.31,0.311 0.451,0.574 0.5,0.782 0.049,0.207 0.038,0.355 -0.094,0.562 -0.264,0.416 -1.08,0.968 -2.468,1.406 C 40.66,40.44 35.717,41 28.875,41 v 1 c 6.896,0 11.864,-0.528 14.844,-1.469 1.49,-0.47 2.525,-1.015 3.031,-1.812 C 47.003,38.32 47.107,37.83 47,37.375 46.893,36.92 46.615,36.49 46.219,36.094 45.341,35.216 43.682,34.687 41.625,34.188 39.568,33.688 37.109,33.273 34.75,32.969 30.031,32.36 25.688,28.766 25.688,28.766 Z"
             style="fill:#d0d0d0;fill-rule:evenodd;stroke:#979797;stroke-width:0.51326001;stroke-linejoin:round"
             sodipodi:nodetypes="ccccccccccccccccc"
             id="path2870"
             inkscape:connector-curvature="0" />
          <ellipse
             transform="matrix(1,0,0,1.3689,-1.9786,-19.021)"
             style="color:#000000;fill:url(#radialGradient466);fill-rule:evenodd"
             id="path2872"
             cx="24.218407"
             cy="35.051105"
             rx="16.882174"
             ry="4.552" />
          <rect
             x="17.472"
             y="30.704"
             width="9.0396996"
             height="2.74"
             style="color:#000000;fill:url(#linearGradient468);fill-rule:evenodd"
             id="rect2874" />
          <path
             d="m 7.0809,1.6956 h 29.588 c 0.911,0 1.624,0.5835 1.667,1.4016 l 1.332,25.578 c 0.058,1.118 -0.901,2.021 -2.02,2.021 H 6.1019 c -1.1188,0 -2.0781,-0.903 -2.0199,-2.021 L 5.4141,3.0972 C 5.4543,2.3239 5.9616,1.6958 7.0808,1.6958 Z"
             style="color:#000000;fill:url(#linearGradient470);fill-rule:evenodd;stroke:url(#linearGradient472);stroke-width:1.28310001"
             sodipodi:nodetypes="cssssssss"
             id="path2876"
             inkscape:connector-curvature="0" />
          <path
             d="m 8.4105,4.3058 -1.2422,22.045 h 27.651 L 33.4843,4.3988 8.4103,4.3056 Z"
             style="color:#000000;fill:url(#linearGradient474);fill-rule:evenodd;stroke:#4263a8;stroke-width:0.64156997;stroke-linejoin:round"
             sodipodi:nodetypes="ccccc"
             id="path2878"
             inkscape:connector-curvature="0" />
          <path
             d="m 6.1774,28.736 h 31.429"
             style="fill:none;stroke:url(#linearGradient476);stroke-width:1.27820003;stroke-linecap:round;stroke-opacity:0.24841003"
             id="path2880"
             inkscape:connector-curvature="0" />
          <path
             d="m 6.9146,2.7063 29.845,-0.0378 c 0.284,-3e-4 0.559,0.2373 0.582,0.6526 l 1.362,24.803 c 0.058,1.057 -0.54,1.786 -1.598,1.786 H 6.5816 c -1.0589,0 -1.5933,-0.729 -1.5361,-1.786 L 6.3696,3.6301 C 6.4083,2.9144 6.536,2.7069 6.9142,2.7064 Z"
             style="color:#000000;fill:none;stroke:url(#linearGradient478);stroke-width:1.28310001;stroke-opacity:0.70064003"
             sodipodi:nodetypes="cssssssss"
             id="path2882"
             inkscape:connector-curvature="0" />
          <path
             d="M 8.7115,4.7464 7.909,22.6174 C 18.954,20.2164 19.33,12.1244 33.063,9.4704 L 32.902,4.8128 8.712,4.7468 Z"
             style="opacity:0.53142999;fill:url(#linearGradient480);fill-rule:evenodd"
             sodipodi:nodetypes="ccccc"
             id="path2884"
             inkscape:connector-curvature="0" />
          <ellipse
             transform="matrix(1.2644,0,0,1.2913,-6.2163,-4.0004)"
             style="color:#000000;fill:url(#radialGradient482);fill-rule:evenodd"
             id="path2886"
             cx="24.218407"
             cy="35.051105"
             rx="16.882174"
             ry="4.552" />
          <path
             d="m 6.4622,36.817 h 31.003 c 1.119,0 0.977,0.272 1.092,0.613 l 2.834,8.425 c 0.115,0.342 0.027,0.613 -1.092,0.613 H 3.6272 c -1.1187,0 -1.2066,-0.271 -1.0917,-0.613 L 5.3702,37.43 C 5.485,37.089 5.3431,36.817 6.4624,36.817 Z"
             style="color:#000000;fill:url(#linearGradient3931);fill-rule:evenodd;stroke:url(#linearGradient484);stroke-width:1.28310001"
             sodipodi:nodetypes="cssssssss"
             id="path2888"
             inkscape:connector-curvature="0" />
          <path
             d="m 6.3917,38.829 -1.7678,5.127 h 5.4801 l 0.53,-2.033 h 14.85 l 0.549,2.075 h 6.168 L 30.522,38.829 H 6.392 Z"
             style="fill:#7a7d77;fill-rule:evenodd"
             sodipodi:nodetypes="ccccccccc"
             id="path2890"
             inkscape:connector-curvature="0" />
          <path
             d="m 11.076,42.276 -0.442,1.68 h 14.761 l -0.442,-1.768 z"
             style="fill:#777874;fill-rule:evenodd"
             id="path2892"
             inkscape:connector-curvature="0" />
          <path
             d="m 37.593,38.829 1.679,5.038 -5.48,-0.088 -1.503,-4.861 z"
             style="color:#000000;fill:#777a75;fill-rule:evenodd"
             id="path2894"
             inkscape:connector-curvature="0" />
          <path
             d="m 37.593,38.299 1.679,5.038 -5.48,-0.088 -1.503,-4.862 z"
             style="color:#000000;fill:url(#linearGradient486);fill-rule:evenodd"
             id="path2896"
             inkscape:connector-curvature="0" />
          <path
             d="m 6.3917,38.21 -1.7678,5.127 h 5.4801 l 0.53,-2.033 h 14.85 l 0.549,2.075 h 6.168 L 30.522,38.21 H 6.392 Z"
             style="fill:url(#linearGradient488);fill-rule:evenodd"
             sodipodi:nodetypes="ccccccccc"
             id="path2898"
             inkscape:connector-curvature="0" />
          <path
             d="m 11.076,41.746 -0.442,1.679 h 14.761 l -0.442,-1.767 z"
             style="color:#000000;fill:url(#linearGradient490);fill-rule:evenodd"
             id="path2900"
             inkscape:connector-curvature="0" />
          <path
             d="m 6.1278,37.578 h 31.826 l 2.637,8.093 H 3.3298 l 2.7978,-8.093 z"
             style="color:#000000;fill:none;stroke:url(#linearGradient3941);stroke-width:0.64156997;stroke-linejoin:round"
             sodipodi:nodetypes="ccccc"
             id="path2902"
             inkscape:connector-curvature="0" />
          <circle
             transform="matrix(1.3312,0,0,0.65845,-10.419,2.8539)"
             style="color:#000000;fill:url(#linearGradient492);fill-rule:evenodd"
             id="path2904"
             cx="34.780815"
             cy="3.9384086"
             r="0.83968931" />
          <circle
             transform="matrix(1.3312,0,0,0.65845,-10.306,4.9597)"
             style="color:#000000;fill:url(#linearGradient494);fill-rule:evenodd"
             id="path2906"
             cx="34.780815"
             cy="3.9384086"
             r="0.83968931" />
          <circle
             transform="matrix(1.3312,0,0,0.65845,-10.192,6.9597)"
             style="color:#000000;fill:url(#linearGradient496);fill-rule:evenodd"
             id="path2908"
             cx="34.780815"
             cy="3.9384086"
             r="0.83968931" />
          <circle
             transform="matrix(1.3312,0,0,0.65845,-10.079,8.9597)"
             style="color:#000000;fill:url(#linearGradient498);fill-rule:evenodd"
             id="path2910"
             cx="34.780815"
             cy="3.9384086"
             r="0.83968931" />
          <circle
             transform="matrix(1.3312,0,0,0.65845,-9.9649,10.96)"
             style="color:#000000;fill:url(#linearGradient500);fill-rule:evenodd"
             id="path2912"
             cx="34.780815"
             cy="3.9384086"
             r="0.83968931" />
          <path
             d="m 20,27.318 h 0.282 c 0.083,0 0.148,0.018 0.192,0.056 0.045,0.037 0.068,0.09 0.068,0.158 0,0.069 -0.023,0.123 -0.068,0.16 -0.044,0.037 -0.109,0.056 -0.192,0.056 H 20.17 v 0.228 H 20 v -0.658 m 0.17,0.123 v 0.184 h 0.094 c 0.033,0 0.058,-0.008 0.076,-0.024 0.018,-0.016 0.027,-0.039 0.027,-0.069 0,-0.029 -0.009,-0.052 -0.027,-0.068 -0.018,-0.015 -0.043,-0.023 -0.076,-0.023 H 20.17 m 0.792,-0.012 c -0.052,0 -0.092,0.019 -0.12,0.057 -0.029,0.038 -0.043,0.092 -0.043,0.161 0,0.07 0.014,0.123 0.043,0.161 0.028,0.039 0.068,0.058 0.12,0.058 0.052,0 0.092,-0.019 0.121,-0.058 0.028,-0.038 0.043,-0.091 0.043,-0.161 0,-0.069 -0.015,-0.123 -0.043,-0.161 -0.029,-0.038 -0.069,-0.057 -0.121,-0.057 m 0,-0.123 c 0.106,0 0.189,0.03 0.249,0.091 0.06,0.06 0.09,0.144 0.09,0.25 0,0.107 -0.03,0.19 -0.09,0.251 -0.06,0.06 -0.143,0.091 -0.249,0.091 -0.106,0 -0.188,-0.031 -0.249,-0.091 -0.06,-0.061 -0.09,-0.144 -0.09,-0.251 0,-0.106 0.03,-0.19 0.09,-0.25 0.061,-0.061 0.143,-0.091 0.249,-0.091 m 0.466,0.012 h 0.19 l 0.239,0.451 v -0.451 h 0.161 v 0.658 h -0.189 l -0.24,-0.452 v 0.452 h -0.161 v -0.658 m 0.663,0 h 0.186 l 0.15,0.234 0.15,-0.234 h 0.186 l -0.251,0.381 v 0.277 h -0.17 v -0.277 l -0.251,-0.381"
             style="fill:#4a4a4a"
             id="path2914"
             inkscape:connector-curvature="0" />
        </g>
      </g>
      <g
         transform="matrix(0.77934,0,0,0.77934,-6.0309,20.349)"
         id="g3953">
        <g
           transform="translate(7.1658,-12.941)"
           id="g3955">
          <g
             id="g400">
            <ellipse
               id="path3957"
               style="color:#000000;fill:url(#radialGradient502);fill-rule:evenodd"
               transform="matrix(1,0,0,1.3689,-1.9786,-13.617)"
               cx="24.218407"
               cy="35.051105"
               rx="16.882174"
               ry="4.552" />
            <ellipse
               id="path3959"
               style="color:#000000;fill:#adb0aa;fill-rule:evenodd;stroke:#4b4d4a;stroke-width:1.28310001"
               transform="translate(57.533,3.2034)"
               cx="-35.658386"
               cy="29.716238"
               rx="9.3944187"
               ry="3.939595" />
            <ellipse
               id="path3961"
               style="color:#000000;fill:none;stroke:#7b7f7a;stroke-width:1.28310001"
               transform="matrix(0.94027,0,0,0.94027,55.404,4.2712)"
               cx="-35.658386"
               cy="29.716238"
               rx="9.3944187"
               ry="3.939595" />
            <ellipse
               id="path3963"
               style="color:#000000;fill:none;stroke:url(#linearGradient3911);stroke-width:0.87336999"
               transform="matrix(0.94027,0,0,0.94027,55.404,3.5212)"
               cx="-35.658386"
               cy="29.716238"
               rx="9.3944187"
               ry="3.939595" />
            <path
               id="path3965"
               sodipodi:nodetypes="ccccccccccccccccc"
               style="fill:#d0d0d0;fill-rule:evenodd;stroke:#979797;stroke-width:0.51326001;stroke-linejoin:round"
               d="m 25.688,28.766 -0.063,1 c 0,0 4.324,3.599 9,4.203 2.338,0.301 4.754,0.702 6.75,1.187 1.996,0.485 3.588,1.12 4.125,1.656 0.31,0.311 0.451,0.574 0.5,0.782 0.049,0.207 0.038,0.355 -0.094,0.562 -0.264,0.416 -1.08,0.968 -2.468,1.406 C 40.66,40.44 35.717,41 28.875,41 v 1 c 6.896,0 11.864,-0.528 14.844,-1.469 1.49,-0.47 2.525,-1.015 3.031,-1.812 C 47.003,38.32 47.107,37.83 47,37.375 46.893,36.92 46.615,36.49 46.219,36.094 45.341,35.216 43.682,34.687 41.625,34.188 39.568,33.688 37.109,33.273 34.75,32.969 30.031,32.36 25.688,28.766 25.688,28.766 Z"
               inkscape:connector-curvature="0" />
            <ellipse
               id="path3967"
               style="color:#000000;fill:url(#radialGradient504);fill-rule:evenodd"
               transform="matrix(1,0,0,1.3689,-1.9786,-19.021)"
               cx="24.218407"
               cy="35.051105"
               rx="16.882174"
               ry="4.552" />
            <rect
               id="rect3969"
               style="color:#000000;fill:url(#linearGradient3915);fill-rule:evenodd"
               height="2.74"
               width="9.0396996"
               y="30.704"
               x="17.472" />
            <path
               id="path3971"
               sodipodi:nodetypes="cssssssss"
               style="color:#000000;fill:url(#linearGradient3917);fill-rule:evenodd;stroke:url(#linearGradient3919);stroke-width:1.28310001"
               d="m 7.0809,1.6956 h 29.588 c 0.911,0 1.624,0.5835 1.667,1.4016 l 1.332,25.578 c 0.058,1.118 -0.901,2.021 -2.02,2.021 H 6.1019 c -1.1188,0 -2.0781,-0.903 -2.0199,-2.021 L 5.4141,3.0972 C 5.4543,2.3239 5.9616,1.6958 7.0808,1.6958 Z"
               inkscape:connector-curvature="0" />
            <path
               id="path3973"
               sodipodi:nodetypes="ccccc"
               style="color:#000000;fill:url(#linearGradient506);fill-rule:evenodd;stroke:#4263a8;stroke-width:0.64156997;stroke-linejoin:round"
               d="m 8.4105,4.3058 -1.2422,22.045 h 27.651 L 33.4843,4.3988 8.4103,4.3056 Z"
               inkscape:connector-curvature="0" />
            <path
               id="path3975"
               style="fill:none;stroke:url(#linearGradient3923);stroke-width:1.27820003;stroke-linecap:round;stroke-opacity:0.24841003"
               d="m 6.1774,28.736 h 31.429"
               inkscape:connector-curvature="0" />
            <path
               id="path3977"
               sodipodi:nodetypes="cssssssss"
               style="color:#000000;fill:none;stroke:url(#linearGradient3925);stroke-width:1.28310001;stroke-opacity:0.70064003"
               d="m 6.9146,2.7063 29.845,-0.0378 c 0.284,-3e-4 0.559,0.2373 0.582,0.6526 l 1.362,24.803 c 0.058,1.057 -0.54,1.786 -1.598,1.786 H 6.5816 c -1.0589,0 -1.5933,-0.729 -1.5361,-1.786 L 6.3696,3.6301 C 6.4083,2.9144 6.536,2.7069 6.9142,2.7064 Z"
               inkscape:connector-curvature="0" />
            <path
               id="path3979"
               sodipodi:nodetypes="ccccc"
               style="opacity:0.53142999;fill:url(#linearGradient3927);fill-rule:evenodd"
               d="M 8.7115,4.7464 7.909,22.6174 C 18.954,20.2164 19.33,12.1244 33.063,9.4704 L 32.902,4.8128 8.712,4.7468 Z"
               inkscape:connector-curvature="0" />
            <ellipse
               id="path3981"
               style="color:#000000;fill:url(#radialGradient3909);fill-rule:evenodd"
               transform="matrix(1.2644,0,0,1.2913,-6.2163,-4.0004)"
               cx="24.218407"
               cy="35.051105"
               rx="16.882174"
               ry="4.552" />
            <path
               id="path3983"
               sodipodi:nodetypes="cssssssss"
               style="color:#000000;fill:url(#linearGradient4033);fill-rule:evenodd;stroke:url(#linearGradient4035);stroke-width:1.28310001"
               d="m 6.4622,36.265 h 31.003 c 1.119,0 0.977,0.286 1.092,0.646 l 2.834,8.877 c 0.115,0.36 0.027,0.646 -1.092,0.646 H 3.6272 c -1.1187,0 -1.2066,-0.286 -1.0917,-0.646 L 5.3702,36.911 C 5.485,36.551 5.3431,36.265 6.4624,36.265 Z"
               inkscape:connector-curvature="0" />
            <path
               id="path3985"
               sodipodi:nodetypes="ccccccccc"
               style="fill:#7a7d77;fill-rule:evenodd"
               d="m 6.3917,38.829 -1.7678,5.127 h 5.4801 l 0.53,-2.033 h 14.85 l 0.549,2.075 h 6.168 L 30.522,38.829 H 6.392 Z"
               inkscape:connector-curvature="0" />
            <path
               id="path3987"
               style="fill:#777874;fill-rule:evenodd"
               d="m 11.076,42.276 -0.442,1.68 h 14.761 l -0.442,-1.768 z"
               inkscape:connector-curvature="0" />
            <path
               id="path3989"
               style="color:#000000;fill:#777a75;fill-rule:evenodd"
               d="m 37.593,38.829 1.679,5.038 -5.48,-0.088 -1.503,-4.861 z"
               inkscape:connector-curvature="0" />
            <path
               id="path3991"
               style="color:#000000;fill:url(#linearGradient508);fill-rule:evenodd"
               d="m 37.593,38.299 1.679,5.038 -5.48,-0.088 -1.503,-4.862 z"
               inkscape:connector-curvature="0" />
            <path
               id="path3993"
               sodipodi:nodetypes="ccccccccc"
               style="fill:url(#linearGradient510);fill-rule:evenodd"
               d="m 6.3917,38.21 -1.7678,5.127 h 5.4801 l 0.53,-2.033 h 14.85 l 0.549,2.075 h 6.168 L 30.522,38.21 H 6.392 Z"
               inkscape:connector-curvature="0" />
            <path
               id="path3995"
               style="color:#000000;fill:url(#linearGradient3935);fill-rule:evenodd"
               d="m 11.076,41.746 -0.442,1.679 h 14.761 l -0.442,-1.767 z"
               inkscape:connector-curvature="0" />
            <path
               id="path3997"
               sodipodi:nodetypes="ccccc"
               style="color:#000000;fill:none;stroke:url(#linearGradient4043);stroke-width:0.64156997;stroke-linejoin:round"
               d="m 6.231,37.321 h 31.463 l 2.607,8.222 H 3.465 Z"
               inkscape:connector-curvature="0" />
            <circle
               id="path3999"
               style="color:#000000;fill:url(#linearGradient512);fill-rule:evenodd"
               transform="matrix(1.3312,0,0,0.65845,-10.419,2.8539)"
               cx="34.780815"
               cy="3.9384086"
               r="0.83968931" />
            <circle
               id="path4001"
               style="color:#000000;fill:url(#linearGradient514);fill-rule:evenodd"
               transform="matrix(1.3312,0,0,0.65845,-10.306,4.9597)"
               cx="34.780815"
               cy="3.9384086"
               r="0.83968931" />
            <circle
               id="path4003"
               style="color:#000000;fill:url(#linearGradient516);fill-rule:evenodd"
               transform="matrix(1.3312,0,0,0.65845,-10.192,6.9597)"
               cx="34.780815"
               cy="3.9384086"
               r="0.83968931" />
            <circle
               id="path4005"
               style="color:#000000;fill:url(#linearGradient518);fill-rule:evenodd"
               transform="matrix(1.3312,0,0,0.65845,-10.079,8.9597)"
               cx="34.780815"
               cy="3.9384086"
               r="0.83968931" />
            <circle
               id="path4007"
               style="color:#000000;fill:url(#linearGradient3943);fill-rule:evenodd"
               transform="matrix(1.3312,0,0,0.65845,-9.9649,10.96)"
               cx="34.780815"
               cy="3.9384086"
               r="0.83968931" />
          </g>
        </g>
      </g>
    </g>
  </g>
  <metadata
     id="metadata188">
    <rdf:RDF>
      <cc:Work>
        <dc:format>image/svg+xml</dc:format>
        <dc:type
           rdf:resource="http://purl.org/dc/dcmitype/StillImage" />
        <cc:license
           rdf:resource="http://creativecommons.org/licenses/publicdomain/" />
        <dc:publisher>
          <cc:Agent
             rdf:about="http://openclipart.org/">
            <dc:title>Openclipart</dc:title>
          </cc:Agent>
        </dc:publisher>
        <dc:title>tango network transmit receive</dc:title>
        <dc:date>2010-04-03T15:32:28</dc:date>
        <dc:description>An icon from Tango Project. Since version 0.8.90 Tango Project icons are Public Domain.</dc:description>
        <dc:source>https://openclipart.org/detail/36709/tango-network-transmit-receive-by-warszawianka</dc:source>
        <dc:creator>
          <cc:Agent>
            <dc:title>warszawianka</dc:title>
          </cc:Agent>
        </dc:creator>
        <dc:subject>
          <rdf:Bag>
            <rdf:li>externalsource</rdf:li>
            <rdf:li>icon</rdf:li>
            <rdf:li>network</rdf:li>
            <rdf:li>tango</rdf:li>
          </rdf:Bag>
        </dc:subject>
      </cc:Work>
      <cc:License
         rdf:about="http://creativecommons.org/licenses/publicdomain/">
        <cc:permits
           rdf:resource="http://creativecommons.org/ns#Reproduction" />
        <cc:permits
           rdf:resource="http://creativecommons.org/ns#Distribution" />
        <cc:permits
           rdf:resource="http://creativecommons.org/ns#DerivativeWorks" />
      </cc:License>
    </rdf:RDF>
  </metadata>
</svg>
