<?xml version="1.0" encoding="UTF-8" standalone="no"?>
<svg
   xmlns:dc="http://purl.org/dc/elements/1.1/"
   xmlns:cc="http://creativecommons.org/ns#"
   xmlns:rdf="http://www.w3.org/1999/02/22-rdf-syntax-ns#"
   xmlns:svg="http://www.w3.org/2000/svg"
   xmlns="http://www.w3.org/2000/svg"
   xmlns:sodipodi="http://sodipodi.sourceforge.net/DTD/sodipodi-0.dtd"
   xmlns:inkscape="http://www.inkscape.org/namespaces/inkscape"
   id="svg4367"
   viewBox="0 0 292.96795 200"
   version="1.1"
   sodipodi:docname="pcb.svg"
   inkscape:version="0.92.2 (5c3e80d, 2017-08-06)"
   width="292.96796"
   height="200">
  <defs
     id="defs95" />
  <sodipodi:namedview
     pagecolor="#ffffff"
     bordercolor="#666666"
     borderopacity="1"
     objecttolerance="10"
     gridtolerance="10"
     guidetolerance="10"
     inkscape:pageopacity="0"
     inkscape:pageshadow="2"
     inkscape:window-width="856"
     inkscape:window-height="481"
     id="namedview93"
     showgrid="false"
     inkscape:zoom="1.495"
     inkscape:cx="146.48398"
     inkscape:cy="99.999996"
     inkscape:window-x="1000"
     inkscape:window-y="459"
     inkscape:window-maximized="0"
     inkscape:current-layer="svg4367" />
  <g
     id="g254"
     transform="translate(-3.069,-307.76993)">
    <path
       style="fill:#ffffff;stroke:#000000;stroke-width:0.8229472;stroke-linejoin:round"
       inkscape:connector-curvature="0"
       d="m 3.4804736,397.08356 v -3.29179 L 205.10254,504.0667 v 3.29179 z"
       id="path4034" />
    <path
       style="fill:#ffffff;stroke:#000000;stroke-width:0.8229472;stroke-linejoin:round"
       inkscape:connector-curvature="0"
       d="m 205.1013,507.35849 90.52419,-99.98809 v -3.29179 L 205.1013,504.0667 Z"
       id="path4036" />
    <path
       style="fill:#009300;stroke:#000000;stroke-width:0.61721039;stroke-linejoin:round"
       inkscape:connector-curvature="0"
       d="M 3.4804736,393.79177 101.82266,311.90853 295.62673,404.07861 205.10254,504.0667 Z"
       id="path4032" />
    <g
       transform="matrix(0.4114736,0,0,0.4114736,-4.8160685,216.9898)"
       id="layer8">
      <g
         id="g4657">
        <g
           id="g3850">
          <g
             style="stroke:#000000;stroke-linejoin:round"
             id="g3876"
             transform="translate(756.16,189.68)">
            <path
               style="fill:#ffffff;stroke-width:1.5"
               inkscape:connector-curvature="0"
               id="path3828"
               d="m -541.57,327.17 84.109,46.846 50.75,-48.975 -81.876,-43.817 z" />
            <path
               style="fill:#ffffff;stroke-width:2"
               inkscape:connector-curvature="0"
               id="path3830"
               d="m -457.46,374.01 v 18.335 h -14.627 l -55.629,-30.425 -14.133,-15.73 0.27901,-19.025 z" />
            <path
               style="fill:#ffffff;stroke-width:2"
               inkscape:connector-curvature="0"
               id="path3832"
               d="m -457.46,392.35 50.671,-45.717 0.0781,-21.593 -50.75,48.975 z" />
            <path
               style="stroke-width:1px"
               inkscape:connector-curvature="0"
               id="path3834"
               d="m -534.52,337.09 69.763,39.148 -0.31695,11.94 -5.4548,0.35589 -53.452,-29.361 -10.791,-12.045 z" />
          </g>
          <g
             style="fill:#ffffff;stroke:#000000;stroke-linejoin:bevel"
             id="g3882"
             transform="translate(756.16,189.68)">
            <path
               style="stroke-width:1.5"
               inkscape:connector-curvature="0"
               id="path3862"
               d="m -454.46,246.5 67.003,35.383 v 9.536 l -67.254,-36.638 z" />
            <path
               inkscape:connector-curvature="0"
               id="path3864"
               d="m -454.46,246.5 50.189,-46.425 65.246,34.129 -48.433,47.68 z" />
            <path
               style="stroke-width:1.5"
               inkscape:connector-curvature="0"
               id="path3866"
               d="m -387.46,291.42 48.362,-47.478 0.0705,-9.7378 -48.433,47.68 z" />
          </g>
          <g
             style="fill:#ffffff;stroke:#000000"
             id="g4024"
             transform="translate(756.16,189.68)">
            <path
               style="stroke-width:2"
               inkscape:connector-curvature="0"
               id="path3905"
               d="m -617.87,213.78 v 37.733 c -2.0806,10.749 -12.014,13.139 -22.003,13.308 -8.7698,0.14851 -21.733,-2.5784 -21.904,-14.581 0,0 -0.0993,-32.786 -0.0993,-36.461 0,-7.35 9.8512,-13.308 22.003,-13.308 12.1518,0 22.003,5.9584 22.003,13.308 z" />
            <path
               style="stroke-width:1.5"
               inkscape:connector-curvature="0"
               id="path3905-7"
               transform="translate(-0.70978,-3.1062)"
               d="m -617.16,216.62 c 0,7.35 -9.8512,13.308 -22.003,13.308 -12.1518,0 -22.003,-5.9584 -22.003,-13.308 0,-7.35 9.8512,-13.308 22.003,-13.308 12.1518,0 22.003,5.9584 22.003,13.308 z" />
          </g>
          <g
             style="fill:#ffffff;stroke:#000000"
             id="g3958"
             transform="translate(756.16,189.68)">
            <path
               style="stroke-width:1.5;stroke-linejoin:round"
               inkscape:connector-curvature="0"
               id="path3932"
               d="m -618.33,265.07 23.883,-20.884 33.082,16.116 -23.338,21.33 z" />
            <path
               style="stroke-width:2;stroke-linejoin:round"
               inkscape:connector-curvature="0"
               id="path3934"
               d="m -584.71,281.63 0.19831,8.4449 23.068,-20.406 0.0717,-9.369 z" />
            <path
               style="stroke-width:2;stroke-linejoin:round"
               inkscape:connector-curvature="0"
               id="path3936"
               d="m -584.71,281.63 0.19831,8.4449 -33.892,-15.97 0.067,-9.0372 z" />
            <path
               style="stroke-width:1px"
               inkscape:connector-curvature="0"
               id="path3938"
               d="m -614.07,271.47 -0.54646,1.2119 -0.20199,3.1152 -4.2705,3.4522 2.133,1.0038 3.6387,-2.9486 0.75517,-0.44408 0.24862,-4.3866 z" />
            <path
               style="stroke-width:1px"
               inkscape:connector-curvature="0"
               id="path3938-4"
               d="m -592.31,282.22 -0.54646,1.2119 -0.20199,3.1152 -4.2705,3.4522 2.133,1.0038 3.6387,-2.9486 0.75517,-0.44408 0.24862,-4.3866 z" />
          </g>
          <g
             style="fill:#ffffff;stroke:#000000;stroke-linejoin:round"
             id="g4188"
             transform="translate(756.16,189.68)">
            <path
               style="stroke-width:2"
               inkscape:connector-curvature="0"
               id="path4043"
               d="m -512.36,65.679 165.99,79.073 0.35489,-23.778 -166.09,-77.366 z" />
            <path
               style="stroke-width:1.5"
               inkscape:connector-curvature="0"
               id="path4045"
               d="m -512.11,43.607 15.737,-11.915 166.13,77.041 -15.774,12.241 z" />
            <path
               style="stroke-width:2"
               inkscape:connector-curvature="0"
               id="path4047"
               d="m -330.25,108.73 v 23.338 l -16.129,12.681 0.35489,-23.778 z" />
            <path
               inkscape:connector-curvature="0"
               id="path4051"
               transform="matrix(0.77333,0.23576,-0.27228,0.66959,-99.472,126.95)"
               d="m -488.07,43.487 c 0,1.1088 -1.4721,2.0076 -3.288,2.0076 -1.8159,0 -3.288,-0.89882 -3.288,-2.0076 0,-1.10878 1.4721,-2.0076 3.288,-2.0076 1.8159,0 3.288,0.89882 3.288,2.0076 z" />
            <path
               inkscape:connector-curvature="0"
               id="path4051-4"
               transform="matrix(0.77333,0.23576,-0.27228,0.66959,-104.68,131.09)"
               d="m -488.07,43.487 c 0,1.1088 -1.4721,2.0076 -3.288,2.0076 -1.8159,0 -3.288,-0.89882 -3.288,-2.0076 0,-1.10878 1.4721,-2.0076 3.288,-2.0076 1.8159,0 3.288,0.89882 3.288,2.0076 z" />
            <path
               inkscape:connector-curvature="0"
               id="path4051-8"
               transform="matrix(0.77333,0.23576,-0.27228,0.66959,-87.026,132.8)"
               d="m -488.07,43.487 c 0,1.1088 -1.4721,2.0076 -3.288,2.0076 -1.8159,0 -3.288,-0.89882 -3.288,-2.0076 0,-1.10878 1.4721,-2.0076 3.288,-2.0076 1.8159,0 3.288,0.89882 3.288,2.0076 z" />
            <path
               inkscape:connector-curvature="0"
               id="path4051-4-8"
               transform="matrix(0.77333,0.23576,-0.27228,0.66959,-92.234,136.94)"
               d="m -488.07,43.487 c 0,1.1088 -1.4721,2.0076 -3.288,2.0076 -1.8159,0 -3.288,-0.89882 -3.288,-2.0076 0,-1.10878 1.4721,-2.0076 3.288,-2.0076 1.8159,0 3.288,0.89882 3.288,2.0076 z" />
            <path
               inkscape:connector-curvature="0"
               id="path4051-2"
               transform="matrix(0.77333,0.23576,-0.27228,0.66959,-75.026,138.8)"
               d="m -488.07,43.487 c 0,1.1088 -1.4721,2.0076 -3.288,2.0076 -1.8159,0 -3.288,-0.89882 -3.288,-2.0076 0,-1.10878 1.4721,-2.0076 3.288,-2.0076 1.8159,0 3.288,0.89882 3.288,2.0076 z" />
            <path
               inkscape:connector-curvature="0"
               id="path4051-4-4"
               transform="matrix(0.77333,0.23576,-0.27228,0.66959,-80.234,142.94)"
               d="m -488.07,43.487 c 0,1.1088 -1.4721,2.0076 -3.288,2.0076 -1.8159,0 -3.288,-0.89882 -3.288,-2.0076 0,-1.10878 1.4721,-2.0076 3.288,-2.0076 1.8159,0 3.288,0.89882 3.288,2.0076 z" />
            <path
               inkscape:connector-curvature="0"
               id="path4051-5"
               transform="matrix(0.77333,0.23576,-0.27228,0.66959,-61.026,144.8)"
               d="m -488.07,43.487 c 0,1.1088 -1.4721,2.0076 -3.288,2.0076 -1.8159,0 -3.288,-0.89882 -3.288,-2.0076 0,-1.10878 1.4721,-2.0076 3.288,-2.0076 1.8159,0 3.288,0.89882 3.288,2.0076 z" />
            <path
               inkscape:connector-curvature="0"
               id="path4051-4-5"
               transform="matrix(0.77333,0.23576,-0.27228,0.66959,-66.234,148.94)"
               d="m -488.07,43.487 c 0,1.1088 -1.4721,2.0076 -3.288,2.0076 -1.8159,0 -3.288,-0.89882 -3.288,-2.0076 0,-1.10878 1.4721,-2.0076 3.288,-2.0076 1.8159,0 3.288,0.89882 3.288,2.0076 z" />
            <path
               inkscape:connector-curvature="0"
               id="path4051-1"
               transform="matrix(0.77333,0.23576,-0.27228,0.66959,-47.026,150.8)"
               d="m -488.07,43.487 c 0,1.1088 -1.4721,2.0076 -3.288,2.0076 -1.8159,0 -3.288,-0.89882 -3.288,-2.0076 0,-1.10878 1.4721,-2.0076 3.288,-2.0076 1.8159,0 3.288,0.89882 3.288,2.0076 z" />
            <path
               inkscape:connector-curvature="0"
               id="path4051-4-7"
               transform="matrix(0.77333,0.23576,-0.27228,0.66959,-52.234,154.94)"
               d="m -488.07,43.487 c 0,1.1088 -1.4721,2.0076 -3.288,2.0076 -1.8159,0 -3.288,-0.89882 -3.288,-2.0076 0,-1.10878 1.4721,-2.0076 3.288,-2.0076 1.8159,0 3.288,0.89882 3.288,2.0076 z" />
            <path
               inkscape:connector-curvature="0"
               id="path4051-11"
               transform="matrix(0.77333,0.23576,-0.27228,0.66959,-34.498,156.33)"
               d="m -488.07,43.487 c 0,1.1088 -1.4721,2.0076 -3.288,2.0076 -1.8159,0 -3.288,-0.89882 -3.288,-2.0076 0,-1.10878 1.4721,-2.0076 3.288,-2.0076 1.8159,0 3.288,0.89882 3.288,2.0076 z" />
            <path
               inkscape:connector-curvature="0"
               id="path4051-4-52"
               transform="matrix(0.77333,0.23576,-0.27228,0.66959,-39.705,160.47)"
               d="m -488.07,43.487 c 0,1.1088 -1.4721,2.0076 -3.288,2.0076 -1.8159,0 -3.288,-0.89882 -3.288,-2.0076 0,-1.10878 1.4721,-2.0076 3.288,-2.0076 1.8159,0 3.288,0.89882 3.288,2.0076 z" />
            <path
               inkscape:connector-curvature="0"
               id="path4051-7"
               transform="matrix(0.77333,0.23576,-0.27228,0.66959,-22.498,162.33)"
               d="m -488.07,43.487 c 0,1.1088 -1.4721,2.0076 -3.288,2.0076 -1.8159,0 -3.288,-0.89882 -3.288,-2.0076 0,-1.10878 1.4721,-2.0076 3.288,-2.0076 1.8159,0 3.288,0.89882 3.288,2.0076 z" />
            <path
               inkscape:connector-curvature="0"
               id="path4051-4-6"
               transform="matrix(0.77333,0.23576,-0.27228,0.66959,-27.705,166.47)"
               d="m -488.07,43.487 c 0,1.1088 -1.4721,2.0076 -3.288,2.0076 -1.8159,0 -3.288,-0.89882 -3.288,-2.0076 0,-1.10878 1.4721,-2.0076 3.288,-2.0076 1.8159,0 3.288,0.89882 3.288,2.0076 z" />
            <path
               inkscape:connector-curvature="0"
               id="path4051-14"
               transform="matrix(0.77333,0.23576,-0.27228,0.66959,-10.498,168.33)"
               d="m -488.07,43.487 c 0,1.1088 -1.4721,2.0076 -3.288,2.0076 -1.8159,0 -3.288,-0.89882 -3.288,-2.0076 0,-1.10878 1.4721,-2.0076 3.288,-2.0076 1.8159,0 3.288,0.89882 3.288,2.0076 z" />
            <path
               inkscape:connector-curvature="0"
               id="path4051-4-2"
               transform="matrix(0.77333,0.23576,-0.27228,0.66959,-15.705,172.47)"
               d="m -488.07,43.487 c 0,1.1088 -1.4721,2.0076 -3.288,2.0076 -1.8159,0 -3.288,-0.89882 -3.288,-2.0076 0,-1.10878 1.4721,-2.0076 3.288,-2.0076 1.8159,0 3.288,0.89882 3.288,2.0076 z" />
            <path
               inkscape:connector-curvature="0"
               id="path4051-3"
               transform="matrix(0.77333,0.23576,-0.27228,0.66959,1.5019,174.33)"
               d="m -488.07,43.487 c 0,1.1088 -1.4721,2.0076 -3.288,2.0076 -1.8159,0 -3.288,-0.89882 -3.288,-2.0076 0,-1.10878 1.4721,-2.0076 3.288,-2.0076 1.8159,0 3.288,0.89882 3.288,2.0076 z" />
            <path
               inkscape:connector-curvature="0"
               id="path4051-4-22"
               transform="matrix(0.77333,0.23576,-0.27228,0.66959,-3.7052,178.47)"
               d="m -488.07,43.487 c 0,1.1088 -1.4721,2.0076 -3.288,2.0076 -1.8159,0 -3.288,-0.89882 -3.288,-2.0076 0,-1.10878 1.4721,-2.0076 3.288,-2.0076 1.8159,0 3.288,0.89882 3.288,2.0076 z" />
            <path
               inkscape:connector-curvature="0"
               id="path4051-16"
               transform="matrix(0.77333,0.23576,-0.27228,0.66959,13.502,180.33)"
               d="m -488.07,43.487 c 0,1.1088 -1.4721,2.0076 -3.288,2.0076 -1.8159,0 -3.288,-0.89882 -3.288,-2.0076 0,-1.10878 1.4721,-2.0076 3.288,-2.0076 1.8159,0 3.288,0.89882 3.288,2.0076 z" />
            <path
               inkscape:connector-curvature="0"
               id="path4051-4-85"
               transform="matrix(0.77333,0.23576,-0.27228,0.66959,8.2948,184.47)"
               d="m -488.07,43.487 c 0,1.1088 -1.4721,2.0076 -3.288,2.0076 -1.8159,0 -3.288,-0.89882 -3.288,-2.0076 0,-1.10878 1.4721,-2.0076 3.288,-2.0076 1.8159,0 3.288,0.89882 3.288,2.0076 z" />
            <path
               inkscape:connector-curvature="0"
               id="path4051-76"
               transform="matrix(0.77333,0.23576,-0.27228,0.66959,27.502,186.33)"
               d="m -488.07,43.487 c 0,1.1088 -1.4721,2.0076 -3.288,2.0076 -1.8159,0 -3.288,-0.89882 -3.288,-2.0076 0,-1.10878 1.4721,-2.0076 3.288,-2.0076 1.8159,0 3.288,0.89882 3.288,2.0076 z" />
            <path
               inkscape:connector-curvature="0"
               id="path4051-4-1"
               transform="matrix(0.77333,0.23576,-0.27228,0.66959,22.295,190.47)"
               d="m -488.07,43.487 c 0,1.1088 -1.4721,2.0076 -3.288,2.0076 -1.8159,0 -3.288,-0.89882 -3.288,-2.0076 0,-1.10878 1.4721,-2.0076 3.288,-2.0076 1.8159,0 3.288,0.89882 3.288,2.0076 z" />
            <path
               inkscape:connector-curvature="0"
               id="path4051-89"
               transform="matrix(0.77333,0.23576,-0.27228,0.66959,41.502,192.33)"
               d="m -488.07,43.487 c 0,1.1088 -1.4721,2.0076 -3.288,2.0076 -1.8159,0 -3.288,-0.89882 -3.288,-2.0076 0,-1.10878 1.4721,-2.0076 3.288,-2.0076 1.8159,0 3.288,0.89882 3.288,2.0076 z" />
            <path
               inkscape:connector-curvature="0"
               id="path4051-4-27"
               transform="matrix(0.77333,0.23576,-0.27228,0.66959,36.295,196.47)"
               d="m -488.07,43.487 c 0,1.1088 -1.4721,2.0076 -3.288,2.0076 -1.8159,0 -3.288,-0.89882 -3.288,-2.0076 0,-1.10878 1.4721,-2.0076 3.288,-2.0076 1.8159,0 3.288,0.89882 3.288,2.0076 z" />
          </g>
          <g
             style="stroke:#000000;stroke-linejoin:round"
             id="g3898"
             transform="translate(756.16,189.68)">
            <path
               style="fill:#ffffff;stroke-width:2"
               inkscape:connector-curvature="0"
               id="path3785"
               d="m -102.39,408.61 v -75.284 l -103.39,-49.687 v 72.774 z" />
            <path
               style="fill:#ffffff;stroke-width:1.5"
               inkscape:connector-curvature="0"
               id="path3787"
               d="m -205.78,283.64 53.201,-53.201 101.28,47.342 -51.094,55.546 z" />
            <path
               style="fill:#ffffff;stroke-width:2"
               inkscape:connector-curvature="0"
               id="path3789"
               d="m -102.39,408.61 51.282,-57.848 -0.18798,-72.982 -51.094,55.546 z" />
            <path
               style="stroke-width:1px"
               inkscape:connector-curvature="0"
               id="path3791"
               d="m -96.885,357.51 0.34451,-14.594 40.191,-44.392 v 14.447 z" />
            <path
               style="stroke-width:1px"
               inkscape:connector-curvature="0"
               id="path3791-1"
               d="m -96.873,388.64 0.34451,-14.594 40.191,-44.392 v 14.447 z" />
          </g>
          <g
             style="stroke:#000000;stroke-linejoin:round"
             id="g3887"
             transform="translate(756.16,189.68)">
            <path
               style="fill:#ffffff;stroke-width:1.5"
               inkscape:connector-curvature="0"
               id="path3003"
               d="m -366.7,354.66 69.559,-67.429 128.47,63.171 -67.429,73.818 z" />
            <path
               style="fill:#ffffff;stroke-width:2"
               inkscape:connector-curvature="0"
               id="path3005"
               d="m -366.62,423.7 -0.0819,-69.046 130.6,69.559 v 71.76 z" />
            <path
               style="fill:#ffffff;stroke-width:2"
               inkscape:connector-curvature="0"
               id="path3007"
               d="m -236.1,495.97 67.729,-74.782 -0.2999,-70.795 -67.429,73.818 z" />
            <path
               style="stroke-width:1px"
               inkscape:connector-curvature="0"
               id="path3009"
               d="m -228.35,430.48 v 35.383 l 13.049,-14.555 v 10.364 l 5.1819,-5.1819 v 10.796 l 20.568,-22.71 -0.26187,-11.058 3.1438,-3.4724 v -9.1032 l 9.2687,-9.5435 -0.25095,-34.631 z" />
          </g>
        </g>
      </g>
    </g>
  </g>
  <metadata
     id="metadata90">
    <rdf:RDF>
      <cc:Work>
        <dc:format>image/svg+xml</dc:format>
        <dc:type
           rdf:resource="http://purl.org/dc/dcmitype/StillImage" />
        <cc:license
           rdf:resource="http://creativecommons.org/licenses/publicdomain/" />
        <dc:publisher>
          <cc:Agent
             rdf:about="http://openclipart.org/">
            <dc:title>Openclipart</dc:title>
          </cc:Agent>
        </dc:publisher>
        <dc:title>looks like raspberry pi printed circuit board</dc:title>
        <dc:date>2013-10-11T20:32:48</dc:date>
        <dc:description>Any similarity to Raspberry pi is not intended ;-)</dc:description>
        <dc:source>https://openclipart.org/detail/184791/looks-like-raspberry-pi-printed-circuit-board-by-mawoki-184791</dc:source>
        <dc:creator>
          <cc:Agent>
            <dc:title>mawoki</dc:title>
          </cc:Agent>
        </dc:creator>
        <dc:subject>
          <rdf:Bag>
            <rdf:li>electronic components</rdf:li>
            <rdf:li>pcb</rdf:li>
            <rdf:li>pi</rdf:li>
            <rdf:li>printed circuit board</rdf:li>
            <rdf:li>raspberry</rdf:li>
            <rdf:li>raspberry pi</rdf:li>
          </rdf:Bag>
        </dc:subject>
      </cc:Work>
      <cc:License
         rdf:about="http://creativecommons.org/licenses/publicdomain/">
        <cc:permits
           rdf:resource="http://creativecommons.org/ns#Reproduction" />
        <cc:permits
           rdf:resource="http://creativecommons.org/ns#Distribution" />
        <cc:permits
           rdf:resource="http://creativecommons.org/ns#DerivativeWorks" />
      </cc:License>
    </rdf:RDF>
  </metadata>
</svg>
