G04 Layer_Physical_Order=1*
G04 Layer_Color=255*
%FSLAX25Y25*%
%MOIN*%
G70*
G01*
G75*
%ADD10R,0.03937X0.09449*%
%ADD11R,0.12992X0.09449*%
%ADD12R,0.08858X0.03937*%
%ADD13R,0.08268X0.06299*%
%ADD14R,0.01575X0.05315*%
%ADD15R,0.07087X0.07480*%
%ADD16C,0.02000*%
%ADD17C,0.01500*%
%ADD18C,0.05512*%
%ADD19C,0.06000*%
%ADD20C,0.04724*%
%ADD21R,0.05906X0.05906*%
%ADD22C,0.05906*%
%ADD23O,0.07874X0.03937*%
%ADD24O,0.07874X0.03937*%
%ADD25R,0.05906X0.05906*%
%ADD26C,0.07087*%
%ADD27C,0.05000*%
D10*
X45945Y10165D02*
D03*
X55000D02*
D03*
X64055D02*
D03*
D11*
X55000Y33000D02*
D03*
D12*
X83961Y123382D02*
D03*
Y131256D02*
D03*
Y139130D02*
D03*
Y147004D02*
D03*
Y154878D02*
D03*
Y162752D02*
D03*
Y170626D02*
D03*
Y178500D02*
D03*
X144000D02*
D03*
Y170626D02*
D03*
Y162752D02*
D03*
Y154878D02*
D03*
Y147004D02*
D03*
Y139130D02*
D03*
Y131256D02*
D03*
Y123382D02*
D03*
D13*
X86169Y19736D02*
D03*
X110382D02*
D03*
D14*
X93158Y20228D02*
D03*
X95717D02*
D03*
X98276D02*
D03*
X100835D02*
D03*
X103394D02*
D03*
D15*
X93551Y9500D02*
D03*
X103000D02*
D03*
X113039D02*
D03*
X83512D02*
D03*
D16*
X106500Y31000D02*
Y41157D01*
X103394Y27894D02*
X106500Y31000D01*
X103394Y20228D02*
Y27894D01*
X43500Y52500D02*
X67500D01*
X25000Y34000D02*
X43500Y52500D01*
X25000Y32000D02*
Y34000D01*
Y32000D02*
X33000Y24000D01*
Y19500D02*
Y24000D01*
Y19500D02*
X42335Y10165D01*
X45945D01*
X92929Y20228D02*
Y25071D01*
X89500Y28500D02*
X92929Y25071D01*
X76500Y28500D02*
X89500D01*
X73500Y25500D02*
X76500Y28500D01*
X73500Y12500D02*
Y25500D01*
X71165Y10165D02*
X73500Y12500D01*
X64055Y10165D02*
X71165D01*
X26195Y13194D02*
X29305D01*
X40000Y2500D01*
X59500D01*
X64055Y7055D02*
Y10165D01*
X162500Y147500D02*
X165500Y144500D01*
X162500Y147500D02*
Y153000D01*
X25000Y195500D02*
Y204000D01*
X74100Y127500D02*
Y155800D01*
Y127500D02*
X78218Y123382D01*
X82800D02*
X83961D01*
X25000Y195500D02*
X34400D01*
X74100Y155800D01*
X78218Y123382D02*
X82800D01*
X80000Y117600D02*
X82800Y120400D01*
X80000Y55157D02*
Y117600D01*
X77343Y52500D02*
X80000Y55157D01*
X74500Y52500D02*
X77343D01*
X55000Y33000D02*
X74500Y52500D01*
X55000Y10165D02*
Y33000D01*
X189000Y163000D02*
Y182500D01*
Y163000D02*
X204000Y148000D01*
X144000Y120488D02*
Y123382D01*
X157744Y106744D02*
X171114D01*
X144000Y120488D02*
X157744Y106744D01*
X144000Y110000D02*
Y120488D01*
Y110000D02*
X166000Y88000D01*
X145500Y67500D02*
X166000Y88000D01*
X145500Y55000D02*
Y67500D01*
X55091Y154000D02*
Y165783D01*
X49100Y148009D02*
X55091Y154000D01*
X49100Y123900D02*
Y148009D01*
X65000Y78000D02*
Y108000D01*
Y55000D02*
Y78000D01*
Y55000D02*
X67500Y52500D01*
X144000Y147004D02*
X147800D01*
X150429Y149633D01*
Y166329D01*
X162500Y178400D01*
Y183000D01*
X128000Y65000D02*
X140500D01*
X85000Y108000D02*
X128000Y65000D01*
X36000Y94524D02*
Y109500D01*
X23000Y81524D02*
X36000Y94524D01*
X55000Y195500D02*
X84500D01*
X90400Y189600D01*
Y164500D02*
Y189600D01*
X88652Y162752D02*
X90400Y164500D01*
X83961Y162752D02*
X88652D01*
X153429Y159929D02*
X159900Y166400D01*
X153429Y143729D02*
Y159929D01*
X148830Y139130D02*
X153429Y143729D01*
X144000Y139130D02*
X148830D01*
X162456Y109744D02*
X168500D01*
X158800Y113400D02*
X162456Y109744D01*
X158800Y113400D02*
Y126956D01*
X154500Y131256D02*
X158800Y126956D01*
X144000Y131256D02*
X154500D01*
X60091Y178500D02*
X83961D01*
X55091Y183500D02*
X60091Y178500D01*
X49800Y198800D02*
X55000Y204000D01*
X49800Y188791D02*
Y198800D01*
Y188791D02*
X55091Y183500D01*
X134500Y181500D02*
X159000Y206000D01*
X134500Y174626D02*
Y181500D01*
Y174626D02*
X138500Y170626D01*
X144000D01*
X181000Y211000D02*
X204000Y188000D01*
X164000Y211000D02*
X181000D01*
X164000Y201000D02*
Y211000D01*
X157700Y194700D02*
X164000Y201000D01*
X157700Y180200D02*
Y194700D01*
X156000Y178500D02*
X157700Y180200D01*
X144000Y178500D02*
X156000D01*
X95000Y72342D02*
X106500Y60842D01*
X95000Y72342D02*
Y78000D01*
X59500Y2500D02*
X64000Y7000D01*
X64055Y7055D01*
X106500Y51000D02*
Y60842D01*
X204000Y129500D02*
X206000D01*
X201000Y126500D02*
X204000Y129500D01*
X189000Y126500D02*
X201000D01*
X171114Y106744D02*
X179500Y115130D01*
Y129500D01*
X181500Y131500D01*
X189000D01*
Y133000D01*
X204000Y148000D01*
X168500Y109744D02*
X175000Y116244D01*
Y138500D01*
X189000Y152500D01*
X165500Y114500D02*
X171000Y120000D01*
X169000Y206000D02*
X171000D01*
Y120000D02*
Y206000D01*
X49100Y123900D02*
X65000Y108000D01*
X82800Y120400D02*
Y123382D01*
D17*
X64500Y6500D02*
Y7500D01*
X65000Y9000D02*
X65500Y8500D01*
X23500Y12000D02*
X25000Y10500D01*
X64000Y6500D02*
Y7000D01*
Y9500D01*
D18*
X77343Y52500D02*
D03*
X67500D02*
D03*
X165500Y144500D02*
D03*
Y114500D02*
D03*
X136000Y88000D02*
D03*
X166000D02*
D03*
Y97500D02*
D03*
X136000D02*
D03*
X189000Y182500D02*
D03*
Y152500D02*
D03*
X206000Y99500D02*
D03*
Y129500D02*
D03*
X55000Y195500D02*
D03*
X25000D02*
D03*
X36000Y109500D02*
D03*
Y79500D02*
D03*
X49000Y80500D02*
D03*
Y110500D02*
D03*
X55000Y204000D02*
D03*
X25000D02*
D03*
X176000Y152500D02*
D03*
Y182500D02*
D03*
X162500Y153000D02*
D03*
Y183000D02*
D03*
X106500Y41157D02*
D03*
Y51000D02*
D03*
D19*
X185500Y55000D02*
D03*
X180500Y65000D02*
D03*
X175500Y55000D02*
D03*
X170500Y65000D02*
D03*
X165500Y55000D02*
D03*
X160500Y65000D02*
D03*
X155500Y55000D02*
D03*
X150500Y65000D02*
D03*
X140500D02*
D03*
X145500Y55000D02*
D03*
D20*
X25000Y12000D02*
D03*
Y32000D02*
D03*
D21*
X23000Y81524D02*
D03*
X95000Y108000D02*
D03*
X204000Y198000D02*
D03*
D22*
X23000Y109476D02*
D03*
X85000Y108000D02*
D03*
X75000D02*
D03*
X65000D02*
D03*
X95000Y78000D02*
D03*
X85000D02*
D03*
X75000D02*
D03*
X65000D02*
D03*
X159000Y206000D02*
D03*
X204000Y188000D02*
D03*
Y178000D02*
D03*
Y168000D02*
D03*
Y158000D02*
D03*
Y148000D02*
D03*
D23*
X189000Y121500D02*
D03*
Y126500D02*
D03*
D24*
Y131500D02*
D03*
D25*
X169000Y206000D02*
D03*
D26*
X55091Y183500D02*
D03*
X29500D02*
D03*
Y165784D02*
D03*
X55091D02*
D03*
Y136283D02*
D03*
X29500D02*
D03*
Y118567D02*
D03*
X55091D02*
D03*
D27*
X159900Y166400D02*
D03*
M02*
