G04 Layer_Color=16711935*
%FSLAX25Y25*%
%MOIN*%
G70*
G01*
G75*
%ADD43C,0.06312*%
%ADD44C,0.06800*%
%ADD45C,0.00800*%
%ADD46C,0.05524*%
%ADD47R,0.06706X0.06706*%
%ADD48C,0.06706*%
%ADD49O,0.08674X0.04737*%
%ADD50O,0.08674X0.04737*%
%ADD51R,0.06706X0.06706*%
%ADD52C,0.07887*%
%ADD53C,0.05800*%
D43*
X77343Y52500D02*
D03*
X67500D02*
D03*
X165500Y144500D02*
D03*
Y114500D02*
D03*
X136000Y88000D02*
D03*
X166000D02*
D03*
Y97500D02*
D03*
X136000D02*
D03*
X189000Y182500D02*
D03*
Y152500D02*
D03*
X206000Y99500D02*
D03*
Y129500D02*
D03*
X55000Y195500D02*
D03*
X25000D02*
D03*
X36000Y109500D02*
D03*
Y79500D02*
D03*
X49000Y80500D02*
D03*
Y110500D02*
D03*
X55000Y204000D02*
D03*
X25000D02*
D03*
X176000Y152500D02*
D03*
Y182500D02*
D03*
X162500Y153000D02*
D03*
Y183000D02*
D03*
X106500Y41157D02*
D03*
Y51000D02*
D03*
D44*
X185500Y55000D02*
D03*
X180500Y65000D02*
D03*
X175500Y55000D02*
D03*
X170500Y65000D02*
D03*
X165500Y55000D02*
D03*
X160500Y65000D02*
D03*
X155500Y55000D02*
D03*
X150500Y65000D02*
D03*
X140500D02*
D03*
X145500Y55000D02*
D03*
D45*
X185500Y30000D02*
D03*
X140500D02*
D03*
D46*
X25000Y12000D02*
D03*
Y32000D02*
D03*
D47*
X23000Y81524D02*
D03*
X95000Y108000D02*
D03*
X204000Y198000D02*
D03*
D48*
X23000Y109476D02*
D03*
X85000Y108000D02*
D03*
X75000D02*
D03*
X65000D02*
D03*
X95000Y78000D02*
D03*
X85000D02*
D03*
X75000D02*
D03*
X65000D02*
D03*
X159000Y206000D02*
D03*
X204000Y188000D02*
D03*
Y178000D02*
D03*
Y168000D02*
D03*
Y158000D02*
D03*
Y148000D02*
D03*
D49*
X189000Y121500D02*
D03*
Y126500D02*
D03*
D50*
Y131500D02*
D03*
D51*
X169000Y206000D02*
D03*
D52*
X55091Y183500D02*
D03*
X29500D02*
D03*
Y165784D02*
D03*
X55091D02*
D03*
Y136283D02*
D03*
X29500D02*
D03*
Y118567D02*
D03*
X55091D02*
D03*
D53*
X159900Y166400D02*
D03*
M02*
