G04 Layer_Color=8388736*
%FSLAX25Y25*%
%MOIN*%
G70*
G01*
G75*
%ADD37R,0.04737X0.10249*%
%ADD38R,0.13792X0.10249*%
%ADD39R,0.09658X0.04737*%
%ADD40R,0.09068X0.07099*%
%ADD41R,0.02375X0.06115*%
%ADD42R,0.07887X0.08280*%
%ADD43C,0.06312*%
%ADD44C,0.06800*%
%ADD45C,0.00800*%
%ADD46C,0.05524*%
%ADD47R,0.06706X0.06706*%
%ADD48C,0.06706*%
%ADD49O,0.08674X0.04737*%
%ADD50O,0.08674X0.04737*%
%ADD51R,0.06706X0.06706*%
%ADD52C,0.07887*%
%ADD53C,0.05800*%
D37*
X45945Y10165D02*
D03*
X55000D02*
D03*
X64055D02*
D03*
D38*
X55000Y33000D02*
D03*
D39*
X83961Y123382D02*
D03*
Y131256D02*
D03*
Y139130D02*
D03*
Y147004D02*
D03*
Y154878D02*
D03*
Y162752D02*
D03*
Y170626D02*
D03*
Y178500D02*
D03*
X144000D02*
D03*
Y170626D02*
D03*
Y162752D02*
D03*
Y154878D02*
D03*
Y147004D02*
D03*
Y139130D02*
D03*
Y131256D02*
D03*
Y123382D02*
D03*
D40*
X86169Y19736D02*
D03*
X110382D02*
D03*
D41*
X93158Y20228D02*
D03*
X95717D02*
D03*
X98276D02*
D03*
X100835D02*
D03*
X103394D02*
D03*
D42*
X93551Y9500D02*
D03*
X103000D02*
D03*
X113039D02*
D03*
X83512D02*
D03*
D43*
X77343Y52500D02*
D03*
X67500D02*
D03*
X165500Y144500D02*
D03*
Y114500D02*
D03*
X136000Y88000D02*
D03*
X166000D02*
D03*
Y97500D02*
D03*
X136000D02*
D03*
X189000Y182500D02*
D03*
Y152500D02*
D03*
X206000Y99500D02*
D03*
Y129500D02*
D03*
X55000Y195500D02*
D03*
X25000D02*
D03*
X36000Y109500D02*
D03*
Y79500D02*
D03*
X49000Y80500D02*
D03*
Y110500D02*
D03*
X55000Y204000D02*
D03*
X25000D02*
D03*
X176000Y152500D02*
D03*
Y182500D02*
D03*
X162500Y153000D02*
D03*
Y183000D02*
D03*
X106500Y41157D02*
D03*
Y51000D02*
D03*
D44*
X185500Y55000D02*
D03*
X180500Y65000D02*
D03*
X175500Y55000D02*
D03*
X170500Y65000D02*
D03*
X165500Y55000D02*
D03*
X160500Y65000D02*
D03*
X155500Y55000D02*
D03*
X150500Y65000D02*
D03*
X140500D02*
D03*
X145500Y55000D02*
D03*
D45*
X185500Y30000D02*
D03*
X140500D02*
D03*
D46*
X25000Y12000D02*
D03*
Y32000D02*
D03*
D47*
X23000Y81524D02*
D03*
X95000Y108000D02*
D03*
X204000Y198000D02*
D03*
D48*
X23000Y109476D02*
D03*
X85000Y108000D02*
D03*
X75000D02*
D03*
X65000D02*
D03*
X95000Y78000D02*
D03*
X85000D02*
D03*
X75000D02*
D03*
X65000D02*
D03*
X159000Y206000D02*
D03*
X204000Y188000D02*
D03*
Y178000D02*
D03*
Y168000D02*
D03*
Y158000D02*
D03*
Y148000D02*
D03*
D49*
X189000Y121500D02*
D03*
Y126500D02*
D03*
D50*
Y131500D02*
D03*
D51*
X169000Y206000D02*
D03*
D52*
X55091Y183500D02*
D03*
X29500D02*
D03*
Y165784D02*
D03*
X55091D02*
D03*
Y136283D02*
D03*
X29500D02*
D03*
Y118567D02*
D03*
X55091D02*
D03*
D53*
X159900Y166400D02*
D03*
M02*
