G04 Layer_Color=255*
%FSLAX25Y25*%
%MOIN*%
G70*
G01*
G75*
%ADD10R,0.03937X0.09449*%
%ADD11R,0.12992X0.09449*%
%ADD12R,0.08858X0.03937*%
%ADD13R,0.08268X0.06299*%
%ADD14R,0.01575X0.05315*%
%ADD15R,0.07087X0.07480*%
%ADD18C,0.05512*%
%ADD19C,0.06000*%
%ADD20C,0.04724*%
%ADD21R,0.05906X0.05906*%
%ADD22C,0.05906*%
%ADD23O,0.07874X0.03937*%
%ADD24O,0.07874X0.03937*%
%ADD25R,0.05906X0.05906*%
%ADD26C,0.07087*%
D10*
X45945Y10165D02*
D03*
X55000D02*
D03*
X64055D02*
D03*
D11*
X55000Y33000D02*
D03*
D12*
X83961Y123382D02*
D03*
Y131256D02*
D03*
Y139130D02*
D03*
Y147004D02*
D03*
Y154878D02*
D03*
Y162752D02*
D03*
Y170626D02*
D03*
Y178500D02*
D03*
X144000D02*
D03*
Y170626D02*
D03*
Y162752D02*
D03*
Y154878D02*
D03*
Y147004D02*
D03*
Y139130D02*
D03*
Y131256D02*
D03*
Y123382D02*
D03*
D13*
X86169Y19736D02*
D03*
X110382D02*
D03*
D14*
X93158Y20228D02*
D03*
X95717D02*
D03*
X98276D02*
D03*
X100835D02*
D03*
X103394D02*
D03*
D15*
X93551Y9500D02*
D03*
X103000D02*
D03*
X113039D02*
D03*
X83512D02*
D03*
D18*
X77343Y52500D02*
D03*
X67500D02*
D03*
X165500Y144500D02*
D03*
Y114500D02*
D03*
X136000Y88000D02*
D03*
X166000D02*
D03*
Y97500D02*
D03*
X136000D02*
D03*
X189000Y182500D02*
D03*
Y152500D02*
D03*
X206000Y99500D02*
D03*
Y129500D02*
D03*
X55000Y195500D02*
D03*
X25000D02*
D03*
X36000Y109500D02*
D03*
Y79500D02*
D03*
X49000Y80500D02*
D03*
Y110500D02*
D03*
X55000Y204000D02*
D03*
X25000D02*
D03*
X176000Y152500D02*
D03*
Y182500D02*
D03*
X162500Y153000D02*
D03*
Y183000D02*
D03*
X106500Y41157D02*
D03*
Y51000D02*
D03*
D19*
X185500Y55000D02*
D03*
X180500Y65000D02*
D03*
X175500Y55000D02*
D03*
X170500Y65000D02*
D03*
X165500Y55000D02*
D03*
X160500Y65000D02*
D03*
X155500Y55000D02*
D03*
X150500Y65000D02*
D03*
X140500D02*
D03*
X145500Y55000D02*
D03*
D20*
X25000Y12000D02*
D03*
Y32000D02*
D03*
D21*
X23000Y81524D02*
D03*
X95000Y108000D02*
D03*
X204000Y198000D02*
D03*
D22*
X23000Y109476D02*
D03*
X85000Y108000D02*
D03*
X75000D02*
D03*
X65000D02*
D03*
X95000Y78000D02*
D03*
X85000D02*
D03*
X75000D02*
D03*
X65000D02*
D03*
X159000Y206000D02*
D03*
X204000Y188000D02*
D03*
Y178000D02*
D03*
Y168000D02*
D03*
Y158000D02*
D03*
Y148000D02*
D03*
D23*
X189000Y121500D02*
D03*
Y126500D02*
D03*
D24*
Y131500D02*
D03*
D25*
X169000Y206000D02*
D03*
D26*
X55091Y183500D02*
D03*
X29500D02*
D03*
Y165784D02*
D03*
X55091D02*
D03*
Y136283D02*
D03*
X29500D02*
D03*
Y118567D02*
D03*
X55091D02*
D03*
M02*
