G04 Layer_Color=16711935*
%FSLAX25Y25*%
%MOIN*%
G70*
G01*
G75*
%ADD18C,0.00394*%
%ADD19C,0.01000*%
%ADD20C,0.00200*%
%ADD21C,0.00197*%
D18*
X98701Y103630D02*
G03*
X98701Y103630I-1969J0D01*
G01*
X41811Y14279D02*
X68189D01*
X41811Y28886D02*
X68189D01*
X41811Y14279D02*
Y28886D01*
X68189Y14279D02*
Y28886D01*
X59724Y107173D02*
X100276D01*
X59724Y78827D02*
X100276D01*
Y107173D01*
X59724Y78827D02*
Y107173D01*
X55000Y19614D02*
Y23551D01*
X53031Y21583D02*
X56969D01*
X80000Y91032D02*
Y94969D01*
X78032Y93000D02*
X81969D01*
X187032Y126500D02*
X190969D01*
X189000Y124531D02*
Y128469D01*
X113980Y163333D02*
Y165333D01*
X112980Y164333D02*
X114980D01*
D19*
X82155Y117208D02*
X145806D01*
Y211458D01*
X82155D02*
X145806D01*
X82155Y117208D02*
Y211458D01*
X78646Y117208D02*
Y211458D01*
X149315D01*
Y117208D02*
Y211458D01*
X78646Y117208D02*
X149315D01*
D20*
X81984Y189238D02*
Y211500D01*
X145984D01*
Y189238D02*
Y211500D01*
X81984Y189238D02*
X145984D01*
X83651Y208333D02*
X83484Y208500D01*
X83151D01*
X82984Y208333D01*
Y207667D01*
X83151Y207500D01*
X83484D01*
X83651Y207667D01*
X83984Y208500D02*
Y207667D01*
X84150Y207500D01*
X84484D01*
X84650Y207667D01*
Y208500D01*
X84984D02*
X85650D01*
X85317D01*
Y207500D01*
X86483Y208500D02*
X86150D01*
X85983Y208333D01*
Y207667D01*
X86150Y207500D01*
X86483D01*
X86650Y207667D01*
Y208333D01*
X86483Y208500D01*
X86983D02*
Y207667D01*
X87150Y207500D01*
X87483D01*
X87649Y207667D01*
Y208500D01*
X87983D02*
X88649D01*
X88316D01*
Y207500D01*
X89982D02*
Y208500D01*
X90482D01*
X90649Y208333D01*
Y208000D01*
X90482Y207833D01*
X89982D01*
X91482Y208500D02*
X91148D01*
X90982Y208333D01*
Y207667D01*
X91148Y207500D01*
X91482D01*
X91648Y207667D01*
Y208333D01*
X91482Y208500D01*
X91981D02*
Y207500D01*
X92648D01*
X92981Y208500D02*
Y208333D01*
X93314Y208000D01*
X93647Y208333D01*
Y208500D01*
X93314Y208000D02*
Y207500D01*
X94647Y208333D02*
X94481Y208500D01*
X94147D01*
X93981Y208333D01*
Y207667D01*
X94147Y207500D01*
X94481D01*
X94647Y207667D01*
Y208000D01*
X94314D01*
X95480Y208500D02*
X95147D01*
X94980Y208333D01*
Y207667D01*
X95147Y207500D01*
X95480D01*
X95647Y207667D01*
Y208333D01*
X95480Y208500D01*
X95980Y207500D02*
Y208500D01*
X96646Y207500D01*
Y208500D01*
X82984Y209500D02*
Y210167D01*
X83318Y210500D01*
X83651Y210167D01*
Y209500D01*
Y210000D01*
X82984D01*
X83984Y209500D02*
Y210500D01*
X84650Y209500D01*
Y210500D01*
X84984D02*
X85650D01*
X85317D01*
Y209500D01*
X86650Y210500D02*
X85983D01*
Y209500D01*
X86650D01*
X85983Y210000D02*
X86317D01*
X86983Y209500D02*
Y210500D01*
X87649Y209500D01*
Y210500D01*
X87983Y209500D02*
Y210500D01*
X88649Y209500D01*
Y210500D01*
X88982Y209500D02*
Y210167D01*
X89316Y210500D01*
X89649Y210167D01*
Y209500D01*
Y210000D01*
X88982D01*
X90982Y209500D02*
Y210167D01*
X91315Y210500D01*
X91648Y210167D01*
Y209500D01*
Y210000D01*
X90982D01*
X91981Y209500D02*
Y210500D01*
X92481D01*
X92648Y210333D01*
Y210000D01*
X92481Y209833D01*
X91981D01*
X92315D02*
X92648Y209500D01*
X93647Y210500D02*
X92981D01*
Y209500D01*
X93647D01*
X92981Y210000D02*
X93314D01*
X93981Y209500D02*
Y210167D01*
X94314Y210500D01*
X94647Y210167D01*
Y209500D01*
Y210000D01*
X93981D01*
D21*
X40827Y4457D02*
X69173D01*
X40827Y38709D02*
X69173D01*
X40827Y4457D02*
Y38709D01*
X69173Y4457D02*
Y38709D01*
M02*
