G04 Layer_Color=2752767*
%FSLAX25Y25*%
%MOIN*%
G70*
G01*
G75*
%ADD18C,0.00394*%
%ADD19C,0.01000*%
%ADD20C,0.00200*%
%ADD21C,0.00197*%
%ADD57C,0.00267*%
D18*
X98701Y103630D02*
G03*
X98701Y103630I-1969J0D01*
G01*
X41811Y14279D02*
X68189D01*
X41811Y28886D02*
X68189D01*
X41811Y14279D02*
Y28886D01*
X68189Y14279D02*
Y28886D01*
X59724Y107173D02*
X100276D01*
X59724Y78827D02*
X100276D01*
Y107173D01*
X59724Y78827D02*
Y107173D01*
X55000Y19614D02*
Y23551D01*
X53031Y21583D02*
X56969D01*
X80000Y91032D02*
Y94969D01*
X78032Y93000D02*
X81969D01*
X187032Y126500D02*
X190969D01*
X189000Y124531D02*
Y128469D01*
X113980Y163333D02*
Y165333D01*
X112980Y164333D02*
X114980D01*
D19*
X82155Y117208D02*
X145806D01*
Y211458D01*
X82155D02*
X145806D01*
X82155Y117208D02*
Y211458D01*
X78646Y117208D02*
Y211458D01*
X149315D01*
Y117208D02*
Y211458D01*
X78646Y117208D02*
X149315D01*
D20*
X81984Y189238D02*
Y211500D01*
X145984D01*
Y189238D02*
Y211500D01*
X81984Y189238D02*
X145984D01*
X83651Y208333D02*
X83484Y208500D01*
X83151D01*
X82984Y208333D01*
Y207667D01*
X83151Y207500D01*
X83484D01*
X83651Y207667D01*
X83984Y208500D02*
Y207667D01*
X84150Y207500D01*
X84484D01*
X84650Y207667D01*
Y208500D01*
X84984D02*
X85650D01*
X85317D01*
Y207500D01*
X86483Y208500D02*
X86150D01*
X85983Y208333D01*
Y207667D01*
X86150Y207500D01*
X86483D01*
X86650Y207667D01*
Y208333D01*
X86483Y208500D01*
X86983D02*
Y207667D01*
X87150Y207500D01*
X87483D01*
X87649Y207667D01*
Y208500D01*
X87983D02*
X88649D01*
X88316D01*
Y207500D01*
X89982D02*
Y208500D01*
X90482D01*
X90649Y208333D01*
Y208000D01*
X90482Y207833D01*
X89982D01*
X91482Y208500D02*
X91148D01*
X90982Y208333D01*
Y207667D01*
X91148Y207500D01*
X91482D01*
X91648Y207667D01*
Y208333D01*
X91482Y208500D01*
X91981D02*
Y207500D01*
X92648D01*
X92981Y208500D02*
Y208333D01*
X93314Y208000D01*
X93647Y208333D01*
Y208500D01*
X93314Y208000D02*
Y207500D01*
X94647Y208333D02*
X94481Y208500D01*
X94147D01*
X93981Y208333D01*
Y207667D01*
X94147Y207500D01*
X94481D01*
X94647Y207667D01*
Y208000D01*
X94314D01*
X95480Y208500D02*
X95147D01*
X94980Y208333D01*
Y207667D01*
X95147Y207500D01*
X95480D01*
X95647Y207667D01*
Y208333D01*
X95480Y208500D01*
X95980Y207500D02*
Y208500D01*
X96646Y207500D01*
Y208500D01*
X82984Y209500D02*
Y210167D01*
X83318Y210500D01*
X83651Y210167D01*
Y209500D01*
Y210000D01*
X82984D01*
X83984Y209500D02*
Y210500D01*
X84650Y209500D01*
Y210500D01*
X84984D02*
X85650D01*
X85317D01*
Y209500D01*
X86650Y210500D02*
X85983D01*
Y209500D01*
X86650D01*
X85983Y210000D02*
X86317D01*
X86983Y209500D02*
Y210500D01*
X87649Y209500D01*
Y210500D01*
X87983Y209500D02*
Y210500D01*
X88649Y209500D01*
Y210500D01*
X88982Y209500D02*
Y210167D01*
X89316Y210500D01*
X89649Y210167D01*
Y209500D01*
Y210000D01*
X88982D01*
X90982Y209500D02*
Y210167D01*
X91315Y210500D01*
X91648Y210167D01*
Y209500D01*
Y210000D01*
X90982D01*
X91981Y209500D02*
Y210500D01*
X92481D01*
X92648Y210333D01*
Y210000D01*
X92481Y209833D01*
X91981D01*
X92315D02*
X92648Y209500D01*
X93647Y210500D02*
X92981D01*
Y209500D01*
X93647D01*
X92981Y210000D02*
X93314D01*
X93981Y209500D02*
Y210167D01*
X94314Y210500D01*
X94647Y210167D01*
Y209500D01*
Y210000D01*
X93981D01*
X76543Y51700D02*
Y53300D01*
X78143D01*
Y51700D01*
X76543D01*
X66700D02*
Y53300D01*
X68300D01*
Y51700D01*
X66700D01*
X185500Y29200D02*
X184700Y30800D01*
X186300D01*
X185500Y29200D01*
X140500D02*
X139700Y30800D01*
X141300D01*
X140500Y29200D01*
X165500Y143700D02*
X165900Y144100D01*
X166300D01*
X165900Y144500D01*
X166300Y144900D01*
X165900D01*
X165500Y145300D01*
X165100Y144900D01*
X164700D01*
X165100Y144500D01*
X164700Y144100D01*
X165100D01*
X165500Y143700D01*
Y113700D02*
X165900Y114100D01*
X166300D01*
X165900Y114500D01*
X166300Y114900D01*
X165900D01*
X165500Y115300D01*
X165100Y114900D01*
X164700D01*
X165100Y114500D01*
X164700Y114100D01*
X165100D01*
X165500Y113700D01*
X24200Y11200D02*
Y12800D01*
X25800D01*
Y11200D01*
X24200D01*
Y31200D02*
Y32800D01*
X25800D01*
Y31200D01*
X24200D01*
X136000Y87200D02*
X136400Y87600D01*
X136800D01*
X136400Y88000D01*
X136800Y88400D01*
X136400D01*
X136000Y88800D01*
X135600Y88400D01*
X135200D01*
X135600Y88000D01*
X135200Y87600D01*
X135600D01*
X136000Y87200D01*
X166000D02*
X166400Y87600D01*
X166800D01*
X166400Y88000D01*
X166800Y88400D01*
X166400D01*
X166000Y88800D01*
X165600Y88400D01*
X165200D01*
X165600Y88000D01*
X165200Y87600D01*
X165600D01*
X166000Y87200D01*
Y96700D02*
X166400Y97100D01*
X166800D01*
X166400Y97500D01*
X166800Y97900D01*
X166400D01*
X166000Y98300D01*
X165600Y97900D01*
X165200D01*
X165600Y97500D01*
X165200Y97100D01*
X165600D01*
X166000Y96700D01*
X136000D02*
X136400Y97100D01*
X136800D01*
X136400Y97500D01*
X136800Y97900D01*
X136400D01*
X136000Y98300D01*
X135600Y97900D01*
X135200D01*
X135600Y97500D01*
X135200Y97100D01*
X135600D01*
X136000Y96700D01*
X22200Y80724D02*
X22600Y81524D01*
X22200Y82324D01*
X23000Y81924D01*
X23800Y82324D01*
X23400Y81524D01*
X23800Y80724D01*
X23000Y81124D01*
X22200Y80724D01*
Y108676D02*
X22600Y109476D01*
X22200Y110276D01*
X23000Y109876D01*
X23800Y110276D01*
X23400Y109476D01*
X23800Y108676D01*
X23000Y109076D01*
X22200Y108676D01*
X94200Y107200D02*
X94600Y108000D01*
X94200Y108800D01*
X95000Y108400D01*
X95800Y108800D01*
X95400Y108000D01*
X95800Y107200D01*
X95000Y107600D01*
X94200Y107200D01*
X84200D02*
X84600Y108000D01*
X84200Y108800D01*
X85000Y108400D01*
X85800Y108800D01*
X85400Y108000D01*
X85800Y107200D01*
X85000Y107600D01*
X84200Y107200D01*
X74200D02*
X74600Y108000D01*
X74200Y108800D01*
X75000Y108400D01*
X75800Y108800D01*
X75400Y108000D01*
X75800Y107200D01*
X75000Y107600D01*
X74200Y107200D01*
X64200D02*
X64600Y108000D01*
X64200Y108800D01*
X65000Y108400D01*
X65800Y108800D01*
X65400Y108000D01*
X65800Y107200D01*
X65000Y107600D01*
X64200Y107200D01*
X94200Y77200D02*
X94600Y78000D01*
X94200Y78800D01*
X95000Y78400D01*
X95800Y78800D01*
X95400Y78000D01*
X95800Y77200D01*
X95000Y77600D01*
X94200Y77200D01*
X84200D02*
X84600Y78000D01*
X84200Y78800D01*
X85000Y78400D01*
X85800Y78800D01*
X85400Y78000D01*
X85800Y77200D01*
X85000Y77600D01*
X84200Y77200D01*
X74200D02*
X74600Y78000D01*
X74200Y78800D01*
X75000Y78400D01*
X75800Y78800D01*
X75400Y78000D01*
X75800Y77200D01*
X75000Y77600D01*
X74200Y77200D01*
X64200D02*
X64600Y78000D01*
X64200Y78800D01*
X65000Y78400D01*
X65800Y78800D01*
X65400Y78000D01*
X65800Y77200D01*
X65000Y77600D01*
X64200Y77200D01*
X189000Y181700D02*
X189400Y182100D01*
X189800D01*
X189400Y182500D01*
X189800Y182900D01*
X189400D01*
X189000Y183300D01*
X188600Y182900D01*
X188200D01*
X188600Y182500D01*
X188200Y182100D01*
X188600D01*
X189000Y181700D01*
Y151700D02*
X189400Y152100D01*
X189800D01*
X189400Y152500D01*
X189800Y152900D01*
X189400D01*
X189000Y153300D01*
X188600Y152900D01*
X188200D01*
X188600Y152500D01*
X188200Y152100D01*
X188600D01*
X189000Y151700D01*
X206000Y98700D02*
X206400Y99100D01*
X206800D01*
X206400Y99500D01*
X206800Y99900D01*
X206400D01*
X206000Y100300D01*
X205600Y99900D01*
X205200D01*
X205600Y99500D01*
X205200Y99100D01*
X205600D01*
X206000Y98700D01*
Y128700D02*
X206400Y129100D01*
X206800D01*
X206400Y129500D01*
X206800Y129900D01*
X206400D01*
X206000Y130300D01*
X205600Y129900D01*
X205200D01*
X205600Y129500D01*
X205200Y129100D01*
X205600D01*
X206000Y128700D01*
X55000Y194700D02*
X55400Y195100D01*
X55800D01*
X55400Y195500D01*
X55800Y195900D01*
X55400D01*
X55000Y196300D01*
X54600Y195900D01*
X54200D01*
X54600Y195500D01*
X54200Y195100D01*
X54600D01*
X55000Y194700D01*
X25000D02*
X25400Y195100D01*
X25800D01*
X25400Y195500D01*
X25800Y195900D01*
X25400D01*
X25000Y196300D01*
X24600Y195900D01*
X24200D01*
X24600Y195500D01*
X24200Y195100D01*
X24600D01*
X25000Y194700D01*
X188200Y120700D02*
Y122300D01*
X189800D01*
Y120700D01*
X188200D01*
Y125700D02*
Y127300D01*
X189800D01*
Y125700D01*
X188200D01*
Y130700D02*
Y132300D01*
X189800D01*
Y130700D01*
X188200D01*
X36000Y108700D02*
X36400Y109100D01*
X36800D01*
X36400Y109500D01*
X36800Y109900D01*
X36400D01*
X36000Y110300D01*
X35600Y109900D01*
X35200D01*
X35600Y109500D01*
X35200Y109100D01*
X35600D01*
X36000Y108700D01*
Y78700D02*
X36400Y79100D01*
X36800D01*
X36400Y79500D01*
X36800Y79900D01*
X36400D01*
X36000Y80300D01*
X35600Y79900D01*
X35200D01*
X35600Y79500D01*
X35200Y79100D01*
X35600D01*
X36000Y78700D01*
X49000Y79700D02*
X49400Y80100D01*
X49800D01*
X49400Y80500D01*
X49800Y80900D01*
X49400D01*
X49000Y81300D01*
X48600Y80900D01*
X48200D01*
X48600Y80500D01*
X48200Y80100D01*
X48600D01*
X49000Y79700D01*
Y109700D02*
X49400Y110100D01*
X49800D01*
X49400Y110500D01*
X49800Y110900D01*
X49400D01*
X49000Y111300D01*
X48600Y110900D01*
X48200D01*
X48600Y110500D01*
X48200Y110100D01*
X48600D01*
X49000Y109700D01*
X55000Y203200D02*
X55400Y203600D01*
X55800D01*
X55400Y204000D01*
X55800Y204400D01*
X55400D01*
X55000Y204800D01*
X54600Y204400D01*
X54200D01*
X54600Y204000D01*
X54200Y203600D01*
X54600D01*
X55000Y203200D01*
X25000D02*
X25400Y203600D01*
X25800D01*
X25400Y204000D01*
X25800Y204400D01*
X25400D01*
X25000Y204800D01*
X24600Y204400D01*
X24200D01*
X24600Y204000D01*
X24200Y203600D01*
X24600D01*
X25000Y203200D01*
X168200Y205200D02*
X168600Y206000D01*
X168200Y206800D01*
X169000Y206400D01*
X169800Y206800D01*
X169400Y206000D01*
X169800Y205200D01*
X169000Y205600D01*
X168200Y205200D01*
X158200D02*
X158600Y206000D01*
X158200Y206800D01*
X159000Y206400D01*
X159800Y206800D01*
X159400Y206000D01*
X159800Y205200D01*
X159000Y205600D01*
X158200Y205200D01*
X203200Y197200D02*
X203600Y198000D01*
X203200Y198800D01*
X204000Y198400D01*
X204800Y198800D01*
X204400Y198000D01*
X204800Y197200D01*
X204000Y197600D01*
X203200Y197200D01*
Y187200D02*
X203600Y188000D01*
X203200Y188800D01*
X204000Y188400D01*
X204800Y188800D01*
X204400Y188000D01*
X204800Y187200D01*
X204000Y187600D01*
X203200Y187200D01*
Y177200D02*
X203600Y178000D01*
X203200Y178800D01*
X204000Y178400D01*
X204800Y178800D01*
X204400Y178000D01*
X204800Y177200D01*
X204000Y177600D01*
X203200Y177200D01*
Y167200D02*
X203600Y168000D01*
X203200Y168800D01*
X204000Y168400D01*
X204800Y168800D01*
X204400Y168000D01*
X204800Y167200D01*
X204000Y167600D01*
X203200Y167200D01*
Y157200D02*
X203600Y158000D01*
X203200Y158800D01*
X204000Y158400D01*
X204800Y158800D01*
X204400Y158000D01*
X204800Y157200D01*
X204000Y157600D01*
X203200Y157200D01*
Y147200D02*
X203600Y148000D01*
X203200Y148800D01*
X204000Y148400D01*
X204800Y148800D01*
X204400Y148000D01*
X204800Y147200D01*
X204000Y147600D01*
X203200Y147200D01*
X176000Y151700D02*
X176400Y152100D01*
X176800D01*
X176400Y152500D01*
X176800Y152900D01*
X176400D01*
X176000Y153300D01*
X175600Y152900D01*
X175200D01*
X175600Y152500D01*
X175200Y152100D01*
X175600D01*
X176000Y151700D01*
Y181700D02*
X176400Y182100D01*
X176800D01*
X176400Y182500D01*
X176800Y182900D01*
X176400D01*
X176000Y183300D01*
X175600Y182900D01*
X175200D01*
X175600Y182500D01*
X175200Y182100D01*
X175600D01*
X176000Y181700D01*
X162500Y152200D02*
X162900Y152600D01*
X163300D01*
X162900Y153000D01*
X163300Y153400D01*
X162900D01*
X162500Y153800D01*
X162100Y153400D01*
X161700D01*
X162100Y153000D01*
X161700Y152600D01*
X162100D01*
X162500Y152200D01*
Y182200D02*
X162900Y182600D01*
X163300D01*
X162900Y183000D01*
X163300Y183400D01*
X162900D01*
X162500Y183800D01*
X162100Y183400D01*
X161700D01*
X162100Y183000D01*
X161700Y182600D01*
X162100D01*
X162500Y182200D01*
X105700Y40358D02*
Y41958D01*
X107300D01*
Y40358D01*
X105700D01*
Y50200D02*
Y51800D01*
X107300D01*
Y50200D01*
X105700D01*
X54691Y183100D02*
Y182700D01*
X55491D01*
Y183100D01*
X55891D01*
Y183900D01*
X55491D01*
Y184300D01*
X54691D01*
Y183900D01*
X54291D01*
Y183100D01*
X54691D01*
X29100D02*
Y182700D01*
X29900D01*
Y183100D01*
X30300D01*
Y183900D01*
X29900D01*
Y184300D01*
X29100D01*
Y183900D01*
X28700D01*
Y183100D01*
X29100D01*
Y165384D02*
Y164983D01*
X29900D01*
Y165384D01*
X30300D01*
Y166183D01*
X29900D01*
Y166584D01*
X29100D01*
Y166183D01*
X28700D01*
Y165384D01*
X29100D01*
X54691D02*
Y164983D01*
X55491D01*
Y165384D01*
X55891D01*
Y166183D01*
X55491D01*
Y166584D01*
X54691D01*
Y166183D01*
X54291D01*
Y165384D01*
X54691D01*
Y135883D02*
Y135483D01*
X55491D01*
Y135883D01*
X55891D01*
Y136683D01*
X55491D01*
Y137083D01*
X54691D01*
Y136683D01*
X54291D01*
Y135883D01*
X54691D01*
X29100D02*
Y135483D01*
X29900D01*
Y135883D01*
X30300D01*
Y136683D01*
X29900D01*
Y137083D01*
X29100D01*
Y136683D01*
X28700D01*
Y135883D01*
X29100D01*
Y118167D02*
Y117767D01*
X29900D01*
Y118167D01*
X30300D01*
Y118967D01*
X29900D01*
Y119367D01*
X29100D01*
Y118967D01*
X28700D01*
Y118167D01*
X29100D01*
X54691D02*
Y117767D01*
X55491D01*
Y118167D01*
X55891D01*
Y118967D01*
X55491D01*
Y119367D01*
X54691D01*
Y118967D01*
X54291D01*
Y118167D01*
X54691D01*
X159100Y165600D02*
X159500D01*
X159900Y166000D01*
X160300Y165600D01*
X160700D01*
Y166000D01*
X160300Y166400D01*
X160700Y166800D01*
Y167200D01*
X160300D01*
X159900Y166800D01*
X159500Y167200D01*
X159100D01*
Y166800D01*
X159500Y166400D01*
X159100Y166000D01*
Y165600D01*
D21*
X40827Y4457D02*
X69173D01*
X40827Y38709D02*
X69173D01*
X40827Y4457D02*
Y38709D01*
X69173Y4457D02*
Y38709D01*
D57*
X186300Y55000D02*
G03*
X186300Y55000I-800J0D01*
G01*
X181300Y65000D02*
G03*
X181300Y65000I-800J0D01*
G01*
X176300Y55000D02*
G03*
X176300Y55000I-800J0D01*
G01*
X171300Y65000D02*
G03*
X171300Y65000I-800J0D01*
G01*
X166300Y55000D02*
G03*
X166300Y55000I-800J0D01*
G01*
X161300Y65000D02*
G03*
X161300Y65000I-800J0D01*
G01*
X156300Y55000D02*
G03*
X156300Y55000I-800J0D01*
G01*
X151300Y65000D02*
G03*
X151300Y65000I-800J0D01*
G01*
X141300D02*
G03*
X141300Y65000I-800J0D01*
G01*
X146300Y55000D02*
G03*
X146300Y55000I-800J0D01*
G01*
M02*
