G04 Layer_Color=65535*
%FSLAX25Y25*%
%MOIN*%
G70*
G01*
G75*
%ADD28C,0.00787*%
%ADD29C,0.00984*%
%ADD30C,0.02362*%
%ADD31C,0.01181*%
%ADD32C,0.01000*%
%ADD33C,0.00050*%
%ADD34C,0.00600*%
%ADD35C,0.00591*%
%ADD36R,0.07480X0.03150*%
G36*
X94453Y176000D02*
X89453Y178500D01*
X94453Y181000D01*
Y176000D01*
D02*
G37*
D28*
X82264Y52500D02*
G03*
X82264Y52500I-9843J0D01*
G01*
X100276Y95500D02*
G03*
X100276Y90500I0J-2500D01*
G01*
X194315Y134059D02*
G03*
X194315Y118941I-5315J-7559D01*
G01*
X116342Y46079D02*
G03*
X116342Y46079I-9843J0D01*
G01*
X83642Y45382D02*
Y49252D01*
X81839Y47283D02*
X85709D01*
X162500Y139500D02*
X165500D01*
X162500Y119500D02*
Y139500D01*
Y119500D02*
X168500D01*
Y139500D01*
X165500D02*
X168500D01*
X165500Y118600D02*
Y119500D01*
Y139500D02*
Y140400D01*
X41811Y16071D02*
X68189D01*
X41811Y27094D02*
X68189D01*
X41811Y16071D02*
Y27094D01*
X68189Y16071D02*
Y27094D01*
X17500Y4500D02*
X32500D01*
X17500D02*
Y39500D01*
X32500D01*
Y4500D02*
Y39500D01*
X141000Y85000D02*
Y88000D01*
Y85000D02*
X161000D01*
Y91000D01*
X141000D02*
X161000D01*
X141000Y88000D02*
Y91000D01*
X161000Y88000D02*
X161900D01*
X140100D02*
X141000D01*
X161000Y97500D02*
Y100500D01*
X141000D02*
X161000D01*
X141000Y94500D02*
Y100500D01*
Y94500D02*
X161000D01*
Y97500D01*
X140100D02*
X141000D01*
X161000D02*
X161900D01*
X19260Y103177D02*
X26740D01*
Y87823D02*
Y103177D01*
X19260Y87823D02*
Y103177D01*
X59724Y103433D02*
X100276D01*
X59724Y82567D02*
X100276D01*
Y95500D02*
Y103433D01*
Y82567D02*
Y90500D01*
X59724Y82567D02*
Y103433D01*
X186000Y177500D02*
X189000D01*
X186000Y157500D02*
Y177500D01*
Y157500D02*
X192000D01*
Y177500D01*
X189000D02*
X192000D01*
X189000Y156600D02*
Y157500D01*
Y177500D02*
Y178400D01*
X206000Y104500D02*
X209000D01*
Y124500D01*
X203000D02*
X209000D01*
X203000Y104500D02*
Y124500D01*
Y104500D02*
X206000D01*
Y124500D02*
Y125400D01*
Y103600D02*
Y104500D01*
X50000Y195500D02*
Y198500D01*
X30000D02*
X50000D01*
X30000Y192500D02*
Y198500D01*
Y192500D02*
X50000D01*
Y195500D01*
X29100D02*
X30000D01*
X50000D02*
X50900D01*
X194315Y133390D02*
Y134059D01*
Y118941D02*
Y119610D01*
X33000Y104500D02*
X36000D01*
X33000Y84500D02*
Y104500D01*
Y84500D02*
X39000D01*
Y104500D01*
X36000D02*
X39000D01*
X36000Y83600D02*
Y84500D01*
Y104500D02*
Y105400D01*
X49000Y85500D02*
X52000D01*
Y105500D01*
X46000D02*
X52000D01*
X46000Y85500D02*
Y105500D01*
Y85500D02*
X49000D01*
Y105500D02*
Y106400D01*
Y84600D02*
Y85500D01*
X50000Y204000D02*
Y207000D01*
X30000D02*
X50000D01*
X30000Y201000D02*
Y207000D01*
Y201000D02*
X50000D01*
Y204000D01*
X29100D02*
X30000D01*
X50000D02*
X50900D01*
X154000Y201000D02*
Y211000D01*
X174000D01*
Y201000D02*
Y211000D01*
X154000Y201000D02*
X174000D01*
X199000Y143000D02*
X209000D01*
X199000Y203000D02*
X209000D01*
Y143000D02*
Y203000D01*
X199000Y143000D02*
Y203000D01*
X176000Y157500D02*
X179000D01*
Y177500D01*
X173000D02*
X179000D01*
X173000Y157500D02*
Y177500D01*
Y157500D02*
X176000D01*
Y177500D02*
Y178400D01*
Y156600D02*
Y157500D01*
X162500Y158000D02*
X165500D01*
Y178000D01*
X159500D02*
X165500D01*
X159500Y158000D02*
Y178000D01*
Y158000D02*
X162500D01*
Y178000D02*
Y178900D01*
Y157100D02*
Y158000D01*
X111716Y55496D02*
Y59366D01*
X109748Y57299D02*
X113618D01*
D29*
X42303Y10165D02*
G03*
X42303Y10165I-492J0D01*
G01*
X100610Y108000D02*
G03*
X100610Y108000I-492J0D01*
G01*
D30*
X97520Y99496D02*
G03*
X97520Y99496I-1181J0D01*
G01*
D31*
X80910Y182536D02*
G03*
X80910Y182536I-591J0D01*
G01*
D32*
X222047Y-8000D02*
Y-1500D01*
X12598Y-8000D02*
Y-1500D01*
X136817Y-7000D02*
X222047D01*
X12598D02*
X94629D01*
X216047Y-5000D02*
X222047Y-7000D01*
X216047Y-9000D02*
X222047Y-7000D01*
X12598D02*
X18598Y-9000D01*
X12598Y-7000D02*
X18598Y-5000D01*
X233858Y-16500D02*
Y-1500D01*
X0Y-16500D02*
Y-1000D01*
X136423Y-15500D02*
X233858D01*
X0D02*
X94235D01*
X227858Y-13500D02*
X233858Y-15500D01*
X227858Y-17500D02*
X233858Y-15500D01*
X0D02*
X6000Y-17500D01*
X0Y-15500D02*
X6000Y-13500D01*
X-13000Y214173D02*
X-1500D01*
X-13000Y0D02*
X-1500D01*
X-12000Y126580D02*
Y214173D01*
Y0D02*
Y84393D01*
X-14000Y208173D02*
X-12000Y214173D01*
X-10000Y208173D01*
X-12000Y0D02*
X-10000Y6000D01*
X-14000D02*
X-12000Y0D01*
X132882Y1417D02*
Y71260D01*
Y1417D02*
X193118D01*
X132882Y71260D02*
X193118D01*
Y1417D02*
Y71260D01*
X12598Y0D02*
Y214173D01*
X222047Y0D02*
Y214173D01*
X82156Y182108D02*
Y211457D01*
Y117207D02*
Y119774D01*
X145806Y182107D02*
Y211457D01*
Y117207D02*
Y119775D01*
X82156Y211457D02*
X145806D01*
X82156Y117207D02*
X145806D01*
X118354Y3791D02*
Y21902D01*
X115598Y24657D02*
X118354Y21902D01*
X78591Y3791D02*
X117961D01*
X78591Y21902D02*
X81346Y24657D01*
X78591Y3791D02*
Y21902D01*
X81346Y24657D02*
X115598D01*
X30288Y186256D02*
X53909D01*
X30288Y162634D02*
Y186256D01*
X53909Y162634D02*
Y186256D01*
X30288Y162634D02*
X53909D01*
X30288Y139039D02*
X53909D01*
X30288Y115417D02*
Y139039D01*
X53909Y115417D02*
Y139039D01*
X30288Y115417D02*
X53909D01*
X102000Y83498D02*
Y78500D01*
X103000Y77500D01*
X104999D01*
X105999Y78500D01*
Y83498D01*
X107998Y82498D02*
X108998Y83498D01*
X110997D01*
X111997Y82498D01*
Y81499D01*
X110997Y80499D01*
X109997D01*
X110997D01*
X111997Y79499D01*
Y78500D01*
X110997Y77500D01*
X108998D01*
X107998Y78500D01*
X38000Y36081D02*
Y31082D01*
X39000Y30083D01*
X40999D01*
X41999Y31082D01*
Y36081D01*
X47997Y30083D02*
X43998D01*
X47997Y34081D01*
Y35081D01*
X46997Y36081D01*
X44998D01*
X43998Y35081D01*
X69000Y210498D02*
Y205500D01*
X70000Y204500D01*
X71999D01*
X72999Y205500D01*
Y210498D01*
X74998Y204500D02*
X76997D01*
X75998D01*
Y210498D01*
X74998Y209498D01*
X22499Y148782D02*
X21499Y149782D01*
X19500D01*
X18500Y148782D01*
Y147782D01*
X19500Y146782D01*
X21499D01*
X22499Y145783D01*
Y144783D01*
X21499Y143783D01*
X19500D01*
X18500Y144783D01*
X28497Y143783D02*
X24498D01*
X28497Y147782D01*
Y148782D01*
X27497Y149782D01*
X25498D01*
X24498Y148782D01*
X23999Y175282D02*
X22999Y176281D01*
X21000D01*
X20000Y175282D01*
Y174282D01*
X21000Y173282D01*
X22999D01*
X23999Y172283D01*
Y171283D01*
X22999Y170283D01*
X21000D01*
X20000Y171283D01*
X25998Y170283D02*
X27997D01*
X26998D01*
Y176281D01*
X25998Y175282D01*
X169500Y85000D02*
Y90998D01*
X172499D01*
X173499Y89998D01*
Y87999D01*
X172499Y86999D01*
X169500D01*
X171499D02*
X173499Y85000D01*
X175498D02*
X177497D01*
X176498D01*
Y90998D01*
X175498Y89998D01*
X180496D02*
X181496Y90998D01*
X183495D01*
X184495Y89998D01*
Y88999D01*
X183495Y87999D01*
X182496D01*
X183495D01*
X184495Y86999D01*
Y86000D01*
X183495Y85000D01*
X181496D01*
X180496Y86000D01*
X200000Y89000D02*
Y94998D01*
X202999D01*
X203999Y93998D01*
Y91999D01*
X202999Y90999D01*
X200000D01*
X201999D02*
X203999Y89000D01*
X205998D02*
X207997D01*
X206998D01*
Y94998D01*
X205998Y93998D01*
X214995Y89000D02*
X210996D01*
X214995Y92999D01*
Y93998D01*
X213996Y94998D01*
X211996D01*
X210996Y93998D01*
X44000Y71000D02*
Y76998D01*
X46999D01*
X47999Y75998D01*
Y73999D01*
X46999Y72999D01*
X44000D01*
X45999D02*
X47999Y71000D01*
X49998D02*
X51997D01*
X50998D01*
Y76998D01*
X49998Y75998D01*
X54996Y71000D02*
X56996D01*
X55996D01*
Y76998D01*
X54996Y75998D01*
X157500Y105500D02*
Y111498D01*
X160499D01*
X161499Y110498D01*
Y108499D01*
X160499Y107499D01*
X157500D01*
X159499D02*
X161499Y105500D01*
X163498D02*
X165497D01*
X164498D01*
Y111498D01*
X163498Y110498D01*
X168496D02*
X169496Y111498D01*
X171495D01*
X172495Y110498D01*
Y106500D01*
X171495Y105500D01*
X169496D01*
X168496Y106500D01*
Y110498D01*
X30500Y71000D02*
Y76998D01*
X33499D01*
X34499Y75998D01*
Y73999D01*
X33499Y72999D01*
X30500D01*
X32499D02*
X34499Y71000D01*
X36498Y72000D02*
X37498Y71000D01*
X39497D01*
X40497Y72000D01*
Y75998D01*
X39497Y76998D01*
X37498D01*
X36498Y75998D01*
Y74999D01*
X37498Y73999D01*
X40497D01*
X169000Y94500D02*
Y100498D01*
X171999D01*
X172999Y99498D01*
Y97499D01*
X171999Y96499D01*
X169000D01*
X170999D02*
X172999Y94500D01*
X174998Y99498D02*
X175998Y100498D01*
X177997D01*
X178997Y99498D01*
Y98499D01*
X177997Y97499D01*
X178997Y96499D01*
Y95500D01*
X177997Y94500D01*
X175998D01*
X174998Y95500D01*
Y96499D01*
X175998Y97499D01*
X174998Y98499D01*
Y99498D01*
X175998Y97499D02*
X177997D01*
X183500Y186500D02*
Y192498D01*
X186499D01*
X187499Y191498D01*
Y189499D01*
X186499Y188499D01*
X183500D01*
X185499D02*
X187499Y186500D01*
X193497Y192498D02*
X189498D01*
Y189499D01*
X191497Y190499D01*
X192497D01*
X193497Y189499D01*
Y187500D01*
X192497Y186500D01*
X190498D01*
X189498Y187500D01*
X171500Y187000D02*
Y192998D01*
X174499D01*
X175499Y191998D01*
Y189999D01*
X174499Y188999D01*
X171500D01*
X173499D02*
X175499Y187000D01*
X180497D02*
Y192998D01*
X177498Y189999D01*
X181497D01*
X158000Y187000D02*
Y192998D01*
X160999D01*
X161999Y191998D01*
Y189999D01*
X160999Y188999D01*
X158000D01*
X159999D02*
X161999Y187000D01*
X163998Y191998D02*
X164998Y192998D01*
X166997D01*
X167997Y191998D01*
Y190999D01*
X166997Y189999D01*
X165997D01*
X166997D01*
X167997Y188999D01*
Y188000D01*
X166997Y187000D01*
X164998D01*
X163998Y188000D01*
X59000Y192500D02*
Y198498D01*
X61999D01*
X62999Y197498D01*
Y195499D01*
X61999Y194499D01*
X59000D01*
X60999D02*
X62999Y192500D01*
X68997D02*
X64998D01*
X68997Y196499D01*
Y197498D01*
X67997Y198498D01*
X65998D01*
X64998Y197498D01*
X59000Y201000D02*
Y206998D01*
X61999D01*
X62999Y205998D01*
Y203999D01*
X61999Y202999D01*
X59000D01*
X60999D02*
X62999Y201000D01*
X64998D02*
X66997D01*
X65998D01*
Y206998D01*
X64998Y205998D01*
X186999Y138000D02*
Y141998D01*
X185999Y142998D01*
X184000D01*
X183000Y141998D01*
Y138000D01*
X184000Y137000D01*
X185999D01*
X184999Y138999D02*
X186999Y137000D01*
X185999D02*
X186999Y138000D01*
X188998Y137000D02*
X190997D01*
X189998D01*
Y142998D01*
X188998Y141998D01*
X133500Y74000D02*
Y79998D01*
X136499D01*
X137499Y78998D01*
Y76999D01*
X136499Y75999D01*
X133500D01*
X142497Y74000D02*
Y79998D01*
X139498Y76999D01*
X143497D01*
X176500Y201500D02*
Y207498D01*
X179499D01*
X180499Y206498D01*
Y204499D01*
X179499Y203499D01*
X176500D01*
X182498Y206498D02*
X183498Y207498D01*
X185497D01*
X186497Y206498D01*
Y205499D01*
X185497Y204499D01*
X184497D01*
X185497D01*
X186497Y203499D01*
Y202500D01*
X185497Y201500D01*
X183498D01*
X182498Y202500D01*
X199000Y206000D02*
Y211998D01*
X201999D01*
X202999Y210998D01*
Y208999D01*
X201999Y207999D01*
X199000D01*
X208997Y206000D02*
X204998D01*
X208997Y209999D01*
Y210998D01*
X207997Y211998D01*
X205998D01*
X204998Y210998D01*
X79058Y28128D02*
Y34126D01*
X82056D01*
X83056Y33127D01*
Y31127D01*
X82056Y30128D01*
X79058D01*
X85056Y28128D02*
X87055D01*
X86055D01*
Y34126D01*
X85056Y33127D01*
X18500Y77998D02*
Y72000D01*
X21499D01*
X22499Y73000D01*
Y76998D01*
X21499Y77998D01*
X18500D01*
X24498Y72000D02*
X26497D01*
X25498D01*
Y77998D01*
X24498Y76998D01*
X116499Y63998D02*
X115499Y64998D01*
X113500D01*
X112500Y63998D01*
Y60000D01*
X113500Y59000D01*
X115499D01*
X116499Y60000D01*
X118498Y63998D02*
X119498Y64998D01*
X121497D01*
X122497Y63998D01*
Y62999D01*
X121497Y61999D01*
X120497D01*
X121497D01*
X122497Y60999D01*
Y60000D01*
X121497Y59000D01*
X119498D01*
X118498Y60000D01*
X25999Y46998D02*
X24999Y47998D01*
X23000D01*
X22000Y46998D01*
Y43000D01*
X23000Y42000D01*
X24999D01*
X25999Y43000D01*
X31997Y42000D02*
X27998D01*
X31997Y45999D01*
Y46998D01*
X30997Y47998D01*
X28998D01*
X27998Y46998D01*
X63841Y67998D02*
X62842Y68998D01*
X60842D01*
X59843Y67998D01*
Y64000D01*
X60842Y63000D01*
X62842D01*
X63841Y64000D01*
X65841Y63000D02*
X67840D01*
X66840D01*
Y68998D01*
X65841Y67998D01*
D33*
X104884Y160700D02*
X123684D01*
X104584Y160650D02*
X123984D01*
X104384Y160600D02*
X124184D01*
X104184Y160550D02*
X124384D01*
X104034Y160500D02*
X124534D01*
X103884Y160450D02*
X124684D01*
X103784Y160400D02*
X124784D01*
X103634Y160350D02*
X124934D01*
X127434D02*
X127934D01*
X103534Y160300D02*
X125034D01*
X127284D02*
X128034D01*
X103434Y160250D02*
X118134D01*
X123784D02*
X125134D01*
X127234D02*
X128134D01*
X103334Y160200D02*
X117834D01*
X124034D02*
X125234D01*
X127184D02*
X127534D01*
X127834D02*
X128184D01*
X103234Y160150D02*
X117684D01*
X124234D02*
X125334D01*
X127084D02*
X127384D01*
X127984D02*
X128234D01*
X103184Y160100D02*
X117484D01*
X124434D02*
X125384D01*
X127084D02*
X127334D01*
X128034D02*
X128284D01*
X103084Y160050D02*
X117384D01*
X124584D02*
X125484D01*
X127034D02*
X127234D01*
X128084D02*
X128334D01*
X102984Y160000D02*
X117234D01*
X124684D02*
X125534D01*
X126984D02*
X127184D01*
X127334D02*
X127784D01*
X128134D02*
X128334D01*
X102934Y159950D02*
X117134D01*
X124834D02*
X125634D01*
X126984D02*
X127184D01*
X127334D02*
X127934D01*
X128184D02*
X128384D01*
X102884Y159900D02*
X117034D01*
X124934D02*
X125684D01*
X126934D02*
X127134D01*
X127334D02*
X127984D01*
X128234D02*
X128384D01*
X102784Y159850D02*
X116934D01*
X125034D02*
X125784D01*
X126934D02*
X127134D01*
X127334D02*
X127484D01*
X127734D02*
X127984D01*
X128234D02*
X128434D01*
X102734Y159800D02*
X116834D01*
X125134D02*
X125834D01*
X126934D02*
X127084D01*
X127334D02*
X127484D01*
X127784D02*
X127984D01*
X128284D02*
X128434D01*
X102684Y159750D02*
X116734D01*
X125184D02*
X125884D01*
X126884D02*
X127084D01*
X127334D02*
X127484D01*
X127784D02*
X127984D01*
X128284D02*
X128434D01*
X102584Y159700D02*
X116684D01*
X125284D02*
X125984D01*
X126884D02*
X127084D01*
X127334D02*
X127484D01*
X127784D02*
X127984D01*
X128284D02*
X128434D01*
X102534Y159650D02*
X116584D01*
X125334D02*
X126034D01*
X126884D02*
X127084D01*
X127334D02*
X127984D01*
X128284D02*
X128484D01*
X102484Y159600D02*
X116534D01*
X125434D02*
X126084D01*
X126884D02*
X127084D01*
X127334D02*
X127934D01*
X128284D02*
X128484D01*
X102434Y159550D02*
X116434D01*
X125484D02*
X126134D01*
X126884D02*
X127034D01*
X127334D02*
X127834D01*
X128284D02*
X128484D01*
X102384Y159500D02*
X116384D01*
X125584D02*
X126184D01*
X126884D02*
X127084D01*
X127334D02*
X127484D01*
X127584D02*
X127834D01*
X128284D02*
X128484D01*
X102334Y159450D02*
X116334D01*
X125634D02*
X126234D01*
X126884D02*
X127084D01*
X127334D02*
X127484D01*
X127684D02*
X127884D01*
X128284D02*
X128434D01*
X102284Y159400D02*
X116284D01*
X125684D02*
X126284D01*
X126884D02*
X127084D01*
X127334D02*
X127484D01*
X127684D02*
X127934D01*
X128284D02*
X128434D01*
X102234Y159350D02*
X116184D01*
X125784D02*
X126334D01*
X126934D02*
X127084D01*
X127334D02*
X127484D01*
X127734D02*
X127934D01*
X128234D02*
X128434D01*
X102184Y159300D02*
X116134D01*
X125834D02*
X126384D01*
X126934D02*
X127134D01*
X127334D02*
X127484D01*
X127784D02*
X127984D01*
X128234D02*
X128434D01*
X102134Y159250D02*
X116084D01*
X125884D02*
X126434D01*
X126984D02*
X127134D01*
X127334D02*
X127484D01*
X127784D02*
X128034D01*
X128184D02*
X128384D01*
X102084Y159200D02*
X116034D01*
X125934D02*
X126484D01*
X126984D02*
X127184D01*
X127334D02*
X127484D01*
X127834D02*
X128034D01*
X128184D02*
X128384D01*
X102034Y159150D02*
X115984D01*
X125984D02*
X126534D01*
X127034D02*
X127234D01*
X128134D02*
X128334D01*
X101984Y159100D02*
X115934D01*
X126034D02*
X126534D01*
X127034D02*
X127284D01*
X128034D02*
X128284D01*
X101984Y159050D02*
X115884D01*
X126084D02*
X126584D01*
X127084D02*
X127384D01*
X127984D02*
X128234D01*
X101934Y159000D02*
X115884D01*
X126134D02*
X126634D01*
X127134D02*
X127484D01*
X127884D02*
X128184D01*
X101884Y158950D02*
X115834D01*
X126184D02*
X126684D01*
X127234D02*
X128134D01*
X101834Y158900D02*
X115784D01*
X126184D02*
X126734D01*
X127284D02*
X128084D01*
X101834Y158850D02*
X115734D01*
X126234D02*
X126734D01*
X127434D02*
X127934D01*
X101784Y158800D02*
X115684D01*
X126284D02*
X126784D01*
X101734Y158750D02*
X115634D01*
X126334D02*
X126834D01*
X101684Y158700D02*
X115634D01*
X126384D02*
X126834D01*
X101684Y158650D02*
X115584D01*
X126384D02*
X126884D01*
X101634Y158600D02*
X115534D01*
X126434D02*
X126934D01*
X101634Y158550D02*
X115534D01*
X126484D02*
X126934D01*
X101584Y158500D02*
X115484D01*
X126484D02*
X126984D01*
X101534Y158450D02*
X115434D01*
X126534D02*
X126984D01*
X101534Y158400D02*
X115434D01*
X126584D02*
X127034D01*
X101484Y158350D02*
X115384D01*
X126584D02*
X127084D01*
X101484Y158300D02*
X115384D01*
X126634D02*
X127084D01*
X101434Y158250D02*
X115334D01*
X126634D02*
X127134D01*
X101434Y158200D02*
X115334D01*
X126684D02*
X127134D01*
X101384Y158150D02*
X115284D01*
X126734D02*
X127184D01*
X101384Y158100D02*
X112334D01*
X112584D02*
X115284D01*
X122934D02*
X123134D01*
X126734D02*
X127184D01*
X101334Y158050D02*
X112134D01*
X112734D02*
X115234D01*
X122734D02*
X123334D01*
X126784D02*
X127184D01*
X101334Y158000D02*
X112034D01*
X112834D02*
X115234D01*
X122634D02*
X123434D01*
X126784D02*
X127234D01*
X101334Y157950D02*
X103334D01*
X103384D02*
X103434D01*
X104334D02*
X104434D01*
X104484D02*
X106634D01*
X107534D02*
X107584D01*
X107634D02*
X107734D01*
X107784D02*
X109884D01*
X110984D02*
X111034D01*
X111084D02*
X111984D01*
X112934D02*
X115184D01*
X122584D02*
X123534D01*
X126784D02*
X127234D01*
X101284Y157900D02*
X103284D01*
X104634D02*
X106634D01*
X107784D02*
X109834D01*
X111084D02*
X111934D01*
X112984D02*
X115184D01*
X116934D02*
X121484D01*
X122534D02*
X123584D01*
X126834D02*
X127284D01*
X101284Y157850D02*
X103284D01*
X104634D02*
X106634D01*
X107834D02*
X109834D01*
X111084D02*
X111884D01*
X113034D02*
X115184D01*
X116934D02*
X121534D01*
X122484D02*
X123634D01*
X126834D02*
X127284D01*
X101234Y157800D02*
X103334D01*
X104634D02*
X106584D01*
X107834D02*
X109834D01*
X111034D02*
X111834D01*
X113084D02*
X115134D01*
X116934D02*
X121484D01*
X122434D02*
X123634D01*
X126884D02*
X127284D01*
X101234Y157750D02*
X103334D01*
X104634D02*
X106584D01*
X107834D02*
X109784D01*
X111034D02*
X111784D01*
X113084D02*
X115134D01*
X116934D02*
X121484D01*
X122384D02*
X123684D01*
X126884D02*
X127334D01*
X101234Y157700D02*
X103334D01*
X104684D02*
X106584D01*
X107834D02*
X109784D01*
X111034D02*
X111784D01*
X113134D02*
X115084D01*
X116934D02*
X121484D01*
X122384D02*
X123734D01*
X126884D02*
X127334D01*
X101184Y157650D02*
X103334D01*
X104684D02*
X106534D01*
X107884D02*
X109784D01*
X111034D02*
X111734D01*
X113134D02*
X115084D01*
X116934D02*
X121484D01*
X122334D02*
X123734D01*
X126934D02*
X127384D01*
X101184Y157600D02*
X103384D01*
X104684D02*
X106534D01*
X107884D02*
X109784D01*
X110984D02*
X111734D01*
X113184D02*
X115084D01*
X116934D02*
X121484D01*
X122334D02*
X123784D01*
X126934D02*
X127384D01*
X101184Y157550D02*
X103384D01*
X104684D02*
X106534D01*
X107884D02*
X109784D01*
X110984D02*
X111734D01*
X113184D02*
X115034D01*
X116934D02*
X121484D01*
X122334D02*
X123784D01*
X126984D02*
X127384D01*
X101134Y157500D02*
X103384D01*
X104734D02*
X106484D01*
X107934D02*
X109734D01*
X110984D02*
X111684D01*
X113184D02*
X115034D01*
X116934D02*
X121484D01*
X122284D02*
X123784D01*
X126984D02*
X127384D01*
X101134Y157450D02*
X103384D01*
X104734D02*
X106484D01*
X107934D02*
X109734D01*
X110984D02*
X111684D01*
X113184D02*
X115034D01*
X116934D02*
X121484D01*
X122284D02*
X123784D01*
X126984D02*
X127434D01*
X101134Y157400D02*
X103434D01*
X104734D02*
X106484D01*
X107934D02*
X109734D01*
X110934D02*
X111684D01*
X113184D02*
X115034D01*
X116934D02*
X121484D01*
X122284D02*
X123784D01*
X126984D02*
X127434D01*
X101134Y157350D02*
X103434D01*
X104734D02*
X106484D01*
X107934D02*
X109734D01*
X110934D02*
X111684D01*
X113234D02*
X114984D01*
X116934D02*
X121484D01*
X122284D02*
X123784D01*
X127034D02*
X127434D01*
X101084Y157300D02*
X103434D01*
X104734D02*
X106434D01*
X107984D02*
X109684D01*
X110934D02*
X111684D01*
X113184D02*
X114984D01*
X116934D02*
X121484D01*
X122284D02*
X123784D01*
X127034D02*
X127484D01*
X101084Y157250D02*
X103434D01*
X104784D02*
X106434D01*
X107984D02*
X109684D01*
X110934D02*
X111684D01*
X113184D02*
X114984D01*
X116934D02*
X121484D01*
X122284D02*
X123784D01*
X127034D02*
X127484D01*
X101084Y157200D02*
X103484D01*
X104784D02*
X106434D01*
X107984D02*
X109684D01*
X110884D02*
X111734D01*
X113184D02*
X114984D01*
X116934D02*
X121484D01*
X122284D02*
X123784D01*
X127034D02*
X127484D01*
X101084Y157150D02*
X103484D01*
X104784D02*
X106384D01*
X108034D02*
X109684D01*
X110884D02*
X111734D01*
X113184D02*
X114934D01*
X116934D02*
X121484D01*
X122334D02*
X123784D01*
X127084D02*
X127484D01*
X101084Y157100D02*
X103484D01*
X104784D02*
X106384D01*
X108034D02*
X109634D01*
X110884D02*
X111734D01*
X113184D02*
X114934D01*
X116934D02*
X121484D01*
X122334D02*
X123734D01*
X127084D02*
X127484D01*
X101034Y157050D02*
X103534D01*
X104834D02*
X106384D01*
X108034D02*
X109634D01*
X110884D02*
X111734D01*
X113134D02*
X114934D01*
X116934D02*
X121484D01*
X122334D02*
X123734D01*
X127084D02*
X127534D01*
X101034Y157000D02*
X103534D01*
X104834D02*
X106384D01*
X108034D02*
X109634D01*
X110834D02*
X111784D01*
X113134D02*
X114934D01*
X116934D02*
X121484D01*
X122384D02*
X123734D01*
X127084D02*
X127534D01*
X101034Y156950D02*
X103534D01*
X104834D02*
X106334D01*
X108084D02*
X109634D01*
X110834D02*
X111784D01*
X113084D02*
X114934D01*
X116934D02*
X121484D01*
X122384D02*
X123684D01*
X127084D02*
X127534D01*
X101034Y156900D02*
X103534D01*
X104834D02*
X106334D01*
X108084D02*
X109584D01*
X110834D02*
X111834D01*
X113034D02*
X114934D01*
X116934D02*
X121484D01*
X122434D02*
X123634D01*
X127134D02*
X127534D01*
X101034Y156850D02*
X103584D01*
X104834D02*
X106334D01*
X108084D02*
X109584D01*
X110784D02*
X111884D01*
X113034D02*
X114934D01*
X116934D02*
X121484D01*
X122484D02*
X123634D01*
X127134D02*
X127534D01*
X101034Y156800D02*
X103584D01*
X104884D02*
X106284D01*
X108134D02*
X109584D01*
X110784D02*
X111934D01*
X112984D02*
X114884D01*
X116934D02*
X121534D01*
X122534D02*
X123584D01*
X127134D02*
X127534D01*
X101034Y156750D02*
X103584D01*
X104884D02*
X106284D01*
X108134D02*
X109584D01*
X110784D02*
X111984D01*
X112934D02*
X114884D01*
X116934D02*
X121484D01*
X122584D02*
X123484D01*
X127134D02*
X127534D01*
X100984Y156700D02*
X103584D01*
X104884D02*
X106284D01*
X108134D02*
X109584D01*
X110784D02*
X112084D01*
X112834D02*
X114884D01*
X116934D02*
X118284D01*
X122634D02*
X123434D01*
X127134D02*
X127584D01*
X100984Y156650D02*
X103634D01*
X104884D02*
X106234D01*
X108134D02*
X109534D01*
X110734D02*
X112184D01*
X112734D02*
X114884D01*
X116934D02*
X118284D01*
X122784D02*
X123334D01*
X127134D02*
X127584D01*
X100984Y156600D02*
X103634D01*
X104934D02*
X106234D01*
X108184D02*
X109534D01*
X110734D02*
X112384D01*
X112434D02*
X114884D01*
X116934D02*
X118284D01*
X122984D02*
X123034D01*
X127134D02*
X127584D01*
X100984Y156550D02*
X103634D01*
X104934D02*
X106234D01*
X108184D02*
X109534D01*
X110734D02*
X114884D01*
X116934D02*
X118284D01*
X127134D02*
X127584D01*
X100984Y156500D02*
X103634D01*
X104934D02*
X106234D01*
X108184D02*
X109534D01*
X110734D02*
X114884D01*
X116934D02*
X118284D01*
X127134D02*
X127584D01*
X100984Y156450D02*
X103684D01*
X104934D02*
X106184D01*
X108234D02*
X109534D01*
X110684D02*
X114884D01*
X116934D02*
X118284D01*
X127134D02*
X127584D01*
X100984Y156400D02*
X103684D01*
X104934D02*
X106184D01*
X108234D02*
X109484D01*
X110684D02*
X114884D01*
X116934D02*
X118284D01*
X127134D02*
X127584D01*
X100984Y156350D02*
X103684D01*
X104984D02*
X106184D01*
X108234D02*
X109484D01*
X110684D02*
X114884D01*
X116934D02*
X118284D01*
X127134D02*
X127584D01*
X100984Y156300D02*
X103734D01*
X104984D02*
X106134D01*
X108234D02*
X109484D01*
X110684D02*
X114884D01*
X116934D02*
X118284D01*
X127134D02*
X127584D01*
X100984Y156250D02*
X103734D01*
X104984D02*
X106134D01*
X108284D02*
X109484D01*
X110634D02*
X114884D01*
X116934D02*
X118284D01*
X127134D02*
X127584D01*
X100984Y156200D02*
X103734D01*
X104984D02*
X106134D01*
X108284D02*
X109434D01*
X110634D02*
X114884D01*
X116934D02*
X118284D01*
X127134D02*
X127584D01*
X100984Y156150D02*
X103734D01*
X105034D02*
X106134D01*
X108284D02*
X109434D01*
X110634D02*
X114884D01*
X116934D02*
X118284D01*
X127134D02*
X127584D01*
X100984Y156100D02*
X103784D01*
X105034D02*
X106084D01*
X108334D02*
X109434D01*
X110634D02*
X114884D01*
X116934D02*
X118284D01*
X127134D02*
X127584D01*
X100984Y156050D02*
X103784D01*
X105034D02*
X106084D01*
X108334D02*
X109434D01*
X110584D02*
X114884D01*
X116934D02*
X118284D01*
X127134D02*
X127584D01*
X100984Y156000D02*
X103784D01*
X105034D02*
X106084D01*
X107134D02*
X107184D01*
X108334D02*
X109384D01*
X110584D02*
X111784D01*
X113084D02*
X114884D01*
X116934D02*
X118284D01*
X122384D02*
X123684D01*
X127134D02*
X127584D01*
X100984Y155950D02*
X103784D01*
X105084D02*
X106034D01*
X107134D02*
X107234D01*
X108334D02*
X109384D01*
X110584D02*
X111784D01*
X113084D02*
X114884D01*
X116934D02*
X118284D01*
X122384D02*
X123684D01*
X127134D02*
X127584D01*
X100984Y155900D02*
X103834D01*
X105084D02*
X106034D01*
X107134D02*
X107234D01*
X108384D02*
X109384D01*
X110534D02*
X111784D01*
X113084D02*
X114884D01*
X116934D02*
X118284D01*
X122384D02*
X123684D01*
X127134D02*
X127584D01*
X100984Y155850D02*
X103834D01*
X105084D02*
X106034D01*
X107134D02*
X107234D01*
X108384D02*
X109384D01*
X110534D02*
X111784D01*
X113084D02*
X114884D01*
X116934D02*
X118284D01*
X122384D02*
X123684D01*
X127134D02*
X127584D01*
X100984Y155800D02*
X103834D01*
X105084D02*
X105984D01*
X107084D02*
X107234D01*
X108384D02*
X109334D01*
X110534D02*
X111784D01*
X113084D02*
X114884D01*
X116934D02*
X118284D01*
X122384D02*
X123684D01*
X127134D02*
X127584D01*
X100984Y155750D02*
X103834D01*
X105084D02*
X105984D01*
X107084D02*
X107284D01*
X108384D02*
X109334D01*
X110534D02*
X111834D01*
X113084D02*
X114884D01*
X116934D02*
X118284D01*
X122384D02*
X123684D01*
X127134D02*
X127584D01*
X100984Y155700D02*
X103884D01*
X105134D02*
X105984D01*
X107084D02*
X107284D01*
X108434D02*
X109334D01*
X110484D02*
X111784D01*
X113084D02*
X114884D01*
X116934D02*
X118284D01*
X122384D02*
X123684D01*
X127134D02*
X127584D01*
X100984Y155650D02*
X103884D01*
X105134D02*
X105984D01*
X107034D02*
X107284D01*
X108434D02*
X109334D01*
X110484D02*
X111784D01*
X113084D02*
X114884D01*
X116934D02*
X118284D01*
X122384D02*
X123684D01*
X127134D02*
X127584D01*
X100984Y155600D02*
X103884D01*
X105134D02*
X105934D01*
X107034D02*
X107334D01*
X108434D02*
X109334D01*
X110484D02*
X111784D01*
X113084D02*
X114884D01*
X116934D02*
X118284D01*
X122384D02*
X123684D01*
X127134D02*
X127584D01*
X100984Y155550D02*
X103934D01*
X105134D02*
X105934D01*
X107034D02*
X107334D01*
X108484D02*
X109284D01*
X110484D02*
X111784D01*
X113084D02*
X114884D01*
X116934D02*
X118284D01*
X122384D02*
X123684D01*
X127134D02*
X127584D01*
X100984Y155500D02*
X103934D01*
X105184D02*
X105934D01*
X107034D02*
X107334D01*
X108484D02*
X109284D01*
X110434D02*
X111784D01*
X113084D02*
X114884D01*
X116934D02*
X118284D01*
X122384D02*
X123684D01*
X127134D02*
X127584D01*
X100984Y155450D02*
X103934D01*
X105184D02*
X105884D01*
X106984D02*
X107334D01*
X108484D02*
X109284D01*
X110434D02*
X111784D01*
X113084D02*
X114884D01*
X116934D02*
X121284D01*
X122384D02*
X123684D01*
X127134D02*
X127584D01*
X100984Y155400D02*
X103934D01*
X105184D02*
X105884D01*
X106984D02*
X107384D01*
X108484D02*
X109284D01*
X110434D02*
X111784D01*
X113084D02*
X114884D01*
X116934D02*
X121284D01*
X122384D02*
X123684D01*
X127134D02*
X127584D01*
X100984Y155350D02*
X103984D01*
X105184D02*
X105884D01*
X106984D02*
X107384D01*
X108534D02*
X109234D01*
X110434D02*
X111784D01*
X113084D02*
X114884D01*
X116934D02*
X121284D01*
X122384D02*
X123684D01*
X127134D02*
X127584D01*
X100984Y155300D02*
X103984D01*
X105184D02*
X105834D01*
X106934D02*
X107384D01*
X108534D02*
X109234D01*
X110384D02*
X111784D01*
X113084D02*
X114884D01*
X116934D02*
X121284D01*
X122384D02*
X123684D01*
X127134D02*
X127584D01*
X100984Y155250D02*
X103984D01*
X105234D02*
X105834D01*
X106934D02*
X107434D01*
X108534D02*
X109234D01*
X110384D02*
X111784D01*
X113084D02*
X114884D01*
X116934D02*
X121284D01*
X122384D02*
X123684D01*
X127134D02*
X127584D01*
X100984Y155200D02*
X103984D01*
X105234D02*
X105834D01*
X106934D02*
X107434D01*
X108584D02*
X109234D01*
X110384D02*
X111784D01*
X113084D02*
X114884D01*
X116934D02*
X121284D01*
X122384D02*
X123684D01*
X127134D02*
X127584D01*
X100984Y155150D02*
X104034D01*
X105234D02*
X105834D01*
X106934D02*
X107434D01*
X108584D02*
X109184D01*
X110334D02*
X111784D01*
X113084D02*
X114884D01*
X116934D02*
X121284D01*
X122384D02*
X123684D01*
X127134D02*
X127584D01*
X100984Y155100D02*
X104034D01*
X105234D02*
X105784D01*
X106884D02*
X107434D01*
X108584D02*
X109184D01*
X110334D02*
X111784D01*
X113084D02*
X114884D01*
X116934D02*
X121284D01*
X122384D02*
X123684D01*
X127134D02*
X127584D01*
X100984Y155050D02*
X104034D01*
X105284D02*
X105784D01*
X106884D02*
X107484D01*
X108584D02*
X109184D01*
X110334D02*
X111784D01*
X113084D02*
X114884D01*
X116934D02*
X121284D01*
X122384D02*
X123684D01*
X127134D02*
X127584D01*
X100984Y155000D02*
X104084D01*
X105284D02*
X105784D01*
X106884D02*
X107484D01*
X108634D02*
X109184D01*
X110334D02*
X111784D01*
X113084D02*
X114884D01*
X116934D02*
X121284D01*
X122384D02*
X123684D01*
X127134D02*
X127584D01*
X100984Y154950D02*
X104084D01*
X105284D02*
X105734D01*
X106834D02*
X107484D01*
X108634D02*
X109184D01*
X110284D02*
X111784D01*
X113084D02*
X114884D01*
X116934D02*
X121284D01*
X122384D02*
X123684D01*
X127134D02*
X127584D01*
X100984Y154900D02*
X104084D01*
X105284D02*
X105734D01*
X106834D02*
X107534D01*
X108634D02*
X109134D01*
X110284D02*
X111784D01*
X113084D02*
X114884D01*
X116934D02*
X121284D01*
X122384D02*
X123684D01*
X127134D02*
X127584D01*
X100984Y154850D02*
X104084D01*
X105284D02*
X105734D01*
X106834D02*
X107534D01*
X108684D02*
X109134D01*
X110284D02*
X111784D01*
X113084D02*
X114884D01*
X116934D02*
X121284D01*
X122384D02*
X123684D01*
X127134D02*
X127584D01*
X100984Y154800D02*
X104134D01*
X105334D02*
X105734D01*
X106834D02*
X107534D01*
X108684D02*
X109134D01*
X110284D02*
X111784D01*
X113084D02*
X114884D01*
X116934D02*
X121284D01*
X122384D02*
X123684D01*
X127134D02*
X127584D01*
X100984Y154750D02*
X104134D01*
X105334D02*
X105684D01*
X106784D02*
X107534D01*
X108684D02*
X109134D01*
X110234D02*
X111784D01*
X113084D02*
X114884D01*
X116934D02*
X121284D01*
X122384D02*
X123684D01*
X127134D02*
X127584D01*
X100984Y154700D02*
X104134D01*
X105334D02*
X105684D01*
X106784D02*
X107584D01*
X108734D02*
X109084D01*
X110234D02*
X111784D01*
X113084D02*
X114884D01*
X116934D02*
X121284D01*
X122384D02*
X123684D01*
X127134D02*
X127584D01*
X100984Y154650D02*
X104134D01*
X105334D02*
X105684D01*
X106784D02*
X107584D01*
X108734D02*
X109084D01*
X110234D02*
X111784D01*
X113084D02*
X114884D01*
X116934D02*
X121284D01*
X122384D02*
X123684D01*
X127134D02*
X127584D01*
X100984Y154600D02*
X104184D01*
X105384D02*
X105634D01*
X106734D02*
X107584D01*
X108734D02*
X109084D01*
X110234D02*
X111784D01*
X113084D02*
X114884D01*
X116934D02*
X121284D01*
X122384D02*
X123684D01*
X127134D02*
X127584D01*
X100984Y154550D02*
X104184D01*
X105384D02*
X105634D01*
X106734D02*
X107634D01*
X108734D02*
X109084D01*
X110184D02*
X111784D01*
X113084D02*
X114884D01*
X116934D02*
X121284D01*
X122384D02*
X123684D01*
X127134D02*
X127584D01*
X100984Y154500D02*
X104184D01*
X105384D02*
X105634D01*
X106734D02*
X107634D01*
X108784D02*
X109034D01*
X110184D02*
X111784D01*
X113084D02*
X114884D01*
X116934D02*
X121284D01*
X122384D02*
X123684D01*
X127134D02*
X127584D01*
X100984Y154450D02*
X104184D01*
X105384D02*
X105584D01*
X106734D02*
X107634D01*
X108784D02*
X109034D01*
X110184D02*
X111784D01*
X113084D02*
X114884D01*
X116934D02*
X121284D01*
X122384D02*
X123684D01*
X127134D02*
X127584D01*
X100984Y154400D02*
X104234D01*
X105384D02*
X105584D01*
X106684D02*
X107634D01*
X108784D02*
X109034D01*
X110184D02*
X111784D01*
X113084D02*
X114884D01*
X116934D02*
X121284D01*
X122384D02*
X123684D01*
X127134D02*
X127584D01*
X100984Y154350D02*
X104234D01*
X105434D02*
X105584D01*
X106684D02*
X107684D01*
X108784D02*
X109034D01*
X110134D02*
X111784D01*
X113084D02*
X114884D01*
X116934D02*
X121284D01*
X122384D02*
X123684D01*
X127134D02*
X127584D01*
X100984Y154300D02*
X104234D01*
X105434D02*
X105584D01*
X106684D02*
X107684D01*
X108834D02*
X109034D01*
X110134D02*
X111784D01*
X113084D02*
X114884D01*
X116934D02*
X121284D01*
X122384D02*
X123684D01*
X127134D02*
X127584D01*
X100984Y154250D02*
X104284D01*
X105434D02*
X105534D01*
X106634D02*
X107684D01*
X108834D02*
X108984D01*
X110134D02*
X111784D01*
X113084D02*
X114884D01*
X116934D02*
X121284D01*
X122384D02*
X123684D01*
X127134D02*
X127584D01*
X100984Y154200D02*
X104284D01*
X105434D02*
X105534D01*
X106634D02*
X107734D01*
X108834D02*
X108984D01*
X110084D02*
X111784D01*
X113084D02*
X114884D01*
X116934D02*
X118284D01*
X122384D02*
X123684D01*
X127134D02*
X127584D01*
X100984Y154150D02*
X104284D01*
X105484D02*
X105534D01*
X106634D02*
X107734D01*
X108884D02*
X108984D01*
X110084D02*
X111784D01*
X113084D02*
X114884D01*
X116934D02*
X118284D01*
X122384D02*
X123684D01*
X127134D02*
X127584D01*
X100984Y154100D02*
X104284D01*
X106634D02*
X107734D01*
X108884D02*
X108984D01*
X110084D02*
X111784D01*
X113084D02*
X114884D01*
X116934D02*
X118284D01*
X122384D02*
X123684D01*
X127134D02*
X127584D01*
X100984Y154050D02*
X104334D01*
X106584D02*
X107734D01*
X108884D02*
X108934D01*
X110084D02*
X111784D01*
X113084D02*
X114884D01*
X116934D02*
X118284D01*
X122384D02*
X123684D01*
X127134D02*
X127584D01*
X100984Y154000D02*
X104334D01*
X106584D02*
X107784D01*
X108884D02*
X108934D01*
X110034D02*
X111784D01*
X113084D02*
X114884D01*
X116934D02*
X118284D01*
X122384D02*
X123684D01*
X127134D02*
X127584D01*
X100984Y153950D02*
X104334D01*
X106584D02*
X107784D01*
X110034D02*
X111784D01*
X113084D02*
X114884D01*
X116934D02*
X118284D01*
X122384D02*
X123684D01*
X127134D02*
X127584D01*
X100984Y153900D02*
X104334D01*
X106534D02*
X107784D01*
X110034D02*
X111784D01*
X113084D02*
X114884D01*
X116934D02*
X118284D01*
X122384D02*
X123684D01*
X127134D02*
X127584D01*
X100984Y153850D02*
X104384D01*
X106534D02*
X107834D01*
X110034D02*
X111784D01*
X113084D02*
X114884D01*
X116934D02*
X118284D01*
X122384D02*
X123684D01*
X127134D02*
X127584D01*
X100984Y153800D02*
X104384D01*
X106534D02*
X107834D01*
X109984D02*
X111784D01*
X113084D02*
X114884D01*
X116934D02*
X118284D01*
X122384D02*
X123684D01*
X127134D02*
X127584D01*
X100984Y153750D02*
X104384D01*
X106484D02*
X107834D01*
X109984D02*
X111784D01*
X113084D02*
X114884D01*
X116934D02*
X118284D01*
X122384D02*
X123684D01*
X127134D02*
X127584D01*
X100984Y153700D02*
X104434D01*
X106484D02*
X107884D01*
X109984D02*
X111784D01*
X113084D02*
X114884D01*
X116934D02*
X118284D01*
X122384D02*
X123684D01*
X127134D02*
X127584D01*
X100984Y153650D02*
X104434D01*
X106484D02*
X107884D01*
X109984D02*
X111784D01*
X113084D02*
X114884D01*
X116934D02*
X118284D01*
X122384D02*
X123684D01*
X127134D02*
X127584D01*
X100984Y153600D02*
X104434D01*
X106484D02*
X107884D01*
X109934D02*
X111784D01*
X113084D02*
X114884D01*
X116934D02*
X118284D01*
X122384D02*
X123684D01*
X127134D02*
X127584D01*
X100984Y153550D02*
X104434D01*
X106434D02*
X107884D01*
X109934D02*
X111784D01*
X113084D02*
X114884D01*
X116934D02*
X118284D01*
X122384D02*
X123684D01*
X127134D02*
X127584D01*
X100984Y153500D02*
X104484D01*
X106434D02*
X107934D01*
X109934D02*
X111784D01*
X113084D02*
X114884D01*
X116934D02*
X118284D01*
X122384D02*
X123684D01*
X127134D02*
X127584D01*
X100984Y153450D02*
X104484D01*
X106434D02*
X107934D01*
X109934D02*
X111784D01*
X113084D02*
X114884D01*
X116934D02*
X118284D01*
X122384D02*
X123684D01*
X127134D02*
X127584D01*
X100984Y153400D02*
X104484D01*
X106384D02*
X107934D01*
X109884D02*
X111784D01*
X113084D02*
X114884D01*
X116934D02*
X118284D01*
X122384D02*
X123684D01*
X127134D02*
X127584D01*
X100984Y153350D02*
X104484D01*
X106384D02*
X107934D01*
X109884D02*
X111784D01*
X113084D02*
X114884D01*
X116934D02*
X118284D01*
X122384D02*
X123684D01*
X127134D02*
X127584D01*
X100984Y153300D02*
X104534D01*
X106384D02*
X107984D01*
X109884D02*
X111784D01*
X113084D02*
X114884D01*
X116934D02*
X118284D01*
X122384D02*
X123684D01*
X127134D02*
X127584D01*
X100984Y153250D02*
X104534D01*
X106384D02*
X107984D01*
X109834D02*
X111784D01*
X113084D02*
X114884D01*
X116934D02*
X118284D01*
X122384D02*
X123684D01*
X127134D02*
X127584D01*
X100984Y153200D02*
X104534D01*
X106334D02*
X107984D01*
X109834D02*
X111784D01*
X113084D02*
X114884D01*
X116934D02*
X118284D01*
X122384D02*
X123684D01*
X127134D02*
X127584D01*
X100984Y153150D02*
X104534D01*
X106334D02*
X108034D01*
X109834D02*
X111784D01*
X113084D02*
X114884D01*
X116934D02*
X118284D01*
X122384D02*
X123684D01*
X127134D02*
X127584D01*
X100984Y153100D02*
X104584D01*
X106334D02*
X108034D01*
X109834D02*
X111784D01*
X113084D02*
X114884D01*
X116934D02*
X118284D01*
X122384D02*
X123684D01*
X127134D02*
X127584D01*
X100984Y153050D02*
X104584D01*
X106284D02*
X108034D01*
X109784D02*
X111784D01*
X113084D02*
X114884D01*
X116934D02*
X118284D01*
X122384D02*
X123684D01*
X127134D02*
X127584D01*
X101034Y153000D02*
X104584D01*
X106284D02*
X108034D01*
X109784D02*
X111784D01*
X113084D02*
X114884D01*
X116934D02*
X118284D01*
X122384D02*
X123684D01*
X127134D02*
X127534D01*
X101034Y152950D02*
X104634D01*
X106284D02*
X108084D01*
X109784D02*
X111784D01*
X113084D02*
X114834D01*
X116934D02*
X118284D01*
X122384D02*
X123684D01*
X127134D02*
X127534D01*
X101034Y152900D02*
X104634D01*
X106284D02*
X108084D01*
X109784D02*
X111784D01*
X113084D02*
X114834D01*
X116934D02*
X118284D01*
X122384D02*
X123684D01*
X127134D02*
X127534D01*
X101034Y152850D02*
X104634D01*
X106234D02*
X108084D01*
X109734D02*
X111784D01*
X113084D02*
X114834D01*
X116934D02*
X118284D01*
X122384D02*
X123684D01*
X127134D02*
X127534D01*
X101034Y152800D02*
X104634D01*
X106234D02*
X108134D01*
X109734D02*
X111784D01*
X113084D02*
X114834D01*
X116934D02*
X118284D01*
X122384D02*
X123684D01*
X127084D02*
X127534D01*
X101034Y152750D02*
X104684D01*
X106234D02*
X108134D01*
X109734D02*
X111784D01*
X113084D02*
X114834D01*
X116934D02*
X118284D01*
X122384D02*
X123684D01*
X127084D02*
X127534D01*
X101034Y152700D02*
X104684D01*
X106184D02*
X108134D01*
X109734D02*
X111784D01*
X113084D02*
X114834D01*
X116934D02*
X118284D01*
X122384D02*
X123684D01*
X127084D02*
X127484D01*
X101084Y152650D02*
X104684D01*
X106184D02*
X108184D01*
X109684D02*
X111784D01*
X113084D02*
X114834D01*
X116934D02*
X118284D01*
X122384D02*
X123684D01*
X127084D02*
X127484D01*
X101084Y152600D02*
X104684D01*
X106184D02*
X108184D01*
X109684D02*
X111784D01*
X113084D02*
X114834D01*
X116934D02*
X118284D01*
X122384D02*
X123684D01*
X127084D02*
X127484D01*
X101084Y152550D02*
X104734D01*
X106184D02*
X108184D01*
X109684D02*
X111784D01*
X113084D02*
X114784D01*
X116934D02*
X118284D01*
X122384D02*
X123684D01*
X127034D02*
X127484D01*
X101084Y152500D02*
X104734D01*
X106134D02*
X108184D01*
X109684D02*
X111784D01*
X113084D02*
X114784D01*
X116934D02*
X118284D01*
X122384D02*
X123684D01*
X127034D02*
X127484D01*
X101084Y152450D02*
X104734D01*
X106134D02*
X108234D01*
X109634D02*
X111784D01*
X113084D02*
X114784D01*
X116934D02*
X118284D01*
X122384D02*
X123684D01*
X127034D02*
X127434D01*
X101134Y152400D02*
X104734D01*
X106134D02*
X108234D01*
X109634D02*
X111784D01*
X113084D02*
X114784D01*
X116934D02*
X118284D01*
X122384D02*
X123684D01*
X127034D02*
X127434D01*
X101134Y152350D02*
X104784D01*
X106084D02*
X108234D01*
X109634D02*
X111784D01*
X113084D02*
X114784D01*
X116934D02*
X118284D01*
X122384D02*
X123684D01*
X126984D02*
X127434D01*
X101134Y152300D02*
X104784D01*
X106084D02*
X108284D01*
X109584D02*
X111784D01*
X113084D02*
X114734D01*
X116934D02*
X118284D01*
X122384D02*
X123684D01*
X126984D02*
X127434D01*
X101184Y152250D02*
X104784D01*
X106084D02*
X108284D01*
X109584D02*
X111784D01*
X113084D02*
X114734D01*
X116934D02*
X118284D01*
X122384D02*
X123684D01*
X126984D02*
X127384D01*
X101184Y152200D02*
X104834D01*
X106084D02*
X108284D01*
X109584D02*
X111784D01*
X113084D02*
X114734D01*
X116934D02*
X118284D01*
X122384D02*
X123684D01*
X126934D02*
X127384D01*
X101184Y152150D02*
X104834D01*
X106034D02*
X108284D01*
X109584D02*
X111784D01*
X113084D02*
X114734D01*
X116934D02*
X118284D01*
X122384D02*
X123684D01*
X126934D02*
X127384D01*
X101184Y152100D02*
X104834D01*
X106034D02*
X108334D01*
X109534D02*
X111834D01*
X113084D02*
X114684D01*
X116934D02*
X118284D01*
X122384D02*
X123684D01*
X126934D02*
X127334D01*
X101234Y152050D02*
X104834D01*
X106034D02*
X108334D01*
X109534D02*
X111834D01*
X113084D02*
X114684D01*
X116934D02*
X118284D01*
X122384D02*
X123684D01*
X126884D02*
X127334D01*
X101234Y152000D02*
X104884D01*
X105984D02*
X108334D01*
X109534D02*
X111784D01*
X113084D02*
X114684D01*
X116934D02*
X118284D01*
X122384D02*
X123684D01*
X126884D02*
X127334D01*
X101284Y151950D02*
X104884D01*
X105984D02*
X108384D01*
X109534D02*
X111784D01*
X113084D02*
X114684D01*
X116934D02*
X118284D01*
X122384D02*
X123684D01*
X126884D02*
X127284D01*
X101284Y151900D02*
X104884D01*
X105984D02*
X108384D01*
X109484D02*
X111784D01*
X113084D02*
X114634D01*
X116934D02*
X118284D01*
X122384D02*
X123684D01*
X126834D02*
X127284D01*
X101284Y151850D02*
X104934D01*
X105034D02*
X105084D01*
X105884D02*
X108384D01*
X108484D02*
X108534D01*
X108584D02*
X108684D01*
X109484D02*
X111834D01*
X113084D02*
X114634D01*
X117034D02*
X118284D01*
X122484D02*
X122584D01*
X122684D02*
X123484D01*
X123634D02*
X123684D01*
X126834D02*
X127284D01*
X101334Y151800D02*
X114634D01*
X126784D02*
X127234D01*
X101334Y151750D02*
X114584D01*
X126784D02*
X127234D01*
X101384Y151700D02*
X114584D01*
X126734D02*
X127184D01*
X101384Y151650D02*
X114584D01*
X126734D02*
X127184D01*
X101384Y151600D02*
X114534D01*
X126684D02*
X127134D01*
X101434Y151550D02*
X114534D01*
X126684D02*
X127134D01*
X101434Y151500D02*
X114484D01*
X126634D02*
X127084D01*
X101484Y151450D02*
X114484D01*
X126634D02*
X127084D01*
X101484Y151400D02*
X114484D01*
X126584D02*
X127034D01*
X101534Y151350D02*
X114434D01*
X126584D02*
X127034D01*
X101584Y151300D02*
X114434D01*
X126534D02*
X126984D01*
X101584Y151250D02*
X114384D01*
X126484D02*
X126984D01*
X101634Y151200D02*
X114384D01*
X126484D02*
X126934D01*
X101634Y151150D02*
X114334D01*
X126434D02*
X126934D01*
X101684Y151100D02*
X114334D01*
X126384D02*
X126884D01*
X101734Y151050D02*
X114284D01*
X126334D02*
X126834D01*
X101734Y151000D02*
X114284D01*
X126334D02*
X126834D01*
X101784Y150950D02*
X114234D01*
X126284D02*
X126784D01*
X101834Y150900D02*
X114234D01*
X126234D02*
X126734D01*
X101884Y150850D02*
X114184D01*
X126184D02*
X126684D01*
X101884Y150800D02*
X114134D01*
X126134D02*
X126684D01*
X101934Y150750D02*
X114134D01*
X126084D02*
X126634D01*
X101984Y150700D02*
X114084D01*
X126084D02*
X126584D01*
X102034Y150650D02*
X114034D01*
X126034D02*
X126534D01*
X102034Y150600D02*
X114034D01*
X125984D02*
X126484D01*
X102084Y150550D02*
X113984D01*
X125934D02*
X126484D01*
X102134Y150500D02*
X113934D01*
X125834D02*
X126434D01*
X102184Y150450D02*
X113934D01*
X125784D02*
X126384D01*
X102234Y150400D02*
X113884D01*
X125734D02*
X126334D01*
X102284Y150350D02*
X113834D01*
X125684D02*
X126284D01*
X102334Y150300D02*
X113784D01*
X125634D02*
X126234D01*
X102384Y150250D02*
X113734D01*
X125534D02*
X126184D01*
X102434Y150200D02*
X113734D01*
X125484D02*
X126134D01*
X102484Y150150D02*
X113684D01*
X125434D02*
X126084D01*
X102584Y150100D02*
X113634D01*
X125334D02*
X125984D01*
X102634Y150050D02*
X113584D01*
X125284D02*
X125934D01*
X102684Y150000D02*
X113534D01*
X125184D02*
X125884D01*
X102734Y149950D02*
X113484D01*
X125084D02*
X125834D01*
X102784Y149900D02*
X113434D01*
X124984D02*
X125734D01*
X102884Y149850D02*
X113384D01*
X124884D02*
X125684D01*
X102934Y149800D02*
X113334D01*
X124784D02*
X125634D01*
X103034Y149750D02*
X113284D01*
X124684D02*
X125534D01*
X103084Y149700D02*
X113234D01*
X124534D02*
X125484D01*
X103184Y149650D02*
X113184D01*
X124384D02*
X125384D01*
X103284Y149600D02*
X113134D01*
X124234D02*
X125284D01*
X103384Y149550D02*
X113034D01*
X123984D02*
X125184D01*
X103484Y149500D02*
X112984D01*
X123634D02*
X125084D01*
X103584Y149450D02*
X124984D01*
X103684Y149400D02*
X124884D01*
X103784Y149350D02*
X124784D01*
X103934Y149300D02*
X124634D01*
X104084Y149250D02*
X124484D01*
X104234Y149200D02*
X124334D01*
X104434Y149150D02*
X124134D01*
X104684Y149100D02*
X123934D01*
X105034Y149050D02*
X123534D01*
D34*
X100228Y-4601D02*
X96229D01*
Y-7600D01*
X98228Y-6600D01*
X99228D01*
X100228Y-7600D01*
Y-9599D01*
X99228Y-10599D01*
X97229D01*
X96229Y-9599D01*
X102227Y-5601D02*
X103227Y-4601D01*
X105226D01*
X106226Y-5601D01*
Y-6600D01*
X105226Y-7600D01*
X104227D01*
X105226D01*
X106226Y-8600D01*
Y-9599D01*
X105226Y-10599D01*
X103227D01*
X102227Y-9599D01*
X108225Y-10599D02*
Y-9599D01*
X109225D01*
Y-10599D01*
X108225D01*
X117222D02*
X113224D01*
X117222Y-6600D01*
Y-5601D01*
X116223Y-4601D01*
X114223D01*
X113224Y-5601D01*
X119222D02*
X120221Y-4601D01*
X122221D01*
X123220Y-5601D01*
Y-9599D01*
X122221Y-10599D01*
X120221D01*
X119222Y-9599D01*
Y-5601D01*
X125220Y-10599D02*
Y-6600D01*
X126219D01*
X127219Y-7600D01*
Y-10599D01*
Y-7600D01*
X128219Y-6600D01*
X129218Y-7600D01*
Y-10599D01*
X131218D02*
Y-6600D01*
X132218D01*
X133217Y-7600D01*
Y-10599D01*
Y-7600D01*
X134217Y-6600D01*
X135216Y-7600D01*
Y-10599D01*
X99834Y-13101D02*
X95835D01*
Y-16100D01*
X97835Y-15100D01*
X98834D01*
X99834Y-16100D01*
Y-18099D01*
X98834Y-19099D01*
X96835D01*
X95835Y-18099D01*
X101833D02*
X102833Y-19099D01*
X104832D01*
X105832Y-18099D01*
Y-14101D01*
X104832Y-13101D01*
X102833D01*
X101833Y-14101D01*
Y-15100D01*
X102833Y-16100D01*
X105832D01*
X107832Y-19099D02*
Y-18099D01*
X108831D01*
Y-19099D01*
X107832D01*
X115829D02*
Y-13101D01*
X112830Y-16100D01*
X116829D01*
X118828Y-14101D02*
X119828Y-13101D01*
X121827D01*
X122827Y-14101D01*
Y-18099D01*
X121827Y-19099D01*
X119828D01*
X118828Y-18099D01*
Y-14101D01*
X124826Y-19099D02*
Y-15100D01*
X125826D01*
X126825Y-16100D01*
Y-19099D01*
Y-16100D01*
X127825Y-15100D01*
X128825Y-16100D01*
Y-19099D01*
X130824D02*
Y-15100D01*
X131824D01*
X132823Y-16100D01*
Y-19099D01*
Y-16100D01*
X133823Y-15100D01*
X134823Y-16100D01*
Y-19099D01*
X-14399Y89992D02*
Y85993D01*
X-11400D01*
X-12400Y87992D01*
Y88992D01*
X-11400Y89992D01*
X-9401D01*
X-8401Y88992D01*
Y86993D01*
X-9401Y85993D01*
X-8401Y94990D02*
X-14399D01*
X-11400Y91991D01*
Y95990D01*
X-8401Y97989D02*
X-9401D01*
Y98989D01*
X-8401D01*
Y97989D01*
Y105986D02*
X-14399D01*
X-11400Y102987D01*
Y106986D01*
X-13399Y108985D02*
X-14399Y109985D01*
Y111985D01*
X-13399Y112984D01*
X-9401D01*
X-8401Y111985D01*
Y109985D01*
X-9401Y108985D01*
X-13399D01*
X-8401Y114983D02*
X-12400D01*
Y115983D01*
X-11400Y116983D01*
X-8401D01*
X-11400D01*
X-12400Y117982D01*
X-11400Y118982D01*
X-8401D01*
Y120982D02*
X-12400D01*
Y121981D01*
X-11400Y122981D01*
X-8401D01*
X-11400D01*
X-12400Y123981D01*
X-11400Y124980D01*
X-8401D01*
D35*
X197756Y128705D02*
X199724D01*
X198740D01*
Y134608D01*
X197756Y133624D01*
D36*
X23000Y89004D02*
D03*
M02*
