G04 Layer_Color=128*
%FSLAX25Y25*%
%MOIN*%
G70*
G01*
G75*
%ADD18C,0.00394*%
%ADD19C,0.01000*%
%ADD20C,0.00200*%
%ADD21C,0.00197*%
D18*
X98701Y103630D02*
G03*
X98701Y103630I-1969J0D01*
G01*
X41811Y14279D02*
X68189D01*
X41811Y28886D02*
X68189D01*
X41811Y14279D02*
Y28886D01*
X68189Y14279D02*
Y28886D01*
X59724Y107173D02*
X100276D01*
X59724Y78827D02*
X100276D01*
Y107173D01*
X59724Y78827D02*
Y107173D01*
X55000Y19614D02*
Y23551D01*
X53031Y21583D02*
X56969D01*
X80000Y91032D02*
Y94969D01*
X78032Y93000D02*
X81969D01*
X187032Y126500D02*
X190969D01*
X189000Y124531D02*
Y128469D01*
X113980Y163333D02*
Y165333D01*
X112980Y164333D02*
X114980D01*
D19*
X82155Y117208D02*
X145806D01*
Y211458D01*
X82155D02*
X145806D01*
X82155Y117208D02*
Y211458D01*
X78646Y117208D02*
Y211458D01*
X149315D01*
Y117208D02*
Y211458D01*
X78646Y117208D02*
X149315D01*
D20*
X81984Y189238D02*
Y211500D01*
X145984D01*
Y189238D02*
Y211500D01*
X81984Y189238D02*
X145984D01*
X83651Y208333D02*
X83484Y208500D01*
X83151D01*
X82984Y208333D01*
Y207667D01*
X83151Y207500D01*
X83484D01*
X83651Y207667D01*
X83984Y208500D02*
Y207667D01*
X84150Y207500D01*
X84484D01*
X84650Y207667D01*
Y208500D01*
X84984D02*
X85650D01*
X85317D01*
Y207500D01*
X86483Y208500D02*
X86150D01*
X85983Y208333D01*
Y207667D01*
X86150Y207500D01*
X86483D01*
X86650Y207667D01*
Y208333D01*
X86483Y208500D01*
X86983D02*
Y207667D01*
X87150Y207500D01*
X87483D01*
X87649Y207667D01*
Y208500D01*
X87983D02*
X88649D01*
X88316D01*
Y207500D01*
X89982D02*
Y208500D01*
X90482D01*
X90649Y208333D01*
Y208000D01*
X90482Y207833D01*
X89982D01*
X91482Y208500D02*
X91148D01*
X90982Y208333D01*
Y207667D01*
X91148Y207500D01*
X91482D01*
X91648Y207667D01*
Y208333D01*
X91482Y208500D01*
X91981D02*
Y207500D01*
X92648D01*
X92981Y208500D02*
Y208333D01*
X93314Y208000D01*
X93647Y208333D01*
Y208500D01*
X93314Y208000D02*
Y207500D01*
X94647Y208333D02*
X94481Y208500D01*
X94147D01*
X93981Y208333D01*
Y207667D01*
X94147Y207500D01*
X94481D01*
X94647Y207667D01*
Y208000D01*
X94314D01*
X95480Y208500D02*
X95147D01*
X94980Y208333D01*
Y207667D01*
X95147Y207500D01*
X95480D01*
X95647Y207667D01*
Y208333D01*
X95480Y208500D01*
X95980Y207500D02*
Y208500D01*
X96646Y207500D01*
Y208500D01*
X82984Y209500D02*
Y210167D01*
X83318Y210500D01*
X83651Y210167D01*
Y209500D01*
Y210000D01*
X82984D01*
X83984Y209500D02*
Y210500D01*
X84650Y209500D01*
Y210500D01*
X84984D02*
X85650D01*
X85317D01*
Y209500D01*
X86650Y210500D02*
X85983D01*
Y209500D01*
X86650D01*
X85983Y210000D02*
X86317D01*
X86983Y209500D02*
Y210500D01*
X87649Y209500D01*
Y210500D01*
X87983Y209500D02*
Y210500D01*
X88649Y209500D01*
Y210500D01*
X88982Y209500D02*
Y210167D01*
X89316Y210500D01*
X89649Y210167D01*
Y209500D01*
Y210000D01*
X88982D01*
X90982Y209500D02*
Y210167D01*
X91315Y210500D01*
X91648Y210167D01*
Y209500D01*
Y210000D01*
X90982D01*
X91981Y209500D02*
Y210500D01*
X92481D01*
X92648Y210333D01*
Y210000D01*
X92481Y209833D01*
X91981D01*
X92315D02*
X92648Y209500D01*
X93647Y210500D02*
X92981D01*
Y209500D01*
X93647D01*
X92981Y210000D02*
X93314D01*
X93981Y209500D02*
Y210167D01*
X94314Y210500D01*
X94647Y210167D01*
Y209500D01*
Y210000D01*
X93981D01*
X75965Y52500D02*
X78721D01*
X77343Y51122D02*
Y53878D01*
X66122Y52500D02*
X68878D01*
X67500Y51122D02*
Y53878D01*
X184004Y55000D02*
X186996D01*
X185500Y53504D02*
Y56496D01*
X179004Y65000D02*
X181996D01*
X180500Y63504D02*
Y66496D01*
X174004Y55000D02*
X176996D01*
X175500Y53504D02*
Y56496D01*
X169004Y65000D02*
X171996D01*
X170500Y63504D02*
Y66496D01*
X164004Y55000D02*
X166996D01*
X165500Y53504D02*
Y56496D01*
X159004Y65000D02*
X161996D01*
X160500Y63504D02*
Y66496D01*
X154004Y55000D02*
X156996D01*
X155500Y53504D02*
Y56496D01*
X149004Y65000D02*
X151996D01*
X150500Y63504D02*
Y66496D01*
X179201Y30000D02*
X191799D01*
X185500Y23701D02*
Y36299D01*
X134201Y30000D02*
X146799D01*
X140500Y23701D02*
Y36299D01*
X139004Y65000D02*
X141996D01*
X140500Y63504D02*
Y66496D01*
X144004Y55000D02*
X146996D01*
X145500Y53504D02*
Y56496D01*
X163827Y144500D02*
X167173D01*
X165500Y142827D02*
Y146173D01*
X163827Y114500D02*
X167173D01*
X165500Y112827D02*
Y116173D01*
X23622Y12000D02*
X26378D01*
X25000Y10622D02*
Y13378D01*
X23622Y32000D02*
X26378D01*
X25000Y30622D02*
Y33378D01*
X134327Y88000D02*
X137673D01*
X136000Y86327D02*
Y89673D01*
X164327Y88000D02*
X167673D01*
X166000Y86327D02*
Y89673D01*
X164327Y97500D02*
X167673D01*
X166000Y95827D02*
Y99173D01*
X134327Y97500D02*
X137673D01*
X136000Y95827D02*
Y99173D01*
X21228Y81524D02*
X24772D01*
X23000Y79752D02*
Y83295D01*
X21228Y109476D02*
X24772D01*
X23000Y107705D02*
Y111248D01*
X93228Y108000D02*
X96772D01*
X95000Y106228D02*
Y109772D01*
X83228Y108000D02*
X86772D01*
X85000Y106228D02*
Y109772D01*
X73228Y108000D02*
X76772D01*
X75000Y106228D02*
Y109772D01*
X63228Y108000D02*
X66772D01*
X65000Y106228D02*
Y109772D01*
X93228Y78000D02*
X96772D01*
X95000Y76228D02*
Y79772D01*
X83228Y78000D02*
X86772D01*
X85000Y76228D02*
Y79772D01*
X73228Y78000D02*
X76772D01*
X75000Y76228D02*
Y79772D01*
X63228Y78000D02*
X66772D01*
X65000Y76228D02*
Y79772D01*
X187327Y182500D02*
X190673D01*
X189000Y180827D02*
Y184173D01*
X187327Y152500D02*
X190673D01*
X189000Y150827D02*
Y154173D01*
X204327Y99500D02*
X207673D01*
X206000Y97827D02*
Y101173D01*
X204327Y129500D02*
X207673D01*
X206000Y127827D02*
Y131173D01*
X53327Y195500D02*
X56673D01*
X55000Y193827D02*
Y197173D01*
X23327Y195500D02*
X26673D01*
X25000Y193827D02*
Y197173D01*
X187622Y121500D02*
X190378D01*
X189000Y120122D02*
Y122878D01*
X187622Y126500D02*
X190378D01*
X189000Y125122D02*
Y127878D01*
X187622Y131500D02*
X190378D01*
X189000Y130122D02*
Y132878D01*
X34327Y109500D02*
X37673D01*
X36000Y107827D02*
Y111173D01*
X34327Y79500D02*
X37673D01*
X36000Y77827D02*
Y81173D01*
X47327Y80500D02*
X50673D01*
X49000Y78827D02*
Y82173D01*
X47327Y110500D02*
X50673D01*
X49000Y108827D02*
Y112173D01*
X53327Y204000D02*
X56673D01*
X55000Y202327D02*
Y205673D01*
X23327Y204000D02*
X26673D01*
X25000Y202327D02*
Y205673D01*
X167228Y206000D02*
X170772D01*
X169000Y204228D02*
Y207772D01*
X157228Y206000D02*
X160772D01*
X159000Y204228D02*
Y207772D01*
X202228Y198000D02*
X205772D01*
X204000Y196228D02*
Y199772D01*
X202228Y188000D02*
X205772D01*
X204000Y186228D02*
Y189772D01*
X202228Y178000D02*
X205772D01*
X204000Y176228D02*
Y179772D01*
X202228Y168000D02*
X205772D01*
X204000Y166228D02*
Y169772D01*
X202228Y158000D02*
X205772D01*
X204000Y156228D02*
Y159772D01*
X202228Y148000D02*
X205772D01*
X204000Y146228D02*
Y149772D01*
X174327Y152500D02*
X177673D01*
X176000Y150827D02*
Y154173D01*
X174327Y182500D02*
X177673D01*
X176000Y180827D02*
Y184173D01*
X160827Y153000D02*
X164173D01*
X162500Y151327D02*
Y154673D01*
X160827Y183000D02*
X164173D01*
X162500Y181327D02*
Y184673D01*
X105122Y41157D02*
X107878D01*
X106500Y39779D02*
Y42535D01*
X105122Y51000D02*
X107878D01*
X106500Y49622D02*
Y52378D01*
X52728Y183500D02*
X57453D01*
X55091Y181138D02*
Y185862D01*
X27138Y183500D02*
X31862D01*
X29500Y181138D02*
Y185862D01*
X27138Y165784D02*
X31862D01*
X29500Y163421D02*
Y168146D01*
X52728Y165784D02*
X57453D01*
X55091Y163421D02*
Y168146D01*
X52728Y136283D02*
X57453D01*
X55091Y133921D02*
Y138646D01*
X27138Y136283D02*
X31862D01*
X29500Y133921D02*
Y138646D01*
X27138Y118567D02*
X31862D01*
X29500Y116205D02*
Y120929D01*
X52728Y118567D02*
X57453D01*
X55091Y116205D02*
Y120929D01*
X158500Y166400D02*
X161300D01*
X159900Y165000D02*
Y167800D01*
D21*
X40827Y4457D02*
X69173D01*
X40827Y38709D02*
X69173D01*
X40827Y4457D02*
Y38709D01*
X69173Y4457D02*
Y38709D01*
M02*
