<?xml version="1.0" standalone="no"?>
 <!DOCTYPE svg PUBLIC "-//W3C//DTD SVG 1.1//EN" 
 "http://www.w3.org/Graphics/SVG/1.1/DTD/svg11.dtd"> 
<svg xmlns="http://www.w3.org/2000/svg" version="1.1" 
    width="4.96062cm" height="10.8433cm" viewBox="0 0 19530 42690 ">
<title>SVG Picture created as HAN_ESP_TSS721-F.SilkS.svg date 2018/03/01 21:03:42 </title>
  <desc>Picture generated by PCBNEW </desc>
<g style="fill:#000000; fill-opacity:1;stroke:#000000; stroke-opacity:1;
stroke-linecap:round; stroke-linejoin:round; "
 transform="translate(0 0) scale(1 1)">
</g>
<g style="fill:#C2C200; fill-opacity:0.0; 
stroke:#C2C200; stroke-width:-0.000393701; stroke-opacity:1; 
stroke-linecap:round; stroke-linejoin:round;">
</g>
<g style="fill:#C2C200; fill-opacity:0.0; 
stroke:#C2C200; stroke-width:59.0551; stroke-opacity:1; 
stroke-linecap:round; stroke-linejoin:round;">
<path d="M13385 42062
L13135 42062
" />
<path d="M13385 3562
L13385 42062
" />
<path d="M135 3562
L13385 3562
" />
<path d="M135 42062
L135 3562
" />
<path d="M13135 42062
L135 42062
" />
</g>
<g style="fill:#848484; fill-opacity:0.0; 
stroke:#848484; stroke-width:59.0551; stroke-opacity:1; 
stroke-linecap:round; stroke-linejoin:round;">
<path d="M7835 12100
L7816 12137
L7779 12175
L7723 12231
L7704 12269
L7704 12306
" />
<path d="M7798 12287
L7779 12325
L7741 12362
L7666 12381
L7535 12381
L7460 12362
L7423 12325
L7404 12287
L7404 12212
L7423 12175
L7460 12137
L7535 12119
L7666 12119
L7741 12137
L7779 12175
L7798 12212
L7798 12287
" />
<path d="M7798 11744
L7798 11969
" />
<path d="M7798 11856
L7404 11856
L7460 11894
L7498 11931
L7516 11969
" />
<path d="M10570 16491
L10438 16303
" />
<path d="M10345 16491
L10345 16097
L10495 16097
L10532 16116
L10551 16134
L10570 16172
L10570 16228
L10551 16266
L10532 16284
L10495 16303
L10345 16303
" />
<path d="M10720 16134
L10738 16116
L10776 16097
L10870 16097
L10907 16116
L10926 16134
L10945 16172
L10945 16209
L10926 16266
L10701 16491
L10945 16491
" />
<path d="M10570 21741
L10438 21553
" />
<path d="M10345 21741
L10345 21347
L10495 21347
L10532 21366
L10551 21384
L10570 21422
L10570 21478
L10551 21516
L10532 21534
L10495 21553
L10345 21553
" />
<path d="M10907 21347
L10832 21347
L10795 21366
L10776 21384
L10738 21441
L10720 21516
L10720 21666
L10738 21703
L10757 21722
L10795 21741
L10870 21741
L10907 21722
L10926 21703
L10945 21666
L10945 21572
L10926 21534
L10907 21516
L10870 21497
L10795 21497
L10757 21516
L10738 21534
L10720 21572
" />
<path d="M6654 4695
L6654 4977
L6635 5033
L6597 5070
L6541 5089
L6504 5089
" />
<path d="M7047 5089
L6822 5089
" />
<path d="M6935 5089
L6935 4695
L6897 4752
L6860 4789
L6822 4808
" />
<path d="M4254 41597
L4254 41878
L4235 41934
L4198 41972
L4142 41991
L4104 41991
" />
<path d="M4423 41634
L4442 41616
L4479 41597
L4573 41597
L4610 41616
L4629 41634
L4648 41672
L4648 41709
L4629 41766
L4404 41991
L4648 41991
" />
<path d="M6335 14735
L6335 15053
L6354 15091
L6373 15110
L6410 15128
L6485 15128
L6523 15110
L6542 15091
L6560 15053
L6560 14735
" />
<path d="M6954 15128
L6729 15128
" />
<path d="M6842 15128
L6842 14735
L6804 14791
L6767 14828
L6729 14847
" />
<path d="M820 15453
L801 15472
L745 15491
L707 15491
L651 15472
L613 15434
L595 15397
L576 15322
L576 15266
L595 15191
L613 15153
L651 15116
L707 15097
L745 15097
L801 15116
L820 15134
" />
<path d="M1195 15491
L970 15491
" />
<path d="M1082 15491
L1082 15097
L1045 15153
L1007 15191
L970 15209
" />
<path d="M8320 14703
L8301 14722
L8245 14741
L8207 14741
L8151 14722
L8113 14684
L8095 14647
L8076 14572
L8076 14516
L8095 14441
L8113 14403
L8151 14366
L8207 14347
L8245 14347
L8301 14366
L8320 14384
" />
<path d="M8470 14384
L8488 14366
L8526 14347
L8620 14347
L8657 14366
L8676 14384
L8695 14422
L8695 14459
L8676 14516
L8451 14741
L8695 14741
" />
<path d="M4070 38453
L4051 38472
L3995 38491
L3957 38491
L3901 38472
L3863 38434
L3845 38397
L3826 38322
L3826 38266
L3845 38191
L3863 38153
L3901 38116
L3957 38097
L3995 38097
L4051 38116
L4070 38134
" />
<path d="M4201 38097
L4445 38097
L4313 38247
L4370 38247
L4407 38266
L4426 38284
L4445 38322
L4445 38416
L4426 38453
L4407 38472
L4370 38491
L4257 38491
L4220 38472
L4201 38453
" />
<path d="M12570 15453
L12551 15472
L12495 15491
L12457 15491
L12401 15472
L12363 15434
L12345 15397
L12326 15322
L12326 15266
L12345 15191
L12363 15153
L12401 15116
L12457 15097
L12495 15097
L12551 15116
L12570 15134
" />
<path d="M12926 15097
L12738 15097
L12720 15284
L12738 15266
L12776 15247
L12870 15247
L12907 15266
L12926 15284
L12945 15322
L12945 15416
L12926 15453
L12907 15472
L12870 15491
L12776 15491
L12738 15472
L12720 15453
" />
<path d="M2570 15991
L2438 15803
" />
<path d="M2345 15991
L2345 15597
L2495 15597
L2532 15616
L2551 15634
L2570 15672
L2570 15728
L2551 15766
L2532 15784
L2495 15803
L2345 15803
" />
<path d="M2945 15991
L2720 15991
" />
<path d="M2832 15991
L2832 15597
L2795 15653
L2757 15691
L2720 15709
" />
<path d="M10570 19991
L10438 19803
" />
<path d="M10345 19991
L10345 19597
L10495 19597
L10532 19616
L10551 19634
L10570 19672
L10570 19728
L10551 19766
L10532 19784
L10495 19803
L10345 19803
" />
<path d="M10701 19597
L10945 19597
L10813 19747
L10870 19747
L10907 19766
L10926 19784
L10945 19822
L10945 19916
L10926 19953
L10907 19972
L10870 19991
L10757 19991
L10720 19972
L10701 19953
" />
<path d="M10570 23491
L10438 23303
" />
<path d="M10345 23491
L10345 23097
L10495 23097
L10532 23116
L10551 23134
L10570 23172
L10570 23228
L10551 23266
L10532 23284
L10495 23303
L10345 23303
" />
<path d="M10907 23228
L10907 23491
" />
<path d="M10813 23078
L10720 23359
L10963 23359
" />
<path d="M10570 26991
L10438 26803
" />
<path d="M10345 26991
L10345 26597
L10495 26597
L10532 26616
L10551 26634
L10570 26672
L10570 26728
L10551 26766
L10532 26784
L10495 26803
L10345 26803
" />
<path d="M10926 26597
L10738 26597
L10720 26784
L10738 26766
L10776 26747
L10870 26747
L10907 26766
L10926 26784
L10945 26822
L10945 26916
L10926 26953
L10907 26972
L10870 26991
L10776 26991
L10738 26972
L10720 26953
" />
<path d="M10570 25241
L10438 25053
" />
<path d="M10345 25241
L10345 24847
L10495 24847
L10532 24866
L10551 24884
L10570 24922
L10570 24978
L10551 25016
L10532 25034
L10495 25053
L10345 25053
" />
<path d="M10701 24847
L10963 24847
L10795 25241
" />
<path d="M12223 8378
L12035 8509
" />
<path d="M12223 8603
L11829 8603
L11829 8453
L11848 8416
L11867 8397
L11904 8378
L11960 8378
L11998 8397
L12017 8416
L12035 8453
L12035 8603
" />
<path d="M11998 8153
L11979 8191
L11960 8209
L11923 8228
L11904 8228
L11867 8209
L11848 8191
L11829 8153
L11829 8078
L11848 8041
L11867 8022
L11904 8003
L11923 8003
L11960 8022
L11979 8041
L11998 8078
L11998 8153
L12017 8191
L12035 8209
L12073 8228
L12148 8228
L12185 8209
L12204 8191
L12223 8153
L12223 8078
L12204 8041
L12185 8022
L12148 8003
L12073 8003
L12035 8022
L12017 8041
L11998 8078
" />
<path d="M1904 8378
L1717 8509
" />
<path d="M1904 8603
L1510 8603
L1510 8453
L1529 8416
L1548 8397
L1585 8378
L1642 8378
L1679 8397
L1698 8416
L1717 8453
L1717 8603
" />
<path d="M1904 8191
L1904 8116
L1885 8078
L1866 8059
L1810 8022
L1735 8003
L1585 8003
L1548 8022
L1529 8041
L1510 8078
L1510 8153
L1529 8191
L1548 8209
L1585 8228
L1679 8228
L1717 8209
L1735 8191
L1754 8153
L1754 8078
L1735 8041
L1717 8022
L1679 8003
" />
<path d="M10382 18241
L10251 18053
" />
<path d="M10157 18241
L10157 17847
L10307 17847
L10345 17866
L10363 17884
L10382 17922
L10382 17978
L10363 18016
L10345 18034
L10307 18053
L10157 18053
" />
<path d="M10757 18241
L10532 18241
" />
<path d="M10645 18241
L10645 17847
L10607 17903
L10570 17941
L10532 17959
" />
<path d="M11001 17847
L11038 17847
L11076 17866
L11095 17884
L11113 17922
L11132 17997
L11132 18091
L11113 18166
L11095 18203
L11076 18222
L11038 18241
L11001 18241
L10963 18222
L10945 18203
L10926 18166
L10907 18091
L10907 17997
L10926 17922
L10945 17884
L10963 17866
L11001 17847
" />
<path d="M3170 37112
L3488 37112
L3526 37094
L3545 37075
L3563 37037
L3563 36962
L3545 36925
L3526 36906
L3488 36887
L3170 36887
" />
<path d="M3170 36738
L3170 36494
L3320 36625
L3320 36569
L3338 36531
L3357 36513
L3395 36494
L3488 36494
L3526 36513
L3545 36531
L3563 36569
L3563 36681
L3545 36719
L3526 36738
" />
<path d="M5307 20180
L5307 20461
L5288 20517
L5251 20555
L5195 20573
L5157 20573
" />
<path d="M5495 20573
L5495 20180
L5645 20180
L5682 20198
L5701 20217
L5720 20255
L5720 20311
L5701 20348
L5682 20367
L5645 20386
L5495 20386
" />
<path d="M6095 20573
L5870 20573
" />
<path d="M5982 20573
L5982 20180
L5945 20236
L5907 20273
L5870 20292
" />
<path d="M6807 20180
L6807 20461
L6788 20517
L6751 20555
L6695 20573
L6657 20573
" />
<path d="M6995 20573
L6995 20180
L7145 20180
L7182 20198
L7201 20217
L7220 20255
L7220 20311
L7201 20348
L7182 20367
L7145 20386
L6995 20386
" />
<path d="M7370 20217
L7388 20198
L7426 20180
L7520 20180
L7557 20198
L7576 20217
L7595 20255
L7595 20292
L7576 20348
L7351 20573
L7595 20573
" />
<path d="M8420 36112
L8738 36112
L8776 36094
L8795 36075
L8813 36037
L8813 35962
L8795 35925
L8776 35906
L8738 35887
L8420 35887
" />
<path d="M8457 35719
L8438 35700
L8420 35663
L8420 35569
L8438 35531
L8457 35513
L8495 35494
L8532 35494
L8588 35513
L8813 35738
L8813 35494
" />
<path d="M2382 18741
L2251 18553
" />
<path d="M2157 18741
L2157 18347
L2307 18347
L2345 18366
L2363 18384
L2382 18422
L2382 18478
L2363 18516
L2345 18534
L2307 18553
L2157 18553
" />
<path d="M2757 18741
L2532 18741
" />
<path d="M2645 18741
L2645 18347
L2607 18403
L2570 18441
L2532 18459
" />
<path d="M3132 18741
L2907 18741
" />
<path d="M3020 18741
L3020 18347
L2982 18403
L2945 18441
L2907 18459
" />
<path d="M670 20362
L988 20362
L1026 20344
L1045 20325
L1063 20287
L1063 20212
L1045 20175
L1026 20156
L988 20137
L670 20137
" />
<path d="M801 19781
L1063 19781
" />
<path d="M651 19875
L932 19969
L932 19725
" />
<path d="M10835 31408
L10817 31427
L10760 31445
L10723 31445
L10667 31427
L10629 31389
L10610 31352
L10592 31277
L10592 31220
L10610 31145
L10629 31108
L10667 31070
L10723 31052
L10760 31052
L10817 31070
L10835 31089
" />
<path d="M11173 31052
L11098 31052
L11060 31070
L11042 31089
L11004 31145
L10985 31220
L10985 31370
L11004 31408
L11023 31427
L11060 31445
L11135 31445
L11173 31427
L11192 31408
L11210 31370
L11210 31277
L11192 31239
L11173 31220
L11135 31202
L11060 31202
L11023 31220
L11004 31239
L10985 31277
" />
<path d="M2554 28719
L2535 28738
L2479 28756
L2441 28756
L2385 28738
L2348 28700
L2329 28663
L2310 28588
L2310 28531
L2329 28456
L2348 28419
L2385 28381
L2441 28363
L2479 28363
L2535 28381
L2554 28400
" />
<path d="M2891 28494
L2891 28756
" />
<path d="M2798 28344
L2704 28625
L2948 28625
" />
<path d="M6004 23680
L6004 23961
L5985 24017
L5948 24055
L5892 24073
L5854 24073
" />
<path d="M6154 23680
L6398 23680
L6267 23830
L6323 23830
L6360 23848
L6379 23867
L6398 23905
L6398 23998
L6379 24036
L6360 24055
L6323 24073
L6210 24073
L6173 24055
L6154 24036
" />
<path d="M1007 23808
L1026 23752
L1026 23658
L1007 23620
L989 23602
L951 23583
L914 23583
L876 23602
L857 23620
L839 23658
L820 23733
L801 23770
L782 23789
L745 23808
L707 23808
L670 23789
L651 23770
L632 23733
L632 23639
L651 23583
" />
<path d="M632 23452
L1026 23358
L745 23283
L1026 23208
L632 23114
" />
<path d="M1026 22758
L1026 22983
" />
<path d="M1026 22871
L632 22871
L689 22908
L726 22946
L745 22983
" />
<path d="M1007 27617
L1026 27561
L1026 27467
L1007 27429
L989 27411
L951 27392
L914 27392
L876 27411
L857 27429
L839 27467
L820 27542
L801 27579
L782 27598
L745 27617
L707 27617
L670 27598
L651 27579
L632 27542
L632 27448
L651 27392
" />
<path d="M632 27261
L1026 27167
L745 27092
L1026 27017
L632 26923
" />
<path d="M670 26792
L651 26773
L632 26736
L632 26642
L651 26605
L670 26586
L707 26567
L745 26567
L801 26586
L1026 26811
L1026 26567
" />
</g>
<g style="fill:#008484; fill-opacity:0.0; 
stroke:#008484; stroke-width:59.0551; stroke-opacity:1; 
stroke-linecap:round; stroke-linejoin:round;">
</g>
<g style="fill:#008484; fill-opacity:0.0; 
stroke:#008484; stroke-width:47.2441; stroke-opacity:1; 
stroke-linecap:round; stroke-linejoin:round;">
<path d="M6013 12362
L6379 12362
" />
<path d="M7257 12362
L6891 12362
" />
<path d="M7257 12362
L7257 11511
" />
<path d="M6013 12362
L6013 11787
" />
<path d="M9372 16547
L9372 17578
" />
<path d="M9372 17578
L11899 17578
" />
<path d="M11899 17578
L11899 16547
" />
<path d="M11899 16547
L9372 16547
" />
<path d="M9021 17062
L9372 17062
" />
<path d="M12250 17062
L11899 17062
" />
<path d="M9372 21797
L9372 22828
" />
<path d="M9372 22828
L11899 22828
" />
<path d="M11899 22828
L11899 21797
" />
<path d="M11899 21797
L9372 21797
" />
<path d="M9021 22312
L9372 22312
" />
<path d="M12250 22312
L11899 22312
" />
<path d="M9883 3714
L3883 3714
" />
<path d="M3883 10812
L3887 7273
" />
<path d="M3883 10812
L9883 10812
" />
<path d="M9883 10812
L9883 7269
" />
<path d="M3887 6352
L3883 3714
" />
<path d="M9883 6356
L9883 3714
" />
<path d="M423 42399
L3848 42399
" />
<path d="M423 39875
L3848 39875
" />
<path d="M3848 39875
L3848 42399
" />
<path d="M3848 41915
L423 41915
" />
<path d="M423 42399
L423 39875
" />
</g>
<g style="fill:#008484; fill-opacity:0.0; 
stroke:#008484; stroke-width:59.0551; stroke-opacity:1; 
stroke-linecap:round; stroke-linejoin:round;">
<path d="M5818 15314
L5818 15324
" />
<path d="M7452 15314
L7452 15356
" />
<path d="M7452 19311
L7452 19269
" />
<path d="M5818 19311
L5818 19269
" />
<path d="M5818 15314
L7452 15314
" />
<path d="M5818 19311
L7452 19311
" />
<path d="M5818 15324
L5277 15324
" />
</g>
<g style="fill:#008484; fill-opacity:0.0; 
stroke:#008484; stroke-width:47.2441; stroke-opacity:1; 
stroke-linecap:round; stroke-linejoin:round;">
<path d="M473.057 13857.6 A2003.94 2003.94 0.0 0 0 4330.46 13856.3 " />
<path d="M4330.46 12769.7 A2003.94 2003.94 0.0 0 0 473.057 12768.4 " />
<path d="M473.057 12768.4 A2003.94 2003.94 0.0 0 0 472.694 13856.3 " />
<path d="M2401 15301
L2401 11324
" />
<path d="M2385 15301
L2385 11324
" />
<path d="M2370 15301
L2370 11324
" />
<path d="M2354 15300
L2354 11325
" />
<path d="M2338 15300
L2338 11325
" />
<path d="M2322 15300
L2322 11325
" />
<path d="M2307 15299
L2307 11326
" />
<path d="M2291 15298
L2291 11327
" />
<path d="M2275 15297
L2275 11328
" />
<path d="M2259 15296
L2259 11329
" />
<path d="M2244 15295
L2244 11330
" />
<path d="M2228 15293
L2228 11332
" />
<path d="M2212 15292
L2212 11333
" />
<path d="M2196 15290
L2196 11335
" />
<path d="M2181 15289
L2181 11336
" />
<path d="M2165 15287
L2165 11338
" />
<path d="M2149 15285
L2149 11340
" />
<path d="M2133 15283
L2133 11342
" />
<path d="M2117 15281
L2117 11344
" />
<path d="M2101 15278
L2101 11347
" />
<path d="M2086 15276
L2086 11349
" />
<path d="M2070 15274
L2070 11351
" />
<path d="M2054 15271
L2054 11354
" />
<path d="M2038 15268
L2038 11357
" />
<path d="M2023 15265
L2023 11360
" />
<path d="M2007 15262
L2007 11363
" />
<path d="M1991 15259
L1991 11366
" />
<path d="M1975 15255
L1975 11370
" />
<path d="M1960 15252
L1960 11373
" />
<path d="M1944 15248
L1944 11377
" />
<path d="M1928 15244
L1928 11381
" />
<path d="M1912 15240
L1912 11385
" />
<path d="M1897 15237
L1897 11388
" />
<path d="M1881 15232
L1881 13777
" />
<path d="M1881 12848
L1881 11393
" />
<path d="M1865 15228
L1865 13777
" />
<path d="M1865 12848
L1865 11397
" />
<path d="M1850 15224
L1850 13777
" />
<path d="M1850 12848
L1850 11401
" />
<path d="M1834 15219
L1834 13777
" />
<path d="M1834 12848
L1834 11406
" />
<path d="M1818 15214
L1818 13777
" />
<path d="M1818 12848
L1818 11411
" />
<path d="M1802 15209
L1802 13777
" />
<path d="M1802 12848
L1802 11416
" />
<path d="M1787 15205
L1787 13777
" />
<path d="M1787 12848
L1787 11420
" />
<path d="M1771 15199
L1771 13777
" />
<path d="M1771 12848
L1771 11426
" />
<path d="M1755 15194
L1755 13777
" />
<path d="M1755 12848
L1755 11431
" />
<path d="M1739 15188
L1739 13777
" />
<path d="M1739 12848
L1739 11437
" />
<path d="M1724 15183
L1724 13777
" />
<path d="M1724 12848
L1724 11442
" />
<path d="M1708 15177
L1708 13777
" />
<path d="M1708 12848
L1708 11448
" />
<path d="M1692 15172
L1692 13777
" />
<path d="M1692 12848
L1692 11453
" />
<path d="M1676 15165
L1676 13777
" />
<path d="M1676 12848
L1676 11460
" />
<path d="M1661 15159
L1661 13777
" />
<path d="M1661 12848
L1661 11466
" />
<path d="M1645 15153
L1645 13777
" />
<path d="M1645 12848
L1645 11472
" />
<path d="M1629 15146
L1629 13777
" />
<path d="M1629 12848
L1629 11479
" />
<path d="M1613 15140
L1613 13777
" />
<path d="M1613 12848
L1613 11485
" />
<path d="M1598 15133
L1598 13777
" />
<path d="M1598 12848
L1598 11492
" />
<path d="M1582 15126
L1582 13777
" />
<path d="M1582 12848
L1582 11499
" />
<path d="M1566 15119
L1566 13777
" />
<path d="M1566 12848
L1566 11506
" />
<path d="M1550 15111
L1550 13777
" />
<path d="M1550 12848
L1550 11514
" />
<path d="M1535 15104
L1535 13777
" />
<path d="M1535 12848
L1535 11521
" />
<path d="M1519 15096
L1519 13777
" />
<path d="M1519 12848
L1519 11529
" />
<path d="M1503 15088
L1503 13777
" />
<path d="M1503 12848
L1503 11537
" />
<path d="M1487 15081
L1487 13777
" />
<path d="M1487 12848
L1487 11544
" />
<path d="M1472 15072
L1472 13777
" />
<path d="M1472 12848
L1472 11553
" />
<path d="M1456 15064
L1456 13777
" />
<path d="M1456 12848
L1456 11561
" />
<path d="M1440 15056
L1440 13777
" />
<path d="M1440 12848
L1440 11569
" />
<path d="M1424 15047
L1424 13777
" />
<path d="M1424 12848
L1424 11578
" />
<path d="M1409 15038
L1409 13777
" />
<path d="M1409 12848
L1409 11587
" />
<path d="M1393 15029
L1393 13777
" />
<path d="M1393 12848
L1393 11596
" />
<path d="M1377 15020
L1377 13777
" />
<path d="M1377 12848
L1377 11605
" />
<path d="M1361 15010
L1361 13777
" />
<path d="M1361 12848
L1361 11615
" />
<path d="M1346 15001
L1346 13777
" />
<path d="M1346 12848
L1346 11624
" />
<path d="M1330 14991
L1330 13777
" />
<path d="M1330 12848
L1330 11634
" />
<path d="M1314 14981
L1314 13777
" />
<path d="M1314 12848
L1314 11644
" />
<path d="M1298 14970
L1298 13777
" />
<path d="M1298 12848
L1298 11655
" />
<path d="M1283 14960
L1283 13777
" />
<path d="M1283 12848
L1283 11665
" />
<path d="M1267 14949
L1267 13777
" />
<path d="M1267 12848
L1267 11676
" />
<path d="M1251 14938
L1251 13777
" />
<path d="M1251 12848
L1251 11687
" />
<path d="M1235 14927
L1235 13777
" />
<path d="M1235 12848
L1235 11698
" />
<path d="M1220 14916
L1220 13777
" />
<path d="M1220 12848
L1220 11709
" />
<path d="M1204 14904
L1204 13777
" />
<path d="M1204 12848
L1204 11721
" />
<path d="M1188 14892
L1188 13777
" />
<path d="M1188 12848
L1188 11733
" />
<path d="M1172 14880
L1172 13777
" />
<path d="M1172 12848
L1172 11745
" />
<path d="M1157 14868
L1157 13777
" />
<path d="M1157 12848
L1157 11757
" />
<path d="M1141 14855
L1141 13777
" />
<path d="M1141 12848
L1141 11770
" />
<path d="M1125 14842
L1125 13777
" />
<path d="M1125 12848
L1125 11783
" />
<path d="M1109 14829
L1109 13777
" />
<path d="M1109 12848
L1109 11796
" />
<path d="M1094 14816
L1094 13777
" />
<path d="M1094 12848
L1094 11809
" />
<path d="M1078 14802
L1078 13777
" />
<path d="M1078 12848
L1078 11823
" />
<path d="M1062 14788
L1062 13777
" />
<path d="M1062 12848
L1062 11837
" />
<path d="M1046 14774
L1046 13777
" />
<path d="M1046 12848
L1046 11851
" />
<path d="M1031 14759
L1031 13777
" />
<path d="M1031 12848
L1031 11866
" />
<path d="M1015 14744
L1015 13777
" />
<path d="M1015 12848
L1015 11881
" />
<path d="M999 14729
L999 13777
" />
<path d="M999 12848
L999 11896
" />
<path d="M983 14714
L983 13777
" />
<path d="M983 12848
L983 11911
" />
<path d="M968 14698
L968 13777
" />
<path d="M968 12848
L968 11927
" />
<path d="M952 14681
L952 11944
" />
<path d="M936 14665
L936 11960
" />
<path d="M920 14648
L920 11977
" />
<path d="M905 14630
L905 11995
" />
<path d="M889 14612
L889 12012
" />
<path d="M873 14594
L873 12031
" />
<path d="M857 14575
L857 12050
" />
<path d="M842 14556
L842 12069
" />
<path d="M826 14536
L826 12089
" />
<path d="M810 14516
L810 12109
" />
<path d="M794 14495
L794 12130
" />
<path d="M779 14474
L779 12151
" />
<path d="M763 14452
L763 12173
" />
<path d="M747 14429
L747 12196
" />
<path d="M731 14406
L731 12219
" />
<path d="M716 14381
L716 12244
" />
<path d="M700 14357
L700 12268
" />
<path d="M684 14331
L684 12294
" />
<path d="M668 14304
L668 12321
" />
<path d="M653 14277
L653 12348
" />
<path d="M637 14248
L637 12377
" />
<path d="M621 14218
L621 12407
" />
<path d="M605 14187
L605 12438
" />
<path d="M590 14155
L590 12470
" />
<path d="M574 14121
L574 12504
" />
<path d="M558 14085
L558 12540
" />
<path d="M542 14047
L542 12578
" />
<path d="M527 14007
L527 12618
" />
<path d="M511 13964
L511 12661
" />
<path d="M495 13917
L495 12708
" />
<path d="M479 13866
L479 12759
" />
<path d="M464 13811
L464 12814
" />
<path d="M448 13747
L448 12878
" />
<path d="M432 13672
L432 12953
" />
<path d="M416 13577
L416 13048
" />
<path d="M401 13422
L401 13203
" />
<path d="M4448 13312
L3858 13312
" />
<path d="M4153 13608
L4153 13017
" />
<path d="M5218 13350
L8021 13350
" />
<path d="M5218 14775
L8021 14775
" />
<path d="M5218 13350
L5218 14775
" />
<path d="M8021 13350
L8021 14775
" />
<path d="M718 37600
L3521 37600
" />
<path d="M718 39025
L3521 39025
" />
<path d="M718 37600
L718 39025
" />
<path d="M3521 37600
L3521 39025
" />
<path d="M9223.06 13857.6 A2003.94 2003.94 0.0 0 0 13080.5 13856.3 " />
<path d="M13080.5 12769.7 A2003.94 2003.94 0.0 0 0 9223.06 12768.4 " />
<path d="M9223.06 12768.4 A2003.94 2003.94 0.0 0 0 9222.69 13856.3 " />
<path d="M11151 15301
L11151 11324
" />
<path d="M11135 15301
L11135 11324
" />
<path d="M11120 15301
L11120 11324
" />
<path d="M11104 15300
L11104 11325
" />
<path d="M11088 15300
L11088 11325
" />
<path d="M11072 15300
L11072 11325
" />
<path d="M11057 15299
L11057 11326
" />
<path d="M11041 15298
L11041 11327
" />
<path d="M11025 15297
L11025 11328
" />
<path d="M11009 15296
L11009 11329
" />
<path d="M10994 15295
L10994 11330
" />
<path d="M10978 15293
L10978 11332
" />
<path d="M10962 15292
L10962 11333
" />
<path d="M10946 15290
L10946 11335
" />
<path d="M10931 15289
L10931 11336
" />
<path d="M10915 15287
L10915 11338
" />
<path d="M10899 15285
L10899 11340
" />
<path d="M10883 15283
L10883 11342
" />
<path d="M10867 15281
L10867 11344
" />
<path d="M10851 15278
L10851 11347
" />
<path d="M10836 15276
L10836 11349
" />
<path d="M10820 15274
L10820 11351
" />
<path d="M10804 15271
L10804 11354
" />
<path d="M10788 15268
L10788 11357
" />
<path d="M10773 15265
L10773 11360
" />
<path d="M10757 15262
L10757 11363
" />
<path d="M10741 15259
L10741 11366
" />
<path d="M10725 15255
L10725 11370
" />
<path d="M10710 15252
L10710 11373
" />
<path d="M10694 15248
L10694 11377
" />
<path d="M10678 15244
L10678 11381
" />
<path d="M10662 15240
L10662 11385
" />
<path d="M10647 15237
L10647 11388
" />
<path d="M10631 15232
L10631 13777
" />
<path d="M10631 12848
L10631 11393
" />
<path d="M10615 15228
L10615 13777
" />
<path d="M10615 12848
L10615 11397
" />
<path d="M10600 15224
L10600 13777
" />
<path d="M10600 12848
L10600 11401
" />
<path d="M10584 15219
L10584 13777
" />
<path d="M10584 12848
L10584 11406
" />
<path d="M10568 15214
L10568 13777
" />
<path d="M10568 12848
L10568 11411
" />
<path d="M10552 15209
L10552 13777
" />
<path d="M10552 12848
L10552 11416
" />
<path d="M10537 15205
L10537 13777
" />
<path d="M10537 12848
L10537 11420
" />
<path d="M10521 15199
L10521 13777
" />
<path d="M10521 12848
L10521 11426
" />
<path d="M10505 15194
L10505 13777
" />
<path d="M10505 12848
L10505 11431
" />
<path d="M10489 15188
L10489 13777
" />
<path d="M10489 12848
L10489 11437
" />
<path d="M10474 15183
L10474 13777
" />
<path d="M10474 12848
L10474 11442
" />
<path d="M10458 15177
L10458 13777
" />
<path d="M10458 12848
L10458 11448
" />
<path d="M10442 15172
L10442 13777
" />
<path d="M10442 12848
L10442 11453
" />
<path d="M10426 15165
L10426 13777
" />
<path d="M10426 12848
L10426 11460
" />
<path d="M10411 15159
L10411 13777
" />
<path d="M10411 12848
L10411 11466
" />
<path d="M10395 15153
L10395 13777
" />
<path d="M10395 12848
L10395 11472
" />
<path d="M10379 15146
L10379 13777
" />
<path d="M10379 12848
L10379 11479
" />
<path d="M10363 15140
L10363 13777
" />
<path d="M10363 12848
L10363 11485
" />
<path d="M10348 15133
L10348 13777
" />
<path d="M10348 12848
L10348 11492
" />
<path d="M10332 15126
L10332 13777
" />
<path d="M10332 12848
L10332 11499
" />
<path d="M10316 15119
L10316 13777
" />
<path d="M10316 12848
L10316 11506
" />
<path d="M10300 15111
L10300 13777
" />
<path d="M10300 12848
L10300 11514
" />
<path d="M10285 15104
L10285 13777
" />
<path d="M10285 12848
L10285 11521
" />
<path d="M10269 15096
L10269 13777
" />
<path d="M10269 12848
L10269 11529
" />
<path d="M10253 15088
L10253 13777
" />
<path d="M10253 12848
L10253 11537
" />
<path d="M10237 15081
L10237 13777
" />
<path d="M10237 12848
L10237 11544
" />
<path d="M10222 15072
L10222 13777
" />
<path d="M10222 12848
L10222 11553
" />
<path d="M10206 15064
L10206 13777
" />
<path d="M10206 12848
L10206 11561
" />
<path d="M10190 15056
L10190 13777
" />
<path d="M10190 12848
L10190 11569
" />
<path d="M10174 15047
L10174 13777
" />
<path d="M10174 12848
L10174 11578
" />
<path d="M10159 15038
L10159 13777
" />
<path d="M10159 12848
L10159 11587
" />
<path d="M10143 15029
L10143 13777
" />
<path d="M10143 12848
L10143 11596
" />
<path d="M10127 15020
L10127 13777
" />
<path d="M10127 12848
L10127 11605
" />
<path d="M10111 15010
L10111 13777
" />
<path d="M10111 12848
L10111 11615
" />
<path d="M10096 15001
L10096 13777
" />
<path d="M10096 12848
L10096 11624
" />
<path d="M10080 14991
L10080 13777
" />
<path d="M10080 12848
L10080 11634
" />
<path d="M10064 14981
L10064 13777
" />
<path d="M10064 12848
L10064 11644
" />
<path d="M10048 14970
L10048 13777
" />
<path d="M10048 12848
L10048 11655
" />
<path d="M10033 14960
L10033 13777
" />
<path d="M10033 12848
L10033 11665
" />
<path d="M10017 14949
L10017 13777
" />
<path d="M10017 12848
L10017 11676
" />
<path d="M10001 14938
L10001 13777
" />
<path d="M10001 12848
L10001 11687
" />
<path d="M9985 14927
L9985 13777
" />
<path d="M9985 12848
L9985 11698
" />
<path d="M9970 14916
L9970 13777
" />
<path d="M9970 12848
L9970 11709
" />
<path d="M9954 14904
L9954 13777
" />
<path d="M9954 12848
L9954 11721
" />
<path d="M9938 14892
L9938 13777
" />
<path d="M9938 12848
L9938 11733
" />
<path d="M9922 14880
L9922 13777
" />
<path d="M9922 12848
L9922 11745
" />
<path d="M9907 14868
L9907 13777
" />
<path d="M9907 12848
L9907 11757
" />
<path d="M9891 14855
L9891 13777
" />
<path d="M9891 12848
L9891 11770
" />
<path d="M9875 14842
L9875 13777
" />
<path d="M9875 12848
L9875 11783
" />
<path d="M9859 14829
L9859 13777
" />
<path d="M9859 12848
L9859 11796
" />
<path d="M9844 14816
L9844 13777
" />
<path d="M9844 12848
L9844 11809
" />
<path d="M9828 14802
L9828 13777
" />
<path d="M9828 12848
L9828 11823
" />
<path d="M9812 14788
L9812 13777
" />
<path d="M9812 12848
L9812 11837
" />
<path d="M9796 14774
L9796 13777
" />
<path d="M9796 12848
L9796 11851
" />
<path d="M9781 14759
L9781 13777
" />
<path d="M9781 12848
L9781 11866
" />
<path d="M9765 14744
L9765 13777
" />
<path d="M9765 12848
L9765 11881
" />
<path d="M9749 14729
L9749 13777
" />
<path d="M9749 12848
L9749 11896
" />
<path d="M9733 14714
L9733 13777
" />
<path d="M9733 12848
L9733 11911
" />
<path d="M9718 14698
L9718 13777
" />
<path d="M9718 12848
L9718 11927
" />
<path d="M9702 14681
L9702 11944
" />
<path d="M9686 14665
L9686 11960
" />
<path d="M9670 14648
L9670 11977
" />
<path d="M9655 14630
L9655 11995
" />
<path d="M9639 14612
L9639 12012
" />
<path d="M9623 14594
L9623 12031
" />
<path d="M9607 14575
L9607 12050
" />
<path d="M9592 14556
L9592 12069
" />
<path d="M9576 14536
L9576 12089
" />
<path d="M9560 14516
L9560 12109
" />
<path d="M9544 14495
L9544 12130
" />
<path d="M9529 14474
L9529 12151
" />
<path d="M9513 14452
L9513 12173
" />
<path d="M9497 14429
L9497 12196
" />
<path d="M9481 14406
L9481 12219
" />
<path d="M9466 14381
L9466 12244
" />
<path d="M9450 14357
L9450 12268
" />
<path d="M9434 14331
L9434 12294
" />
<path d="M9418 14304
L9418 12321
" />
<path d="M9403 14277
L9403 12348
" />
<path d="M9387 14248
L9387 12377
" />
<path d="M9371 14218
L9371 12407
" />
<path d="M9355 14187
L9355 12438
" />
<path d="M9340 14155
L9340 12470
" />
<path d="M9324 14121
L9324 12504
" />
<path d="M9308 14085
L9308 12540
" />
<path d="M9292 14047
L9292 12578
" />
<path d="M9277 14007
L9277 12618
" />
<path d="M9261 13964
L9261 12661
" />
<path d="M9245 13917
L9245 12708
" />
<path d="M9229 13866
L9229 12759
" />
<path d="M9214 13811
L9214 12814
" />
<path d="M9198 13747
L9198 12878
" />
<path d="M9182 13672
L9182 12953
" />
<path d="M9166 13577
L9166 13048
" />
<path d="M9151 13422
L9151 13203
" />
<path d="M13198 13312
L12608 13312
" />
<path d="M12903 13608
L12903 13017
" />
<path d="M3899 17078
L3899 16047
" />
<path d="M3899 16047
L1372 16047
" />
<path d="M1372 16047
L1372 17078
" />
<path d="M1372 17078
L3899 17078
" />
<path d="M4250 16562
L3899 16562
" />
<path d="M1021 16562
L1372 16562
" />
<path d="M9372 20047
L9372 21078
" />
<path d="M9372 21078
L11899 21078
" />
<path d="M11899 21078
L11899 20047
" />
<path d="M11899 20047
L9372 20047
" />
<path d="M9021 20562
L9372 20562
" />
<path d="M12250 20562
L11899 20562
" />
<path d="M11899 24578
L11899 23547
" />
<path d="M11899 23547
L9372 23547
" />
<path d="M9372 23547
L9372 24578
" />
<path d="M9372 24578
L11899 24578
" />
<path d="M12250 24062
L11899 24062
" />
<path d="M9021 24062
L9372 24062
" />
<path d="M11899 28078
L11899 27047
" />
<path d="M11899 27047
L9372 27047
" />
<path d="M9372 27047
L9372 28078
" />
<path d="M9372 28078
L11899 28078
" />
<path d="M12250 27562
L11899 27562
" />
<path d="M9021 27562
L9372 27562
" />
<path d="M11899 26328
L11899 25297
" />
<path d="M11899 25297
L9372 25297
" />
<path d="M9372 25297
L9372 26328
" />
<path d="M9372 26328
L11899 26328
" />
<path d="M12250 25812
L11899 25812
" />
<path d="M9021 25812
L9372 25812
" />
<path d="M11651 7049
L10620 7049
" />
<path d="M10620 7049
L10620 9576
" />
<path d="M10620 9576
L11651 9576
" />
<path d="M11651 9576
L11651 7049
" />
<path d="M11135 6698
L11135 7049
" />
<path d="M11135 9927
L11135 9576
" />
<path d="M2120 9576
L3151 9576
" />
<path d="M3151 9576
L3151 7049
" />
<path d="M3151 7049
L2120 7049
" />
<path d="M2120 7049
L2120 9576
" />
<path d="M2635 9927
L2635 9576
" />
<path d="M2635 6698
L2635 7049
" />
<path d="M11899 19328
L11899 18297
" />
<path d="M11899 18297
L9372 18297
" />
<path d="M9372 18297
L9372 19328
" />
<path d="M9372 19328
L11899 19328
" />
<path d="M12250 18812
L11899 18812
" />
<path d="M9021 18812
L9372 18812
" />
<path d="M793 36314
L1289 36314
" />
<path d="M3478 36314
L2982 36314
" />
<path d="M793 34834
L793 36314
" />
<path d="M3478 33948
L3478 36314
" />
<path d="M5112 22836
L6159 22836
" />
<path d="M5112 21812
L5112 22836
" />
<path d="M6159 21812
L6159 22836
" />
<path d="M5112 21812
L6159 21812
" />
<path d="M5112 21312
L5112 20789
" />
<path d="M5112 20789
L5635 20789
" />
<path d="M6612 22836
L7659 22836
" />
<path d="M6612 21812
L6612 22836
" />
<path d="M7659 21812
L7659 22836
" />
<path d="M6612 21812
L7659 21812
" />
<path d="M6612 21312
L6612 20789
" />
<path d="M6612 20789
L7135 20789
" />
</g>
<g style="fill:#008484; fill-opacity:0.0; 
stroke:#008484; stroke-width:60; stroke-opacity:1; 
stroke-linecap:round; stroke-linejoin:round;">
<path d="M12535 32462
L12535 32162
" />
<path d="M12535 32162
L6235 32162
" />
<path d="M6235 32162
L6235 32462
" />
</g>
<g style="fill:#008484; fill-opacity:0.0; 
stroke:#008484; stroke-width:47.2441; stroke-opacity:1; 
stroke-linecap:round; stroke-linejoin:round;">
<path d="M1021 17812
L1372 17812
" />
<path d="M4250 17812
L3899 17812
" />
<path d="M1372 18328
L3899 18328
" />
<path d="M1372 17297
L1372 18328
" />
<path d="M3899 17297
L1372 17297
" />
<path d="M3899 18328
L3899 17297
" />
<path d="M3344.49 20791.3 A1016.21 1016.21 0.0 0 0 3550.86 20505 " />
<path d="M3563.54 19630.4 A1023.62 1023.62 0.0 0 0 2635.83 19039.4 " />
<path d="M2635.83 19039.4 A1023.62 1023.62 0.0 0 0 1708.11 19630.4 " />
<path d="M1720.79 20505 A1016.21 1016.21 0.0 0 0 1927.17 20791.3 " />
<path d="M1927 20791
L3344 20791
" />
<path d="M9500 30775
L9500 29350
" />
<path d="M12303 30775
L12303 29350
" />
<path d="M12303 29350
L9500 29350
" />
<path d="M12303 30775
L9500 30775
" />
<path d="M868 30767
L868 31358
" />
<path d="M572 31062
L1163 31062
" />
<path d="M4620 30953
L4620 31172
" />
<path d="M4604 30798
L4604 31327
" />
<path d="M4588 30703
L4588 31422
" />
<path d="M4573 30628
L4573 31497
" />
<path d="M4557 30564
L4557 31561
" />
<path d="M4541 30509
L4541 31616
" />
<path d="M4525 30458
L4525 31667
" />
<path d="M4510 30411
L4510 31714
" />
<path d="M4494 30368
L4494 31757
" />
<path d="M4478 30328
L4478 31797
" />
<path d="M4462 30290
L4462 31835
" />
<path d="M4447 30254
L4447 31871
" />
<path d="M4431 30220
L4431 31905
" />
<path d="M4415 30188
L4415 31937
" />
<path d="M4400 30157
L4400 31968
" />
<path d="M4384 30127
L4384 31998
" />
<path d="M4368 30098
L4368 32027
" />
<path d="M4352 30071
L4352 32054
" />
<path d="M4337 30044
L4337 32081
" />
<path d="M4321 30018
L4321 32107
" />
<path d="M4305 29994
L4305 32131
" />
<path d="M4289 29969
L4289 32156
" />
<path d="M4274 29946
L4274 32179
" />
<path d="M4258 29923
L4258 32202
" />
<path d="M4242 29901
L4242 32224
" />
<path d="M4226 29880
L4226 32245
" />
<path d="M4211 29859
L4211 32266
" />
<path d="M4195 29839
L4195 32286
" />
<path d="M4179 29819
L4179 32306
" />
<path d="M4163 29800
L4163 32325
" />
<path d="M4148 29781
L4148 32344
" />
<path d="M4132 29762
L4132 32362
" />
<path d="M4116 29745
L4116 32380
" />
<path d="M4100 29727
L4100 32398
" />
<path d="M4085 29710
L4085 32415
" />
<path d="M4069 29694
L4069 32431
" />
<path d="M4053 31527
L4053 32448
" />
<path d="M4053 29677
L4053 30598
" />
<path d="M4037 31527
L4037 32464
" />
<path d="M4037 29661
L4037 30598
" />
<path d="M4022 31527
L4022 32479
" />
<path d="M4022 29646
L4022 30598
" />
<path d="M4006 31527
L4006 32494
" />
<path d="M4006 29631
L4006 30598
" />
<path d="M3990 31527
L3990 32509
" />
<path d="M3990 29616
L3990 30598
" />
<path d="M3974 31527
L3974 32524
" />
<path d="M3974 29601
L3974 30598
" />
<path d="M3959 31527
L3959 32538
" />
<path d="M3959 29587
L3959 30598
" />
<path d="M3943 31527
L3943 32552
" />
<path d="M3943 29573
L3943 30598
" />
<path d="M3927 31527
L3927 32566
" />
<path d="M3927 29559
L3927 30598
" />
<path d="M3911 31527
L3911 32579
" />
<path d="M3911 29546
L3911 30598
" />
<path d="M3896 31527
L3896 32592
" />
<path d="M3896 29533
L3896 30598
" />
<path d="M3880 31527
L3880 32605
" />
<path d="M3880 29520
L3880 30598
" />
<path d="M3864 31527
L3864 32618
" />
<path d="M3864 29507
L3864 30598
" />
<path d="M3848 31527
L3848 32630
" />
<path d="M3848 29495
L3848 30598
" />
<path d="M3833 31527
L3833 32642
" />
<path d="M3833 29483
L3833 30598
" />
<path d="M3817 31527
L3817 32654
" />
<path d="M3817 29471
L3817 30598
" />
<path d="M3801 31527
L3801 32666
" />
<path d="M3801 29459
L3801 30598
" />
<path d="M3785 31527
L3785 32677
" />
<path d="M3785 29448
L3785 30598
" />
<path d="M3770 31527
L3770 32688
" />
<path d="M3770 29437
L3770 30598
" />
<path d="M3754 31527
L3754 32699
" />
<path d="M3754 29426
L3754 30598
" />
<path d="M3738 31527
L3738 32710
" />
<path d="M3738 29415
L3738 30598
" />
<path d="M3722 31527
L3722 32720
" />
<path d="M3722 29405
L3722 30598
" />
<path d="M3707 31527
L3707 32731
" />
<path d="M3707 29394
L3707 30598
" />
<path d="M3691 31527
L3691 32741
" />
<path d="M3691 29384
L3691 30598
" />
<path d="M3675 31527
L3675 32751
" />
<path d="M3675 29374
L3675 30598
" />
<path d="M3659 31527
L3659 32760
" />
<path d="M3659 29365
L3659 30598
" />
<path d="M3644 31527
L3644 32770
" />
<path d="M3644 29355
L3644 30598
" />
<path d="M3628 31527
L3628 32779
" />
<path d="M3628 29346
L3628 30598
" />
<path d="M3612 31527
L3612 32788
" />
<path d="M3612 29337
L3612 30598
" />
<path d="M3596 31527
L3596 32797
" />
<path d="M3596 29328
L3596 30598
" />
<path d="M3581 31527
L3581 32806
" />
<path d="M3581 29319
L3581 30598
" />
<path d="M3565 31527
L3565 32814
" />
<path d="M3565 29311
L3565 30598
" />
<path d="M3549 31527
L3549 32822
" />
<path d="M3549 29303
L3549 30598
" />
<path d="M3533 31527
L3533 32831
" />
<path d="M3533 29294
L3533 30598
" />
<path d="M3518 31527
L3518 32838
" />
<path d="M3518 29287
L3518 30598
" />
<path d="M3502 31527
L3502 32846
" />
<path d="M3502 29279
L3502 30598
" />
<path d="M3486 31527
L3486 32854
" />
<path d="M3486 29271
L3486 30598
" />
<path d="M3470 31527
L3470 32861
" />
<path d="M3470 29264
L3470 30598
" />
<path d="M3455 31527
L3455 32869
" />
<path d="M3455 29256
L3455 30598
" />
<path d="M3439 31527
L3439 32876
" />
<path d="M3439 29249
L3439 30598
" />
<path d="M3423 31527
L3423 32883
" />
<path d="M3423 29242
L3423 30598
" />
<path d="M3407 31527
L3407 32890
" />
<path d="M3407 29235
L3407 30598
" />
<path d="M3392 31527
L3392 32896
" />
<path d="M3392 29229
L3392 30598
" />
<path d="M3376 31527
L3376 32903
" />
<path d="M3376 29222
L3376 30598
" />
<path d="M3360 31527
L3360 32909
" />
<path d="M3360 29216
L3360 30598
" />
<path d="M3344 31527
L3344 32915
" />
<path d="M3344 29210
L3344 30598
" />
<path d="M3329 31527
L3329 32922
" />
<path d="M3329 29203
L3329 30598
" />
<path d="M3313 31527
L3313 32927
" />
<path d="M3313 29198
L3313 30598
" />
<path d="M3297 31527
L3297 32933
" />
<path d="M3297 29192
L3297 30598
" />
<path d="M3281 31527
L3281 32938
" />
<path d="M3281 29187
L3281 30598
" />
<path d="M3266 31527
L3266 32944
" />
<path d="M3266 29181
L3266 30598
" />
<path d="M3250 31527
L3250 32949
" />
<path d="M3250 29176
L3250 30598
" />
<path d="M3234 31527
L3234 32955
" />
<path d="M3234 29170
L3234 30598
" />
<path d="M3218 31527
L3218 32959
" />
<path d="M3218 29166
L3218 30598
" />
<path d="M3203 31527
L3203 32964
" />
<path d="M3203 29161
L3203 30598
" />
<path d="M3187 31527
L3187 32969
" />
<path d="M3187 29156
L3187 30598
" />
<path d="M3171 31527
L3171 32974
" />
<path d="M3171 29151
L3171 30598
" />
<path d="M3155 31527
L3155 32978
" />
<path d="M3155 29147
L3155 30598
" />
<path d="M3140 31527
L3140 32982
" />
<path d="M3140 29143
L3140 30598
" />
<path d="M3124 29138
L3124 32987
" />
<path d="M3108 29135
L3108 32990
" />
<path d="M3092 29131
L3092 32994
" />
<path d="M3077 29127
L3077 32998
" />
<path d="M3061 29123
L3061 33002
" />
<path d="M3045 29120
L3045 33005
" />
<path d="M3029 29116
L3029 33009
" />
<path d="M3014 29113
L3014 33012
" />
<path d="M2998 29110
L2998 33015
" />
<path d="M2982 29107
L2982 33018
" />
<path d="M2966 29104
L2966 33021
" />
<path d="M2951 29101
L2951 33024
" />
<path d="M2935 29099
L2935 33026
" />
<path d="M2919 29097
L2919 33028
" />
<path d="M2903 29094
L2903 33031
" />
<path d="M2887 29092
L2887 33033
" />
<path d="M2872 29090
L2872 33035
" />
<path d="M2856 29088
L2856 33037
" />
<path d="M2840 29086
L2840 33039
" />
<path d="M2824 29085
L2824 33040
" />
<path d="M2809 29083
L2809 33042
" />
<path d="M2793 29082
L2793 33043
" />
<path d="M2777 29080
L2777 33045
" />
<path d="M2761 29079
L2761 33046
" />
<path d="M2746 29078
L2746 33047
" />
<path d="M2730 29077
L2730 33048
" />
<path d="M2714 29076
L2714 33049
" />
<path d="M2698 29075
L2698 33050
" />
<path d="M2683 29075
L2683 33050
" />
<path d="M2667 29075
L2667 33050
" />
<path d="M2651 29074
L2651 33051
" />
<path d="M2635 29074
L2635 33051
" />
<path d="M2620 29074
L2620 33051
" />
<path d="M4548.6 31607.6 A2003.94 2003.94 0.0 0 0 4548.96 30519.7 " />
<path d="M691.198 31606.3 A2003.94 2003.94 0.0 0 0 4548.6 31607.6 " />
<path d="M4548.6 30518.4 A2003.94 2003.94 0.0 0 0 691.198 30519.7 " />
<path d="M5612 24289
L6135 24289
" />
<path d="M5612 24812
L5612 24289
" />
<path d="M5612 25312
L6659 25312
" />
<path d="M6659 25312
L6659 30336
" />
<path d="M5612 25312
L5612 30336
" />
<path d="M5612 30336
L6659 30336
" />
<path d="M2816 21905
L2226 21905
" />
<path d="M1242 22397
L1242 24169
" />
<path d="M2226 24661
L2816 24661
" />
<path d="M3801 24169
L3801 22397
" />
<path d="M3801 27978
L3801 26206
" />
<path d="M2226 28470
L2816 28470
" />
<path d="M1242 26206
L1242 27978
" />
<path d="M2816 25714
L2226 25714
" />
</g>
<g style="fill:#848400; fill-opacity:0.0; 
stroke:#848400; stroke-width:47.2441; stroke-opacity:1; 
stroke-linecap:round; stroke-linejoin:round;">
</g>
<g style="fill:#848400; fill-opacity:1.0; 
stroke:#848400; stroke-width:0; stroke-opacity:1; 
stroke-linecap:round; stroke-linejoin:round;">
<circle cx="4549.21" cy="6812.99" r="718.504" /> 
</g>
<g style="fill:#848400; fill-opacity:1.0; 
stroke:#848400; stroke-width:39.3701; stroke-opacity:1; 
stroke-linecap:round; stroke-linejoin:round;">
</g>
<g style="fill:#848400; fill-opacity:1.0; 
stroke:#848400; stroke-width:0; stroke-opacity:1; 
stroke-linecap:round; stroke-linejoin:round;">
<circle cx="9222.44" cy="6812.99" r="718.504" /> 
</g>
<g style="fill:#848400; fill-opacity:1.0; 
stroke:#848400; stroke-width:39.3701; stroke-opacity:1; 
stroke-linecap:round; stroke-linejoin:round;">
</g> 
</svg>
