M48
;Layer_Color=9474304
;FILE_FORMAT=2:5
INCH,LZ
;TYPE=PLATED
T1F00S00C0.02756
T2F00S00C0.02800
T3F00S00C0.02992
T4F00S00C0.03346
T5F00S00C0.03543
T6F00S00C0.04724
T7F00S00C0.12598
%
T01
X0025Y0012
X00675Y00525
X0077343
X01065Y0051
Y0041157
X0189Y01215
Y01265
Y01315
X0025Y0032
T02
X01599Y01664
T03
X01455Y0055
X01555
X01655
X01755
X01855
X01805Y0065
X01705
X01605
X01505
X01405
T04
X0206Y00995
Y01295
X0189Y01525
X0176
X01625Y0153
X01655Y01445
Y01145
X0166Y00975
Y0088
X0136
Y00975
X0049Y01105
X0036Y01095
Y00795
X0049Y00805
X01625Y0183
X0176Y01825
X0189
X0025Y01955
Y0204
X0055
Y01955
T05
X0204Y0148
Y0158
Y0168
Y0178
X0095Y0108
X0085
X0075
X0065
Y0078
X0075
X0085
X0095
X0023Y0081524
Y0109476
X0159Y0206
X0169
X0204Y0198
Y0188
T06
X0055091Y0118567
Y0136283
Y0165784
Y01835
X00295
Y0165784
Y0136283
Y0118567
T07
X01405Y003
X01855
M30
