G04 #@! TF.GenerationSoftware,KiCad,Pcbnew,(5.0.0-rc2-dev-40-gfef1ba999)*
G04 #@! TF.CreationDate,2018-03-01T23:08:39+01:00*
G04 #@! TF.ProjectId,HAN_ESP_TSS721,48414E5F4553505F5453533732312E6B,rev?*
G04 #@! TF.SameCoordinates,Original*
G04 #@! TF.FileFunction,Copper,L1,Top,Signal*
G04 #@! TF.FilePolarity,Positive*
%FSLAX46Y46*%
G04 Gerber Fmt 4.6, Leading zero omitted, Abs format (unit mm)*
G04 Created by KiCad (PCBNEW (5.0.0-rc2-dev-40-gfef1ba999)) date 03/01/18 23:08:39*
%MOMM*%
%LPD*%
G01*
G04 APERTURE LIST*
%ADD10R,0.800000X0.900000*%
%ADD11C,1.600000*%
%ADD12O,1.600000X1.600000*%
%ADD13C,3.650000*%
%ADD14R,1.500000X1.500000*%
%ADD15C,1.500000*%
%ADD16R,0.400000X1.350000*%
%ADD17O,1.250000X0.950000*%
%ADD18O,1.000000X1.550000*%
%ADD19R,1.500000X0.600000*%
%ADD20R,2.000000X2.000000*%
%ADD21C,2.000000*%
%ADD22R,3.800000X2.000000*%
%ADD23R,1.500000X2.000000*%
%ADD24R,1.700000X1.700000*%
%ADD25O,1.700000X1.700000*%
%ADD26R,2.500000X1.100000*%
%ADD27R,1.100000X2.500000*%
%ADD28R,1.520000X1.520000*%
%ADD29C,1.520000*%
%ADD30C,0.600000*%
%ADD31C,0.800000*%
%ADD32C,0.250000*%
%ADD33C,0.400000*%
%ADD34C,1.000000*%
%ADD35C,0.600000*%
%ADD36C,0.254000*%
G04 APERTURE END LIST*
D10*
X49210000Y-88535000D03*
X47310000Y-88535000D03*
X48260000Y-90535000D03*
D11*
X53340000Y-102235000D03*
D12*
X63500000Y-102235000D03*
D11*
X53340000Y-115570000D03*
D12*
X63500000Y-115570000D03*
D13*
X42960000Y-76200000D03*
X54830000Y-76200000D03*
D14*
X53340000Y-82550000D03*
D15*
X52070000Y-85090000D03*
X50800000Y-82550000D03*
X49530000Y-85090000D03*
X48260000Y-82550000D03*
X46990000Y-85090000D03*
X45720000Y-82550000D03*
X44450000Y-85090000D03*
D16*
X35530000Y-161210000D03*
X36180000Y-161210000D03*
X36830000Y-161210000D03*
X37480000Y-161210000D03*
X38130000Y-161210000D03*
D17*
X34330000Y-161210000D03*
X39330000Y-161210000D03*
D18*
X33330000Y-163910000D03*
X40330000Y-163910000D03*
D19*
X45560000Y-98425000D03*
X45560000Y-99695000D03*
X45560000Y-100965000D03*
X45560000Y-102235000D03*
X45560000Y-103505000D03*
X45560000Y-104775000D03*
X45560000Y-106045000D03*
X45560000Y-107315000D03*
X50960000Y-107315000D03*
X50960000Y-106045000D03*
X50960000Y-104775000D03*
X50960000Y-103505000D03*
X50960000Y-102235000D03*
X50960000Y-100965000D03*
X50960000Y-99695000D03*
X50960000Y-98425000D03*
D20*
X40005000Y-92710000D03*
D21*
X35005000Y-92710000D03*
D11*
X45720000Y-94615000D03*
X50720000Y-94615000D03*
X34290000Y-156210000D03*
X39290000Y-156210000D03*
D20*
X62230000Y-92710000D03*
D21*
X57230000Y-92710000D03*
D11*
X43180000Y-100965000D03*
D12*
X33020000Y-100965000D03*
D11*
X53340000Y-111125000D03*
D12*
X63500000Y-111125000D03*
D11*
X63500000Y-120015000D03*
D12*
X53340000Y-120015000D03*
D11*
X63500000Y-128905000D03*
D12*
X53340000Y-128905000D03*
D11*
X63500000Y-124460000D03*
D12*
X53340000Y-124460000D03*
D11*
X59690000Y-74930000D03*
D12*
X59690000Y-85090000D03*
D11*
X38100000Y-85090000D03*
D12*
X38100000Y-74930000D03*
D11*
X63500000Y-106680000D03*
D12*
X53340000Y-106680000D03*
D22*
X36830000Y-152375000D03*
D23*
X36830000Y-146075000D03*
X34530000Y-146075000D03*
X39130000Y-146075000D03*
D24*
X45720000Y-113030000D03*
D25*
X45720000Y-115570000D03*
D24*
X49530000Y-113030000D03*
D25*
X49530000Y-115570000D03*
D26*
X62930000Y-156210000D03*
X62930000Y-154210000D03*
X62930000Y-152210000D03*
X62930000Y-150210000D03*
X62930000Y-148210000D03*
X62930000Y-146210000D03*
X62930000Y-144210000D03*
X62930000Y-142210000D03*
X47530000Y-142210000D03*
X47530000Y-144210000D03*
X47530000Y-146210000D03*
X47530000Y-148210000D03*
X47530000Y-150210000D03*
X47530000Y-152210000D03*
X47530000Y-154210000D03*
X47530000Y-156210000D03*
D27*
X60240000Y-140510000D03*
X58240000Y-140510000D03*
X56240000Y-140510000D03*
X54240000Y-140510000D03*
X52240000Y-140510000D03*
X50240000Y-140510000D03*
D12*
X33020000Y-104140000D03*
D11*
X43180000Y-104140000D03*
D28*
X35560000Y-109855000D03*
D29*
X40640000Y-109855000D03*
X38100000Y-109855000D03*
D11*
X56595000Y-135255000D03*
X61595000Y-135255000D03*
D21*
X40560000Y-137795000D03*
D20*
X35560000Y-137795000D03*
D25*
X46990000Y-134620000D03*
X46990000Y-132080000D03*
X46990000Y-129540000D03*
X46990000Y-127000000D03*
X46990000Y-124460000D03*
D24*
X46990000Y-121920000D03*
D21*
X35560000Y-114785000D03*
X40060000Y-114785000D03*
X35560000Y-121285000D03*
X40060000Y-121285000D03*
X40060000Y-130960000D03*
X35560000Y-130960000D03*
X40060000Y-124460000D03*
X35560000Y-124460000D03*
D30*
X52070000Y-85090000D03*
X53340000Y-99695000D03*
X52070000Y-88265000D03*
X48260000Y-92075000D03*
X45720000Y-94615000D03*
X48260000Y-102235000D03*
D31*
X55245000Y-109220000D03*
D30*
X55245000Y-132080000D03*
X55245000Y-151765000D03*
X58420000Y-147955000D03*
X52070000Y-144145000D03*
X59690000Y-143510000D03*
X43180000Y-145415000D03*
X49530000Y-153670000D03*
X50800000Y-154940000D03*
X44450000Y-150495000D03*
D32*
X59690000Y-74930000D02*
X59690000Y-76200000D01*
X59690000Y-76200000D02*
X53340000Y-82550000D01*
D33*
X38130000Y-161210000D02*
X39330000Y-161210000D01*
D32*
X50960000Y-99695000D02*
X53340000Y-99695000D01*
X49210000Y-88185000D02*
X51990000Y-88185000D01*
X51990000Y-88185000D02*
X52070000Y-88265000D01*
X46355000Y-100965000D02*
X47310000Y-100010000D01*
X47310000Y-100010000D02*
X47310000Y-88535000D01*
X45560000Y-100965000D02*
X46355000Y-100965000D01*
X47230000Y-88265000D02*
X47310000Y-88185000D01*
X48260000Y-90535000D02*
X48260000Y-92075000D01*
X45560000Y-102235000D02*
X44450000Y-102235000D01*
X44450000Y-102235000D02*
X43180000Y-100965000D01*
X46990000Y-104775000D02*
X45560000Y-104775000D01*
X48260000Y-103505000D02*
X46990000Y-104775000D01*
X48260000Y-102235000D02*
X48260000Y-103505000D01*
D33*
X50960000Y-100965000D02*
X52070000Y-100965000D01*
X52070000Y-100965000D02*
X53340000Y-102235000D01*
X34290000Y-157480000D02*
X35530000Y-158720000D01*
X35530000Y-158720000D02*
X35530000Y-159940000D01*
X34290000Y-156210000D02*
X34290000Y-157480000D01*
D34*
X34530000Y-146075000D02*
X34530000Y-148075000D01*
X34530000Y-148075000D02*
X33490001Y-149114999D01*
X33490001Y-149114999D02*
X33490001Y-155410001D01*
X33490001Y-155410001D02*
X34290000Y-156210000D01*
D33*
X35530000Y-159940000D02*
X35530000Y-161210000D01*
D32*
X45720000Y-113030000D02*
X45720000Y-107155000D01*
X45720000Y-107155000D02*
X45560000Y-107315000D01*
D34*
X61595000Y-135255000D02*
X61595000Y-124460000D01*
X61595000Y-137795000D02*
X61595000Y-135255000D01*
X61595000Y-124460000D02*
X61595000Y-120015000D01*
X63500000Y-124460000D02*
X61595000Y-124460000D01*
X61595000Y-120015000D02*
X61595000Y-115570000D01*
X63500000Y-120015000D02*
X61595000Y-120015000D01*
X61595000Y-115570000D02*
X61595000Y-111125000D01*
X63500000Y-115570000D02*
X61595000Y-115570000D01*
X59690000Y-109220000D02*
X55245000Y-109220000D01*
X61595000Y-111125000D02*
X59690000Y-109220000D01*
X61595000Y-111125000D02*
X63500000Y-111125000D01*
X36735000Y-140970000D02*
X36830000Y-141065000D01*
X36830000Y-141065000D02*
X36830000Y-146075000D01*
X61595000Y-137795000D02*
X45720000Y-137795000D01*
X45720000Y-137795000D02*
X42545000Y-140970000D01*
X42545000Y-140970000D02*
X36735000Y-140970000D01*
X36735000Y-140970000D02*
X35560000Y-139795000D01*
X35560000Y-139795000D02*
X35560000Y-137795000D01*
X62865000Y-141575000D02*
X62230000Y-142210000D01*
X62865000Y-139065000D02*
X62865000Y-141575000D01*
X61595000Y-137795000D02*
X62865000Y-139065000D01*
D32*
X62230000Y-142210000D02*
X62260000Y-142210000D01*
X40060000Y-118110000D02*
X40060000Y-114785000D01*
X40060000Y-121285000D02*
X40060000Y-118110000D01*
X53340000Y-118110000D02*
X40640000Y-118110000D01*
X40640000Y-118110000D02*
X40060000Y-118110000D01*
X55245000Y-132080000D02*
X55245000Y-118745000D01*
X55245000Y-118745000D02*
X54610000Y-118110000D01*
X59690000Y-156210000D02*
X55245000Y-151765000D01*
X54610000Y-118110000D02*
X53340000Y-118110000D01*
X53340000Y-115570000D02*
X53340000Y-118110000D01*
X62230000Y-156210000D02*
X59690000Y-156210000D01*
X58420000Y-149860000D02*
X58420000Y-147955000D01*
X60770000Y-152210000D02*
X58420000Y-149860000D01*
X62230000Y-152210000D02*
X60770000Y-152210000D01*
X48230000Y-144210000D02*
X52005000Y-144210000D01*
X52005000Y-144210000D02*
X52070000Y-144145000D01*
X56990000Y-146210000D02*
X59690000Y-143510000D01*
X48230000Y-146210000D02*
X56990000Y-146210000D01*
X45304999Y-119215001D02*
X40060000Y-124460000D01*
X52540001Y-119215001D02*
X45304999Y-119215001D01*
X53340000Y-120015000D02*
X52540001Y-119215001D01*
X43180000Y-145415000D02*
X45975000Y-148210000D01*
X45975000Y-148210000D02*
X48230000Y-148210000D01*
X48990000Y-154210000D02*
X48230000Y-154210000D01*
X49530000Y-153670000D02*
X48990000Y-154210000D01*
X48230000Y-156210000D02*
X49530000Y-156210000D01*
X49530000Y-156210000D02*
X50800000Y-154940000D01*
D35*
X53340000Y-106680000D02*
X52705000Y-107315000D01*
X52705000Y-107315000D02*
X50960000Y-107315000D01*
X62230000Y-99695000D02*
X55245000Y-106680000D01*
X62230000Y-92710000D02*
X62230000Y-99695000D01*
X55245000Y-106680000D02*
X53340000Y-106680000D01*
X50960000Y-104775000D02*
X49530000Y-104775000D01*
X49530000Y-107315000D02*
X50960000Y-107315000D01*
X48895000Y-106680000D02*
X49530000Y-107315000D01*
X48895000Y-105410000D02*
X48895000Y-106680000D01*
X49530000Y-104775000D02*
X48895000Y-105410000D01*
D32*
X50960000Y-104775000D02*
X51435000Y-104775000D01*
X48260000Y-104775000D02*
X47625000Y-105410000D01*
X49530000Y-109220000D02*
X49530000Y-110490000D01*
X47625000Y-107315000D02*
X49530000Y-109220000D01*
X47625000Y-105410000D02*
X47625000Y-107315000D01*
X50960000Y-103505000D02*
X49530000Y-103505000D01*
X49530000Y-110490000D02*
X49530000Y-113030000D01*
X49530000Y-103505000D02*
X48260000Y-104775000D01*
X50960000Y-98425000D02*
X56515000Y-98425000D01*
X59690000Y-95250000D02*
X59690000Y-85090000D01*
X56515000Y-98425000D02*
X59690000Y-95250000D01*
X45560000Y-98425000D02*
X41910000Y-98425000D01*
X38100000Y-94615000D02*
X38100000Y-85090000D01*
X41910000Y-98425000D02*
X38100000Y-94615000D01*
X44450000Y-150750000D02*
X44450000Y-150495000D01*
X45910000Y-152210000D02*
X44450000Y-150750000D01*
X48230000Y-152210000D02*
X45910000Y-152210000D01*
X38100000Y-107950000D02*
X38100000Y-109855000D01*
X34290000Y-104140000D02*
X38100000Y-107950000D01*
X33020000Y-104140000D02*
X34290000Y-104140000D01*
D36*
G36*
X49091843Y-139012235D02*
X49042560Y-139260000D01*
X49042560Y-141081437D01*
X48906309Y-141025000D01*
X47815750Y-141025000D01*
X47657000Y-141183750D01*
X47657000Y-142083000D01*
X47677000Y-142083000D01*
X47677000Y-142337000D01*
X47657000Y-142337000D01*
X47657000Y-142357000D01*
X47403000Y-142357000D01*
X47403000Y-142337000D01*
X45803750Y-142337000D01*
X45645000Y-142495750D01*
X45645000Y-142886310D01*
X45741673Y-143119699D01*
X45823375Y-143201400D01*
X45822191Y-143202191D01*
X45681843Y-143412235D01*
X45632560Y-143660000D01*
X45632560Y-144760000D01*
X45681843Y-145007765D01*
X45816973Y-145210000D01*
X45681843Y-145412235D01*
X45632560Y-145660000D01*
X45632560Y-146760000D01*
X45640694Y-146800892D01*
X44115000Y-145275199D01*
X44115000Y-145229017D01*
X43972655Y-144885365D01*
X43709635Y-144622345D01*
X43365983Y-144480000D01*
X42994017Y-144480000D01*
X42650365Y-144622345D01*
X42387345Y-144885365D01*
X42245000Y-145229017D01*
X42245000Y-145600983D01*
X42387345Y-145944635D01*
X42650365Y-146207655D01*
X42994017Y-146350000D01*
X43040199Y-146350000D01*
X45384671Y-148694473D01*
X45427071Y-148757929D01*
X45663582Y-148915961D01*
X45681843Y-149007765D01*
X45816973Y-149210000D01*
X45681843Y-149412235D01*
X45632560Y-149660000D01*
X45632560Y-150760000D01*
X45656833Y-150882032D01*
X45385000Y-150610199D01*
X45385000Y-150309017D01*
X45242655Y-149965365D01*
X44979635Y-149702345D01*
X44635983Y-149560000D01*
X44264017Y-149560000D01*
X43920365Y-149702345D01*
X43657345Y-149965365D01*
X43515000Y-150309017D01*
X43515000Y-150680983D01*
X43657345Y-151024635D01*
X43844545Y-151211835D01*
X43902071Y-151297929D01*
X43965530Y-151340331D01*
X45319671Y-152694473D01*
X45362071Y-152757929D01*
X45425527Y-152800329D01*
X45613462Y-152925904D01*
X45661605Y-152935480D01*
X45667706Y-152936694D01*
X45681843Y-153007765D01*
X45816973Y-153210000D01*
X45681843Y-153412235D01*
X45632560Y-153660000D01*
X45632560Y-154760000D01*
X45681843Y-155007765D01*
X45816973Y-155210000D01*
X45681843Y-155412235D01*
X45632560Y-155660000D01*
X45632560Y-156760000D01*
X45681843Y-157007765D01*
X45822191Y-157217809D01*
X46032235Y-157358157D01*
X46280000Y-157407440D01*
X48780000Y-157407440D01*
X49027765Y-157358157D01*
X49237809Y-157217809D01*
X49378157Y-157007765D01*
X49385669Y-156970000D01*
X49455153Y-156970000D01*
X49530000Y-156984888D01*
X49604847Y-156970000D01*
X49604852Y-156970000D01*
X49826537Y-156925904D01*
X50077929Y-156757929D01*
X50120331Y-156694470D01*
X50939802Y-155875000D01*
X50985983Y-155875000D01*
X51329635Y-155732655D01*
X51592655Y-155469635D01*
X51735000Y-155125983D01*
X51735000Y-154754017D01*
X51592655Y-154410365D01*
X51329635Y-154147345D01*
X50985983Y-154005000D01*
X50614017Y-154005000D01*
X50359629Y-154110371D01*
X50465000Y-153855983D01*
X50465000Y-153484017D01*
X50322655Y-153140365D01*
X50059635Y-152877345D01*
X49715983Y-152735000D01*
X49427440Y-152735000D01*
X49427440Y-151660000D01*
X49378157Y-151412235D01*
X49243027Y-151210000D01*
X49378157Y-151007765D01*
X49427440Y-150760000D01*
X49427440Y-149660000D01*
X49378157Y-149412235D01*
X49243027Y-149210000D01*
X49378157Y-149007765D01*
X49427440Y-148760000D01*
X49427440Y-147660000D01*
X49378157Y-147412235D01*
X49243027Y-147210000D01*
X49378157Y-147007765D01*
X49385669Y-146970000D01*
X56915153Y-146970000D01*
X56990000Y-146984888D01*
X57064847Y-146970000D01*
X57064852Y-146970000D01*
X57286537Y-146925904D01*
X57537929Y-146757929D01*
X57580331Y-146694470D01*
X59829802Y-144445000D01*
X59875983Y-144445000D01*
X60219635Y-144302655D01*
X60482655Y-144039635D01*
X60625000Y-143695983D01*
X60625000Y-143324017D01*
X60482655Y-142980365D01*
X60219635Y-142717345D01*
X59875983Y-142575000D01*
X59504017Y-142575000D01*
X59160365Y-142717345D01*
X58897345Y-142980365D01*
X58755000Y-143324017D01*
X58755000Y-143370198D01*
X56675199Y-145450000D01*
X49385669Y-145450000D01*
X49378157Y-145412235D01*
X49243027Y-145210000D01*
X49378157Y-145007765D01*
X49385669Y-144970000D01*
X51618453Y-144970000D01*
X51884017Y-145080000D01*
X52255983Y-145080000D01*
X52599635Y-144937655D01*
X52862655Y-144674635D01*
X53005000Y-144330983D01*
X53005000Y-143959017D01*
X52862655Y-143615365D01*
X52599635Y-143352345D01*
X52255983Y-143210000D01*
X51884017Y-143210000D01*
X51540365Y-143352345D01*
X51442710Y-143450000D01*
X49385669Y-143450000D01*
X49378157Y-143412235D01*
X49237809Y-143202191D01*
X49236625Y-143201400D01*
X49318327Y-143119699D01*
X49415000Y-142886310D01*
X49415000Y-142495750D01*
X49256252Y-142337002D01*
X49410575Y-142337002D01*
X49442235Y-142358157D01*
X49690000Y-142407440D01*
X50790000Y-142407440D01*
X51037765Y-142358157D01*
X51240000Y-142223027D01*
X51442235Y-142358157D01*
X51690000Y-142407440D01*
X52790000Y-142407440D01*
X53037765Y-142358157D01*
X53240000Y-142223027D01*
X53442235Y-142358157D01*
X53690000Y-142407440D01*
X54790000Y-142407440D01*
X55037765Y-142358157D01*
X55240000Y-142223027D01*
X55442235Y-142358157D01*
X55690000Y-142407440D01*
X56790000Y-142407440D01*
X57037765Y-142358157D01*
X57240000Y-142223027D01*
X57442235Y-142358157D01*
X57690000Y-142407440D01*
X58790000Y-142407440D01*
X59037765Y-142358157D01*
X59240000Y-142223027D01*
X59442235Y-142358157D01*
X59690000Y-142407440D01*
X60790000Y-142407440D01*
X61032560Y-142359192D01*
X61032560Y-142760000D01*
X61081843Y-143007765D01*
X61216973Y-143210000D01*
X61081843Y-143412235D01*
X61032560Y-143660000D01*
X61032560Y-144760000D01*
X61081843Y-145007765D01*
X61216973Y-145210000D01*
X61081843Y-145412235D01*
X61032560Y-145660000D01*
X61032560Y-146760000D01*
X61081843Y-147007765D01*
X61216973Y-147210000D01*
X61081843Y-147412235D01*
X61032560Y-147660000D01*
X61032560Y-148760000D01*
X61081843Y-149007765D01*
X61216973Y-149210000D01*
X61081843Y-149412235D01*
X61032560Y-149660000D01*
X61032560Y-150760000D01*
X61081843Y-151007765D01*
X61216973Y-151210000D01*
X61081843Y-151412235D01*
X61076068Y-151441266D01*
X59180000Y-149545199D01*
X59180000Y-148517290D01*
X59212655Y-148484635D01*
X59355000Y-148140983D01*
X59355000Y-147769017D01*
X59212655Y-147425365D01*
X58949635Y-147162345D01*
X58605983Y-147020000D01*
X58234017Y-147020000D01*
X57890365Y-147162345D01*
X57627345Y-147425365D01*
X57485000Y-147769017D01*
X57485000Y-148140983D01*
X57627345Y-148484635D01*
X57660001Y-148517291D01*
X57660000Y-149785153D01*
X57645112Y-149860000D01*
X57660000Y-149934847D01*
X57660000Y-149934851D01*
X57704096Y-150156536D01*
X57872071Y-150407929D01*
X57935530Y-150450331D01*
X60179671Y-152694473D01*
X60222071Y-152757929D01*
X60473463Y-152925904D01*
X60695148Y-152970000D01*
X60695153Y-152970000D01*
X60770000Y-152984888D01*
X60844847Y-152970000D01*
X61074331Y-152970000D01*
X61081843Y-153007765D01*
X61216973Y-153210000D01*
X61081843Y-153412235D01*
X61032560Y-153660000D01*
X61032560Y-154760000D01*
X61081843Y-155007765D01*
X61216973Y-155210000D01*
X61081843Y-155412235D01*
X61074331Y-155450000D01*
X60004802Y-155450000D01*
X56180000Y-151625199D01*
X56180000Y-151579017D01*
X56037655Y-151235365D01*
X55774635Y-150972345D01*
X55430983Y-150830000D01*
X55059017Y-150830000D01*
X54715365Y-150972345D01*
X54452345Y-151235365D01*
X54310000Y-151579017D01*
X54310000Y-151950983D01*
X54452345Y-152294635D01*
X54715365Y-152557655D01*
X55059017Y-152700000D01*
X55105199Y-152700000D01*
X59099671Y-156694473D01*
X59142071Y-156757929D01*
X59393463Y-156925904D01*
X59615148Y-156970000D01*
X59615152Y-156970000D01*
X59689999Y-156984888D01*
X59764846Y-156970000D01*
X61074331Y-156970000D01*
X61081843Y-157007765D01*
X61222191Y-157217809D01*
X61432235Y-157358157D01*
X61680000Y-157407440D01*
X64180000Y-157407440D01*
X64427765Y-157358157D01*
X64637809Y-157217809D01*
X64695001Y-157132216D01*
X64695001Y-165025000D01*
X64262000Y-165025000D01*
X64262000Y-158115000D01*
X64252333Y-158066399D01*
X64224803Y-158025197D01*
X64183601Y-157997667D01*
X64135000Y-157988000D01*
X46355000Y-157988000D01*
X46306399Y-157997667D01*
X46265197Y-158025197D01*
X46237667Y-158066399D01*
X46228000Y-158115000D01*
X46228000Y-165025000D01*
X41086915Y-165025000D01*
X41330002Y-164736678D01*
X41465000Y-164312000D01*
X41465000Y-164037000D01*
X40457000Y-164037000D01*
X40457000Y-164057000D01*
X40203000Y-164057000D01*
X40203000Y-164037000D01*
X39195000Y-164037000D01*
X39195000Y-164312000D01*
X39329998Y-164736678D01*
X39573085Y-165025000D01*
X34086915Y-165025000D01*
X34330002Y-164736678D01*
X34465000Y-164312000D01*
X34465000Y-164037000D01*
X33457000Y-164037000D01*
X33457000Y-164057000D01*
X33203000Y-164057000D01*
X33203000Y-164037000D01*
X33183000Y-164037000D01*
X33183000Y-163783000D01*
X33203000Y-163783000D01*
X33203000Y-162667046D01*
X33457000Y-162667046D01*
X33457000Y-163783000D01*
X34465000Y-163783000D01*
X34465000Y-163508000D01*
X39195000Y-163508000D01*
X39195000Y-163783000D01*
X40203000Y-163783000D01*
X40203000Y-162667046D01*
X40457000Y-162667046D01*
X40457000Y-163783000D01*
X41465000Y-163783000D01*
X41465000Y-163508000D01*
X41330002Y-163083322D01*
X41042763Y-162742632D01*
X40631874Y-162540881D01*
X40457000Y-162667046D01*
X40203000Y-162667046D01*
X40028126Y-162540881D01*
X39617237Y-162742632D01*
X39329998Y-163083322D01*
X39195000Y-163508000D01*
X34465000Y-163508000D01*
X34330002Y-163083322D01*
X34042763Y-162742632D01*
X33631874Y-162540881D01*
X33457000Y-162667046D01*
X33203000Y-162667046D01*
X33028126Y-162540881D01*
X32617237Y-162742632D01*
X32460000Y-162929129D01*
X32460000Y-161507938D01*
X33110732Y-161507938D01*
X33294448Y-161881821D01*
X33618951Y-162169568D01*
X34028869Y-162311229D01*
X34203000Y-162162563D01*
X34203000Y-161337000D01*
X33237266Y-161337000D01*
X33110732Y-161507938D01*
X32460000Y-161507938D01*
X32460000Y-160912062D01*
X33110732Y-160912062D01*
X33237266Y-161083000D01*
X34203000Y-161083000D01*
X34203000Y-160257437D01*
X34028869Y-160108771D01*
X33618951Y-160250432D01*
X33294448Y-160538179D01*
X33110732Y-160912062D01*
X32460000Y-160912062D01*
X32460000Y-155911439D01*
X32671713Y-156228290D01*
X32766480Y-156291612D01*
X32855000Y-156380131D01*
X32855000Y-156495439D01*
X33073466Y-157022862D01*
X33453900Y-157403296D01*
X33438643Y-157480000D01*
X33503448Y-157805800D01*
X33503449Y-157805801D01*
X33688000Y-158082001D01*
X33757718Y-158128585D01*
X34695000Y-159065868D01*
X34695001Y-159857760D01*
X34695000Y-159857764D01*
X34695000Y-160130843D01*
X34631131Y-160108771D01*
X34457000Y-160257437D01*
X34457000Y-161083000D01*
X34477000Y-161083000D01*
X34477000Y-161337000D01*
X34457000Y-161337000D01*
X34457000Y-162162563D01*
X34631131Y-162311229D01*
X34809827Y-162249475D01*
X34872191Y-162342809D01*
X35082235Y-162483157D01*
X35330000Y-162532440D01*
X35730000Y-162532440D01*
X35855000Y-162507576D01*
X35980000Y-162532440D01*
X36380000Y-162532440D01*
X36505000Y-162507576D01*
X36630000Y-162532440D01*
X37030000Y-162532440D01*
X37155000Y-162507576D01*
X37280000Y-162532440D01*
X37680000Y-162532440D01*
X37783852Y-162511783D01*
X37803690Y-162520000D01*
X37871250Y-162520000D01*
X37903208Y-162488042D01*
X37927765Y-162483157D01*
X38137809Y-162342809D01*
X38230000Y-162204836D01*
X38230000Y-162361250D01*
X38388750Y-162520000D01*
X38456310Y-162520000D01*
X38689699Y-162423327D01*
X38860115Y-162252910D01*
X39028869Y-162311229D01*
X39203000Y-162162563D01*
X39203000Y-161337000D01*
X39457000Y-161337000D01*
X39457000Y-162162563D01*
X39631131Y-162311229D01*
X40041049Y-162169568D01*
X40365552Y-161881821D01*
X40549268Y-161507938D01*
X40422734Y-161337000D01*
X39457000Y-161337000D01*
X39203000Y-161337000D01*
X39183000Y-161337000D01*
X39183000Y-161083000D01*
X39203000Y-161083000D01*
X39203000Y-160257437D01*
X39457000Y-160257437D01*
X39457000Y-161083000D01*
X40422734Y-161083000D01*
X40549268Y-160912062D01*
X40365552Y-160538179D01*
X40041049Y-160250432D01*
X39631131Y-160108771D01*
X39457000Y-160257437D01*
X39203000Y-160257437D01*
X39028869Y-160108771D01*
X38860115Y-160167090D01*
X38689699Y-159996673D01*
X38456310Y-159900000D01*
X38388750Y-159900000D01*
X38230000Y-160058750D01*
X38230000Y-160215164D01*
X38137809Y-160077191D01*
X37927765Y-159936843D01*
X37903208Y-159931958D01*
X37871250Y-159900000D01*
X37803690Y-159900000D01*
X37783852Y-159908217D01*
X37680000Y-159887560D01*
X37280000Y-159887560D01*
X37155000Y-159912424D01*
X37030000Y-159887560D01*
X36630000Y-159887560D01*
X36505000Y-159912424D01*
X36380000Y-159887560D01*
X36365000Y-159887560D01*
X36365000Y-158802237D01*
X36381358Y-158720000D01*
X36316552Y-158394199D01*
X36178584Y-158187716D01*
X36132001Y-158117999D01*
X36062283Y-158071415D01*
X35260132Y-157269264D01*
X35311651Y-157217745D01*
X38461861Y-157217745D01*
X38535995Y-157463864D01*
X39073223Y-157656965D01*
X39643454Y-157629778D01*
X40044005Y-157463864D01*
X40118139Y-157217745D01*
X39290000Y-156389605D01*
X38461861Y-157217745D01*
X35311651Y-157217745D01*
X35506534Y-157022862D01*
X35725000Y-156495439D01*
X35725000Y-155993223D01*
X37843035Y-155993223D01*
X37870222Y-156563454D01*
X38036136Y-156964005D01*
X38282255Y-157038139D01*
X39110395Y-156210000D01*
X39469605Y-156210000D01*
X40297745Y-157038139D01*
X40543864Y-156964005D01*
X40736965Y-156426777D01*
X40709778Y-155856546D01*
X40543864Y-155455995D01*
X40297745Y-155381861D01*
X39469605Y-156210000D01*
X39110395Y-156210000D01*
X38282255Y-155381861D01*
X38036136Y-155455995D01*
X37843035Y-155993223D01*
X35725000Y-155993223D01*
X35725000Y-155924561D01*
X35506534Y-155397138D01*
X35311651Y-155202255D01*
X38461861Y-155202255D01*
X39290000Y-156030395D01*
X40118139Y-155202255D01*
X40044005Y-154956136D01*
X39506777Y-154763035D01*
X38936546Y-154790222D01*
X38535995Y-154956136D01*
X38461861Y-155202255D01*
X35311651Y-155202255D01*
X35102862Y-154993466D01*
X34625001Y-154795529D01*
X34625001Y-153934914D01*
X34682235Y-153973157D01*
X34930000Y-154022440D01*
X38730000Y-154022440D01*
X38977765Y-153973157D01*
X39187809Y-153832809D01*
X39328157Y-153622765D01*
X39377440Y-153375000D01*
X39377440Y-151375000D01*
X39328157Y-151127235D01*
X39187809Y-150917191D01*
X38977765Y-150776843D01*
X38730000Y-150727560D01*
X34930000Y-150727560D01*
X34682235Y-150776843D01*
X34625001Y-150815086D01*
X34625001Y-149585130D01*
X35253521Y-148956611D01*
X35348289Y-148893289D01*
X35599146Y-148517855D01*
X35665000Y-148186783D01*
X35687235Y-148075000D01*
X35665000Y-147963217D01*
X35665000Y-147581459D01*
X35680000Y-147571436D01*
X35832235Y-147673157D01*
X36080000Y-147722440D01*
X37580000Y-147722440D01*
X37827765Y-147673157D01*
X37979047Y-147572073D01*
X38020301Y-147613327D01*
X38253690Y-147710000D01*
X38844250Y-147710000D01*
X39003000Y-147551250D01*
X39003000Y-146202000D01*
X39257000Y-146202000D01*
X39257000Y-147551250D01*
X39415750Y-147710000D01*
X40006310Y-147710000D01*
X40239699Y-147613327D01*
X40418327Y-147434698D01*
X40515000Y-147201309D01*
X40515000Y-146360750D01*
X40356250Y-146202000D01*
X39257000Y-146202000D01*
X39003000Y-146202000D01*
X38983000Y-146202000D01*
X38983000Y-145948000D01*
X39003000Y-145948000D01*
X39003000Y-144598750D01*
X39257000Y-144598750D01*
X39257000Y-145948000D01*
X40356250Y-145948000D01*
X40515000Y-145789250D01*
X40515000Y-144948691D01*
X40418327Y-144715302D01*
X40239699Y-144536673D01*
X40006310Y-144440000D01*
X39415750Y-144440000D01*
X39257000Y-144598750D01*
X39003000Y-144598750D01*
X38844250Y-144440000D01*
X38253690Y-144440000D01*
X38020301Y-144536673D01*
X37979047Y-144577927D01*
X37965000Y-144568541D01*
X37965000Y-142105000D01*
X42433217Y-142105000D01*
X42545000Y-142127235D01*
X42656783Y-142105000D01*
X42987855Y-142039146D01*
X43363289Y-141788289D01*
X43426613Y-141693518D01*
X43586441Y-141533690D01*
X45645000Y-141533690D01*
X45645000Y-141924250D01*
X45803750Y-142083000D01*
X47403000Y-142083000D01*
X47403000Y-141183750D01*
X47244250Y-141025000D01*
X46153691Y-141025000D01*
X45920302Y-141121673D01*
X45741673Y-141300301D01*
X45645000Y-141533690D01*
X43586441Y-141533690D01*
X46190132Y-138930000D01*
X49146791Y-138930000D01*
X49091843Y-139012235D01*
X49091843Y-139012235D01*
G37*
X49091843Y-139012235D02*
X49042560Y-139260000D01*
X49042560Y-141081437D01*
X48906309Y-141025000D01*
X47815750Y-141025000D01*
X47657000Y-141183750D01*
X47657000Y-142083000D01*
X47677000Y-142083000D01*
X47677000Y-142337000D01*
X47657000Y-142337000D01*
X47657000Y-142357000D01*
X47403000Y-142357000D01*
X47403000Y-142337000D01*
X45803750Y-142337000D01*
X45645000Y-142495750D01*
X45645000Y-142886310D01*
X45741673Y-143119699D01*
X45823375Y-143201400D01*
X45822191Y-143202191D01*
X45681843Y-143412235D01*
X45632560Y-143660000D01*
X45632560Y-144760000D01*
X45681843Y-145007765D01*
X45816973Y-145210000D01*
X45681843Y-145412235D01*
X45632560Y-145660000D01*
X45632560Y-146760000D01*
X45640694Y-146800892D01*
X44115000Y-145275199D01*
X44115000Y-145229017D01*
X43972655Y-144885365D01*
X43709635Y-144622345D01*
X43365983Y-144480000D01*
X42994017Y-144480000D01*
X42650365Y-144622345D01*
X42387345Y-144885365D01*
X42245000Y-145229017D01*
X42245000Y-145600983D01*
X42387345Y-145944635D01*
X42650365Y-146207655D01*
X42994017Y-146350000D01*
X43040199Y-146350000D01*
X45384671Y-148694473D01*
X45427071Y-148757929D01*
X45663582Y-148915961D01*
X45681843Y-149007765D01*
X45816973Y-149210000D01*
X45681843Y-149412235D01*
X45632560Y-149660000D01*
X45632560Y-150760000D01*
X45656833Y-150882032D01*
X45385000Y-150610199D01*
X45385000Y-150309017D01*
X45242655Y-149965365D01*
X44979635Y-149702345D01*
X44635983Y-149560000D01*
X44264017Y-149560000D01*
X43920365Y-149702345D01*
X43657345Y-149965365D01*
X43515000Y-150309017D01*
X43515000Y-150680983D01*
X43657345Y-151024635D01*
X43844545Y-151211835D01*
X43902071Y-151297929D01*
X43965530Y-151340331D01*
X45319671Y-152694473D01*
X45362071Y-152757929D01*
X45425527Y-152800329D01*
X45613462Y-152925904D01*
X45661605Y-152935480D01*
X45667706Y-152936694D01*
X45681843Y-153007765D01*
X45816973Y-153210000D01*
X45681843Y-153412235D01*
X45632560Y-153660000D01*
X45632560Y-154760000D01*
X45681843Y-155007765D01*
X45816973Y-155210000D01*
X45681843Y-155412235D01*
X45632560Y-155660000D01*
X45632560Y-156760000D01*
X45681843Y-157007765D01*
X45822191Y-157217809D01*
X46032235Y-157358157D01*
X46280000Y-157407440D01*
X48780000Y-157407440D01*
X49027765Y-157358157D01*
X49237809Y-157217809D01*
X49378157Y-157007765D01*
X49385669Y-156970000D01*
X49455153Y-156970000D01*
X49530000Y-156984888D01*
X49604847Y-156970000D01*
X49604852Y-156970000D01*
X49826537Y-156925904D01*
X50077929Y-156757929D01*
X50120331Y-156694470D01*
X50939802Y-155875000D01*
X50985983Y-155875000D01*
X51329635Y-155732655D01*
X51592655Y-155469635D01*
X51735000Y-155125983D01*
X51735000Y-154754017D01*
X51592655Y-154410365D01*
X51329635Y-154147345D01*
X50985983Y-154005000D01*
X50614017Y-154005000D01*
X50359629Y-154110371D01*
X50465000Y-153855983D01*
X50465000Y-153484017D01*
X50322655Y-153140365D01*
X50059635Y-152877345D01*
X49715983Y-152735000D01*
X49427440Y-152735000D01*
X49427440Y-151660000D01*
X49378157Y-151412235D01*
X49243027Y-151210000D01*
X49378157Y-151007765D01*
X49427440Y-150760000D01*
X49427440Y-149660000D01*
X49378157Y-149412235D01*
X49243027Y-149210000D01*
X49378157Y-149007765D01*
X49427440Y-148760000D01*
X49427440Y-147660000D01*
X49378157Y-147412235D01*
X49243027Y-147210000D01*
X49378157Y-147007765D01*
X49385669Y-146970000D01*
X56915153Y-146970000D01*
X56990000Y-146984888D01*
X57064847Y-146970000D01*
X57064852Y-146970000D01*
X57286537Y-146925904D01*
X57537929Y-146757929D01*
X57580331Y-146694470D01*
X59829802Y-144445000D01*
X59875983Y-144445000D01*
X60219635Y-144302655D01*
X60482655Y-144039635D01*
X60625000Y-143695983D01*
X60625000Y-143324017D01*
X60482655Y-142980365D01*
X60219635Y-142717345D01*
X59875983Y-142575000D01*
X59504017Y-142575000D01*
X59160365Y-142717345D01*
X58897345Y-142980365D01*
X58755000Y-143324017D01*
X58755000Y-143370198D01*
X56675199Y-145450000D01*
X49385669Y-145450000D01*
X49378157Y-145412235D01*
X49243027Y-145210000D01*
X49378157Y-145007765D01*
X49385669Y-144970000D01*
X51618453Y-144970000D01*
X51884017Y-145080000D01*
X52255983Y-145080000D01*
X52599635Y-144937655D01*
X52862655Y-144674635D01*
X53005000Y-144330983D01*
X53005000Y-143959017D01*
X52862655Y-143615365D01*
X52599635Y-143352345D01*
X52255983Y-143210000D01*
X51884017Y-143210000D01*
X51540365Y-143352345D01*
X51442710Y-143450000D01*
X49385669Y-143450000D01*
X49378157Y-143412235D01*
X49237809Y-143202191D01*
X49236625Y-143201400D01*
X49318327Y-143119699D01*
X49415000Y-142886310D01*
X49415000Y-142495750D01*
X49256252Y-142337002D01*
X49410575Y-142337002D01*
X49442235Y-142358157D01*
X49690000Y-142407440D01*
X50790000Y-142407440D01*
X51037765Y-142358157D01*
X51240000Y-142223027D01*
X51442235Y-142358157D01*
X51690000Y-142407440D01*
X52790000Y-142407440D01*
X53037765Y-142358157D01*
X53240000Y-142223027D01*
X53442235Y-142358157D01*
X53690000Y-142407440D01*
X54790000Y-142407440D01*
X55037765Y-142358157D01*
X55240000Y-142223027D01*
X55442235Y-142358157D01*
X55690000Y-142407440D01*
X56790000Y-142407440D01*
X57037765Y-142358157D01*
X57240000Y-142223027D01*
X57442235Y-142358157D01*
X57690000Y-142407440D01*
X58790000Y-142407440D01*
X59037765Y-142358157D01*
X59240000Y-142223027D01*
X59442235Y-142358157D01*
X59690000Y-142407440D01*
X60790000Y-142407440D01*
X61032560Y-142359192D01*
X61032560Y-142760000D01*
X61081843Y-143007765D01*
X61216973Y-143210000D01*
X61081843Y-143412235D01*
X61032560Y-143660000D01*
X61032560Y-144760000D01*
X61081843Y-145007765D01*
X61216973Y-145210000D01*
X61081843Y-145412235D01*
X61032560Y-145660000D01*
X61032560Y-146760000D01*
X61081843Y-147007765D01*
X61216973Y-147210000D01*
X61081843Y-147412235D01*
X61032560Y-147660000D01*
X61032560Y-148760000D01*
X61081843Y-149007765D01*
X61216973Y-149210000D01*
X61081843Y-149412235D01*
X61032560Y-149660000D01*
X61032560Y-150760000D01*
X61081843Y-151007765D01*
X61216973Y-151210000D01*
X61081843Y-151412235D01*
X61076068Y-151441266D01*
X59180000Y-149545199D01*
X59180000Y-148517290D01*
X59212655Y-148484635D01*
X59355000Y-148140983D01*
X59355000Y-147769017D01*
X59212655Y-147425365D01*
X58949635Y-147162345D01*
X58605983Y-147020000D01*
X58234017Y-147020000D01*
X57890365Y-147162345D01*
X57627345Y-147425365D01*
X57485000Y-147769017D01*
X57485000Y-148140983D01*
X57627345Y-148484635D01*
X57660001Y-148517291D01*
X57660000Y-149785153D01*
X57645112Y-149860000D01*
X57660000Y-149934847D01*
X57660000Y-149934851D01*
X57704096Y-150156536D01*
X57872071Y-150407929D01*
X57935530Y-150450331D01*
X60179671Y-152694473D01*
X60222071Y-152757929D01*
X60473463Y-152925904D01*
X60695148Y-152970000D01*
X60695153Y-152970000D01*
X60770000Y-152984888D01*
X60844847Y-152970000D01*
X61074331Y-152970000D01*
X61081843Y-153007765D01*
X61216973Y-153210000D01*
X61081843Y-153412235D01*
X61032560Y-153660000D01*
X61032560Y-154760000D01*
X61081843Y-155007765D01*
X61216973Y-155210000D01*
X61081843Y-155412235D01*
X61074331Y-155450000D01*
X60004802Y-155450000D01*
X56180000Y-151625199D01*
X56180000Y-151579017D01*
X56037655Y-151235365D01*
X55774635Y-150972345D01*
X55430983Y-150830000D01*
X55059017Y-150830000D01*
X54715365Y-150972345D01*
X54452345Y-151235365D01*
X54310000Y-151579017D01*
X54310000Y-151950983D01*
X54452345Y-152294635D01*
X54715365Y-152557655D01*
X55059017Y-152700000D01*
X55105199Y-152700000D01*
X59099671Y-156694473D01*
X59142071Y-156757929D01*
X59393463Y-156925904D01*
X59615148Y-156970000D01*
X59615152Y-156970000D01*
X59689999Y-156984888D01*
X59764846Y-156970000D01*
X61074331Y-156970000D01*
X61081843Y-157007765D01*
X61222191Y-157217809D01*
X61432235Y-157358157D01*
X61680000Y-157407440D01*
X64180000Y-157407440D01*
X64427765Y-157358157D01*
X64637809Y-157217809D01*
X64695001Y-157132216D01*
X64695001Y-165025000D01*
X64262000Y-165025000D01*
X64262000Y-158115000D01*
X64252333Y-158066399D01*
X64224803Y-158025197D01*
X64183601Y-157997667D01*
X64135000Y-157988000D01*
X46355000Y-157988000D01*
X46306399Y-157997667D01*
X46265197Y-158025197D01*
X46237667Y-158066399D01*
X46228000Y-158115000D01*
X46228000Y-165025000D01*
X41086915Y-165025000D01*
X41330002Y-164736678D01*
X41465000Y-164312000D01*
X41465000Y-164037000D01*
X40457000Y-164037000D01*
X40457000Y-164057000D01*
X40203000Y-164057000D01*
X40203000Y-164037000D01*
X39195000Y-164037000D01*
X39195000Y-164312000D01*
X39329998Y-164736678D01*
X39573085Y-165025000D01*
X34086915Y-165025000D01*
X34330002Y-164736678D01*
X34465000Y-164312000D01*
X34465000Y-164037000D01*
X33457000Y-164037000D01*
X33457000Y-164057000D01*
X33203000Y-164057000D01*
X33203000Y-164037000D01*
X33183000Y-164037000D01*
X33183000Y-163783000D01*
X33203000Y-163783000D01*
X33203000Y-162667046D01*
X33457000Y-162667046D01*
X33457000Y-163783000D01*
X34465000Y-163783000D01*
X34465000Y-163508000D01*
X39195000Y-163508000D01*
X39195000Y-163783000D01*
X40203000Y-163783000D01*
X40203000Y-162667046D01*
X40457000Y-162667046D01*
X40457000Y-163783000D01*
X41465000Y-163783000D01*
X41465000Y-163508000D01*
X41330002Y-163083322D01*
X41042763Y-162742632D01*
X40631874Y-162540881D01*
X40457000Y-162667046D01*
X40203000Y-162667046D01*
X40028126Y-162540881D01*
X39617237Y-162742632D01*
X39329998Y-163083322D01*
X39195000Y-163508000D01*
X34465000Y-163508000D01*
X34330002Y-163083322D01*
X34042763Y-162742632D01*
X33631874Y-162540881D01*
X33457000Y-162667046D01*
X33203000Y-162667046D01*
X33028126Y-162540881D01*
X32617237Y-162742632D01*
X32460000Y-162929129D01*
X32460000Y-161507938D01*
X33110732Y-161507938D01*
X33294448Y-161881821D01*
X33618951Y-162169568D01*
X34028869Y-162311229D01*
X34203000Y-162162563D01*
X34203000Y-161337000D01*
X33237266Y-161337000D01*
X33110732Y-161507938D01*
X32460000Y-161507938D01*
X32460000Y-160912062D01*
X33110732Y-160912062D01*
X33237266Y-161083000D01*
X34203000Y-161083000D01*
X34203000Y-160257437D01*
X34028869Y-160108771D01*
X33618951Y-160250432D01*
X33294448Y-160538179D01*
X33110732Y-160912062D01*
X32460000Y-160912062D01*
X32460000Y-155911439D01*
X32671713Y-156228290D01*
X32766480Y-156291612D01*
X32855000Y-156380131D01*
X32855000Y-156495439D01*
X33073466Y-157022862D01*
X33453900Y-157403296D01*
X33438643Y-157480000D01*
X33503448Y-157805800D01*
X33503449Y-157805801D01*
X33688000Y-158082001D01*
X33757718Y-158128585D01*
X34695000Y-159065868D01*
X34695001Y-159857760D01*
X34695000Y-159857764D01*
X34695000Y-160130843D01*
X34631131Y-160108771D01*
X34457000Y-160257437D01*
X34457000Y-161083000D01*
X34477000Y-161083000D01*
X34477000Y-161337000D01*
X34457000Y-161337000D01*
X34457000Y-162162563D01*
X34631131Y-162311229D01*
X34809827Y-162249475D01*
X34872191Y-162342809D01*
X35082235Y-162483157D01*
X35330000Y-162532440D01*
X35730000Y-162532440D01*
X35855000Y-162507576D01*
X35980000Y-162532440D01*
X36380000Y-162532440D01*
X36505000Y-162507576D01*
X36630000Y-162532440D01*
X37030000Y-162532440D01*
X37155000Y-162507576D01*
X37280000Y-162532440D01*
X37680000Y-162532440D01*
X37783852Y-162511783D01*
X37803690Y-162520000D01*
X37871250Y-162520000D01*
X37903208Y-162488042D01*
X37927765Y-162483157D01*
X38137809Y-162342809D01*
X38230000Y-162204836D01*
X38230000Y-162361250D01*
X38388750Y-162520000D01*
X38456310Y-162520000D01*
X38689699Y-162423327D01*
X38860115Y-162252910D01*
X39028869Y-162311229D01*
X39203000Y-162162563D01*
X39203000Y-161337000D01*
X39457000Y-161337000D01*
X39457000Y-162162563D01*
X39631131Y-162311229D01*
X40041049Y-162169568D01*
X40365552Y-161881821D01*
X40549268Y-161507938D01*
X40422734Y-161337000D01*
X39457000Y-161337000D01*
X39203000Y-161337000D01*
X39183000Y-161337000D01*
X39183000Y-161083000D01*
X39203000Y-161083000D01*
X39203000Y-160257437D01*
X39457000Y-160257437D01*
X39457000Y-161083000D01*
X40422734Y-161083000D01*
X40549268Y-160912062D01*
X40365552Y-160538179D01*
X40041049Y-160250432D01*
X39631131Y-160108771D01*
X39457000Y-160257437D01*
X39203000Y-160257437D01*
X39028869Y-160108771D01*
X38860115Y-160167090D01*
X38689699Y-159996673D01*
X38456310Y-159900000D01*
X38388750Y-159900000D01*
X38230000Y-160058750D01*
X38230000Y-160215164D01*
X38137809Y-160077191D01*
X37927765Y-159936843D01*
X37903208Y-159931958D01*
X37871250Y-159900000D01*
X37803690Y-159900000D01*
X37783852Y-159908217D01*
X37680000Y-159887560D01*
X37280000Y-159887560D01*
X37155000Y-159912424D01*
X37030000Y-159887560D01*
X36630000Y-159887560D01*
X36505000Y-159912424D01*
X36380000Y-159887560D01*
X36365000Y-159887560D01*
X36365000Y-158802237D01*
X36381358Y-158720000D01*
X36316552Y-158394199D01*
X36178584Y-158187716D01*
X36132001Y-158117999D01*
X36062283Y-158071415D01*
X35260132Y-157269264D01*
X35311651Y-157217745D01*
X38461861Y-157217745D01*
X38535995Y-157463864D01*
X39073223Y-157656965D01*
X39643454Y-157629778D01*
X40044005Y-157463864D01*
X40118139Y-157217745D01*
X39290000Y-156389605D01*
X38461861Y-157217745D01*
X35311651Y-157217745D01*
X35506534Y-157022862D01*
X35725000Y-156495439D01*
X35725000Y-155993223D01*
X37843035Y-155993223D01*
X37870222Y-156563454D01*
X38036136Y-156964005D01*
X38282255Y-157038139D01*
X39110395Y-156210000D01*
X39469605Y-156210000D01*
X40297745Y-157038139D01*
X40543864Y-156964005D01*
X40736965Y-156426777D01*
X40709778Y-155856546D01*
X40543864Y-155455995D01*
X40297745Y-155381861D01*
X39469605Y-156210000D01*
X39110395Y-156210000D01*
X38282255Y-155381861D01*
X38036136Y-155455995D01*
X37843035Y-155993223D01*
X35725000Y-155993223D01*
X35725000Y-155924561D01*
X35506534Y-155397138D01*
X35311651Y-155202255D01*
X38461861Y-155202255D01*
X39290000Y-156030395D01*
X40118139Y-155202255D01*
X40044005Y-154956136D01*
X39506777Y-154763035D01*
X38936546Y-154790222D01*
X38535995Y-154956136D01*
X38461861Y-155202255D01*
X35311651Y-155202255D01*
X35102862Y-154993466D01*
X34625001Y-154795529D01*
X34625001Y-153934914D01*
X34682235Y-153973157D01*
X34930000Y-154022440D01*
X38730000Y-154022440D01*
X38977765Y-153973157D01*
X39187809Y-153832809D01*
X39328157Y-153622765D01*
X39377440Y-153375000D01*
X39377440Y-151375000D01*
X39328157Y-151127235D01*
X39187809Y-150917191D01*
X38977765Y-150776843D01*
X38730000Y-150727560D01*
X34930000Y-150727560D01*
X34682235Y-150776843D01*
X34625001Y-150815086D01*
X34625001Y-149585130D01*
X35253521Y-148956611D01*
X35348289Y-148893289D01*
X35599146Y-148517855D01*
X35665000Y-148186783D01*
X35687235Y-148075000D01*
X35665000Y-147963217D01*
X35665000Y-147581459D01*
X35680000Y-147571436D01*
X35832235Y-147673157D01*
X36080000Y-147722440D01*
X37580000Y-147722440D01*
X37827765Y-147673157D01*
X37979047Y-147572073D01*
X38020301Y-147613327D01*
X38253690Y-147710000D01*
X38844250Y-147710000D01*
X39003000Y-147551250D01*
X39003000Y-146202000D01*
X39257000Y-146202000D01*
X39257000Y-147551250D01*
X39415750Y-147710000D01*
X40006310Y-147710000D01*
X40239699Y-147613327D01*
X40418327Y-147434698D01*
X40515000Y-147201309D01*
X40515000Y-146360750D01*
X40356250Y-146202000D01*
X39257000Y-146202000D01*
X39003000Y-146202000D01*
X38983000Y-146202000D01*
X38983000Y-145948000D01*
X39003000Y-145948000D01*
X39003000Y-144598750D01*
X39257000Y-144598750D01*
X39257000Y-145948000D01*
X40356250Y-145948000D01*
X40515000Y-145789250D01*
X40515000Y-144948691D01*
X40418327Y-144715302D01*
X40239699Y-144536673D01*
X40006310Y-144440000D01*
X39415750Y-144440000D01*
X39257000Y-144598750D01*
X39003000Y-144598750D01*
X38844250Y-144440000D01*
X38253690Y-144440000D01*
X38020301Y-144536673D01*
X37979047Y-144577927D01*
X37965000Y-144568541D01*
X37965000Y-142105000D01*
X42433217Y-142105000D01*
X42545000Y-142127235D01*
X42656783Y-142105000D01*
X42987855Y-142039146D01*
X43363289Y-141788289D01*
X43426613Y-141693518D01*
X43586441Y-141533690D01*
X45645000Y-141533690D01*
X45645000Y-141924250D01*
X45803750Y-142083000D01*
X47403000Y-142083000D01*
X47403000Y-141183750D01*
X47244250Y-141025000D01*
X46153691Y-141025000D01*
X45920302Y-141121673D01*
X45741673Y-141300301D01*
X45645000Y-141533690D01*
X43586441Y-141533690D01*
X46190132Y-138930000D01*
X49146791Y-138930000D01*
X49091843Y-139012235D01*
G36*
X64695000Y-101457792D02*
X64355134Y-101082611D01*
X63849041Y-100843086D01*
X63627000Y-100964371D01*
X63627000Y-102108000D01*
X63647000Y-102108000D01*
X63647000Y-102362000D01*
X63627000Y-102362000D01*
X63627000Y-103505629D01*
X63849041Y-103626914D01*
X64355134Y-103387389D01*
X64695000Y-103012208D01*
X64695000Y-105908265D01*
X64507745Y-105851861D01*
X63679605Y-106680000D01*
X64507745Y-107508139D01*
X64695000Y-107451735D01*
X64695000Y-110330514D01*
X64534577Y-110090423D01*
X64059909Y-109773260D01*
X63641333Y-109690000D01*
X63358667Y-109690000D01*
X62940091Y-109773260D01*
X62615717Y-109990000D01*
X62065132Y-109990000D01*
X60571613Y-108496482D01*
X60508289Y-108401711D01*
X60132855Y-108150854D01*
X59801783Y-108085000D01*
X59690000Y-108062765D01*
X59578217Y-108085000D01*
X55133217Y-108085000D01*
X54802145Y-108150854D01*
X54426711Y-108401711D01*
X54175854Y-108777145D01*
X54087765Y-109220000D01*
X54175854Y-109662855D01*
X54426711Y-110038289D01*
X54802145Y-110289146D01*
X55133217Y-110355000D01*
X59219869Y-110355000D01*
X60460001Y-111595133D01*
X60460000Y-115458216D01*
X60437765Y-115570000D01*
X60460001Y-115681788D01*
X60460000Y-119903216D01*
X60437765Y-120015000D01*
X60460001Y-120126788D01*
X60460000Y-124348216D01*
X60437765Y-124460000D01*
X60460001Y-124571788D01*
X60460000Y-134360604D01*
X60378466Y-134442138D01*
X60160000Y-134969561D01*
X60160000Y-135540439D01*
X60378466Y-136067862D01*
X60460001Y-136149397D01*
X60460000Y-136660000D01*
X56984131Y-136660000D01*
X57349005Y-136508864D01*
X57423139Y-136262745D01*
X56595000Y-135434605D01*
X55766861Y-136262745D01*
X55840995Y-136508864D01*
X56261472Y-136660000D01*
X45831782Y-136660000D01*
X45719999Y-136637765D01*
X45277145Y-136725854D01*
X44901711Y-136976711D01*
X44838389Y-137071479D01*
X42074869Y-139835000D01*
X37205132Y-139835000D01*
X36770667Y-139400536D01*
X36807765Y-139393157D01*
X37017809Y-139252809D01*
X37158157Y-139042765D01*
X37177099Y-138947532D01*
X39587073Y-138947532D01*
X39685736Y-139214387D01*
X40295461Y-139440908D01*
X40945460Y-139416856D01*
X41434264Y-139214387D01*
X41532927Y-138947532D01*
X40560000Y-137974605D01*
X39587073Y-138947532D01*
X37177099Y-138947532D01*
X37207440Y-138795000D01*
X37207440Y-137530461D01*
X38914092Y-137530461D01*
X38938144Y-138180460D01*
X39140613Y-138669264D01*
X39407468Y-138767927D01*
X40380395Y-137795000D01*
X40739605Y-137795000D01*
X41712532Y-138767927D01*
X41979387Y-138669264D01*
X42205908Y-138059539D01*
X42181856Y-137409540D01*
X41979387Y-136920736D01*
X41712532Y-136822073D01*
X40739605Y-137795000D01*
X40380395Y-137795000D01*
X39407468Y-136822073D01*
X39140613Y-136920736D01*
X38914092Y-137530461D01*
X37207440Y-137530461D01*
X37207440Y-136795000D01*
X37177100Y-136642468D01*
X39587073Y-136642468D01*
X40560000Y-137615395D01*
X41532927Y-136642468D01*
X41434264Y-136375613D01*
X40824539Y-136149092D01*
X40174540Y-136173144D01*
X39685736Y-136375613D01*
X39587073Y-136642468D01*
X37177100Y-136642468D01*
X37158157Y-136547235D01*
X37017809Y-136337191D01*
X36807765Y-136196843D01*
X36560000Y-136147560D01*
X34560000Y-136147560D01*
X34312235Y-136196843D01*
X34102191Y-136337191D01*
X33961843Y-136547235D01*
X33912560Y-136795000D01*
X33912560Y-138795000D01*
X33961843Y-139042765D01*
X34102191Y-139252809D01*
X34312235Y-139393157D01*
X34425000Y-139415587D01*
X34425000Y-139683216D01*
X34402765Y-139795000D01*
X34432922Y-139946608D01*
X34490854Y-140237854D01*
X34741711Y-140613289D01*
X34836482Y-140676613D01*
X35695000Y-141535132D01*
X35695001Y-144568541D01*
X35680000Y-144578564D01*
X35527765Y-144476843D01*
X35280000Y-144427560D01*
X33780000Y-144427560D01*
X33532235Y-144476843D01*
X33322191Y-144617191D01*
X33181843Y-144827235D01*
X33132560Y-145075000D01*
X33132560Y-147075000D01*
X33181843Y-147322765D01*
X33322191Y-147532809D01*
X33395001Y-147581459D01*
X33395001Y-147604868D01*
X32766482Y-148233386D01*
X32671712Y-148296710D01*
X32460000Y-148613560D01*
X32460000Y-134976890D01*
X45548524Y-134976890D01*
X45718355Y-135386924D01*
X46108642Y-135815183D01*
X46633108Y-136061486D01*
X46863000Y-135940819D01*
X46863000Y-134747000D01*
X47117000Y-134747000D01*
X47117000Y-135940819D01*
X47346892Y-136061486D01*
X47871358Y-135815183D01*
X48261645Y-135386924D01*
X48406072Y-135038223D01*
X55148035Y-135038223D01*
X55175222Y-135608454D01*
X55341136Y-136009005D01*
X55587255Y-136083139D01*
X56415395Y-135255000D01*
X56774605Y-135255000D01*
X57602745Y-136083139D01*
X57848864Y-136009005D01*
X58041965Y-135471777D01*
X58014778Y-134901546D01*
X57848864Y-134500995D01*
X57602745Y-134426861D01*
X56774605Y-135255000D01*
X56415395Y-135255000D01*
X55587255Y-134426861D01*
X55341136Y-134500995D01*
X55148035Y-135038223D01*
X48406072Y-135038223D01*
X48431476Y-134976890D01*
X48310155Y-134747000D01*
X47117000Y-134747000D01*
X46863000Y-134747000D01*
X45669845Y-134747000D01*
X45548524Y-134976890D01*
X32460000Y-134976890D01*
X32460000Y-132112532D01*
X34587073Y-132112532D01*
X34685736Y-132379387D01*
X35295461Y-132605908D01*
X35945460Y-132581856D01*
X36434264Y-132379387D01*
X36532927Y-132112532D01*
X35560000Y-131139605D01*
X34587073Y-132112532D01*
X32460000Y-132112532D01*
X32460000Y-130695461D01*
X33914092Y-130695461D01*
X33938144Y-131345460D01*
X34140613Y-131834264D01*
X34407468Y-131932927D01*
X35380395Y-130960000D01*
X35739605Y-130960000D01*
X36712532Y-131932927D01*
X36979387Y-131834264D01*
X37205908Y-131224539D01*
X37184085Y-130634778D01*
X38425000Y-130634778D01*
X38425000Y-131285222D01*
X38673914Y-131886153D01*
X39133847Y-132346086D01*
X39734778Y-132595000D01*
X40385222Y-132595000D01*
X40986153Y-132346086D01*
X41446086Y-131886153D01*
X41695000Y-131285222D01*
X41695000Y-130634778D01*
X41446086Y-130033847D01*
X40986153Y-129573914D01*
X40385222Y-129325000D01*
X39734778Y-129325000D01*
X39133847Y-129573914D01*
X38673914Y-130033847D01*
X38425000Y-130634778D01*
X37184085Y-130634778D01*
X37181856Y-130574540D01*
X36979387Y-130085736D01*
X36712532Y-129987073D01*
X35739605Y-130960000D01*
X35380395Y-130960000D01*
X34407468Y-129987073D01*
X34140613Y-130085736D01*
X33914092Y-130695461D01*
X32460000Y-130695461D01*
X32460000Y-129807468D01*
X34587073Y-129807468D01*
X35560000Y-130780395D01*
X36532927Y-129807468D01*
X36434264Y-129540613D01*
X35824539Y-129314092D01*
X35174540Y-129338144D01*
X34685736Y-129540613D01*
X34587073Y-129807468D01*
X32460000Y-129807468D01*
X32460000Y-125612532D01*
X34587073Y-125612532D01*
X34685736Y-125879387D01*
X35295461Y-126105908D01*
X35945460Y-126081856D01*
X36434264Y-125879387D01*
X36532927Y-125612532D01*
X35560000Y-124639605D01*
X34587073Y-125612532D01*
X32460000Y-125612532D01*
X32460000Y-124195461D01*
X33914092Y-124195461D01*
X33938144Y-124845460D01*
X34140613Y-125334264D01*
X34407468Y-125432927D01*
X35380395Y-124460000D01*
X35739605Y-124460000D01*
X36712532Y-125432927D01*
X36979387Y-125334264D01*
X37205908Y-124724539D01*
X37181856Y-124074540D01*
X36979387Y-123585736D01*
X36712532Y-123487073D01*
X35739605Y-124460000D01*
X35380395Y-124460000D01*
X34407468Y-123487073D01*
X34140613Y-123585736D01*
X33914092Y-124195461D01*
X32460000Y-124195461D01*
X32460000Y-122437532D01*
X34587073Y-122437532D01*
X34685736Y-122704387D01*
X35113653Y-122863364D01*
X34685736Y-123040613D01*
X34587073Y-123307468D01*
X35560000Y-124280395D01*
X36532927Y-123307468D01*
X36434264Y-123040613D01*
X36006347Y-122881636D01*
X36434264Y-122704387D01*
X36532927Y-122437532D01*
X35560000Y-121464605D01*
X34587073Y-122437532D01*
X32460000Y-122437532D01*
X32460000Y-121020461D01*
X33914092Y-121020461D01*
X33938144Y-121670460D01*
X34140613Y-122159264D01*
X34407468Y-122257927D01*
X35380395Y-121285000D01*
X35739605Y-121285000D01*
X36712532Y-122257927D01*
X36979387Y-122159264D01*
X37205908Y-121549539D01*
X37181856Y-120899540D01*
X36979387Y-120410736D01*
X36712532Y-120312073D01*
X35739605Y-121285000D01*
X35380395Y-121285000D01*
X34407468Y-120312073D01*
X34140613Y-120410736D01*
X33914092Y-121020461D01*
X32460000Y-121020461D01*
X32460000Y-120132468D01*
X34587073Y-120132468D01*
X35560000Y-121105395D01*
X36532927Y-120132468D01*
X36434264Y-119865613D01*
X35824539Y-119639092D01*
X35174540Y-119663144D01*
X34685736Y-119865613D01*
X34587073Y-120132468D01*
X32460000Y-120132468D01*
X32460000Y-115937532D01*
X34587073Y-115937532D01*
X34685736Y-116204387D01*
X35295461Y-116430908D01*
X35945460Y-116406856D01*
X36434264Y-116204387D01*
X36532927Y-115937532D01*
X35560000Y-114964605D01*
X34587073Y-115937532D01*
X32460000Y-115937532D01*
X32460000Y-114520461D01*
X33914092Y-114520461D01*
X33938144Y-115170460D01*
X34140613Y-115659264D01*
X34407468Y-115757927D01*
X35380395Y-114785000D01*
X35739605Y-114785000D01*
X36712532Y-115757927D01*
X36979387Y-115659264D01*
X37205908Y-115049539D01*
X37184085Y-114459778D01*
X38425000Y-114459778D01*
X38425000Y-115110222D01*
X38673914Y-115711153D01*
X39133847Y-116171086D01*
X39300001Y-116239909D01*
X39300000Y-118035148D01*
X39285111Y-118110000D01*
X39300001Y-118184857D01*
X39300000Y-119830091D01*
X39133847Y-119898914D01*
X38673914Y-120358847D01*
X38425000Y-120959778D01*
X38425000Y-121610222D01*
X38673914Y-122211153D01*
X39133847Y-122671086D01*
X39620103Y-122872500D01*
X39133847Y-123073914D01*
X38673914Y-123533847D01*
X38425000Y-124134778D01*
X38425000Y-124785222D01*
X38673914Y-125386153D01*
X39133847Y-125846086D01*
X39734778Y-126095000D01*
X40385222Y-126095000D01*
X40986153Y-125846086D01*
X41446086Y-125386153D01*
X41695000Y-124785222D01*
X41695000Y-124460000D01*
X45475908Y-124460000D01*
X45591161Y-125039418D01*
X45919375Y-125530625D01*
X46217761Y-125730000D01*
X45919375Y-125929375D01*
X45591161Y-126420582D01*
X45475908Y-127000000D01*
X45591161Y-127579418D01*
X45919375Y-128070625D01*
X46217761Y-128270000D01*
X45919375Y-128469375D01*
X45591161Y-128960582D01*
X45475908Y-129540000D01*
X45591161Y-130119418D01*
X45919375Y-130610625D01*
X46217761Y-130810000D01*
X45919375Y-131009375D01*
X45591161Y-131500582D01*
X45475908Y-132080000D01*
X45591161Y-132659418D01*
X45919375Y-133150625D01*
X46238478Y-133363843D01*
X46108642Y-133424817D01*
X45718355Y-133853076D01*
X45548524Y-134263110D01*
X45669845Y-134493000D01*
X46863000Y-134493000D01*
X46863000Y-134473000D01*
X47117000Y-134473000D01*
X47117000Y-134493000D01*
X48310155Y-134493000D01*
X48431476Y-134263110D01*
X48424910Y-134247255D01*
X55766861Y-134247255D01*
X56595000Y-135075395D01*
X57423139Y-134247255D01*
X57349005Y-134001136D01*
X56811777Y-133808035D01*
X56241546Y-133835222D01*
X55840995Y-134001136D01*
X55766861Y-134247255D01*
X48424910Y-134247255D01*
X48261645Y-133853076D01*
X47871358Y-133424817D01*
X47741522Y-133363843D01*
X48060625Y-133150625D01*
X48388839Y-132659418D01*
X48504092Y-132080000D01*
X48388839Y-131500582D01*
X48060625Y-131009375D01*
X47762239Y-130810000D01*
X48060625Y-130610625D01*
X48388839Y-130119418D01*
X48504092Y-129540000D01*
X48388839Y-128960582D01*
X48060625Y-128469375D01*
X47762239Y-128270000D01*
X48060625Y-128070625D01*
X48388839Y-127579418D01*
X48504092Y-127000000D01*
X48388839Y-126420582D01*
X48060625Y-125929375D01*
X47762239Y-125730000D01*
X48060625Y-125530625D01*
X48388839Y-125039418D01*
X48504092Y-124460000D01*
X48388839Y-123880582D01*
X48060625Y-123389375D01*
X48042381Y-123377184D01*
X48087765Y-123368157D01*
X48297809Y-123227809D01*
X48438157Y-123017765D01*
X48487440Y-122770000D01*
X48487440Y-121070000D01*
X48438157Y-120822235D01*
X48297809Y-120612191D01*
X48087765Y-120471843D01*
X47840000Y-120422560D01*
X46140000Y-120422560D01*
X45892235Y-120471843D01*
X45682191Y-120612191D01*
X45541843Y-120822235D01*
X45492560Y-121070000D01*
X45492560Y-122770000D01*
X45541843Y-123017765D01*
X45682191Y-123227809D01*
X45892235Y-123368157D01*
X45937619Y-123377184D01*
X45919375Y-123389375D01*
X45591161Y-123880582D01*
X45475908Y-124460000D01*
X41695000Y-124460000D01*
X41695000Y-124134778D01*
X41626177Y-123968624D01*
X45619801Y-119975001D01*
X51884843Y-119975001D01*
X51876887Y-120015000D01*
X51988260Y-120574909D01*
X52305423Y-121049577D01*
X52780091Y-121366740D01*
X53198667Y-121450000D01*
X53481333Y-121450000D01*
X53899909Y-121366740D01*
X54374577Y-121049577D01*
X54485001Y-120884316D01*
X54485001Y-123590684D01*
X54374577Y-123425423D01*
X53899909Y-123108260D01*
X53481333Y-123025000D01*
X53198667Y-123025000D01*
X52780091Y-123108260D01*
X52305423Y-123425423D01*
X51988260Y-123900091D01*
X51876887Y-124460000D01*
X51988260Y-125019909D01*
X52305423Y-125494577D01*
X52780091Y-125811740D01*
X53198667Y-125895000D01*
X53481333Y-125895000D01*
X53899909Y-125811740D01*
X54374577Y-125494577D01*
X54485001Y-125329317D01*
X54485000Y-128035683D01*
X54374577Y-127870423D01*
X53899909Y-127553260D01*
X53481333Y-127470000D01*
X53198667Y-127470000D01*
X52780091Y-127553260D01*
X52305423Y-127870423D01*
X51988260Y-128345091D01*
X51876887Y-128905000D01*
X51988260Y-129464909D01*
X52305423Y-129939577D01*
X52780091Y-130256740D01*
X53198667Y-130340000D01*
X53481333Y-130340000D01*
X53899909Y-130256740D01*
X54374577Y-129939577D01*
X54485000Y-129774317D01*
X54485000Y-131517710D01*
X54452345Y-131550365D01*
X54310000Y-131894017D01*
X54310000Y-132265983D01*
X54452345Y-132609635D01*
X54715365Y-132872655D01*
X55059017Y-133015000D01*
X55430983Y-133015000D01*
X55774635Y-132872655D01*
X56037655Y-132609635D01*
X56180000Y-132265983D01*
X56180000Y-131894017D01*
X56037655Y-131550365D01*
X56005000Y-131517710D01*
X56005000Y-118819848D01*
X56019888Y-118745000D01*
X56005000Y-118670152D01*
X56005000Y-118670148D01*
X55960904Y-118448463D01*
X55792929Y-118197071D01*
X55729473Y-118154671D01*
X55200331Y-117625530D01*
X55157929Y-117562071D01*
X54906537Y-117394096D01*
X54684852Y-117350000D01*
X54684847Y-117350000D01*
X54610000Y-117335112D01*
X54535153Y-117350000D01*
X54100000Y-117350000D01*
X54100000Y-116808430D01*
X54152862Y-116786534D01*
X54556534Y-116382862D01*
X54775000Y-115855439D01*
X54775000Y-115284561D01*
X54556534Y-114757138D01*
X54152862Y-114353466D01*
X53625439Y-114135000D01*
X53054561Y-114135000D01*
X52527138Y-114353466D01*
X52123466Y-114757138D01*
X51905000Y-115284561D01*
X51905000Y-115855439D01*
X52123466Y-116382862D01*
X52527138Y-116786534D01*
X52580000Y-116808430D01*
X52580001Y-117350000D01*
X40820000Y-117350000D01*
X40820000Y-116239909D01*
X40986153Y-116171086D01*
X41446086Y-115711153D01*
X41695000Y-115110222D01*
X41695000Y-114459778D01*
X41446086Y-113858847D01*
X40986153Y-113398914D01*
X40385222Y-113150000D01*
X39734778Y-113150000D01*
X39133847Y-113398914D01*
X38673914Y-113858847D01*
X38425000Y-114459778D01*
X37184085Y-114459778D01*
X37181856Y-114399540D01*
X36979387Y-113910736D01*
X36712532Y-113812073D01*
X35739605Y-114785000D01*
X35380395Y-114785000D01*
X34407468Y-113812073D01*
X34140613Y-113910736D01*
X33914092Y-114520461D01*
X32460000Y-114520461D01*
X32460000Y-113632468D01*
X34587073Y-113632468D01*
X35560000Y-114605395D01*
X36532927Y-113632468D01*
X36434264Y-113365613D01*
X35824539Y-113139092D01*
X35174540Y-113163144D01*
X34685736Y-113365613D01*
X34587073Y-113632468D01*
X32460000Y-113632468D01*
X32460000Y-110140750D01*
X34165000Y-110140750D01*
X34165000Y-110741309D01*
X34261673Y-110974698D01*
X34440301Y-111153327D01*
X34673690Y-111250000D01*
X35274250Y-111250000D01*
X35433000Y-111091250D01*
X35433000Y-109982000D01*
X34323750Y-109982000D01*
X34165000Y-110140750D01*
X32460000Y-110140750D01*
X32460000Y-108968691D01*
X34165000Y-108968691D01*
X34165000Y-109569250D01*
X34323750Y-109728000D01*
X35433000Y-109728000D01*
X35433000Y-108618750D01*
X35274250Y-108460000D01*
X34673690Y-108460000D01*
X34440301Y-108556673D01*
X34261673Y-108735302D01*
X34165000Y-108968691D01*
X32460000Y-108968691D01*
X32460000Y-105491679D01*
X32460091Y-105491740D01*
X32878667Y-105575000D01*
X33161333Y-105575000D01*
X33579909Y-105491740D01*
X34054577Y-105174577D01*
X34132763Y-105057564D01*
X37340000Y-108264802D01*
X37340000Y-108659865D01*
X37309796Y-108672376D01*
X36955000Y-109027172D01*
X36955000Y-108968691D01*
X36858327Y-108735302D01*
X36679699Y-108556673D01*
X36446310Y-108460000D01*
X35845750Y-108460000D01*
X35687000Y-108618750D01*
X35687000Y-109728000D01*
X35707000Y-109728000D01*
X35707000Y-109982000D01*
X35687000Y-109982000D01*
X35687000Y-111091250D01*
X35845750Y-111250000D01*
X36446310Y-111250000D01*
X36679699Y-111153327D01*
X36858327Y-110974698D01*
X36955000Y-110741309D01*
X36955000Y-110682828D01*
X37309796Y-111037624D01*
X37822517Y-111250000D01*
X38377483Y-111250000D01*
X38890204Y-111037624D01*
X39282624Y-110645204D01*
X39370000Y-110434260D01*
X39457376Y-110645204D01*
X39849796Y-111037624D01*
X40362517Y-111250000D01*
X40917483Y-111250000D01*
X41430204Y-111037624D01*
X41822624Y-110645204D01*
X42035000Y-110132483D01*
X42035000Y-109577517D01*
X41822624Y-109064796D01*
X41430204Y-108672376D01*
X40917483Y-108460000D01*
X40362517Y-108460000D01*
X39849796Y-108672376D01*
X39457376Y-109064796D01*
X39370000Y-109275740D01*
X39282624Y-109064796D01*
X38890204Y-108672376D01*
X38860000Y-108659865D01*
X38860000Y-108024848D01*
X38874888Y-107950000D01*
X38860000Y-107875152D01*
X38860000Y-107875148D01*
X38815904Y-107653463D01*
X38815904Y-107653462D01*
X38690329Y-107465527D01*
X38647929Y-107402071D01*
X38584473Y-107359671D01*
X34880331Y-103655530D01*
X34837929Y-103592071D01*
X34586537Y-103424096D01*
X34364852Y-103380000D01*
X34364847Y-103380000D01*
X34290000Y-103365112D01*
X34235358Y-103375981D01*
X34054577Y-103105423D01*
X33579909Y-102788260D01*
X33161333Y-102705000D01*
X32878667Y-102705000D01*
X32460091Y-102788260D01*
X32460000Y-102788321D01*
X32460000Y-102257071D01*
X32670959Y-102356914D01*
X32893000Y-102235629D01*
X32893000Y-101092000D01*
X33147000Y-101092000D01*
X33147000Y-102235629D01*
X33369041Y-102356914D01*
X33875134Y-102117389D01*
X34251041Y-101702423D01*
X34411904Y-101314039D01*
X34289915Y-101092000D01*
X33147000Y-101092000D01*
X32893000Y-101092000D01*
X32873000Y-101092000D01*
X32873000Y-100838000D01*
X32893000Y-100838000D01*
X32893000Y-99694371D01*
X33147000Y-99694371D01*
X33147000Y-100838000D01*
X34289915Y-100838000D01*
X34411904Y-100615961D01*
X34251041Y-100227577D01*
X33875134Y-99812611D01*
X33369041Y-99573086D01*
X33147000Y-99694371D01*
X32893000Y-99694371D01*
X32670959Y-99573086D01*
X32460000Y-99672929D01*
X32460000Y-93862532D01*
X34032073Y-93862532D01*
X34130736Y-94129387D01*
X34740461Y-94355908D01*
X35390460Y-94331856D01*
X35879264Y-94129387D01*
X35977927Y-93862532D01*
X35005000Y-92889605D01*
X34032073Y-93862532D01*
X32460000Y-93862532D01*
X32460000Y-92445461D01*
X33359092Y-92445461D01*
X33383144Y-93095460D01*
X33585613Y-93584264D01*
X33852468Y-93682927D01*
X34825395Y-92710000D01*
X35184605Y-92710000D01*
X36157532Y-93682927D01*
X36424387Y-93584264D01*
X36650908Y-92974539D01*
X36626856Y-92324540D01*
X36424387Y-91835736D01*
X36157532Y-91737073D01*
X35184605Y-92710000D01*
X34825395Y-92710000D01*
X33852468Y-91737073D01*
X33585613Y-91835736D01*
X33359092Y-92445461D01*
X32460000Y-92445461D01*
X32460000Y-91557468D01*
X34032073Y-91557468D01*
X35005000Y-92530395D01*
X35977927Y-91557468D01*
X35879264Y-91290613D01*
X35269539Y-91064092D01*
X34619540Y-91088144D01*
X34130736Y-91290613D01*
X34032073Y-91557468D01*
X32460000Y-91557468D01*
X32460000Y-84804561D01*
X36665000Y-84804561D01*
X36665000Y-85375439D01*
X36883466Y-85902862D01*
X37287138Y-86306534D01*
X37340001Y-86328431D01*
X37340000Y-94540153D01*
X37325112Y-94615000D01*
X37340000Y-94689847D01*
X37340000Y-94689851D01*
X37384096Y-94911536D01*
X37552071Y-95162929D01*
X37615530Y-95205331D01*
X41319671Y-98909473D01*
X41362071Y-98972929D01*
X41425527Y-99015329D01*
X41613462Y-99140904D01*
X41645291Y-99147235D01*
X41835148Y-99185000D01*
X41835152Y-99185000D01*
X41910000Y-99199888D01*
X41984848Y-99185000D01*
X44204331Y-99185000D01*
X44162560Y-99395000D01*
X44162560Y-99918164D01*
X43992862Y-99748466D01*
X43465439Y-99530000D01*
X42894561Y-99530000D01*
X42367138Y-99748466D01*
X41963466Y-100152138D01*
X41745000Y-100679561D01*
X41745000Y-101250439D01*
X41963466Y-101777862D01*
X42367138Y-102181534D01*
X42894561Y-102400000D01*
X43465439Y-102400000D01*
X43518302Y-102378103D01*
X43859671Y-102719473D01*
X43902071Y-102782929D01*
X44153463Y-102950904D01*
X44210832Y-102962316D01*
X44181115Y-103111719D01*
X43992862Y-102923466D01*
X43465439Y-102705000D01*
X42894561Y-102705000D01*
X42367138Y-102923466D01*
X41963466Y-103327138D01*
X41745000Y-103854561D01*
X41745000Y-104425439D01*
X41963466Y-104952862D01*
X42367138Y-105356534D01*
X42894561Y-105575000D01*
X43465439Y-105575000D01*
X43992862Y-105356534D01*
X44181115Y-105168281D01*
X44211843Y-105322765D01*
X44270132Y-105410000D01*
X44211843Y-105497235D01*
X44162560Y-105745000D01*
X44162560Y-106345000D01*
X44211843Y-106592765D01*
X44270132Y-106680000D01*
X44211843Y-106767235D01*
X44162560Y-107015000D01*
X44162560Y-107615000D01*
X44211843Y-107862765D01*
X44352191Y-108072809D01*
X44562235Y-108213157D01*
X44810000Y-108262440D01*
X44960001Y-108262440D01*
X44960000Y-111532560D01*
X44870000Y-111532560D01*
X44622235Y-111581843D01*
X44412191Y-111722191D01*
X44271843Y-111932235D01*
X44222560Y-112180000D01*
X44222560Y-113880000D01*
X44271843Y-114127765D01*
X44412191Y-114337809D01*
X44622235Y-114478157D01*
X44667619Y-114487184D01*
X44649375Y-114499375D01*
X44321161Y-114990582D01*
X44205908Y-115570000D01*
X44321161Y-116149418D01*
X44649375Y-116640625D01*
X45140582Y-116968839D01*
X45573744Y-117055000D01*
X45866256Y-117055000D01*
X46299418Y-116968839D01*
X46790625Y-116640625D01*
X47118839Y-116149418D01*
X47234092Y-115570000D01*
X47118839Y-114990582D01*
X46790625Y-114499375D01*
X46772381Y-114487184D01*
X46817765Y-114478157D01*
X47027809Y-114337809D01*
X47168157Y-114127765D01*
X47217440Y-113880000D01*
X47217440Y-112180000D01*
X47168157Y-111932235D01*
X47027809Y-111722191D01*
X46817765Y-111581843D01*
X46570000Y-111532560D01*
X46480000Y-111532560D01*
X46480000Y-108228625D01*
X46557765Y-108213157D01*
X46767809Y-108072809D01*
X46908157Y-107862765D01*
X46946881Y-107668085D01*
X46960018Y-107687745D01*
X47077072Y-107862929D01*
X47140528Y-107905329D01*
X48770000Y-109534802D01*
X48770001Y-110415145D01*
X48770000Y-110415149D01*
X48770000Y-111532560D01*
X48680000Y-111532560D01*
X48432235Y-111581843D01*
X48222191Y-111722191D01*
X48081843Y-111932235D01*
X48032560Y-112180000D01*
X48032560Y-113880000D01*
X48081843Y-114127765D01*
X48222191Y-114337809D01*
X48432235Y-114478157D01*
X48477619Y-114487184D01*
X48459375Y-114499375D01*
X48131161Y-114990582D01*
X48015908Y-115570000D01*
X48131161Y-116149418D01*
X48459375Y-116640625D01*
X48950582Y-116968839D01*
X49383744Y-117055000D01*
X49676256Y-117055000D01*
X50109418Y-116968839D01*
X50600625Y-116640625D01*
X50928839Y-116149418D01*
X51044092Y-115570000D01*
X50928839Y-114990582D01*
X50600625Y-114499375D01*
X50582381Y-114487184D01*
X50627765Y-114478157D01*
X50837809Y-114337809D01*
X50978157Y-114127765D01*
X51027440Y-113880000D01*
X51027440Y-112180000D01*
X50978157Y-111932235D01*
X50837809Y-111722191D01*
X50627765Y-111581843D01*
X50380000Y-111532560D01*
X50290000Y-111532560D01*
X50290000Y-110839561D01*
X51905000Y-110839561D01*
X51905000Y-111410439D01*
X52123466Y-111937862D01*
X52527138Y-112341534D01*
X53054561Y-112560000D01*
X53625439Y-112560000D01*
X54152862Y-112341534D01*
X54556534Y-111937862D01*
X54775000Y-111410439D01*
X54775000Y-110839561D01*
X54556534Y-110312138D01*
X54152862Y-109908466D01*
X53625439Y-109690000D01*
X53054561Y-109690000D01*
X52527138Y-109908466D01*
X52123466Y-110312138D01*
X51905000Y-110839561D01*
X50290000Y-110839561D01*
X50290000Y-109294848D01*
X50304888Y-109220000D01*
X50290000Y-109145152D01*
X50290000Y-109145148D01*
X50245904Y-108923463D01*
X50245904Y-108923462D01*
X50120329Y-108735527D01*
X50077929Y-108672071D01*
X50014473Y-108629671D01*
X49634802Y-108250000D01*
X50147459Y-108250000D01*
X50210000Y-108262440D01*
X51710000Y-108262440D01*
X51772541Y-108250000D01*
X52612914Y-108250000D01*
X52705000Y-108268317D01*
X52797086Y-108250000D01*
X53069819Y-108195750D01*
X53192504Y-108113774D01*
X53198667Y-108115000D01*
X53481333Y-108115000D01*
X53899909Y-108031740D01*
X54374577Y-107714577D01*
X54392505Y-107687745D01*
X62671861Y-107687745D01*
X62745995Y-107933864D01*
X63283223Y-108126965D01*
X63853454Y-108099778D01*
X64254005Y-107933864D01*
X64328139Y-107687745D01*
X63500000Y-106859605D01*
X62671861Y-107687745D01*
X54392505Y-107687745D01*
X54441112Y-107615000D01*
X55152914Y-107615000D01*
X55245000Y-107633317D01*
X55337086Y-107615000D01*
X55609819Y-107560750D01*
X55919097Y-107354097D01*
X55971261Y-107276028D01*
X56784066Y-106463223D01*
X62053035Y-106463223D01*
X62080222Y-107033454D01*
X62246136Y-107434005D01*
X62492255Y-107508139D01*
X63320395Y-106680000D01*
X62492255Y-105851861D01*
X62246136Y-105925995D01*
X62053035Y-106463223D01*
X56784066Y-106463223D01*
X57575034Y-105672255D01*
X62671861Y-105672255D01*
X63500000Y-106500395D01*
X64328139Y-105672255D01*
X64254005Y-105426136D01*
X63716777Y-105233035D01*
X63146546Y-105260222D01*
X62745995Y-105426136D01*
X62671861Y-105672255D01*
X57575034Y-105672255D01*
X60663250Y-102584039D01*
X62108096Y-102584039D01*
X62268959Y-102972423D01*
X62644866Y-103387389D01*
X63150959Y-103626914D01*
X63373000Y-103505629D01*
X63373000Y-102362000D01*
X62230085Y-102362000D01*
X62108096Y-102584039D01*
X60663250Y-102584039D01*
X61361328Y-101885961D01*
X62108096Y-101885961D01*
X62230085Y-102108000D01*
X63373000Y-102108000D01*
X63373000Y-100964371D01*
X63150959Y-100843086D01*
X62644866Y-101082611D01*
X62268959Y-101497577D01*
X62108096Y-101885961D01*
X61361328Y-101885961D01*
X62826031Y-100421259D01*
X62904097Y-100369097D01*
X63110750Y-100059819D01*
X63165000Y-99787086D01*
X63183317Y-99695000D01*
X63165000Y-99602914D01*
X63165000Y-94357440D01*
X63230000Y-94357440D01*
X63477765Y-94308157D01*
X63687809Y-94167809D01*
X63828157Y-93957765D01*
X63877440Y-93710000D01*
X63877440Y-91710000D01*
X63828157Y-91462235D01*
X63687809Y-91252191D01*
X63477765Y-91111843D01*
X63230000Y-91062560D01*
X61230000Y-91062560D01*
X60982235Y-91111843D01*
X60772191Y-91252191D01*
X60631843Y-91462235D01*
X60582560Y-91710000D01*
X60582560Y-93710000D01*
X60631843Y-93957765D01*
X60772191Y-94167809D01*
X60982235Y-94308157D01*
X61230000Y-94357440D01*
X61295000Y-94357440D01*
X61295001Y-99307709D01*
X54857711Y-105745000D01*
X54441112Y-105745000D01*
X54374577Y-105645423D01*
X53899909Y-105328260D01*
X53481333Y-105245000D01*
X53198667Y-105245000D01*
X52780091Y-105328260D01*
X52333854Y-105626426D01*
X52308157Y-105497235D01*
X52249868Y-105410000D01*
X52308157Y-105322765D01*
X52357440Y-105075000D01*
X52357440Y-104475000D01*
X52308157Y-104227235D01*
X52249868Y-104140000D01*
X52308157Y-104052765D01*
X52357440Y-103805000D01*
X52357440Y-103281836D01*
X52527138Y-103451534D01*
X53054561Y-103670000D01*
X53625439Y-103670000D01*
X54152862Y-103451534D01*
X54556534Y-103047862D01*
X54775000Y-102520439D01*
X54775000Y-101949561D01*
X54556534Y-101422138D01*
X54152862Y-101018466D01*
X53625439Y-100800000D01*
X53085867Y-100800000D01*
X52718587Y-100432720D01*
X52672001Y-100362999D01*
X52395801Y-100178448D01*
X52327001Y-100164763D01*
X52345000Y-100121310D01*
X52345000Y-99980750D01*
X52186250Y-99822000D01*
X51087000Y-99822000D01*
X51087000Y-99842000D01*
X50833000Y-99842000D01*
X50833000Y-99822000D01*
X49733750Y-99822000D01*
X49575000Y-99980750D01*
X49575000Y-100121310D01*
X49664768Y-100338028D01*
X49611843Y-100417235D01*
X49562560Y-100665000D01*
X49562560Y-101265000D01*
X49611843Y-101512765D01*
X49670132Y-101600000D01*
X49611843Y-101687235D01*
X49562560Y-101935000D01*
X49562560Y-102535000D01*
X49604310Y-102744893D01*
X49529999Y-102730112D01*
X49455152Y-102745000D01*
X49455148Y-102745000D01*
X49233463Y-102789096D01*
X49020000Y-102931728D01*
X49020000Y-102797290D01*
X49052655Y-102764635D01*
X49195000Y-102420983D01*
X49195000Y-102049017D01*
X49052655Y-101705365D01*
X48789635Y-101442345D01*
X48445983Y-101300000D01*
X48074017Y-101300000D01*
X47730365Y-101442345D01*
X47467345Y-101705365D01*
X47325000Y-102049017D01*
X47325000Y-102420983D01*
X47467345Y-102764635D01*
X47500000Y-102797290D01*
X47500001Y-103190197D01*
X46957440Y-103732759D01*
X46957440Y-103205000D01*
X46908157Y-102957235D01*
X46849868Y-102870000D01*
X46908157Y-102782765D01*
X46957440Y-102535000D01*
X46957440Y-101935000D01*
X46908157Y-101687235D01*
X46849868Y-101600000D01*
X46908157Y-101512765D01*
X46910327Y-101501858D01*
X46945331Y-101449470D01*
X47794473Y-100600329D01*
X47857929Y-100557929D01*
X48025904Y-100306537D01*
X48070000Y-100084852D01*
X48070000Y-100084847D01*
X48084888Y-100010000D01*
X48070000Y-99935153D01*
X48070000Y-98125000D01*
X49562560Y-98125000D01*
X49562560Y-98725000D01*
X49611843Y-98972765D01*
X49664768Y-99051972D01*
X49575000Y-99268690D01*
X49575000Y-99409250D01*
X49733750Y-99568000D01*
X50833000Y-99568000D01*
X50833000Y-99548000D01*
X51087000Y-99548000D01*
X51087000Y-99568000D01*
X52186250Y-99568000D01*
X52345000Y-99409250D01*
X52345000Y-99268690D01*
X52310334Y-99185000D01*
X56440153Y-99185000D01*
X56515000Y-99199888D01*
X56589847Y-99185000D01*
X56589852Y-99185000D01*
X56811537Y-99140904D01*
X57062929Y-98972929D01*
X57105331Y-98909470D01*
X60174473Y-95840329D01*
X60237929Y-95797929D01*
X60405904Y-95546537D01*
X60450000Y-95324852D01*
X60450000Y-95324848D01*
X60464888Y-95250001D01*
X60450000Y-95175154D01*
X60450000Y-86308043D01*
X60724577Y-86124577D01*
X61041740Y-85649909D01*
X61153113Y-85090000D01*
X61041740Y-84530091D01*
X60724577Y-84055423D01*
X60249909Y-83738260D01*
X59831333Y-83655000D01*
X59548667Y-83655000D01*
X59130091Y-83738260D01*
X58655423Y-84055423D01*
X58338260Y-84530091D01*
X58226887Y-85090000D01*
X58338260Y-85649909D01*
X58655423Y-86124577D01*
X58930001Y-86308044D01*
X58930000Y-94935198D01*
X56200199Y-97665000D01*
X52164530Y-97665000D01*
X51957765Y-97526843D01*
X51710000Y-97477560D01*
X50210000Y-97477560D01*
X49962235Y-97526843D01*
X49752191Y-97667191D01*
X49611843Y-97877235D01*
X49562560Y-98125000D01*
X48070000Y-98125000D01*
X48070000Y-95622745D01*
X49891861Y-95622745D01*
X49965995Y-95868864D01*
X50503223Y-96061965D01*
X51073454Y-96034778D01*
X51474005Y-95868864D01*
X51548139Y-95622745D01*
X50720000Y-94794605D01*
X49891861Y-95622745D01*
X48070000Y-95622745D01*
X48070000Y-94398223D01*
X49273035Y-94398223D01*
X49300222Y-94968454D01*
X49466136Y-95369005D01*
X49712255Y-95443139D01*
X50540395Y-94615000D01*
X50899605Y-94615000D01*
X51727745Y-95443139D01*
X51973864Y-95369005D01*
X52166965Y-94831777D01*
X52139778Y-94261546D01*
X51974501Y-93862532D01*
X56257073Y-93862532D01*
X56355736Y-94129387D01*
X56965461Y-94355908D01*
X57615460Y-94331856D01*
X58104264Y-94129387D01*
X58202927Y-93862532D01*
X57230000Y-92889605D01*
X56257073Y-93862532D01*
X51974501Y-93862532D01*
X51973864Y-93860995D01*
X51727745Y-93786861D01*
X50899605Y-94615000D01*
X50540395Y-94615000D01*
X49712255Y-93786861D01*
X49466136Y-93860995D01*
X49273035Y-94398223D01*
X48070000Y-94398223D01*
X48070000Y-93607255D01*
X49891861Y-93607255D01*
X50720000Y-94435395D01*
X51548139Y-93607255D01*
X51474005Y-93361136D01*
X50936777Y-93168035D01*
X50366546Y-93195222D01*
X49965995Y-93361136D01*
X49891861Y-93607255D01*
X48070000Y-93607255D01*
X48070000Y-93008336D01*
X48074017Y-93010000D01*
X48445983Y-93010000D01*
X48789635Y-92867655D01*
X49052655Y-92604635D01*
X49118586Y-92445461D01*
X55584092Y-92445461D01*
X55608144Y-93095460D01*
X55810613Y-93584264D01*
X56077468Y-93682927D01*
X57050395Y-92710000D01*
X57409605Y-92710000D01*
X58382532Y-93682927D01*
X58649387Y-93584264D01*
X58875908Y-92974539D01*
X58851856Y-92324540D01*
X58649387Y-91835736D01*
X58382532Y-91737073D01*
X57409605Y-92710000D01*
X57050395Y-92710000D01*
X56077468Y-91737073D01*
X55810613Y-91835736D01*
X55584092Y-92445461D01*
X49118586Y-92445461D01*
X49195000Y-92260983D01*
X49195000Y-91889017D01*
X49057669Y-91557468D01*
X56257073Y-91557468D01*
X57230000Y-92530395D01*
X58202927Y-91557468D01*
X58104264Y-91290613D01*
X57494539Y-91064092D01*
X56844540Y-91088144D01*
X56355736Y-91290613D01*
X56257073Y-91557468D01*
X49057669Y-91557468D01*
X49052655Y-91545365D01*
X49020000Y-91512710D01*
X49020000Y-91508163D01*
X49117809Y-91442809D01*
X49258157Y-91232765D01*
X49307440Y-90985000D01*
X49307440Y-90085000D01*
X49258157Y-89837235D01*
X49117809Y-89627191D01*
X48997469Y-89546781D01*
X49083000Y-89461250D01*
X49083000Y-88662000D01*
X49337000Y-88662000D01*
X49337000Y-89461250D01*
X49495750Y-89620000D01*
X49736310Y-89620000D01*
X49969699Y-89523327D01*
X50148327Y-89344698D01*
X50245000Y-89111309D01*
X50245000Y-88820750D01*
X50086250Y-88662000D01*
X49337000Y-88662000D01*
X49083000Y-88662000D01*
X49063000Y-88662000D01*
X49063000Y-88408000D01*
X49083000Y-88408000D01*
X49083000Y-87608750D01*
X49337000Y-87608750D01*
X49337000Y-88408000D01*
X50086250Y-88408000D01*
X50245000Y-88249250D01*
X50245000Y-87958691D01*
X50148327Y-87725302D01*
X49969699Y-87546673D01*
X49736310Y-87450000D01*
X49495750Y-87450000D01*
X49337000Y-87608750D01*
X49083000Y-87608750D01*
X48924250Y-87450000D01*
X48683690Y-87450000D01*
X48450301Y-87546673D01*
X48271673Y-87725302D01*
X48257013Y-87760694D01*
X48167809Y-87627191D01*
X47957765Y-87486843D01*
X47710000Y-87437560D01*
X47447990Y-87437560D01*
X47309999Y-87410112D01*
X47172009Y-87437560D01*
X46910000Y-87437560D01*
X46662235Y-87486843D01*
X46452191Y-87627191D01*
X46311843Y-87837235D01*
X46262560Y-88085000D01*
X46262560Y-88985000D01*
X46311843Y-89232765D01*
X46452191Y-89442809D01*
X46550001Y-89508164D01*
X46550001Y-93415605D01*
X46532862Y-93398466D01*
X46005439Y-93180000D01*
X45434561Y-93180000D01*
X44907138Y-93398466D01*
X44503466Y-93802138D01*
X44285000Y-94329561D01*
X44285000Y-94900439D01*
X44503466Y-95427862D01*
X44907138Y-95831534D01*
X45434561Y-96050000D01*
X46005439Y-96050000D01*
X46532862Y-95831534D01*
X46550000Y-95814396D01*
X46550000Y-97525299D01*
X46310000Y-97477560D01*
X44810000Y-97477560D01*
X44562235Y-97526843D01*
X44355470Y-97665000D01*
X42224802Y-97665000D01*
X38895451Y-94335649D01*
X39005000Y-94357440D01*
X41005000Y-94357440D01*
X41252765Y-94308157D01*
X41462809Y-94167809D01*
X41603157Y-93957765D01*
X41652440Y-93710000D01*
X41652440Y-91710000D01*
X41603157Y-91462235D01*
X41462809Y-91252191D01*
X41252765Y-91111843D01*
X41005000Y-91062560D01*
X39005000Y-91062560D01*
X38860000Y-91091402D01*
X38860000Y-86328430D01*
X38912862Y-86306534D01*
X39316534Y-85902862D01*
X39535000Y-85375439D01*
X39535000Y-84814506D01*
X43065000Y-84814506D01*
X43065000Y-85365494D01*
X43275853Y-85874540D01*
X43665460Y-86264147D01*
X44174506Y-86475000D01*
X44725494Y-86475000D01*
X45234540Y-86264147D01*
X45624147Y-85874540D01*
X45720000Y-85643130D01*
X45815853Y-85874540D01*
X46205460Y-86264147D01*
X46714506Y-86475000D01*
X47265494Y-86475000D01*
X47774540Y-86264147D01*
X48164147Y-85874540D01*
X48260000Y-85643130D01*
X48355853Y-85874540D01*
X48745460Y-86264147D01*
X49254506Y-86475000D01*
X49805494Y-86475000D01*
X50314540Y-86264147D01*
X50704147Y-85874540D01*
X50800000Y-85643130D01*
X50895853Y-85874540D01*
X51285460Y-86264147D01*
X51794506Y-86475000D01*
X52345494Y-86475000D01*
X52854540Y-86264147D01*
X53244147Y-85874540D01*
X53455000Y-85365494D01*
X53455000Y-84814506D01*
X53244147Y-84305460D01*
X52886127Y-83947440D01*
X54090000Y-83947440D01*
X54337765Y-83898157D01*
X54547809Y-83757809D01*
X54688157Y-83547765D01*
X54737440Y-83300000D01*
X54737440Y-82227361D01*
X60174473Y-76790329D01*
X60237929Y-76747929D01*
X60405904Y-76496537D01*
X60450000Y-76274852D01*
X60450000Y-76274848D01*
X60464888Y-76200001D01*
X60457953Y-76165136D01*
X60502862Y-76146534D01*
X60906534Y-75742862D01*
X61125000Y-75215439D01*
X61125000Y-74644561D01*
X60906534Y-74117138D01*
X60502862Y-73713466D01*
X59975439Y-73495000D01*
X59404561Y-73495000D01*
X58877138Y-73713466D01*
X58473466Y-74117138D01*
X58255000Y-74644561D01*
X58255000Y-75215439D01*
X58473466Y-75742862D01*
X58772901Y-76042297D01*
X53662639Y-81152560D01*
X52590000Y-81152560D01*
X52342235Y-81201843D01*
X52132191Y-81342191D01*
X51991843Y-81552235D01*
X51953531Y-81744844D01*
X51584540Y-81375853D01*
X51075494Y-81165000D01*
X50524506Y-81165000D01*
X50015460Y-81375853D01*
X49625853Y-81765460D01*
X49530000Y-81996870D01*
X49434147Y-81765460D01*
X49044540Y-81375853D01*
X48535494Y-81165000D01*
X47984506Y-81165000D01*
X47475460Y-81375853D01*
X47085853Y-81765460D01*
X46990000Y-81996870D01*
X46894147Y-81765460D01*
X46504540Y-81375853D01*
X45995494Y-81165000D01*
X45444506Y-81165000D01*
X44935460Y-81375853D01*
X44545853Y-81765460D01*
X44335000Y-82274506D01*
X44335000Y-82825494D01*
X44545853Y-83334540D01*
X44935460Y-83724147D01*
X45444506Y-83935000D01*
X45995494Y-83935000D01*
X46504540Y-83724147D01*
X46894147Y-83334540D01*
X46990000Y-83103130D01*
X47085853Y-83334540D01*
X47475460Y-83724147D01*
X47984506Y-83935000D01*
X48535494Y-83935000D01*
X49044540Y-83724147D01*
X49434147Y-83334540D01*
X49530000Y-83103130D01*
X49625853Y-83334540D01*
X50015460Y-83724147D01*
X50524506Y-83935000D01*
X51075494Y-83935000D01*
X51584540Y-83724147D01*
X51953531Y-83355156D01*
X51991843Y-83547765D01*
X52096905Y-83705000D01*
X51794506Y-83705000D01*
X51285460Y-83915853D01*
X50895853Y-84305460D01*
X50800000Y-84536870D01*
X50704147Y-84305460D01*
X50314540Y-83915853D01*
X49805494Y-83705000D01*
X49254506Y-83705000D01*
X48745460Y-83915853D01*
X48355853Y-84305460D01*
X48260000Y-84536870D01*
X48164147Y-84305460D01*
X47774540Y-83915853D01*
X47265494Y-83705000D01*
X46714506Y-83705000D01*
X46205460Y-83915853D01*
X45815853Y-84305460D01*
X45720000Y-84536870D01*
X45624147Y-84305460D01*
X45234540Y-83915853D01*
X44725494Y-83705000D01*
X44174506Y-83705000D01*
X43665460Y-83915853D01*
X43275853Y-84305460D01*
X43065000Y-84814506D01*
X39535000Y-84814506D01*
X39535000Y-84804561D01*
X39316534Y-84277138D01*
X38912862Y-83873466D01*
X38385439Y-83655000D01*
X37814561Y-83655000D01*
X37287138Y-83873466D01*
X36883466Y-84277138D01*
X36665000Y-84804561D01*
X32460000Y-84804561D01*
X32460000Y-74930000D01*
X36636887Y-74930000D01*
X36748260Y-75489909D01*
X37065423Y-75964577D01*
X37540091Y-76281740D01*
X37958667Y-76365000D01*
X38241333Y-76365000D01*
X38659909Y-76281740D01*
X39134577Y-75964577D01*
X39304228Y-75710676D01*
X40500000Y-75710676D01*
X40500000Y-76689324D01*
X40874513Y-77593478D01*
X41566522Y-78285487D01*
X42470676Y-78660000D01*
X43449324Y-78660000D01*
X44353478Y-78285487D01*
X45045487Y-77593478D01*
X45420000Y-76689324D01*
X45420000Y-75710676D01*
X52370000Y-75710676D01*
X52370000Y-76689324D01*
X52744513Y-77593478D01*
X53436522Y-78285487D01*
X54340676Y-78660000D01*
X55319324Y-78660000D01*
X56223478Y-78285487D01*
X56915487Y-77593478D01*
X57290000Y-76689324D01*
X57290000Y-75710676D01*
X56915487Y-74806522D01*
X56223478Y-74114513D01*
X55319324Y-73740000D01*
X54340676Y-73740000D01*
X53436522Y-74114513D01*
X52744513Y-74806522D01*
X52370000Y-75710676D01*
X45420000Y-75710676D01*
X45045487Y-74806522D01*
X44353478Y-74114513D01*
X43449324Y-73740000D01*
X42470676Y-73740000D01*
X41566522Y-74114513D01*
X40874513Y-74806522D01*
X40500000Y-75710676D01*
X39304228Y-75710676D01*
X39451740Y-75489909D01*
X39563113Y-74930000D01*
X39451740Y-74370091D01*
X39134577Y-73895423D01*
X38659909Y-73578260D01*
X38241333Y-73495000D01*
X37958667Y-73495000D01*
X37540091Y-73578260D01*
X37065423Y-73895423D01*
X36748260Y-74370091D01*
X36636887Y-74930000D01*
X32460000Y-74930000D01*
X32460000Y-68655000D01*
X64695000Y-68655000D01*
X64695000Y-101457792D01*
X64695000Y-101457792D01*
G37*
X64695000Y-101457792D02*
X64355134Y-101082611D01*
X63849041Y-100843086D01*
X63627000Y-100964371D01*
X63627000Y-102108000D01*
X63647000Y-102108000D01*
X63647000Y-102362000D01*
X63627000Y-102362000D01*
X63627000Y-103505629D01*
X63849041Y-103626914D01*
X64355134Y-103387389D01*
X64695000Y-103012208D01*
X64695000Y-105908265D01*
X64507745Y-105851861D01*
X63679605Y-106680000D01*
X64507745Y-107508139D01*
X64695000Y-107451735D01*
X64695000Y-110330514D01*
X64534577Y-110090423D01*
X64059909Y-109773260D01*
X63641333Y-109690000D01*
X63358667Y-109690000D01*
X62940091Y-109773260D01*
X62615717Y-109990000D01*
X62065132Y-109990000D01*
X60571613Y-108496482D01*
X60508289Y-108401711D01*
X60132855Y-108150854D01*
X59801783Y-108085000D01*
X59690000Y-108062765D01*
X59578217Y-108085000D01*
X55133217Y-108085000D01*
X54802145Y-108150854D01*
X54426711Y-108401711D01*
X54175854Y-108777145D01*
X54087765Y-109220000D01*
X54175854Y-109662855D01*
X54426711Y-110038289D01*
X54802145Y-110289146D01*
X55133217Y-110355000D01*
X59219869Y-110355000D01*
X60460001Y-111595133D01*
X60460000Y-115458216D01*
X60437765Y-115570000D01*
X60460001Y-115681788D01*
X60460000Y-119903216D01*
X60437765Y-120015000D01*
X60460001Y-120126788D01*
X60460000Y-124348216D01*
X60437765Y-124460000D01*
X60460001Y-124571788D01*
X60460000Y-134360604D01*
X60378466Y-134442138D01*
X60160000Y-134969561D01*
X60160000Y-135540439D01*
X60378466Y-136067862D01*
X60460001Y-136149397D01*
X60460000Y-136660000D01*
X56984131Y-136660000D01*
X57349005Y-136508864D01*
X57423139Y-136262745D01*
X56595000Y-135434605D01*
X55766861Y-136262745D01*
X55840995Y-136508864D01*
X56261472Y-136660000D01*
X45831782Y-136660000D01*
X45719999Y-136637765D01*
X45277145Y-136725854D01*
X44901711Y-136976711D01*
X44838389Y-137071479D01*
X42074869Y-139835000D01*
X37205132Y-139835000D01*
X36770667Y-139400536D01*
X36807765Y-139393157D01*
X37017809Y-139252809D01*
X37158157Y-139042765D01*
X37177099Y-138947532D01*
X39587073Y-138947532D01*
X39685736Y-139214387D01*
X40295461Y-139440908D01*
X40945460Y-139416856D01*
X41434264Y-139214387D01*
X41532927Y-138947532D01*
X40560000Y-137974605D01*
X39587073Y-138947532D01*
X37177099Y-138947532D01*
X37207440Y-138795000D01*
X37207440Y-137530461D01*
X38914092Y-137530461D01*
X38938144Y-138180460D01*
X39140613Y-138669264D01*
X39407468Y-138767927D01*
X40380395Y-137795000D01*
X40739605Y-137795000D01*
X41712532Y-138767927D01*
X41979387Y-138669264D01*
X42205908Y-138059539D01*
X42181856Y-137409540D01*
X41979387Y-136920736D01*
X41712532Y-136822073D01*
X40739605Y-137795000D01*
X40380395Y-137795000D01*
X39407468Y-136822073D01*
X39140613Y-136920736D01*
X38914092Y-137530461D01*
X37207440Y-137530461D01*
X37207440Y-136795000D01*
X37177100Y-136642468D01*
X39587073Y-136642468D01*
X40560000Y-137615395D01*
X41532927Y-136642468D01*
X41434264Y-136375613D01*
X40824539Y-136149092D01*
X40174540Y-136173144D01*
X39685736Y-136375613D01*
X39587073Y-136642468D01*
X37177100Y-136642468D01*
X37158157Y-136547235D01*
X37017809Y-136337191D01*
X36807765Y-136196843D01*
X36560000Y-136147560D01*
X34560000Y-136147560D01*
X34312235Y-136196843D01*
X34102191Y-136337191D01*
X33961843Y-136547235D01*
X33912560Y-136795000D01*
X33912560Y-138795000D01*
X33961843Y-139042765D01*
X34102191Y-139252809D01*
X34312235Y-139393157D01*
X34425000Y-139415587D01*
X34425000Y-139683216D01*
X34402765Y-139795000D01*
X34432922Y-139946608D01*
X34490854Y-140237854D01*
X34741711Y-140613289D01*
X34836482Y-140676613D01*
X35695000Y-141535132D01*
X35695001Y-144568541D01*
X35680000Y-144578564D01*
X35527765Y-144476843D01*
X35280000Y-144427560D01*
X33780000Y-144427560D01*
X33532235Y-144476843D01*
X33322191Y-144617191D01*
X33181843Y-144827235D01*
X33132560Y-145075000D01*
X33132560Y-147075000D01*
X33181843Y-147322765D01*
X33322191Y-147532809D01*
X33395001Y-147581459D01*
X33395001Y-147604868D01*
X32766482Y-148233386D01*
X32671712Y-148296710D01*
X32460000Y-148613560D01*
X32460000Y-134976890D01*
X45548524Y-134976890D01*
X45718355Y-135386924D01*
X46108642Y-135815183D01*
X46633108Y-136061486D01*
X46863000Y-135940819D01*
X46863000Y-134747000D01*
X47117000Y-134747000D01*
X47117000Y-135940819D01*
X47346892Y-136061486D01*
X47871358Y-135815183D01*
X48261645Y-135386924D01*
X48406072Y-135038223D01*
X55148035Y-135038223D01*
X55175222Y-135608454D01*
X55341136Y-136009005D01*
X55587255Y-136083139D01*
X56415395Y-135255000D01*
X56774605Y-135255000D01*
X57602745Y-136083139D01*
X57848864Y-136009005D01*
X58041965Y-135471777D01*
X58014778Y-134901546D01*
X57848864Y-134500995D01*
X57602745Y-134426861D01*
X56774605Y-135255000D01*
X56415395Y-135255000D01*
X55587255Y-134426861D01*
X55341136Y-134500995D01*
X55148035Y-135038223D01*
X48406072Y-135038223D01*
X48431476Y-134976890D01*
X48310155Y-134747000D01*
X47117000Y-134747000D01*
X46863000Y-134747000D01*
X45669845Y-134747000D01*
X45548524Y-134976890D01*
X32460000Y-134976890D01*
X32460000Y-132112532D01*
X34587073Y-132112532D01*
X34685736Y-132379387D01*
X35295461Y-132605908D01*
X35945460Y-132581856D01*
X36434264Y-132379387D01*
X36532927Y-132112532D01*
X35560000Y-131139605D01*
X34587073Y-132112532D01*
X32460000Y-132112532D01*
X32460000Y-130695461D01*
X33914092Y-130695461D01*
X33938144Y-131345460D01*
X34140613Y-131834264D01*
X34407468Y-131932927D01*
X35380395Y-130960000D01*
X35739605Y-130960000D01*
X36712532Y-131932927D01*
X36979387Y-131834264D01*
X37205908Y-131224539D01*
X37184085Y-130634778D01*
X38425000Y-130634778D01*
X38425000Y-131285222D01*
X38673914Y-131886153D01*
X39133847Y-132346086D01*
X39734778Y-132595000D01*
X40385222Y-132595000D01*
X40986153Y-132346086D01*
X41446086Y-131886153D01*
X41695000Y-131285222D01*
X41695000Y-130634778D01*
X41446086Y-130033847D01*
X40986153Y-129573914D01*
X40385222Y-129325000D01*
X39734778Y-129325000D01*
X39133847Y-129573914D01*
X38673914Y-130033847D01*
X38425000Y-130634778D01*
X37184085Y-130634778D01*
X37181856Y-130574540D01*
X36979387Y-130085736D01*
X36712532Y-129987073D01*
X35739605Y-130960000D01*
X35380395Y-130960000D01*
X34407468Y-129987073D01*
X34140613Y-130085736D01*
X33914092Y-130695461D01*
X32460000Y-130695461D01*
X32460000Y-129807468D01*
X34587073Y-129807468D01*
X35560000Y-130780395D01*
X36532927Y-129807468D01*
X36434264Y-129540613D01*
X35824539Y-129314092D01*
X35174540Y-129338144D01*
X34685736Y-129540613D01*
X34587073Y-129807468D01*
X32460000Y-129807468D01*
X32460000Y-125612532D01*
X34587073Y-125612532D01*
X34685736Y-125879387D01*
X35295461Y-126105908D01*
X35945460Y-126081856D01*
X36434264Y-125879387D01*
X36532927Y-125612532D01*
X35560000Y-124639605D01*
X34587073Y-125612532D01*
X32460000Y-125612532D01*
X32460000Y-124195461D01*
X33914092Y-124195461D01*
X33938144Y-124845460D01*
X34140613Y-125334264D01*
X34407468Y-125432927D01*
X35380395Y-124460000D01*
X35739605Y-124460000D01*
X36712532Y-125432927D01*
X36979387Y-125334264D01*
X37205908Y-124724539D01*
X37181856Y-124074540D01*
X36979387Y-123585736D01*
X36712532Y-123487073D01*
X35739605Y-124460000D01*
X35380395Y-124460000D01*
X34407468Y-123487073D01*
X34140613Y-123585736D01*
X33914092Y-124195461D01*
X32460000Y-124195461D01*
X32460000Y-122437532D01*
X34587073Y-122437532D01*
X34685736Y-122704387D01*
X35113653Y-122863364D01*
X34685736Y-123040613D01*
X34587073Y-123307468D01*
X35560000Y-124280395D01*
X36532927Y-123307468D01*
X36434264Y-123040613D01*
X36006347Y-122881636D01*
X36434264Y-122704387D01*
X36532927Y-122437532D01*
X35560000Y-121464605D01*
X34587073Y-122437532D01*
X32460000Y-122437532D01*
X32460000Y-121020461D01*
X33914092Y-121020461D01*
X33938144Y-121670460D01*
X34140613Y-122159264D01*
X34407468Y-122257927D01*
X35380395Y-121285000D01*
X35739605Y-121285000D01*
X36712532Y-122257927D01*
X36979387Y-122159264D01*
X37205908Y-121549539D01*
X37181856Y-120899540D01*
X36979387Y-120410736D01*
X36712532Y-120312073D01*
X35739605Y-121285000D01*
X35380395Y-121285000D01*
X34407468Y-120312073D01*
X34140613Y-120410736D01*
X33914092Y-121020461D01*
X32460000Y-121020461D01*
X32460000Y-120132468D01*
X34587073Y-120132468D01*
X35560000Y-121105395D01*
X36532927Y-120132468D01*
X36434264Y-119865613D01*
X35824539Y-119639092D01*
X35174540Y-119663144D01*
X34685736Y-119865613D01*
X34587073Y-120132468D01*
X32460000Y-120132468D01*
X32460000Y-115937532D01*
X34587073Y-115937532D01*
X34685736Y-116204387D01*
X35295461Y-116430908D01*
X35945460Y-116406856D01*
X36434264Y-116204387D01*
X36532927Y-115937532D01*
X35560000Y-114964605D01*
X34587073Y-115937532D01*
X32460000Y-115937532D01*
X32460000Y-114520461D01*
X33914092Y-114520461D01*
X33938144Y-115170460D01*
X34140613Y-115659264D01*
X34407468Y-115757927D01*
X35380395Y-114785000D01*
X35739605Y-114785000D01*
X36712532Y-115757927D01*
X36979387Y-115659264D01*
X37205908Y-115049539D01*
X37184085Y-114459778D01*
X38425000Y-114459778D01*
X38425000Y-115110222D01*
X38673914Y-115711153D01*
X39133847Y-116171086D01*
X39300001Y-116239909D01*
X39300000Y-118035148D01*
X39285111Y-118110000D01*
X39300001Y-118184857D01*
X39300000Y-119830091D01*
X39133847Y-119898914D01*
X38673914Y-120358847D01*
X38425000Y-120959778D01*
X38425000Y-121610222D01*
X38673914Y-122211153D01*
X39133847Y-122671086D01*
X39620103Y-122872500D01*
X39133847Y-123073914D01*
X38673914Y-123533847D01*
X38425000Y-124134778D01*
X38425000Y-124785222D01*
X38673914Y-125386153D01*
X39133847Y-125846086D01*
X39734778Y-126095000D01*
X40385222Y-126095000D01*
X40986153Y-125846086D01*
X41446086Y-125386153D01*
X41695000Y-124785222D01*
X41695000Y-124460000D01*
X45475908Y-124460000D01*
X45591161Y-125039418D01*
X45919375Y-125530625D01*
X46217761Y-125730000D01*
X45919375Y-125929375D01*
X45591161Y-126420582D01*
X45475908Y-127000000D01*
X45591161Y-127579418D01*
X45919375Y-128070625D01*
X46217761Y-128270000D01*
X45919375Y-128469375D01*
X45591161Y-128960582D01*
X45475908Y-129540000D01*
X45591161Y-130119418D01*
X45919375Y-130610625D01*
X46217761Y-130810000D01*
X45919375Y-131009375D01*
X45591161Y-131500582D01*
X45475908Y-132080000D01*
X45591161Y-132659418D01*
X45919375Y-133150625D01*
X46238478Y-133363843D01*
X46108642Y-133424817D01*
X45718355Y-133853076D01*
X45548524Y-134263110D01*
X45669845Y-134493000D01*
X46863000Y-134493000D01*
X46863000Y-134473000D01*
X47117000Y-134473000D01*
X47117000Y-134493000D01*
X48310155Y-134493000D01*
X48431476Y-134263110D01*
X48424910Y-134247255D01*
X55766861Y-134247255D01*
X56595000Y-135075395D01*
X57423139Y-134247255D01*
X57349005Y-134001136D01*
X56811777Y-133808035D01*
X56241546Y-133835222D01*
X55840995Y-134001136D01*
X55766861Y-134247255D01*
X48424910Y-134247255D01*
X48261645Y-133853076D01*
X47871358Y-133424817D01*
X47741522Y-133363843D01*
X48060625Y-133150625D01*
X48388839Y-132659418D01*
X48504092Y-132080000D01*
X48388839Y-131500582D01*
X48060625Y-131009375D01*
X47762239Y-130810000D01*
X48060625Y-130610625D01*
X48388839Y-130119418D01*
X48504092Y-129540000D01*
X48388839Y-128960582D01*
X48060625Y-128469375D01*
X47762239Y-128270000D01*
X48060625Y-128070625D01*
X48388839Y-127579418D01*
X48504092Y-127000000D01*
X48388839Y-126420582D01*
X48060625Y-125929375D01*
X47762239Y-125730000D01*
X48060625Y-125530625D01*
X48388839Y-125039418D01*
X48504092Y-124460000D01*
X48388839Y-123880582D01*
X48060625Y-123389375D01*
X48042381Y-123377184D01*
X48087765Y-123368157D01*
X48297809Y-123227809D01*
X48438157Y-123017765D01*
X48487440Y-122770000D01*
X48487440Y-121070000D01*
X48438157Y-120822235D01*
X48297809Y-120612191D01*
X48087765Y-120471843D01*
X47840000Y-120422560D01*
X46140000Y-120422560D01*
X45892235Y-120471843D01*
X45682191Y-120612191D01*
X45541843Y-120822235D01*
X45492560Y-121070000D01*
X45492560Y-122770000D01*
X45541843Y-123017765D01*
X45682191Y-123227809D01*
X45892235Y-123368157D01*
X45937619Y-123377184D01*
X45919375Y-123389375D01*
X45591161Y-123880582D01*
X45475908Y-124460000D01*
X41695000Y-124460000D01*
X41695000Y-124134778D01*
X41626177Y-123968624D01*
X45619801Y-119975001D01*
X51884843Y-119975001D01*
X51876887Y-120015000D01*
X51988260Y-120574909D01*
X52305423Y-121049577D01*
X52780091Y-121366740D01*
X53198667Y-121450000D01*
X53481333Y-121450000D01*
X53899909Y-121366740D01*
X54374577Y-121049577D01*
X54485001Y-120884316D01*
X54485001Y-123590684D01*
X54374577Y-123425423D01*
X53899909Y-123108260D01*
X53481333Y-123025000D01*
X53198667Y-123025000D01*
X52780091Y-123108260D01*
X52305423Y-123425423D01*
X51988260Y-123900091D01*
X51876887Y-124460000D01*
X51988260Y-125019909D01*
X52305423Y-125494577D01*
X52780091Y-125811740D01*
X53198667Y-125895000D01*
X53481333Y-125895000D01*
X53899909Y-125811740D01*
X54374577Y-125494577D01*
X54485001Y-125329317D01*
X54485000Y-128035683D01*
X54374577Y-127870423D01*
X53899909Y-127553260D01*
X53481333Y-127470000D01*
X53198667Y-127470000D01*
X52780091Y-127553260D01*
X52305423Y-127870423D01*
X51988260Y-128345091D01*
X51876887Y-128905000D01*
X51988260Y-129464909D01*
X52305423Y-129939577D01*
X52780091Y-130256740D01*
X53198667Y-130340000D01*
X53481333Y-130340000D01*
X53899909Y-130256740D01*
X54374577Y-129939577D01*
X54485000Y-129774317D01*
X54485000Y-131517710D01*
X54452345Y-131550365D01*
X54310000Y-131894017D01*
X54310000Y-132265983D01*
X54452345Y-132609635D01*
X54715365Y-132872655D01*
X55059017Y-133015000D01*
X55430983Y-133015000D01*
X55774635Y-132872655D01*
X56037655Y-132609635D01*
X56180000Y-132265983D01*
X56180000Y-131894017D01*
X56037655Y-131550365D01*
X56005000Y-131517710D01*
X56005000Y-118819848D01*
X56019888Y-118745000D01*
X56005000Y-118670152D01*
X56005000Y-118670148D01*
X55960904Y-118448463D01*
X55792929Y-118197071D01*
X55729473Y-118154671D01*
X55200331Y-117625530D01*
X55157929Y-117562071D01*
X54906537Y-117394096D01*
X54684852Y-117350000D01*
X54684847Y-117350000D01*
X54610000Y-117335112D01*
X54535153Y-117350000D01*
X54100000Y-117350000D01*
X54100000Y-116808430D01*
X54152862Y-116786534D01*
X54556534Y-116382862D01*
X54775000Y-115855439D01*
X54775000Y-115284561D01*
X54556534Y-114757138D01*
X54152862Y-114353466D01*
X53625439Y-114135000D01*
X53054561Y-114135000D01*
X52527138Y-114353466D01*
X52123466Y-114757138D01*
X51905000Y-115284561D01*
X51905000Y-115855439D01*
X52123466Y-116382862D01*
X52527138Y-116786534D01*
X52580000Y-116808430D01*
X52580001Y-117350000D01*
X40820000Y-117350000D01*
X40820000Y-116239909D01*
X40986153Y-116171086D01*
X41446086Y-115711153D01*
X41695000Y-115110222D01*
X41695000Y-114459778D01*
X41446086Y-113858847D01*
X40986153Y-113398914D01*
X40385222Y-113150000D01*
X39734778Y-113150000D01*
X39133847Y-113398914D01*
X38673914Y-113858847D01*
X38425000Y-114459778D01*
X37184085Y-114459778D01*
X37181856Y-114399540D01*
X36979387Y-113910736D01*
X36712532Y-113812073D01*
X35739605Y-114785000D01*
X35380395Y-114785000D01*
X34407468Y-113812073D01*
X34140613Y-113910736D01*
X33914092Y-114520461D01*
X32460000Y-114520461D01*
X32460000Y-113632468D01*
X34587073Y-113632468D01*
X35560000Y-114605395D01*
X36532927Y-113632468D01*
X36434264Y-113365613D01*
X35824539Y-113139092D01*
X35174540Y-113163144D01*
X34685736Y-113365613D01*
X34587073Y-113632468D01*
X32460000Y-113632468D01*
X32460000Y-110140750D01*
X34165000Y-110140750D01*
X34165000Y-110741309D01*
X34261673Y-110974698D01*
X34440301Y-111153327D01*
X34673690Y-111250000D01*
X35274250Y-111250000D01*
X35433000Y-111091250D01*
X35433000Y-109982000D01*
X34323750Y-109982000D01*
X34165000Y-110140750D01*
X32460000Y-110140750D01*
X32460000Y-108968691D01*
X34165000Y-108968691D01*
X34165000Y-109569250D01*
X34323750Y-109728000D01*
X35433000Y-109728000D01*
X35433000Y-108618750D01*
X35274250Y-108460000D01*
X34673690Y-108460000D01*
X34440301Y-108556673D01*
X34261673Y-108735302D01*
X34165000Y-108968691D01*
X32460000Y-108968691D01*
X32460000Y-105491679D01*
X32460091Y-105491740D01*
X32878667Y-105575000D01*
X33161333Y-105575000D01*
X33579909Y-105491740D01*
X34054577Y-105174577D01*
X34132763Y-105057564D01*
X37340000Y-108264802D01*
X37340000Y-108659865D01*
X37309796Y-108672376D01*
X36955000Y-109027172D01*
X36955000Y-108968691D01*
X36858327Y-108735302D01*
X36679699Y-108556673D01*
X36446310Y-108460000D01*
X35845750Y-108460000D01*
X35687000Y-108618750D01*
X35687000Y-109728000D01*
X35707000Y-109728000D01*
X35707000Y-109982000D01*
X35687000Y-109982000D01*
X35687000Y-111091250D01*
X35845750Y-111250000D01*
X36446310Y-111250000D01*
X36679699Y-111153327D01*
X36858327Y-110974698D01*
X36955000Y-110741309D01*
X36955000Y-110682828D01*
X37309796Y-111037624D01*
X37822517Y-111250000D01*
X38377483Y-111250000D01*
X38890204Y-111037624D01*
X39282624Y-110645204D01*
X39370000Y-110434260D01*
X39457376Y-110645204D01*
X39849796Y-111037624D01*
X40362517Y-111250000D01*
X40917483Y-111250000D01*
X41430204Y-111037624D01*
X41822624Y-110645204D01*
X42035000Y-110132483D01*
X42035000Y-109577517D01*
X41822624Y-109064796D01*
X41430204Y-108672376D01*
X40917483Y-108460000D01*
X40362517Y-108460000D01*
X39849796Y-108672376D01*
X39457376Y-109064796D01*
X39370000Y-109275740D01*
X39282624Y-109064796D01*
X38890204Y-108672376D01*
X38860000Y-108659865D01*
X38860000Y-108024848D01*
X38874888Y-107950000D01*
X38860000Y-107875152D01*
X38860000Y-107875148D01*
X38815904Y-107653463D01*
X38815904Y-107653462D01*
X38690329Y-107465527D01*
X38647929Y-107402071D01*
X38584473Y-107359671D01*
X34880331Y-103655530D01*
X34837929Y-103592071D01*
X34586537Y-103424096D01*
X34364852Y-103380000D01*
X34364847Y-103380000D01*
X34290000Y-103365112D01*
X34235358Y-103375981D01*
X34054577Y-103105423D01*
X33579909Y-102788260D01*
X33161333Y-102705000D01*
X32878667Y-102705000D01*
X32460091Y-102788260D01*
X32460000Y-102788321D01*
X32460000Y-102257071D01*
X32670959Y-102356914D01*
X32893000Y-102235629D01*
X32893000Y-101092000D01*
X33147000Y-101092000D01*
X33147000Y-102235629D01*
X33369041Y-102356914D01*
X33875134Y-102117389D01*
X34251041Y-101702423D01*
X34411904Y-101314039D01*
X34289915Y-101092000D01*
X33147000Y-101092000D01*
X32893000Y-101092000D01*
X32873000Y-101092000D01*
X32873000Y-100838000D01*
X32893000Y-100838000D01*
X32893000Y-99694371D01*
X33147000Y-99694371D01*
X33147000Y-100838000D01*
X34289915Y-100838000D01*
X34411904Y-100615961D01*
X34251041Y-100227577D01*
X33875134Y-99812611D01*
X33369041Y-99573086D01*
X33147000Y-99694371D01*
X32893000Y-99694371D01*
X32670959Y-99573086D01*
X32460000Y-99672929D01*
X32460000Y-93862532D01*
X34032073Y-93862532D01*
X34130736Y-94129387D01*
X34740461Y-94355908D01*
X35390460Y-94331856D01*
X35879264Y-94129387D01*
X35977927Y-93862532D01*
X35005000Y-92889605D01*
X34032073Y-93862532D01*
X32460000Y-93862532D01*
X32460000Y-92445461D01*
X33359092Y-92445461D01*
X33383144Y-93095460D01*
X33585613Y-93584264D01*
X33852468Y-93682927D01*
X34825395Y-92710000D01*
X35184605Y-92710000D01*
X36157532Y-93682927D01*
X36424387Y-93584264D01*
X36650908Y-92974539D01*
X36626856Y-92324540D01*
X36424387Y-91835736D01*
X36157532Y-91737073D01*
X35184605Y-92710000D01*
X34825395Y-92710000D01*
X33852468Y-91737073D01*
X33585613Y-91835736D01*
X33359092Y-92445461D01*
X32460000Y-92445461D01*
X32460000Y-91557468D01*
X34032073Y-91557468D01*
X35005000Y-92530395D01*
X35977927Y-91557468D01*
X35879264Y-91290613D01*
X35269539Y-91064092D01*
X34619540Y-91088144D01*
X34130736Y-91290613D01*
X34032073Y-91557468D01*
X32460000Y-91557468D01*
X32460000Y-84804561D01*
X36665000Y-84804561D01*
X36665000Y-85375439D01*
X36883466Y-85902862D01*
X37287138Y-86306534D01*
X37340001Y-86328431D01*
X37340000Y-94540153D01*
X37325112Y-94615000D01*
X37340000Y-94689847D01*
X37340000Y-94689851D01*
X37384096Y-94911536D01*
X37552071Y-95162929D01*
X37615530Y-95205331D01*
X41319671Y-98909473D01*
X41362071Y-98972929D01*
X41425527Y-99015329D01*
X41613462Y-99140904D01*
X41645291Y-99147235D01*
X41835148Y-99185000D01*
X41835152Y-99185000D01*
X41910000Y-99199888D01*
X41984848Y-99185000D01*
X44204331Y-99185000D01*
X44162560Y-99395000D01*
X44162560Y-99918164D01*
X43992862Y-99748466D01*
X43465439Y-99530000D01*
X42894561Y-99530000D01*
X42367138Y-99748466D01*
X41963466Y-100152138D01*
X41745000Y-100679561D01*
X41745000Y-101250439D01*
X41963466Y-101777862D01*
X42367138Y-102181534D01*
X42894561Y-102400000D01*
X43465439Y-102400000D01*
X43518302Y-102378103D01*
X43859671Y-102719473D01*
X43902071Y-102782929D01*
X44153463Y-102950904D01*
X44210832Y-102962316D01*
X44181115Y-103111719D01*
X43992862Y-102923466D01*
X43465439Y-102705000D01*
X42894561Y-102705000D01*
X42367138Y-102923466D01*
X41963466Y-103327138D01*
X41745000Y-103854561D01*
X41745000Y-104425439D01*
X41963466Y-104952862D01*
X42367138Y-105356534D01*
X42894561Y-105575000D01*
X43465439Y-105575000D01*
X43992862Y-105356534D01*
X44181115Y-105168281D01*
X44211843Y-105322765D01*
X44270132Y-105410000D01*
X44211843Y-105497235D01*
X44162560Y-105745000D01*
X44162560Y-106345000D01*
X44211843Y-106592765D01*
X44270132Y-106680000D01*
X44211843Y-106767235D01*
X44162560Y-107015000D01*
X44162560Y-107615000D01*
X44211843Y-107862765D01*
X44352191Y-108072809D01*
X44562235Y-108213157D01*
X44810000Y-108262440D01*
X44960001Y-108262440D01*
X44960000Y-111532560D01*
X44870000Y-111532560D01*
X44622235Y-111581843D01*
X44412191Y-111722191D01*
X44271843Y-111932235D01*
X44222560Y-112180000D01*
X44222560Y-113880000D01*
X44271843Y-114127765D01*
X44412191Y-114337809D01*
X44622235Y-114478157D01*
X44667619Y-114487184D01*
X44649375Y-114499375D01*
X44321161Y-114990582D01*
X44205908Y-115570000D01*
X44321161Y-116149418D01*
X44649375Y-116640625D01*
X45140582Y-116968839D01*
X45573744Y-117055000D01*
X45866256Y-117055000D01*
X46299418Y-116968839D01*
X46790625Y-116640625D01*
X47118839Y-116149418D01*
X47234092Y-115570000D01*
X47118839Y-114990582D01*
X46790625Y-114499375D01*
X46772381Y-114487184D01*
X46817765Y-114478157D01*
X47027809Y-114337809D01*
X47168157Y-114127765D01*
X47217440Y-113880000D01*
X47217440Y-112180000D01*
X47168157Y-111932235D01*
X47027809Y-111722191D01*
X46817765Y-111581843D01*
X46570000Y-111532560D01*
X46480000Y-111532560D01*
X46480000Y-108228625D01*
X46557765Y-108213157D01*
X46767809Y-108072809D01*
X46908157Y-107862765D01*
X46946881Y-107668085D01*
X46960018Y-107687745D01*
X47077072Y-107862929D01*
X47140528Y-107905329D01*
X48770000Y-109534802D01*
X48770001Y-110415145D01*
X48770000Y-110415149D01*
X48770000Y-111532560D01*
X48680000Y-111532560D01*
X48432235Y-111581843D01*
X48222191Y-111722191D01*
X48081843Y-111932235D01*
X48032560Y-112180000D01*
X48032560Y-113880000D01*
X48081843Y-114127765D01*
X48222191Y-114337809D01*
X48432235Y-114478157D01*
X48477619Y-114487184D01*
X48459375Y-114499375D01*
X48131161Y-114990582D01*
X48015908Y-115570000D01*
X48131161Y-116149418D01*
X48459375Y-116640625D01*
X48950582Y-116968839D01*
X49383744Y-117055000D01*
X49676256Y-117055000D01*
X50109418Y-116968839D01*
X50600625Y-116640625D01*
X50928839Y-116149418D01*
X51044092Y-115570000D01*
X50928839Y-114990582D01*
X50600625Y-114499375D01*
X50582381Y-114487184D01*
X50627765Y-114478157D01*
X50837809Y-114337809D01*
X50978157Y-114127765D01*
X51027440Y-113880000D01*
X51027440Y-112180000D01*
X50978157Y-111932235D01*
X50837809Y-111722191D01*
X50627765Y-111581843D01*
X50380000Y-111532560D01*
X50290000Y-111532560D01*
X50290000Y-110839561D01*
X51905000Y-110839561D01*
X51905000Y-111410439D01*
X52123466Y-111937862D01*
X52527138Y-112341534D01*
X53054561Y-112560000D01*
X53625439Y-112560000D01*
X54152862Y-112341534D01*
X54556534Y-111937862D01*
X54775000Y-111410439D01*
X54775000Y-110839561D01*
X54556534Y-110312138D01*
X54152862Y-109908466D01*
X53625439Y-109690000D01*
X53054561Y-109690000D01*
X52527138Y-109908466D01*
X52123466Y-110312138D01*
X51905000Y-110839561D01*
X50290000Y-110839561D01*
X50290000Y-109294848D01*
X50304888Y-109220000D01*
X50290000Y-109145152D01*
X50290000Y-109145148D01*
X50245904Y-108923463D01*
X50245904Y-108923462D01*
X50120329Y-108735527D01*
X50077929Y-108672071D01*
X50014473Y-108629671D01*
X49634802Y-108250000D01*
X50147459Y-108250000D01*
X50210000Y-108262440D01*
X51710000Y-108262440D01*
X51772541Y-108250000D01*
X52612914Y-108250000D01*
X52705000Y-108268317D01*
X52797086Y-108250000D01*
X53069819Y-108195750D01*
X53192504Y-108113774D01*
X53198667Y-108115000D01*
X53481333Y-108115000D01*
X53899909Y-108031740D01*
X54374577Y-107714577D01*
X54392505Y-107687745D01*
X62671861Y-107687745D01*
X62745995Y-107933864D01*
X63283223Y-108126965D01*
X63853454Y-108099778D01*
X64254005Y-107933864D01*
X64328139Y-107687745D01*
X63500000Y-106859605D01*
X62671861Y-107687745D01*
X54392505Y-107687745D01*
X54441112Y-107615000D01*
X55152914Y-107615000D01*
X55245000Y-107633317D01*
X55337086Y-107615000D01*
X55609819Y-107560750D01*
X55919097Y-107354097D01*
X55971261Y-107276028D01*
X56784066Y-106463223D01*
X62053035Y-106463223D01*
X62080222Y-107033454D01*
X62246136Y-107434005D01*
X62492255Y-107508139D01*
X63320395Y-106680000D01*
X62492255Y-105851861D01*
X62246136Y-105925995D01*
X62053035Y-106463223D01*
X56784066Y-106463223D01*
X57575034Y-105672255D01*
X62671861Y-105672255D01*
X63500000Y-106500395D01*
X64328139Y-105672255D01*
X64254005Y-105426136D01*
X63716777Y-105233035D01*
X63146546Y-105260222D01*
X62745995Y-105426136D01*
X62671861Y-105672255D01*
X57575034Y-105672255D01*
X60663250Y-102584039D01*
X62108096Y-102584039D01*
X62268959Y-102972423D01*
X62644866Y-103387389D01*
X63150959Y-103626914D01*
X63373000Y-103505629D01*
X63373000Y-102362000D01*
X62230085Y-102362000D01*
X62108096Y-102584039D01*
X60663250Y-102584039D01*
X61361328Y-101885961D01*
X62108096Y-101885961D01*
X62230085Y-102108000D01*
X63373000Y-102108000D01*
X63373000Y-100964371D01*
X63150959Y-100843086D01*
X62644866Y-101082611D01*
X62268959Y-101497577D01*
X62108096Y-101885961D01*
X61361328Y-101885961D01*
X62826031Y-100421259D01*
X62904097Y-100369097D01*
X63110750Y-100059819D01*
X63165000Y-99787086D01*
X63183317Y-99695000D01*
X63165000Y-99602914D01*
X63165000Y-94357440D01*
X63230000Y-94357440D01*
X63477765Y-94308157D01*
X63687809Y-94167809D01*
X63828157Y-93957765D01*
X63877440Y-93710000D01*
X63877440Y-91710000D01*
X63828157Y-91462235D01*
X63687809Y-91252191D01*
X63477765Y-91111843D01*
X63230000Y-91062560D01*
X61230000Y-91062560D01*
X60982235Y-91111843D01*
X60772191Y-91252191D01*
X60631843Y-91462235D01*
X60582560Y-91710000D01*
X60582560Y-93710000D01*
X60631843Y-93957765D01*
X60772191Y-94167809D01*
X60982235Y-94308157D01*
X61230000Y-94357440D01*
X61295000Y-94357440D01*
X61295001Y-99307709D01*
X54857711Y-105745000D01*
X54441112Y-105745000D01*
X54374577Y-105645423D01*
X53899909Y-105328260D01*
X53481333Y-105245000D01*
X53198667Y-105245000D01*
X52780091Y-105328260D01*
X52333854Y-105626426D01*
X52308157Y-105497235D01*
X52249868Y-105410000D01*
X52308157Y-105322765D01*
X52357440Y-105075000D01*
X52357440Y-104475000D01*
X52308157Y-104227235D01*
X52249868Y-104140000D01*
X52308157Y-104052765D01*
X52357440Y-103805000D01*
X52357440Y-103281836D01*
X52527138Y-103451534D01*
X53054561Y-103670000D01*
X53625439Y-103670000D01*
X54152862Y-103451534D01*
X54556534Y-103047862D01*
X54775000Y-102520439D01*
X54775000Y-101949561D01*
X54556534Y-101422138D01*
X54152862Y-101018466D01*
X53625439Y-100800000D01*
X53085867Y-100800000D01*
X52718587Y-100432720D01*
X52672001Y-100362999D01*
X52395801Y-100178448D01*
X52327001Y-100164763D01*
X52345000Y-100121310D01*
X52345000Y-99980750D01*
X52186250Y-99822000D01*
X51087000Y-99822000D01*
X51087000Y-99842000D01*
X50833000Y-99842000D01*
X50833000Y-99822000D01*
X49733750Y-99822000D01*
X49575000Y-99980750D01*
X49575000Y-100121310D01*
X49664768Y-100338028D01*
X49611843Y-100417235D01*
X49562560Y-100665000D01*
X49562560Y-101265000D01*
X49611843Y-101512765D01*
X49670132Y-101600000D01*
X49611843Y-101687235D01*
X49562560Y-101935000D01*
X49562560Y-102535000D01*
X49604310Y-102744893D01*
X49529999Y-102730112D01*
X49455152Y-102745000D01*
X49455148Y-102745000D01*
X49233463Y-102789096D01*
X49020000Y-102931728D01*
X49020000Y-102797290D01*
X49052655Y-102764635D01*
X49195000Y-102420983D01*
X49195000Y-102049017D01*
X49052655Y-101705365D01*
X48789635Y-101442345D01*
X48445983Y-101300000D01*
X48074017Y-101300000D01*
X47730365Y-101442345D01*
X47467345Y-101705365D01*
X47325000Y-102049017D01*
X47325000Y-102420983D01*
X47467345Y-102764635D01*
X47500000Y-102797290D01*
X47500001Y-103190197D01*
X46957440Y-103732759D01*
X46957440Y-103205000D01*
X46908157Y-102957235D01*
X46849868Y-102870000D01*
X46908157Y-102782765D01*
X46957440Y-102535000D01*
X46957440Y-101935000D01*
X46908157Y-101687235D01*
X46849868Y-101600000D01*
X46908157Y-101512765D01*
X46910327Y-101501858D01*
X46945331Y-101449470D01*
X47794473Y-100600329D01*
X47857929Y-100557929D01*
X48025904Y-100306537D01*
X48070000Y-100084852D01*
X48070000Y-100084847D01*
X48084888Y-100010000D01*
X48070000Y-99935153D01*
X48070000Y-98125000D01*
X49562560Y-98125000D01*
X49562560Y-98725000D01*
X49611843Y-98972765D01*
X49664768Y-99051972D01*
X49575000Y-99268690D01*
X49575000Y-99409250D01*
X49733750Y-99568000D01*
X50833000Y-99568000D01*
X50833000Y-99548000D01*
X51087000Y-99548000D01*
X51087000Y-99568000D01*
X52186250Y-99568000D01*
X52345000Y-99409250D01*
X52345000Y-99268690D01*
X52310334Y-99185000D01*
X56440153Y-99185000D01*
X56515000Y-99199888D01*
X56589847Y-99185000D01*
X56589852Y-99185000D01*
X56811537Y-99140904D01*
X57062929Y-98972929D01*
X57105331Y-98909470D01*
X60174473Y-95840329D01*
X60237929Y-95797929D01*
X60405904Y-95546537D01*
X60450000Y-95324852D01*
X60450000Y-95324848D01*
X60464888Y-95250001D01*
X60450000Y-95175154D01*
X60450000Y-86308043D01*
X60724577Y-86124577D01*
X61041740Y-85649909D01*
X61153113Y-85090000D01*
X61041740Y-84530091D01*
X60724577Y-84055423D01*
X60249909Y-83738260D01*
X59831333Y-83655000D01*
X59548667Y-83655000D01*
X59130091Y-83738260D01*
X58655423Y-84055423D01*
X58338260Y-84530091D01*
X58226887Y-85090000D01*
X58338260Y-85649909D01*
X58655423Y-86124577D01*
X58930001Y-86308044D01*
X58930000Y-94935198D01*
X56200199Y-97665000D01*
X52164530Y-97665000D01*
X51957765Y-97526843D01*
X51710000Y-97477560D01*
X50210000Y-97477560D01*
X49962235Y-97526843D01*
X49752191Y-97667191D01*
X49611843Y-97877235D01*
X49562560Y-98125000D01*
X48070000Y-98125000D01*
X48070000Y-95622745D01*
X49891861Y-95622745D01*
X49965995Y-95868864D01*
X50503223Y-96061965D01*
X51073454Y-96034778D01*
X51474005Y-95868864D01*
X51548139Y-95622745D01*
X50720000Y-94794605D01*
X49891861Y-95622745D01*
X48070000Y-95622745D01*
X48070000Y-94398223D01*
X49273035Y-94398223D01*
X49300222Y-94968454D01*
X49466136Y-95369005D01*
X49712255Y-95443139D01*
X50540395Y-94615000D01*
X50899605Y-94615000D01*
X51727745Y-95443139D01*
X51973864Y-95369005D01*
X52166965Y-94831777D01*
X52139778Y-94261546D01*
X51974501Y-93862532D01*
X56257073Y-93862532D01*
X56355736Y-94129387D01*
X56965461Y-94355908D01*
X57615460Y-94331856D01*
X58104264Y-94129387D01*
X58202927Y-93862532D01*
X57230000Y-92889605D01*
X56257073Y-93862532D01*
X51974501Y-93862532D01*
X51973864Y-93860995D01*
X51727745Y-93786861D01*
X50899605Y-94615000D01*
X50540395Y-94615000D01*
X49712255Y-93786861D01*
X49466136Y-93860995D01*
X49273035Y-94398223D01*
X48070000Y-94398223D01*
X48070000Y-93607255D01*
X49891861Y-93607255D01*
X50720000Y-94435395D01*
X51548139Y-93607255D01*
X51474005Y-93361136D01*
X50936777Y-93168035D01*
X50366546Y-93195222D01*
X49965995Y-93361136D01*
X49891861Y-93607255D01*
X48070000Y-93607255D01*
X48070000Y-93008336D01*
X48074017Y-93010000D01*
X48445983Y-93010000D01*
X48789635Y-92867655D01*
X49052655Y-92604635D01*
X49118586Y-92445461D01*
X55584092Y-92445461D01*
X55608144Y-93095460D01*
X55810613Y-93584264D01*
X56077468Y-93682927D01*
X57050395Y-92710000D01*
X57409605Y-92710000D01*
X58382532Y-93682927D01*
X58649387Y-93584264D01*
X58875908Y-92974539D01*
X58851856Y-92324540D01*
X58649387Y-91835736D01*
X58382532Y-91737073D01*
X57409605Y-92710000D01*
X57050395Y-92710000D01*
X56077468Y-91737073D01*
X55810613Y-91835736D01*
X55584092Y-92445461D01*
X49118586Y-92445461D01*
X49195000Y-92260983D01*
X49195000Y-91889017D01*
X49057669Y-91557468D01*
X56257073Y-91557468D01*
X57230000Y-92530395D01*
X58202927Y-91557468D01*
X58104264Y-91290613D01*
X57494539Y-91064092D01*
X56844540Y-91088144D01*
X56355736Y-91290613D01*
X56257073Y-91557468D01*
X49057669Y-91557468D01*
X49052655Y-91545365D01*
X49020000Y-91512710D01*
X49020000Y-91508163D01*
X49117809Y-91442809D01*
X49258157Y-91232765D01*
X49307440Y-90985000D01*
X49307440Y-90085000D01*
X49258157Y-89837235D01*
X49117809Y-89627191D01*
X48997469Y-89546781D01*
X49083000Y-89461250D01*
X49083000Y-88662000D01*
X49337000Y-88662000D01*
X49337000Y-89461250D01*
X49495750Y-89620000D01*
X49736310Y-89620000D01*
X49969699Y-89523327D01*
X50148327Y-89344698D01*
X50245000Y-89111309D01*
X50245000Y-88820750D01*
X50086250Y-88662000D01*
X49337000Y-88662000D01*
X49083000Y-88662000D01*
X49063000Y-88662000D01*
X49063000Y-88408000D01*
X49083000Y-88408000D01*
X49083000Y-87608750D01*
X49337000Y-87608750D01*
X49337000Y-88408000D01*
X50086250Y-88408000D01*
X50245000Y-88249250D01*
X50245000Y-87958691D01*
X50148327Y-87725302D01*
X49969699Y-87546673D01*
X49736310Y-87450000D01*
X49495750Y-87450000D01*
X49337000Y-87608750D01*
X49083000Y-87608750D01*
X48924250Y-87450000D01*
X48683690Y-87450000D01*
X48450301Y-87546673D01*
X48271673Y-87725302D01*
X48257013Y-87760694D01*
X48167809Y-87627191D01*
X47957765Y-87486843D01*
X47710000Y-87437560D01*
X47447990Y-87437560D01*
X47309999Y-87410112D01*
X47172009Y-87437560D01*
X46910000Y-87437560D01*
X46662235Y-87486843D01*
X46452191Y-87627191D01*
X46311843Y-87837235D01*
X46262560Y-88085000D01*
X46262560Y-88985000D01*
X46311843Y-89232765D01*
X46452191Y-89442809D01*
X46550001Y-89508164D01*
X46550001Y-93415605D01*
X46532862Y-93398466D01*
X46005439Y-93180000D01*
X45434561Y-93180000D01*
X44907138Y-93398466D01*
X44503466Y-93802138D01*
X44285000Y-94329561D01*
X44285000Y-94900439D01*
X44503466Y-95427862D01*
X44907138Y-95831534D01*
X45434561Y-96050000D01*
X46005439Y-96050000D01*
X46532862Y-95831534D01*
X46550000Y-95814396D01*
X46550000Y-97525299D01*
X46310000Y-97477560D01*
X44810000Y-97477560D01*
X44562235Y-97526843D01*
X44355470Y-97665000D01*
X42224802Y-97665000D01*
X38895451Y-94335649D01*
X39005000Y-94357440D01*
X41005000Y-94357440D01*
X41252765Y-94308157D01*
X41462809Y-94167809D01*
X41603157Y-93957765D01*
X41652440Y-93710000D01*
X41652440Y-91710000D01*
X41603157Y-91462235D01*
X41462809Y-91252191D01*
X41252765Y-91111843D01*
X41005000Y-91062560D01*
X39005000Y-91062560D01*
X38860000Y-91091402D01*
X38860000Y-86328430D01*
X38912862Y-86306534D01*
X39316534Y-85902862D01*
X39535000Y-85375439D01*
X39535000Y-84814506D01*
X43065000Y-84814506D01*
X43065000Y-85365494D01*
X43275853Y-85874540D01*
X43665460Y-86264147D01*
X44174506Y-86475000D01*
X44725494Y-86475000D01*
X45234540Y-86264147D01*
X45624147Y-85874540D01*
X45720000Y-85643130D01*
X45815853Y-85874540D01*
X46205460Y-86264147D01*
X46714506Y-86475000D01*
X47265494Y-86475000D01*
X47774540Y-86264147D01*
X48164147Y-85874540D01*
X48260000Y-85643130D01*
X48355853Y-85874540D01*
X48745460Y-86264147D01*
X49254506Y-86475000D01*
X49805494Y-86475000D01*
X50314540Y-86264147D01*
X50704147Y-85874540D01*
X50800000Y-85643130D01*
X50895853Y-85874540D01*
X51285460Y-86264147D01*
X51794506Y-86475000D01*
X52345494Y-86475000D01*
X52854540Y-86264147D01*
X53244147Y-85874540D01*
X53455000Y-85365494D01*
X53455000Y-84814506D01*
X53244147Y-84305460D01*
X52886127Y-83947440D01*
X54090000Y-83947440D01*
X54337765Y-83898157D01*
X54547809Y-83757809D01*
X54688157Y-83547765D01*
X54737440Y-83300000D01*
X54737440Y-82227361D01*
X60174473Y-76790329D01*
X60237929Y-76747929D01*
X60405904Y-76496537D01*
X60450000Y-76274852D01*
X60450000Y-76274848D01*
X60464888Y-76200001D01*
X60457953Y-76165136D01*
X60502862Y-76146534D01*
X60906534Y-75742862D01*
X61125000Y-75215439D01*
X61125000Y-74644561D01*
X60906534Y-74117138D01*
X60502862Y-73713466D01*
X59975439Y-73495000D01*
X59404561Y-73495000D01*
X58877138Y-73713466D01*
X58473466Y-74117138D01*
X58255000Y-74644561D01*
X58255000Y-75215439D01*
X58473466Y-75742862D01*
X58772901Y-76042297D01*
X53662639Y-81152560D01*
X52590000Y-81152560D01*
X52342235Y-81201843D01*
X52132191Y-81342191D01*
X51991843Y-81552235D01*
X51953531Y-81744844D01*
X51584540Y-81375853D01*
X51075494Y-81165000D01*
X50524506Y-81165000D01*
X50015460Y-81375853D01*
X49625853Y-81765460D01*
X49530000Y-81996870D01*
X49434147Y-81765460D01*
X49044540Y-81375853D01*
X48535494Y-81165000D01*
X47984506Y-81165000D01*
X47475460Y-81375853D01*
X47085853Y-81765460D01*
X46990000Y-81996870D01*
X46894147Y-81765460D01*
X46504540Y-81375853D01*
X45995494Y-81165000D01*
X45444506Y-81165000D01*
X44935460Y-81375853D01*
X44545853Y-81765460D01*
X44335000Y-82274506D01*
X44335000Y-82825494D01*
X44545853Y-83334540D01*
X44935460Y-83724147D01*
X45444506Y-83935000D01*
X45995494Y-83935000D01*
X46504540Y-83724147D01*
X46894147Y-83334540D01*
X46990000Y-83103130D01*
X47085853Y-83334540D01*
X47475460Y-83724147D01*
X47984506Y-83935000D01*
X48535494Y-83935000D01*
X49044540Y-83724147D01*
X49434147Y-83334540D01*
X49530000Y-83103130D01*
X49625853Y-83334540D01*
X50015460Y-83724147D01*
X50524506Y-83935000D01*
X51075494Y-83935000D01*
X51584540Y-83724147D01*
X51953531Y-83355156D01*
X51991843Y-83547765D01*
X52096905Y-83705000D01*
X51794506Y-83705000D01*
X51285460Y-83915853D01*
X50895853Y-84305460D01*
X50800000Y-84536870D01*
X50704147Y-84305460D01*
X50314540Y-83915853D01*
X49805494Y-83705000D01*
X49254506Y-83705000D01*
X48745460Y-83915853D01*
X48355853Y-84305460D01*
X48260000Y-84536870D01*
X48164147Y-84305460D01*
X47774540Y-83915853D01*
X47265494Y-83705000D01*
X46714506Y-83705000D01*
X46205460Y-83915853D01*
X45815853Y-84305460D01*
X45720000Y-84536870D01*
X45624147Y-84305460D01*
X45234540Y-83915853D01*
X44725494Y-83705000D01*
X44174506Y-83705000D01*
X43665460Y-83915853D01*
X43275853Y-84305460D01*
X43065000Y-84814506D01*
X39535000Y-84814506D01*
X39535000Y-84804561D01*
X39316534Y-84277138D01*
X38912862Y-83873466D01*
X38385439Y-83655000D01*
X37814561Y-83655000D01*
X37287138Y-83873466D01*
X36883466Y-84277138D01*
X36665000Y-84804561D01*
X32460000Y-84804561D01*
X32460000Y-74930000D01*
X36636887Y-74930000D01*
X36748260Y-75489909D01*
X37065423Y-75964577D01*
X37540091Y-76281740D01*
X37958667Y-76365000D01*
X38241333Y-76365000D01*
X38659909Y-76281740D01*
X39134577Y-75964577D01*
X39304228Y-75710676D01*
X40500000Y-75710676D01*
X40500000Y-76689324D01*
X40874513Y-77593478D01*
X41566522Y-78285487D01*
X42470676Y-78660000D01*
X43449324Y-78660000D01*
X44353478Y-78285487D01*
X45045487Y-77593478D01*
X45420000Y-76689324D01*
X45420000Y-75710676D01*
X52370000Y-75710676D01*
X52370000Y-76689324D01*
X52744513Y-77593478D01*
X53436522Y-78285487D01*
X54340676Y-78660000D01*
X55319324Y-78660000D01*
X56223478Y-78285487D01*
X56915487Y-77593478D01*
X57290000Y-76689324D01*
X57290000Y-75710676D01*
X56915487Y-74806522D01*
X56223478Y-74114513D01*
X55319324Y-73740000D01*
X54340676Y-73740000D01*
X53436522Y-74114513D01*
X52744513Y-74806522D01*
X52370000Y-75710676D01*
X45420000Y-75710676D01*
X45045487Y-74806522D01*
X44353478Y-74114513D01*
X43449324Y-73740000D01*
X42470676Y-73740000D01*
X41566522Y-74114513D01*
X40874513Y-74806522D01*
X40500000Y-75710676D01*
X39304228Y-75710676D01*
X39451740Y-75489909D01*
X39563113Y-74930000D01*
X39451740Y-74370091D01*
X39134577Y-73895423D01*
X38659909Y-73578260D01*
X38241333Y-73495000D01*
X37958667Y-73495000D01*
X37540091Y-73578260D01*
X37065423Y-73895423D01*
X36748260Y-74370091D01*
X36636887Y-74930000D01*
X32460000Y-74930000D01*
X32460000Y-68655000D01*
X64695000Y-68655000D01*
X64695000Y-101457792D01*
G36*
X64695001Y-128133265D02*
X64507745Y-128076861D01*
X63679605Y-128905000D01*
X64507745Y-129733139D01*
X64695001Y-129676735D01*
X64695001Y-141287784D01*
X64637809Y-141202191D01*
X64427765Y-141061843D01*
X64180000Y-141012560D01*
X64000000Y-141012560D01*
X64000000Y-139176782D01*
X64022235Y-139064999D01*
X63934146Y-138622145D01*
X63928229Y-138613289D01*
X63683289Y-138246711D01*
X63588521Y-138183389D01*
X62730000Y-137324869D01*
X62730000Y-136149396D01*
X62811534Y-136067862D01*
X63030000Y-135540439D01*
X63030000Y-134969561D01*
X62811534Y-134442138D01*
X62730000Y-134360604D01*
X62730000Y-130105762D01*
X62745995Y-130158864D01*
X63283223Y-130351965D01*
X63853454Y-130324778D01*
X64254005Y-130158864D01*
X64328139Y-129912745D01*
X63500000Y-129084605D01*
X63485858Y-129098748D01*
X63306252Y-128919142D01*
X63320395Y-128905000D01*
X63306252Y-128890858D01*
X63485858Y-128711252D01*
X63500000Y-128725395D01*
X64328139Y-127897255D01*
X64254005Y-127651136D01*
X63716777Y-127458035D01*
X63146546Y-127485222D01*
X62745995Y-127651136D01*
X62730000Y-127704238D01*
X62730000Y-125694288D01*
X63214561Y-125895000D01*
X63785439Y-125895000D01*
X64312862Y-125676534D01*
X64695001Y-125294395D01*
X64695001Y-128133265D01*
X64695001Y-128133265D01*
G37*
X64695001Y-128133265D02*
X64507745Y-128076861D01*
X63679605Y-128905000D01*
X64507745Y-129733139D01*
X64695001Y-129676735D01*
X64695001Y-141287784D01*
X64637809Y-141202191D01*
X64427765Y-141061843D01*
X64180000Y-141012560D01*
X64000000Y-141012560D01*
X64000000Y-139176782D01*
X64022235Y-139064999D01*
X63934146Y-138622145D01*
X63928229Y-138613289D01*
X63683289Y-138246711D01*
X63588521Y-138183389D01*
X62730000Y-137324869D01*
X62730000Y-136149396D01*
X62811534Y-136067862D01*
X63030000Y-135540439D01*
X63030000Y-134969561D01*
X62811534Y-134442138D01*
X62730000Y-134360604D01*
X62730000Y-130105762D01*
X62745995Y-130158864D01*
X63283223Y-130351965D01*
X63853454Y-130324778D01*
X64254005Y-130158864D01*
X64328139Y-129912745D01*
X63500000Y-129084605D01*
X63485858Y-129098748D01*
X63306252Y-128919142D01*
X63320395Y-128905000D01*
X63306252Y-128890858D01*
X63485858Y-128711252D01*
X63500000Y-128725395D01*
X64328139Y-127897255D01*
X64254005Y-127651136D01*
X63716777Y-127458035D01*
X63146546Y-127485222D01*
X62745995Y-127651136D01*
X62730000Y-127704238D01*
X62730000Y-125694288D01*
X63214561Y-125895000D01*
X63785439Y-125895000D01*
X64312862Y-125676534D01*
X64695001Y-125294395D01*
X64695001Y-128133265D01*
M02*
