M48
;DRILL file {KiCad (5.0.0-rc2-dev-40-gfef1ba999)} date 03/01/18 23:10:02
;FORMAT={-:-/ absolute / inch / decimal}
FMAT,2
INCH,TZ
T1C0.0157
T2C0.0197
T3C0.0217
T4C0.0236
T5C0.0315
T6C0.0354
T7C0.0394
T8C0.0433
T9C0.1280
%
G90
G05
M72
T1
X1.7Y-5.725
X1.75Y-5.925
X1.8Y-3.725
X1.9Y-3.625
X1.9Y-4.025
X1.95Y-6.05
X2.Y-6.1
X2.05Y-3.35
X2.05Y-3.475
X2.05Y-5.675
X2.1Y-3.925
X2.175Y-5.2
X2.175Y-5.975
X2.3Y-5.825
X2.35Y-5.65
T4
X2.175Y-4.3
T5
X2.1Y-4.025
X2.5Y-4.025
X2.1Y-4.55
X2.5Y-4.55
X1.3Y-4.1
X1.5Y-2.95
X1.5Y-3.35
X1.7Y-4.1
X2.35Y-3.35
X2.2281Y-5.325
X2.425Y-5.325
X2.35Y-2.95
X1.4Y-4.325
X1.5Y-4.325
X1.6Y-4.325
X2.1Y-4.9
X2.5Y-4.9
X2.1Y-4.2
X2.1Y-4.375
X2.5Y-4.375
X1.3Y-3.975
X1.7Y-3.975
X1.35Y-6.15
X1.5469Y-6.15
X1.9969Y-3.725
X2.1Y-4.725
X2.5Y-4.725
X2.1Y-5.075
X2.5Y-5.075
X1.8Y-3.725
X2.5Y-4.2
T6
X1.75Y-3.35
X1.8Y-3.25
X1.85Y-3.35
X1.9Y-3.25
X1.95Y-3.35
X2.Y-3.25
X2.05Y-3.35
X2.1Y-3.25
T7
X1.85Y-4.8
X1.85Y-4.9
X1.85Y-5.
X1.85Y-5.1
X1.85Y-5.2
X1.95Y-4.45
X1.95Y-4.55
X1.85Y-5.3
X1.4Y-5.425
X1.5969Y-5.425
X2.2531Y-3.65
X2.45Y-3.65
X1.8Y-4.45
X1.8Y-4.55
X1.3781Y-3.65
X1.575Y-3.65
T8
X1.4Y-4.9
X1.4Y-5.1559
X1.5772Y-4.9
X1.5772Y-5.1559
X1.4Y-4.5191
X1.4Y-4.775
X1.5772Y-4.5191
X1.5772Y-4.775
T9
X1.6913Y-3.
X2.1587Y-3.
T2
X1.3122Y-6.4659G85X1.3122Y-6.4404
G05
X1.5878Y-6.4659G85X1.5878Y-6.4404
G05
T3
X1.3457Y-6.3469G85X1.3575Y-6.3469
G05
X1.5425Y-6.3469G85X1.5543Y-6.3469
G05
T0
M30
