G04 #@! TF.GenerationSoftware,KiCad,Pcbnew,(5.0.0-rc2-dev-40-gfef1ba999)*
G04 #@! TF.CreationDate,2018-03-01T23:08:39+01:00*
G04 #@! TF.ProjectId,HAN_ESP_TSS721,48414E5F4553505F5453533732312E6B,rev?*
G04 #@! TF.SameCoordinates,Original*
G04 #@! TF.FileFunction,Legend,Top*
G04 #@! TF.FilePolarity,Positive*
%FSLAX46Y46*%
G04 Gerber Fmt 4.6, Leading zero omitted, Abs format (unit mm)*
G04 Created by KiCad (PCBNEW (5.0.0-rc2-dev-40-gfef1ba999)) date 03/01/18 23:08:39*
%MOMM*%
%LPD*%
G01*
G04 APERTURE LIST*
%ADD10C,0.120000*%
%ADD11C,0.150000*%
%ADD12C,0.152400*%
G04 APERTURE END LIST*
D10*
X46680000Y-90295000D02*
X47610000Y-90295000D01*
X49840000Y-90295000D02*
X48910000Y-90295000D01*
X49840000Y-90295000D02*
X49840000Y-88135000D01*
X46680000Y-90295000D02*
X46680000Y-88835000D01*
X55210000Y-100925000D02*
X55210000Y-103545000D01*
X55210000Y-103545000D02*
X61630000Y-103545000D01*
X61630000Y-103545000D02*
X61630000Y-100925000D01*
X61630000Y-100925000D02*
X55210000Y-100925000D01*
X54320000Y-102235000D02*
X55210000Y-102235000D01*
X62520000Y-102235000D02*
X61630000Y-102235000D01*
X55210000Y-114260000D02*
X55210000Y-116880000D01*
X55210000Y-116880000D02*
X61630000Y-116880000D01*
X61630000Y-116880000D02*
X61630000Y-114260000D01*
X61630000Y-114260000D02*
X55210000Y-114260000D01*
X54320000Y-115570000D02*
X55210000Y-115570000D01*
X62520000Y-115570000D02*
X61630000Y-115570000D01*
X56510000Y-68330000D02*
X41270000Y-68330000D01*
X41270000Y-86360000D02*
X41280000Y-77370000D01*
X41270000Y-86360000D02*
X56510000Y-86360000D01*
X56510000Y-86360000D02*
X56510000Y-77360000D01*
X41280000Y-75030000D02*
X41270000Y-68330000D01*
X56510000Y-75040000D02*
X56510000Y-68330000D01*
X32480000Y-166590000D02*
X41180000Y-166590000D01*
X32480000Y-160180000D02*
X41180000Y-160180000D01*
X41180000Y-160180000D02*
X41180000Y-166590000D01*
X41180000Y-165360000D02*
X32480000Y-165360000D01*
X32480000Y-166590000D02*
X32480000Y-160180000D01*
D11*
X46185000Y-97795000D02*
X46185000Y-97820000D01*
X50335000Y-97795000D02*
X50335000Y-97900000D01*
X50335000Y-107945000D02*
X50335000Y-107840000D01*
X46185000Y-107945000D02*
X46185000Y-107840000D01*
X46185000Y-97795000D02*
X50335000Y-97795000D01*
X46185000Y-107945000D02*
X50335000Y-107945000D01*
X46185000Y-97820000D02*
X44810000Y-97820000D01*
D10*
X32606563Y-94093264D02*
G75*
G03X42404357Y-94090000I4898437J1383264D01*
G01*
X32606563Y-91326736D02*
G75*
G02X42404357Y-91330000I4898437J-1383264D01*
G01*
X32606563Y-91326736D02*
G75*
G03X32605643Y-94090000I4898437J-1383264D01*
G01*
X37505000Y-97760000D02*
X37505000Y-87660000D01*
X37465000Y-97760000D02*
X37465000Y-87660000D01*
X37425000Y-97760000D02*
X37425000Y-87660000D01*
X37385000Y-97759000D02*
X37385000Y-87661000D01*
X37345000Y-97758000D02*
X37345000Y-87662000D01*
X37305000Y-97757000D02*
X37305000Y-87663000D01*
X37265000Y-97755000D02*
X37265000Y-87665000D01*
X37225000Y-97753000D02*
X37225000Y-87667000D01*
X37185000Y-97750000D02*
X37185000Y-87670000D01*
X37145000Y-97748000D02*
X37145000Y-87672000D01*
X37105000Y-97745000D02*
X37105000Y-87675000D01*
X37065000Y-97741000D02*
X37065000Y-87679000D01*
X37025000Y-97738000D02*
X37025000Y-87682000D01*
X36985000Y-97734000D02*
X36985000Y-87686000D01*
X36945000Y-97730000D02*
X36945000Y-87690000D01*
X36905000Y-97725000D02*
X36905000Y-87695000D01*
X36865000Y-97720000D02*
X36865000Y-87700000D01*
X36825000Y-97715000D02*
X36825000Y-87705000D01*
X36784000Y-97709000D02*
X36784000Y-87711000D01*
X36744000Y-97703000D02*
X36744000Y-87717000D01*
X36704000Y-97697000D02*
X36704000Y-87723000D01*
X36664000Y-97691000D02*
X36664000Y-87729000D01*
X36624000Y-97684000D02*
X36624000Y-87736000D01*
X36584000Y-97677000D02*
X36584000Y-87743000D01*
X36544000Y-97669000D02*
X36544000Y-87751000D01*
X36504000Y-97661000D02*
X36504000Y-87759000D01*
X36464000Y-97653000D02*
X36464000Y-87767000D01*
X36424000Y-97645000D02*
X36424000Y-87775000D01*
X36384000Y-97636000D02*
X36384000Y-87784000D01*
X36344000Y-97627000D02*
X36344000Y-87793000D01*
X36304000Y-97617000D02*
X36304000Y-87803000D01*
X36264000Y-97607000D02*
X36264000Y-87813000D01*
X36224000Y-97597000D02*
X36224000Y-87823000D01*
X36184000Y-97586000D02*
X36184000Y-93891000D01*
X36184000Y-91529000D02*
X36184000Y-87834000D01*
X36144000Y-97575000D02*
X36144000Y-93891000D01*
X36144000Y-91529000D02*
X36144000Y-87845000D01*
X36104000Y-97564000D02*
X36104000Y-93891000D01*
X36104000Y-91529000D02*
X36104000Y-87856000D01*
X36064000Y-97553000D02*
X36064000Y-93891000D01*
X36064000Y-91529000D02*
X36064000Y-87867000D01*
X36024000Y-97541000D02*
X36024000Y-93891000D01*
X36024000Y-91529000D02*
X36024000Y-87879000D01*
X35984000Y-97528000D02*
X35984000Y-93891000D01*
X35984000Y-91529000D02*
X35984000Y-87892000D01*
X35944000Y-97516000D02*
X35944000Y-93891000D01*
X35944000Y-91529000D02*
X35944000Y-87904000D01*
X35904000Y-97502000D02*
X35904000Y-93891000D01*
X35904000Y-91529000D02*
X35904000Y-87918000D01*
X35864000Y-97489000D02*
X35864000Y-93891000D01*
X35864000Y-91529000D02*
X35864000Y-87931000D01*
X35824000Y-97475000D02*
X35824000Y-93891000D01*
X35824000Y-91529000D02*
X35824000Y-87945000D01*
X35784000Y-97461000D02*
X35784000Y-93891000D01*
X35784000Y-91529000D02*
X35784000Y-87959000D01*
X35744000Y-97447000D02*
X35744000Y-93891000D01*
X35744000Y-91529000D02*
X35744000Y-87973000D01*
X35704000Y-97432000D02*
X35704000Y-93891000D01*
X35704000Y-91529000D02*
X35704000Y-87988000D01*
X35664000Y-97416000D02*
X35664000Y-93891000D01*
X35664000Y-91529000D02*
X35664000Y-88004000D01*
X35624000Y-97401000D02*
X35624000Y-93891000D01*
X35624000Y-91529000D02*
X35624000Y-88019000D01*
X35584000Y-97384000D02*
X35584000Y-93891000D01*
X35584000Y-91529000D02*
X35584000Y-88036000D01*
X35544000Y-97368000D02*
X35544000Y-93891000D01*
X35544000Y-91529000D02*
X35544000Y-88052000D01*
X35504000Y-97351000D02*
X35504000Y-93891000D01*
X35504000Y-91529000D02*
X35504000Y-88069000D01*
X35464000Y-97334000D02*
X35464000Y-93891000D01*
X35464000Y-91529000D02*
X35464000Y-88086000D01*
X35424000Y-97316000D02*
X35424000Y-93891000D01*
X35424000Y-91529000D02*
X35424000Y-88104000D01*
X35384000Y-97298000D02*
X35384000Y-93891000D01*
X35384000Y-91529000D02*
X35384000Y-88122000D01*
X35344000Y-97279000D02*
X35344000Y-93891000D01*
X35344000Y-91529000D02*
X35344000Y-88141000D01*
X35304000Y-97260000D02*
X35304000Y-93891000D01*
X35304000Y-91529000D02*
X35304000Y-88160000D01*
X35264000Y-97241000D02*
X35264000Y-93891000D01*
X35264000Y-91529000D02*
X35264000Y-88179000D01*
X35224000Y-97221000D02*
X35224000Y-93891000D01*
X35224000Y-91529000D02*
X35224000Y-88199000D01*
X35184000Y-97201000D02*
X35184000Y-93891000D01*
X35184000Y-91529000D02*
X35184000Y-88219000D01*
X35144000Y-97180000D02*
X35144000Y-93891000D01*
X35144000Y-91529000D02*
X35144000Y-88240000D01*
X35104000Y-97159000D02*
X35104000Y-93891000D01*
X35104000Y-91529000D02*
X35104000Y-88261000D01*
X35064000Y-97138000D02*
X35064000Y-93891000D01*
X35064000Y-91529000D02*
X35064000Y-88282000D01*
X35024000Y-97115000D02*
X35024000Y-93891000D01*
X35024000Y-91529000D02*
X35024000Y-88305000D01*
X34984000Y-97093000D02*
X34984000Y-93891000D01*
X34984000Y-91529000D02*
X34984000Y-88327000D01*
X34944000Y-97070000D02*
X34944000Y-93891000D01*
X34944000Y-91529000D02*
X34944000Y-88350000D01*
X34904000Y-97046000D02*
X34904000Y-93891000D01*
X34904000Y-91529000D02*
X34904000Y-88374000D01*
X34864000Y-97022000D02*
X34864000Y-93891000D01*
X34864000Y-91529000D02*
X34864000Y-88398000D01*
X34824000Y-96998000D02*
X34824000Y-93891000D01*
X34824000Y-91529000D02*
X34824000Y-88422000D01*
X34784000Y-96973000D02*
X34784000Y-93891000D01*
X34784000Y-91529000D02*
X34784000Y-88447000D01*
X34744000Y-96947000D02*
X34744000Y-93891000D01*
X34744000Y-91529000D02*
X34744000Y-88473000D01*
X34704000Y-96921000D02*
X34704000Y-93891000D01*
X34704000Y-91529000D02*
X34704000Y-88499000D01*
X34664000Y-96895000D02*
X34664000Y-93891000D01*
X34664000Y-91529000D02*
X34664000Y-88525000D01*
X34624000Y-96867000D02*
X34624000Y-93891000D01*
X34624000Y-91529000D02*
X34624000Y-88553000D01*
X34584000Y-96840000D02*
X34584000Y-93891000D01*
X34584000Y-91529000D02*
X34584000Y-88580000D01*
X34544000Y-96811000D02*
X34544000Y-93891000D01*
X34544000Y-91529000D02*
X34544000Y-88609000D01*
X34504000Y-96782000D02*
X34504000Y-93891000D01*
X34504000Y-91529000D02*
X34504000Y-88638000D01*
X34464000Y-96753000D02*
X34464000Y-93891000D01*
X34464000Y-91529000D02*
X34464000Y-88667000D01*
X34424000Y-96723000D02*
X34424000Y-93891000D01*
X34424000Y-91529000D02*
X34424000Y-88697000D01*
X34384000Y-96692000D02*
X34384000Y-93891000D01*
X34384000Y-91529000D02*
X34384000Y-88728000D01*
X34344000Y-96661000D02*
X34344000Y-93891000D01*
X34344000Y-91529000D02*
X34344000Y-88759000D01*
X34304000Y-96629000D02*
X34304000Y-93891000D01*
X34304000Y-91529000D02*
X34304000Y-88791000D01*
X34264000Y-96596000D02*
X34264000Y-93891000D01*
X34264000Y-91529000D02*
X34264000Y-88824000D01*
X34224000Y-96563000D02*
X34224000Y-93891000D01*
X34224000Y-91529000D02*
X34224000Y-88857000D01*
X34184000Y-96529000D02*
X34184000Y-93891000D01*
X34184000Y-91529000D02*
X34184000Y-88891000D01*
X34144000Y-96494000D02*
X34144000Y-93891000D01*
X34144000Y-91529000D02*
X34144000Y-88926000D01*
X34104000Y-96458000D02*
X34104000Y-93891000D01*
X34104000Y-91529000D02*
X34104000Y-88962000D01*
X34064000Y-96422000D02*
X34064000Y-93891000D01*
X34064000Y-91529000D02*
X34064000Y-88998000D01*
X34024000Y-96385000D02*
X34024000Y-93891000D01*
X34024000Y-91529000D02*
X34024000Y-89035000D01*
X33984000Y-96347000D02*
X33984000Y-93891000D01*
X33984000Y-91529000D02*
X33984000Y-89073000D01*
X33944000Y-96308000D02*
X33944000Y-93891000D01*
X33944000Y-91529000D02*
X33944000Y-89112000D01*
X33904000Y-96269000D02*
X33904000Y-93891000D01*
X33904000Y-91529000D02*
X33904000Y-89151000D01*
X33864000Y-96228000D02*
X33864000Y-93891000D01*
X33864000Y-91529000D02*
X33864000Y-89192000D01*
X33824000Y-96187000D02*
X33824000Y-89233000D01*
X33784000Y-96145000D02*
X33784000Y-89275000D01*
X33744000Y-96101000D02*
X33744000Y-89319000D01*
X33704000Y-96057000D02*
X33704000Y-89363000D01*
X33664000Y-96012000D02*
X33664000Y-89408000D01*
X33624000Y-95965000D02*
X33624000Y-89455000D01*
X33584000Y-95917000D02*
X33584000Y-89503000D01*
X33544000Y-95868000D02*
X33544000Y-89552000D01*
X33504000Y-95818000D02*
X33504000Y-89602000D01*
X33464000Y-95767000D02*
X33464000Y-89653000D01*
X33424000Y-95714000D02*
X33424000Y-89706000D01*
X33384000Y-95659000D02*
X33384000Y-89761000D01*
X33344000Y-95604000D02*
X33344000Y-89816000D01*
X33304000Y-95546000D02*
X33304000Y-89874000D01*
X33264000Y-95487000D02*
X33264000Y-89933000D01*
X33224000Y-95425000D02*
X33224000Y-89995000D01*
X33184000Y-95362000D02*
X33184000Y-90058000D01*
X33144000Y-95297000D02*
X33144000Y-90123000D01*
X33104000Y-95229000D02*
X33104000Y-90191000D01*
X33064000Y-95159000D02*
X33064000Y-90261000D01*
X33024000Y-95087000D02*
X33024000Y-90333000D01*
X32984000Y-95011000D02*
X32984000Y-90409000D01*
X32944000Y-94932000D02*
X32944000Y-90488000D01*
X32904000Y-94850000D02*
X32904000Y-90570000D01*
X32864000Y-94763000D02*
X32864000Y-90657000D01*
X32824000Y-94672000D02*
X32824000Y-90748000D01*
X32784000Y-94576000D02*
X32784000Y-90844000D01*
X32744000Y-94473000D02*
X32744000Y-90947000D01*
X32704000Y-94364000D02*
X32704000Y-91056000D01*
X32664000Y-94246000D02*
X32664000Y-91174000D01*
X32624000Y-94117000D02*
X32624000Y-91303000D01*
X32584000Y-93975000D02*
X32584000Y-91445000D01*
X32544000Y-93814000D02*
X32544000Y-91606000D01*
X32504000Y-93623000D02*
X32504000Y-91797000D01*
X32464000Y-93382000D02*
X32464000Y-92038000D01*
X32424000Y-92989000D02*
X32424000Y-92431000D01*
X42705000Y-92710000D02*
X41205000Y-92710000D01*
X41955000Y-93460000D02*
X41955000Y-91960000D01*
X44660000Y-92805000D02*
X51780000Y-92805000D01*
X44660000Y-96425000D02*
X51780000Y-96425000D01*
X44660000Y-92805000D02*
X44660000Y-96425000D01*
X51780000Y-92805000D02*
X51780000Y-96425000D01*
X33230000Y-154400000D02*
X40350000Y-154400000D01*
X33230000Y-158020000D02*
X40350000Y-158020000D01*
X33230000Y-154400000D02*
X33230000Y-158020000D01*
X40350000Y-154400000D02*
X40350000Y-158020000D01*
X54831563Y-94093264D02*
G75*
G03X64629357Y-94090000I4898437J1383264D01*
G01*
X54831563Y-91326736D02*
G75*
G02X64629357Y-91330000I4898437J-1383264D01*
G01*
X54831563Y-91326736D02*
G75*
G03X54830643Y-94090000I4898437J-1383264D01*
G01*
X59730000Y-97760000D02*
X59730000Y-87660000D01*
X59690000Y-97760000D02*
X59690000Y-87660000D01*
X59650000Y-97760000D02*
X59650000Y-87660000D01*
X59610000Y-97759000D02*
X59610000Y-87661000D01*
X59570000Y-97758000D02*
X59570000Y-87662000D01*
X59530000Y-97757000D02*
X59530000Y-87663000D01*
X59490000Y-97755000D02*
X59490000Y-87665000D01*
X59450000Y-97753000D02*
X59450000Y-87667000D01*
X59410000Y-97750000D02*
X59410000Y-87670000D01*
X59370000Y-97748000D02*
X59370000Y-87672000D01*
X59330000Y-97745000D02*
X59330000Y-87675000D01*
X59290000Y-97741000D02*
X59290000Y-87679000D01*
X59250000Y-97738000D02*
X59250000Y-87682000D01*
X59210000Y-97734000D02*
X59210000Y-87686000D01*
X59170000Y-97730000D02*
X59170000Y-87690000D01*
X59130000Y-97725000D02*
X59130000Y-87695000D01*
X59090000Y-97720000D02*
X59090000Y-87700000D01*
X59050000Y-97715000D02*
X59050000Y-87705000D01*
X59009000Y-97709000D02*
X59009000Y-87711000D01*
X58969000Y-97703000D02*
X58969000Y-87717000D01*
X58929000Y-97697000D02*
X58929000Y-87723000D01*
X58889000Y-97691000D02*
X58889000Y-87729000D01*
X58849000Y-97684000D02*
X58849000Y-87736000D01*
X58809000Y-97677000D02*
X58809000Y-87743000D01*
X58769000Y-97669000D02*
X58769000Y-87751000D01*
X58729000Y-97661000D02*
X58729000Y-87759000D01*
X58689000Y-97653000D02*
X58689000Y-87767000D01*
X58649000Y-97645000D02*
X58649000Y-87775000D01*
X58609000Y-97636000D02*
X58609000Y-87784000D01*
X58569000Y-97627000D02*
X58569000Y-87793000D01*
X58529000Y-97617000D02*
X58529000Y-87803000D01*
X58489000Y-97607000D02*
X58489000Y-87813000D01*
X58449000Y-97597000D02*
X58449000Y-87823000D01*
X58409000Y-97586000D02*
X58409000Y-93891000D01*
X58409000Y-91529000D02*
X58409000Y-87834000D01*
X58369000Y-97575000D02*
X58369000Y-93891000D01*
X58369000Y-91529000D02*
X58369000Y-87845000D01*
X58329000Y-97564000D02*
X58329000Y-93891000D01*
X58329000Y-91529000D02*
X58329000Y-87856000D01*
X58289000Y-97553000D02*
X58289000Y-93891000D01*
X58289000Y-91529000D02*
X58289000Y-87867000D01*
X58249000Y-97541000D02*
X58249000Y-93891000D01*
X58249000Y-91529000D02*
X58249000Y-87879000D01*
X58209000Y-97528000D02*
X58209000Y-93891000D01*
X58209000Y-91529000D02*
X58209000Y-87892000D01*
X58169000Y-97516000D02*
X58169000Y-93891000D01*
X58169000Y-91529000D02*
X58169000Y-87904000D01*
X58129000Y-97502000D02*
X58129000Y-93891000D01*
X58129000Y-91529000D02*
X58129000Y-87918000D01*
X58089000Y-97489000D02*
X58089000Y-93891000D01*
X58089000Y-91529000D02*
X58089000Y-87931000D01*
X58049000Y-97475000D02*
X58049000Y-93891000D01*
X58049000Y-91529000D02*
X58049000Y-87945000D01*
X58009000Y-97461000D02*
X58009000Y-93891000D01*
X58009000Y-91529000D02*
X58009000Y-87959000D01*
X57969000Y-97447000D02*
X57969000Y-93891000D01*
X57969000Y-91529000D02*
X57969000Y-87973000D01*
X57929000Y-97432000D02*
X57929000Y-93891000D01*
X57929000Y-91529000D02*
X57929000Y-87988000D01*
X57889000Y-97416000D02*
X57889000Y-93891000D01*
X57889000Y-91529000D02*
X57889000Y-88004000D01*
X57849000Y-97401000D02*
X57849000Y-93891000D01*
X57849000Y-91529000D02*
X57849000Y-88019000D01*
X57809000Y-97384000D02*
X57809000Y-93891000D01*
X57809000Y-91529000D02*
X57809000Y-88036000D01*
X57769000Y-97368000D02*
X57769000Y-93891000D01*
X57769000Y-91529000D02*
X57769000Y-88052000D01*
X57729000Y-97351000D02*
X57729000Y-93891000D01*
X57729000Y-91529000D02*
X57729000Y-88069000D01*
X57689000Y-97334000D02*
X57689000Y-93891000D01*
X57689000Y-91529000D02*
X57689000Y-88086000D01*
X57649000Y-97316000D02*
X57649000Y-93891000D01*
X57649000Y-91529000D02*
X57649000Y-88104000D01*
X57609000Y-97298000D02*
X57609000Y-93891000D01*
X57609000Y-91529000D02*
X57609000Y-88122000D01*
X57569000Y-97279000D02*
X57569000Y-93891000D01*
X57569000Y-91529000D02*
X57569000Y-88141000D01*
X57529000Y-97260000D02*
X57529000Y-93891000D01*
X57529000Y-91529000D02*
X57529000Y-88160000D01*
X57489000Y-97241000D02*
X57489000Y-93891000D01*
X57489000Y-91529000D02*
X57489000Y-88179000D01*
X57449000Y-97221000D02*
X57449000Y-93891000D01*
X57449000Y-91529000D02*
X57449000Y-88199000D01*
X57409000Y-97201000D02*
X57409000Y-93891000D01*
X57409000Y-91529000D02*
X57409000Y-88219000D01*
X57369000Y-97180000D02*
X57369000Y-93891000D01*
X57369000Y-91529000D02*
X57369000Y-88240000D01*
X57329000Y-97159000D02*
X57329000Y-93891000D01*
X57329000Y-91529000D02*
X57329000Y-88261000D01*
X57289000Y-97138000D02*
X57289000Y-93891000D01*
X57289000Y-91529000D02*
X57289000Y-88282000D01*
X57249000Y-97115000D02*
X57249000Y-93891000D01*
X57249000Y-91529000D02*
X57249000Y-88305000D01*
X57209000Y-97093000D02*
X57209000Y-93891000D01*
X57209000Y-91529000D02*
X57209000Y-88327000D01*
X57169000Y-97070000D02*
X57169000Y-93891000D01*
X57169000Y-91529000D02*
X57169000Y-88350000D01*
X57129000Y-97046000D02*
X57129000Y-93891000D01*
X57129000Y-91529000D02*
X57129000Y-88374000D01*
X57089000Y-97022000D02*
X57089000Y-93891000D01*
X57089000Y-91529000D02*
X57089000Y-88398000D01*
X57049000Y-96998000D02*
X57049000Y-93891000D01*
X57049000Y-91529000D02*
X57049000Y-88422000D01*
X57009000Y-96973000D02*
X57009000Y-93891000D01*
X57009000Y-91529000D02*
X57009000Y-88447000D01*
X56969000Y-96947000D02*
X56969000Y-93891000D01*
X56969000Y-91529000D02*
X56969000Y-88473000D01*
X56929000Y-96921000D02*
X56929000Y-93891000D01*
X56929000Y-91529000D02*
X56929000Y-88499000D01*
X56889000Y-96895000D02*
X56889000Y-93891000D01*
X56889000Y-91529000D02*
X56889000Y-88525000D01*
X56849000Y-96867000D02*
X56849000Y-93891000D01*
X56849000Y-91529000D02*
X56849000Y-88553000D01*
X56809000Y-96840000D02*
X56809000Y-93891000D01*
X56809000Y-91529000D02*
X56809000Y-88580000D01*
X56769000Y-96811000D02*
X56769000Y-93891000D01*
X56769000Y-91529000D02*
X56769000Y-88609000D01*
X56729000Y-96782000D02*
X56729000Y-93891000D01*
X56729000Y-91529000D02*
X56729000Y-88638000D01*
X56689000Y-96753000D02*
X56689000Y-93891000D01*
X56689000Y-91529000D02*
X56689000Y-88667000D01*
X56649000Y-96723000D02*
X56649000Y-93891000D01*
X56649000Y-91529000D02*
X56649000Y-88697000D01*
X56609000Y-96692000D02*
X56609000Y-93891000D01*
X56609000Y-91529000D02*
X56609000Y-88728000D01*
X56569000Y-96661000D02*
X56569000Y-93891000D01*
X56569000Y-91529000D02*
X56569000Y-88759000D01*
X56529000Y-96629000D02*
X56529000Y-93891000D01*
X56529000Y-91529000D02*
X56529000Y-88791000D01*
X56489000Y-96596000D02*
X56489000Y-93891000D01*
X56489000Y-91529000D02*
X56489000Y-88824000D01*
X56449000Y-96563000D02*
X56449000Y-93891000D01*
X56449000Y-91529000D02*
X56449000Y-88857000D01*
X56409000Y-96529000D02*
X56409000Y-93891000D01*
X56409000Y-91529000D02*
X56409000Y-88891000D01*
X56369000Y-96494000D02*
X56369000Y-93891000D01*
X56369000Y-91529000D02*
X56369000Y-88926000D01*
X56329000Y-96458000D02*
X56329000Y-93891000D01*
X56329000Y-91529000D02*
X56329000Y-88962000D01*
X56289000Y-96422000D02*
X56289000Y-93891000D01*
X56289000Y-91529000D02*
X56289000Y-88998000D01*
X56249000Y-96385000D02*
X56249000Y-93891000D01*
X56249000Y-91529000D02*
X56249000Y-89035000D01*
X56209000Y-96347000D02*
X56209000Y-93891000D01*
X56209000Y-91529000D02*
X56209000Y-89073000D01*
X56169000Y-96308000D02*
X56169000Y-93891000D01*
X56169000Y-91529000D02*
X56169000Y-89112000D01*
X56129000Y-96269000D02*
X56129000Y-93891000D01*
X56129000Y-91529000D02*
X56129000Y-89151000D01*
X56089000Y-96228000D02*
X56089000Y-93891000D01*
X56089000Y-91529000D02*
X56089000Y-89192000D01*
X56049000Y-96187000D02*
X56049000Y-89233000D01*
X56009000Y-96145000D02*
X56009000Y-89275000D01*
X55969000Y-96101000D02*
X55969000Y-89319000D01*
X55929000Y-96057000D02*
X55929000Y-89363000D01*
X55889000Y-96012000D02*
X55889000Y-89408000D01*
X55849000Y-95965000D02*
X55849000Y-89455000D01*
X55809000Y-95917000D02*
X55809000Y-89503000D01*
X55769000Y-95868000D02*
X55769000Y-89552000D01*
X55729000Y-95818000D02*
X55729000Y-89602000D01*
X55689000Y-95767000D02*
X55689000Y-89653000D01*
X55649000Y-95714000D02*
X55649000Y-89706000D01*
X55609000Y-95659000D02*
X55609000Y-89761000D01*
X55569000Y-95604000D02*
X55569000Y-89816000D01*
X55529000Y-95546000D02*
X55529000Y-89874000D01*
X55489000Y-95487000D02*
X55489000Y-89933000D01*
X55449000Y-95425000D02*
X55449000Y-89995000D01*
X55409000Y-95362000D02*
X55409000Y-90058000D01*
X55369000Y-95297000D02*
X55369000Y-90123000D01*
X55329000Y-95229000D02*
X55329000Y-90191000D01*
X55289000Y-95159000D02*
X55289000Y-90261000D01*
X55249000Y-95087000D02*
X55249000Y-90333000D01*
X55209000Y-95011000D02*
X55209000Y-90409000D01*
X55169000Y-94932000D02*
X55169000Y-90488000D01*
X55129000Y-94850000D02*
X55129000Y-90570000D01*
X55089000Y-94763000D02*
X55089000Y-90657000D01*
X55049000Y-94672000D02*
X55049000Y-90748000D01*
X55009000Y-94576000D02*
X55009000Y-90844000D01*
X54969000Y-94473000D02*
X54969000Y-90947000D01*
X54929000Y-94364000D02*
X54929000Y-91056000D01*
X54889000Y-94246000D02*
X54889000Y-91174000D01*
X54849000Y-94117000D02*
X54849000Y-91303000D01*
X54809000Y-93975000D02*
X54809000Y-91445000D01*
X54769000Y-93814000D02*
X54769000Y-91606000D01*
X54729000Y-93623000D02*
X54729000Y-91797000D01*
X54689000Y-93382000D02*
X54689000Y-92038000D01*
X54649000Y-92989000D02*
X54649000Y-92431000D01*
X64930000Y-92710000D02*
X63430000Y-92710000D01*
X64180000Y-93460000D02*
X64180000Y-91960000D01*
X41310000Y-102275000D02*
X41310000Y-99655000D01*
X41310000Y-99655000D02*
X34890000Y-99655000D01*
X34890000Y-99655000D02*
X34890000Y-102275000D01*
X34890000Y-102275000D02*
X41310000Y-102275000D01*
X42200000Y-100965000D02*
X41310000Y-100965000D01*
X34000000Y-100965000D02*
X34890000Y-100965000D01*
X55210000Y-109815000D02*
X55210000Y-112435000D01*
X55210000Y-112435000D02*
X61630000Y-112435000D01*
X61630000Y-112435000D02*
X61630000Y-109815000D01*
X61630000Y-109815000D02*
X55210000Y-109815000D01*
X54320000Y-111125000D02*
X55210000Y-111125000D01*
X62520000Y-111125000D02*
X61630000Y-111125000D01*
X61630000Y-121325000D02*
X61630000Y-118705000D01*
X61630000Y-118705000D02*
X55210000Y-118705000D01*
X55210000Y-118705000D02*
X55210000Y-121325000D01*
X55210000Y-121325000D02*
X61630000Y-121325000D01*
X62520000Y-120015000D02*
X61630000Y-120015000D01*
X54320000Y-120015000D02*
X55210000Y-120015000D01*
X61630000Y-130215000D02*
X61630000Y-127595000D01*
X61630000Y-127595000D02*
X55210000Y-127595000D01*
X55210000Y-127595000D02*
X55210000Y-130215000D01*
X55210000Y-130215000D02*
X61630000Y-130215000D01*
X62520000Y-128905000D02*
X61630000Y-128905000D01*
X54320000Y-128905000D02*
X55210000Y-128905000D01*
X61630000Y-125770000D02*
X61630000Y-123150000D01*
X61630000Y-123150000D02*
X55210000Y-123150000D01*
X55210000Y-123150000D02*
X55210000Y-125770000D01*
X55210000Y-125770000D02*
X61630000Y-125770000D01*
X62520000Y-124460000D02*
X61630000Y-124460000D01*
X54320000Y-124460000D02*
X55210000Y-124460000D01*
X61000000Y-76800000D02*
X58380000Y-76800000D01*
X58380000Y-76800000D02*
X58380000Y-83220000D01*
X58380000Y-83220000D02*
X61000000Y-83220000D01*
X61000000Y-83220000D02*
X61000000Y-76800000D01*
X59690000Y-75910000D02*
X59690000Y-76800000D01*
X59690000Y-84110000D02*
X59690000Y-83220000D01*
X36790000Y-83220000D02*
X39410000Y-83220000D01*
X39410000Y-83220000D02*
X39410000Y-76800000D01*
X39410000Y-76800000D02*
X36790000Y-76800000D01*
X36790000Y-76800000D02*
X36790000Y-83220000D01*
X38100000Y-84110000D02*
X38100000Y-83220000D01*
X38100000Y-75910000D02*
X38100000Y-76800000D01*
X61630000Y-107990000D02*
X61630000Y-105370000D01*
X61630000Y-105370000D02*
X55210000Y-105370000D01*
X55210000Y-105370000D02*
X55210000Y-107990000D01*
X55210000Y-107990000D02*
X61630000Y-107990000D01*
X62520000Y-106680000D02*
X61630000Y-106680000D01*
X54320000Y-106680000D02*
X55210000Y-106680000D01*
X33420000Y-151135000D02*
X34680000Y-151135000D01*
X40240000Y-151135000D02*
X38980000Y-151135000D01*
X33420000Y-147375000D02*
X33420000Y-151135000D01*
X40240000Y-145125000D02*
X40240000Y-151135000D01*
X44390000Y-116900000D02*
X47050000Y-116900000D01*
X44390000Y-114300000D02*
X44390000Y-116900000D01*
X47050000Y-114300000D02*
X47050000Y-116900000D01*
X44390000Y-114300000D02*
X47050000Y-114300000D01*
X44390000Y-113030000D02*
X44390000Y-111700000D01*
X44390000Y-111700000D02*
X45720000Y-111700000D01*
X48200000Y-116900000D02*
X50860000Y-116900000D01*
X48200000Y-114300000D02*
X48200000Y-116900000D01*
X50860000Y-114300000D02*
X50860000Y-116900000D01*
X48200000Y-114300000D02*
X50860000Y-114300000D01*
X48200000Y-113030000D02*
X48200000Y-111700000D01*
X48200000Y-111700000D02*
X49530000Y-111700000D01*
D12*
X63246000Y-141351000D02*
X63246000Y-140589000D01*
X63246000Y-140589000D02*
X47244000Y-140589000D01*
X47244000Y-140589000D02*
X47244000Y-141351000D01*
D10*
X34000000Y-104140000D02*
X34890000Y-104140000D01*
X42200000Y-104140000D02*
X41310000Y-104140000D01*
X34890000Y-105450000D02*
X41310000Y-105450000D01*
X34890000Y-102830000D02*
X34890000Y-105450000D01*
X41310000Y-102830000D02*
X34890000Y-102830000D01*
X41310000Y-105450000D02*
X41310000Y-102830000D01*
X40424184Y-110977795D02*
G75*
G02X39900000Y-111705000I-2324184J1122795D01*
G01*
X40456400Y-108756193D02*
G75*
G03X38100000Y-107255000I-2356400J-1098807D01*
G01*
X35743600Y-108756193D02*
G75*
G02X38100000Y-107255000I2356400J-1098807D01*
G01*
X35775816Y-110977795D02*
G75*
G03X36300000Y-111705000I2324184J1122795D01*
G01*
X36300000Y-111705000D02*
X39900000Y-111705000D01*
X55535000Y-137065000D02*
X55535000Y-133445000D01*
X62655000Y-137065000D02*
X62655000Y-133445000D01*
X62655000Y-133445000D02*
X55535000Y-133445000D01*
X62655000Y-137065000D02*
X55535000Y-137065000D01*
X33610000Y-137045000D02*
X33610000Y-138545000D01*
X32860000Y-137795000D02*
X34360000Y-137795000D01*
X43141000Y-137516000D02*
X43141000Y-138074000D01*
X43101000Y-137123000D02*
X43101000Y-138467000D01*
X43061000Y-136882000D02*
X43061000Y-138708000D01*
X43021000Y-136691000D02*
X43021000Y-138899000D01*
X42981000Y-136530000D02*
X42981000Y-139060000D01*
X42941000Y-136388000D02*
X42941000Y-139202000D01*
X42901000Y-136259000D02*
X42901000Y-139331000D01*
X42861000Y-136141000D02*
X42861000Y-139449000D01*
X42821000Y-136032000D02*
X42821000Y-139558000D01*
X42781000Y-135929000D02*
X42781000Y-139661000D01*
X42741000Y-135833000D02*
X42741000Y-139757000D01*
X42701000Y-135742000D02*
X42701000Y-139848000D01*
X42661000Y-135655000D02*
X42661000Y-139935000D01*
X42621000Y-135573000D02*
X42621000Y-140017000D01*
X42581000Y-135494000D02*
X42581000Y-140096000D01*
X42541000Y-135418000D02*
X42541000Y-140172000D01*
X42501000Y-135346000D02*
X42501000Y-140244000D01*
X42461000Y-135276000D02*
X42461000Y-140314000D01*
X42421000Y-135208000D02*
X42421000Y-140382000D01*
X42381000Y-135143000D02*
X42381000Y-140447000D01*
X42341000Y-135080000D02*
X42341000Y-140510000D01*
X42301000Y-135018000D02*
X42301000Y-140572000D01*
X42261000Y-134959000D02*
X42261000Y-140631000D01*
X42221000Y-134901000D02*
X42221000Y-140689000D01*
X42181000Y-134846000D02*
X42181000Y-140744000D01*
X42141000Y-134791000D02*
X42141000Y-140799000D01*
X42101000Y-134738000D02*
X42101000Y-140852000D01*
X42061000Y-134687000D02*
X42061000Y-140903000D01*
X42021000Y-134637000D02*
X42021000Y-140953000D01*
X41981000Y-134588000D02*
X41981000Y-141002000D01*
X41941000Y-134540000D02*
X41941000Y-141050000D01*
X41901000Y-134493000D02*
X41901000Y-141097000D01*
X41861000Y-134448000D02*
X41861000Y-141142000D01*
X41821000Y-134404000D02*
X41821000Y-141186000D01*
X41781000Y-134360000D02*
X41781000Y-141230000D01*
X41741000Y-134318000D02*
X41741000Y-141272000D01*
X41701000Y-138976000D02*
X41701000Y-141313000D01*
X41701000Y-134277000D02*
X41701000Y-136614000D01*
X41661000Y-138976000D02*
X41661000Y-141354000D01*
X41661000Y-134236000D02*
X41661000Y-136614000D01*
X41621000Y-138976000D02*
X41621000Y-141393000D01*
X41621000Y-134197000D02*
X41621000Y-136614000D01*
X41581000Y-138976000D02*
X41581000Y-141432000D01*
X41581000Y-134158000D02*
X41581000Y-136614000D01*
X41541000Y-138976000D02*
X41541000Y-141470000D01*
X41541000Y-134120000D02*
X41541000Y-136614000D01*
X41501000Y-138976000D02*
X41501000Y-141507000D01*
X41501000Y-134083000D02*
X41501000Y-136614000D01*
X41461000Y-138976000D02*
X41461000Y-141543000D01*
X41461000Y-134047000D02*
X41461000Y-136614000D01*
X41421000Y-138976000D02*
X41421000Y-141579000D01*
X41421000Y-134011000D02*
X41421000Y-136614000D01*
X41381000Y-138976000D02*
X41381000Y-141614000D01*
X41381000Y-133976000D02*
X41381000Y-136614000D01*
X41341000Y-138976000D02*
X41341000Y-141648000D01*
X41341000Y-133942000D02*
X41341000Y-136614000D01*
X41301000Y-138976000D02*
X41301000Y-141681000D01*
X41301000Y-133909000D02*
X41301000Y-136614000D01*
X41261000Y-138976000D02*
X41261000Y-141714000D01*
X41261000Y-133876000D02*
X41261000Y-136614000D01*
X41221000Y-138976000D02*
X41221000Y-141746000D01*
X41221000Y-133844000D02*
X41221000Y-136614000D01*
X41181000Y-138976000D02*
X41181000Y-141777000D01*
X41181000Y-133813000D02*
X41181000Y-136614000D01*
X41141000Y-138976000D02*
X41141000Y-141808000D01*
X41141000Y-133782000D02*
X41141000Y-136614000D01*
X41101000Y-138976000D02*
X41101000Y-141838000D01*
X41101000Y-133752000D02*
X41101000Y-136614000D01*
X41061000Y-138976000D02*
X41061000Y-141867000D01*
X41061000Y-133723000D02*
X41061000Y-136614000D01*
X41021000Y-138976000D02*
X41021000Y-141896000D01*
X41021000Y-133694000D02*
X41021000Y-136614000D01*
X40981000Y-138976000D02*
X40981000Y-141925000D01*
X40981000Y-133665000D02*
X40981000Y-136614000D01*
X40941000Y-138976000D02*
X40941000Y-141952000D01*
X40941000Y-133638000D02*
X40941000Y-136614000D01*
X40901000Y-138976000D02*
X40901000Y-141980000D01*
X40901000Y-133610000D02*
X40901000Y-136614000D01*
X40861000Y-138976000D02*
X40861000Y-142006000D01*
X40861000Y-133584000D02*
X40861000Y-136614000D01*
X40821000Y-138976000D02*
X40821000Y-142032000D01*
X40821000Y-133558000D02*
X40821000Y-136614000D01*
X40781000Y-138976000D02*
X40781000Y-142058000D01*
X40781000Y-133532000D02*
X40781000Y-136614000D01*
X40741000Y-138976000D02*
X40741000Y-142083000D01*
X40741000Y-133507000D02*
X40741000Y-136614000D01*
X40701000Y-138976000D02*
X40701000Y-142107000D01*
X40701000Y-133483000D02*
X40701000Y-136614000D01*
X40661000Y-138976000D02*
X40661000Y-142131000D01*
X40661000Y-133459000D02*
X40661000Y-136614000D01*
X40621000Y-138976000D02*
X40621000Y-142155000D01*
X40621000Y-133435000D02*
X40621000Y-136614000D01*
X40581000Y-138976000D02*
X40581000Y-142178000D01*
X40581000Y-133412000D02*
X40581000Y-136614000D01*
X40541000Y-138976000D02*
X40541000Y-142200000D01*
X40541000Y-133390000D02*
X40541000Y-136614000D01*
X40501000Y-138976000D02*
X40501000Y-142223000D01*
X40501000Y-133367000D02*
X40501000Y-136614000D01*
X40461000Y-138976000D02*
X40461000Y-142244000D01*
X40461000Y-133346000D02*
X40461000Y-136614000D01*
X40421000Y-138976000D02*
X40421000Y-142265000D01*
X40421000Y-133325000D02*
X40421000Y-136614000D01*
X40381000Y-138976000D02*
X40381000Y-142286000D01*
X40381000Y-133304000D02*
X40381000Y-136614000D01*
X40341000Y-138976000D02*
X40341000Y-142306000D01*
X40341000Y-133284000D02*
X40341000Y-136614000D01*
X40301000Y-138976000D02*
X40301000Y-142326000D01*
X40301000Y-133264000D02*
X40301000Y-136614000D01*
X40261000Y-138976000D02*
X40261000Y-142345000D01*
X40261000Y-133245000D02*
X40261000Y-136614000D01*
X40221000Y-138976000D02*
X40221000Y-142364000D01*
X40221000Y-133226000D02*
X40221000Y-136614000D01*
X40181000Y-138976000D02*
X40181000Y-142383000D01*
X40181000Y-133207000D02*
X40181000Y-136614000D01*
X40141000Y-138976000D02*
X40141000Y-142401000D01*
X40141000Y-133189000D02*
X40141000Y-136614000D01*
X40101000Y-138976000D02*
X40101000Y-142419000D01*
X40101000Y-133171000D02*
X40101000Y-136614000D01*
X40061000Y-138976000D02*
X40061000Y-142436000D01*
X40061000Y-133154000D02*
X40061000Y-136614000D01*
X40021000Y-138976000D02*
X40021000Y-142453000D01*
X40021000Y-133137000D02*
X40021000Y-136614000D01*
X39981000Y-138976000D02*
X39981000Y-142469000D01*
X39981000Y-133121000D02*
X39981000Y-136614000D01*
X39941000Y-138976000D02*
X39941000Y-142486000D01*
X39941000Y-133104000D02*
X39941000Y-136614000D01*
X39901000Y-138976000D02*
X39901000Y-142501000D01*
X39901000Y-133089000D02*
X39901000Y-136614000D01*
X39861000Y-138976000D02*
X39861000Y-142517000D01*
X39861000Y-133073000D02*
X39861000Y-136614000D01*
X39821000Y-138976000D02*
X39821000Y-142532000D01*
X39821000Y-133058000D02*
X39821000Y-136614000D01*
X39781000Y-138976000D02*
X39781000Y-142546000D01*
X39781000Y-133044000D02*
X39781000Y-136614000D01*
X39741000Y-138976000D02*
X39741000Y-142560000D01*
X39741000Y-133030000D02*
X39741000Y-136614000D01*
X39701000Y-138976000D02*
X39701000Y-142574000D01*
X39701000Y-133016000D02*
X39701000Y-136614000D01*
X39661000Y-138976000D02*
X39661000Y-142587000D01*
X39661000Y-133003000D02*
X39661000Y-136614000D01*
X39621000Y-138976000D02*
X39621000Y-142601000D01*
X39621000Y-132989000D02*
X39621000Y-136614000D01*
X39581000Y-138976000D02*
X39581000Y-142613000D01*
X39581000Y-132977000D02*
X39581000Y-136614000D01*
X39541000Y-138976000D02*
X39541000Y-142626000D01*
X39541000Y-132964000D02*
X39541000Y-136614000D01*
X39501000Y-138976000D02*
X39501000Y-142638000D01*
X39501000Y-132952000D02*
X39501000Y-136614000D01*
X39461000Y-138976000D02*
X39461000Y-142649000D01*
X39461000Y-132941000D02*
X39461000Y-136614000D01*
X39421000Y-138976000D02*
X39421000Y-142660000D01*
X39421000Y-132930000D02*
X39421000Y-136614000D01*
X39381000Y-138976000D02*
X39381000Y-142671000D01*
X39381000Y-132919000D02*
X39381000Y-136614000D01*
X39341000Y-132908000D02*
X39341000Y-142682000D01*
X39301000Y-132898000D02*
X39301000Y-142692000D01*
X39261000Y-132888000D02*
X39261000Y-142702000D01*
X39221000Y-132878000D02*
X39221000Y-142712000D01*
X39181000Y-132869000D02*
X39181000Y-142721000D01*
X39141000Y-132860000D02*
X39141000Y-142730000D01*
X39101000Y-132852000D02*
X39101000Y-142738000D01*
X39061000Y-132844000D02*
X39061000Y-142746000D01*
X39021000Y-132836000D02*
X39021000Y-142754000D01*
X38981000Y-132828000D02*
X38981000Y-142762000D01*
X38941000Y-132821000D02*
X38941000Y-142769000D01*
X38901000Y-132814000D02*
X38901000Y-142776000D01*
X38861000Y-132808000D02*
X38861000Y-142782000D01*
X38821000Y-132802000D02*
X38821000Y-142788000D01*
X38781000Y-132796000D02*
X38781000Y-142794000D01*
X38740000Y-132790000D02*
X38740000Y-142800000D01*
X38700000Y-132785000D02*
X38700000Y-142805000D01*
X38660000Y-132780000D02*
X38660000Y-142810000D01*
X38620000Y-132775000D02*
X38620000Y-142815000D01*
X38580000Y-132771000D02*
X38580000Y-142819000D01*
X38540000Y-132767000D02*
X38540000Y-142823000D01*
X38500000Y-132764000D02*
X38500000Y-142826000D01*
X38460000Y-132760000D02*
X38460000Y-142830000D01*
X38420000Y-132757000D02*
X38420000Y-142833000D01*
X38380000Y-132755000D02*
X38380000Y-142835000D01*
X38340000Y-132752000D02*
X38340000Y-142838000D01*
X38300000Y-132750000D02*
X38300000Y-142840000D01*
X38260000Y-132748000D02*
X38260000Y-142842000D01*
X38220000Y-132747000D02*
X38220000Y-142843000D01*
X38180000Y-132746000D02*
X38180000Y-142844000D01*
X38140000Y-132745000D02*
X38140000Y-142845000D01*
X38100000Y-132745000D02*
X38100000Y-142845000D01*
X38060000Y-132745000D02*
X38060000Y-142845000D01*
X42958437Y-139178264D02*
G75*
G03X42959357Y-136415000I-4898437J1383264D01*
G01*
X42958437Y-139178264D02*
G75*
G02X33160643Y-139175000I-4898437J1383264D01*
G01*
X42958437Y-136411736D02*
G75*
G03X33160643Y-136415000I-4898437J-1383264D01*
G01*
X45660000Y-120590000D02*
X46990000Y-120590000D01*
X45660000Y-121920000D02*
X45660000Y-120590000D01*
X45660000Y-123190000D02*
X48320000Y-123190000D01*
X48320000Y-123190000D02*
X48320000Y-135950000D01*
X45660000Y-123190000D02*
X45660000Y-135950000D01*
X45660000Y-135950000D02*
X48320000Y-135950000D01*
X38560000Y-114535000D02*
X37060000Y-114535000D01*
X34560000Y-115785000D02*
X34560000Y-120285000D01*
X37060000Y-121535000D02*
X38560000Y-121535000D01*
X41060000Y-120285000D02*
X41060000Y-115785000D01*
X41060000Y-129960000D02*
X41060000Y-125460000D01*
X37060000Y-131210000D02*
X38560000Y-131210000D01*
X34560000Y-125460000D02*
X34560000Y-129960000D01*
X38560000Y-124210000D02*
X37060000Y-124210000D01*
D11*
X51307619Y-89630238D02*
X51260000Y-89725476D01*
X51164761Y-89820714D01*
X51021904Y-89963571D01*
X50974285Y-90058809D01*
X50974285Y-90154047D01*
X51212380Y-90106428D02*
X51164761Y-90201666D01*
X51069523Y-90296904D01*
X50879047Y-90344523D01*
X50545714Y-90344523D01*
X50355238Y-90296904D01*
X50260000Y-90201666D01*
X50212380Y-90106428D01*
X50212380Y-89915952D01*
X50260000Y-89820714D01*
X50355238Y-89725476D01*
X50545714Y-89677857D01*
X50879047Y-89677857D01*
X51069523Y-89725476D01*
X51164761Y-89820714D01*
X51212380Y-89915952D01*
X51212380Y-90106428D01*
X51212380Y-88725476D02*
X51212380Y-89296904D01*
X51212380Y-89011190D02*
X50212380Y-89011190D01*
X50355238Y-89106428D01*
X50450476Y-89201666D01*
X50498095Y-89296904D01*
X58253333Y-100782380D02*
X57920000Y-100306190D01*
X57681904Y-100782380D02*
X57681904Y-99782380D01*
X58062857Y-99782380D01*
X58158095Y-99830000D01*
X58205714Y-99877619D01*
X58253333Y-99972857D01*
X58253333Y-100115714D01*
X58205714Y-100210952D01*
X58158095Y-100258571D01*
X58062857Y-100306190D01*
X57681904Y-100306190D01*
X58634285Y-99877619D02*
X58681904Y-99830000D01*
X58777142Y-99782380D01*
X59015238Y-99782380D01*
X59110476Y-99830000D01*
X59158095Y-99877619D01*
X59205714Y-99972857D01*
X59205714Y-100068095D01*
X59158095Y-100210952D01*
X58586666Y-100782380D01*
X59205714Y-100782380D01*
X58253333Y-114117380D02*
X57920000Y-113641190D01*
X57681904Y-114117380D02*
X57681904Y-113117380D01*
X58062857Y-113117380D01*
X58158095Y-113165000D01*
X58205714Y-113212619D01*
X58253333Y-113307857D01*
X58253333Y-113450714D01*
X58205714Y-113545952D01*
X58158095Y-113593571D01*
X58062857Y-113641190D01*
X57681904Y-113641190D01*
X59110476Y-113117380D02*
X58920000Y-113117380D01*
X58824761Y-113165000D01*
X58777142Y-113212619D01*
X58681904Y-113355476D01*
X58634285Y-113545952D01*
X58634285Y-113926904D01*
X58681904Y-114022142D01*
X58729523Y-114069761D01*
X58824761Y-114117380D01*
X59015238Y-114117380D01*
X59110476Y-114069761D01*
X59158095Y-114022142D01*
X59205714Y-113926904D01*
X59205714Y-113688809D01*
X59158095Y-113593571D01*
X59110476Y-113545952D01*
X59015238Y-113498333D01*
X58824761Y-113498333D01*
X58729523Y-113545952D01*
X58681904Y-113593571D01*
X58634285Y-113688809D01*
X48306666Y-70822380D02*
X48306666Y-71536666D01*
X48259047Y-71679523D01*
X48163809Y-71774761D01*
X48020952Y-71822380D01*
X47925714Y-71822380D01*
X49306666Y-71822380D02*
X48735238Y-71822380D01*
X49020952Y-71822380D02*
X49020952Y-70822380D01*
X48925714Y-70965238D01*
X48830476Y-71060476D01*
X48735238Y-71108095D01*
X42211666Y-164552380D02*
X42211666Y-165266666D01*
X42164047Y-165409523D01*
X42068809Y-165504761D01*
X41925952Y-165552380D01*
X41830714Y-165552380D01*
X42640238Y-164647619D02*
X42687857Y-164600000D01*
X42783095Y-164552380D01*
X43021190Y-164552380D01*
X43116428Y-164600000D01*
X43164047Y-164647619D01*
X43211666Y-164742857D01*
X43211666Y-164838095D01*
X43164047Y-164980952D01*
X42592619Y-165552380D01*
X43211666Y-165552380D01*
X47498095Y-96322380D02*
X47498095Y-97131904D01*
X47545714Y-97227142D01*
X47593333Y-97274761D01*
X47688571Y-97322380D01*
X47879047Y-97322380D01*
X47974285Y-97274761D01*
X48021904Y-97227142D01*
X48069523Y-97131904D01*
X48069523Y-96322380D01*
X49069523Y-97322380D02*
X48498095Y-97322380D01*
X48783809Y-97322380D02*
X48783809Y-96322380D01*
X48688571Y-96465238D01*
X48593333Y-96560476D01*
X48498095Y-96608095D01*
X33488333Y-98147142D02*
X33440714Y-98194761D01*
X33297857Y-98242380D01*
X33202619Y-98242380D01*
X33059761Y-98194761D01*
X32964523Y-98099523D01*
X32916904Y-98004285D01*
X32869285Y-97813809D01*
X32869285Y-97670952D01*
X32916904Y-97480476D01*
X32964523Y-97385238D01*
X33059761Y-97290000D01*
X33202619Y-97242380D01*
X33297857Y-97242380D01*
X33440714Y-97290000D01*
X33488333Y-97337619D01*
X34440714Y-98242380D02*
X33869285Y-98242380D01*
X34155000Y-98242380D02*
X34155000Y-97242380D01*
X34059761Y-97385238D01*
X33964523Y-97480476D01*
X33869285Y-97528095D01*
X52538333Y-96242142D02*
X52490714Y-96289761D01*
X52347857Y-96337380D01*
X52252619Y-96337380D01*
X52109761Y-96289761D01*
X52014523Y-96194523D01*
X51966904Y-96099285D01*
X51919285Y-95908809D01*
X51919285Y-95765952D01*
X51966904Y-95575476D01*
X52014523Y-95480238D01*
X52109761Y-95385000D01*
X52252619Y-95337380D01*
X52347857Y-95337380D01*
X52490714Y-95385000D01*
X52538333Y-95432619D01*
X52919285Y-95432619D02*
X52966904Y-95385000D01*
X53062142Y-95337380D01*
X53300238Y-95337380D01*
X53395476Y-95385000D01*
X53443095Y-95432619D01*
X53490714Y-95527857D01*
X53490714Y-95623095D01*
X53443095Y-95765952D01*
X52871666Y-96337380D01*
X53490714Y-96337380D01*
X41743333Y-156567142D02*
X41695714Y-156614761D01*
X41552857Y-156662380D01*
X41457619Y-156662380D01*
X41314761Y-156614761D01*
X41219523Y-156519523D01*
X41171904Y-156424285D01*
X41124285Y-156233809D01*
X41124285Y-156090952D01*
X41171904Y-155900476D01*
X41219523Y-155805238D01*
X41314761Y-155710000D01*
X41457619Y-155662380D01*
X41552857Y-155662380D01*
X41695714Y-155710000D01*
X41743333Y-155757619D01*
X42076666Y-155662380D02*
X42695714Y-155662380D01*
X42362380Y-156043333D01*
X42505238Y-156043333D01*
X42600476Y-156090952D01*
X42648095Y-156138571D01*
X42695714Y-156233809D01*
X42695714Y-156471904D01*
X42648095Y-156567142D01*
X42600476Y-156614761D01*
X42505238Y-156662380D01*
X42219523Y-156662380D01*
X42124285Y-156614761D01*
X42076666Y-156567142D01*
X63333333Y-98147142D02*
X63285714Y-98194761D01*
X63142857Y-98242380D01*
X63047619Y-98242380D01*
X62904761Y-98194761D01*
X62809523Y-98099523D01*
X62761904Y-98004285D01*
X62714285Y-97813809D01*
X62714285Y-97670952D01*
X62761904Y-97480476D01*
X62809523Y-97385238D01*
X62904761Y-97290000D01*
X63047619Y-97242380D01*
X63142857Y-97242380D01*
X63285714Y-97290000D01*
X63333333Y-97337619D01*
X64238095Y-97242380D02*
X63761904Y-97242380D01*
X63714285Y-97718571D01*
X63761904Y-97670952D01*
X63857142Y-97623333D01*
X64095238Y-97623333D01*
X64190476Y-97670952D01*
X64238095Y-97718571D01*
X64285714Y-97813809D01*
X64285714Y-98051904D01*
X64238095Y-98147142D01*
X64190476Y-98194761D01*
X64095238Y-98242380D01*
X63857142Y-98242380D01*
X63761904Y-98194761D01*
X63714285Y-98147142D01*
X37933333Y-99512380D02*
X37600000Y-99036190D01*
X37361904Y-99512380D02*
X37361904Y-98512380D01*
X37742857Y-98512380D01*
X37838095Y-98560000D01*
X37885714Y-98607619D01*
X37933333Y-98702857D01*
X37933333Y-98845714D01*
X37885714Y-98940952D01*
X37838095Y-98988571D01*
X37742857Y-99036190D01*
X37361904Y-99036190D01*
X38885714Y-99512380D02*
X38314285Y-99512380D01*
X38600000Y-99512380D02*
X38600000Y-98512380D01*
X38504761Y-98655238D01*
X38409523Y-98750476D01*
X38314285Y-98798095D01*
X58253333Y-109672380D02*
X57920000Y-109196190D01*
X57681904Y-109672380D02*
X57681904Y-108672380D01*
X58062857Y-108672380D01*
X58158095Y-108720000D01*
X58205714Y-108767619D01*
X58253333Y-108862857D01*
X58253333Y-109005714D01*
X58205714Y-109100952D01*
X58158095Y-109148571D01*
X58062857Y-109196190D01*
X57681904Y-109196190D01*
X58586666Y-108672380D02*
X59205714Y-108672380D01*
X58872380Y-109053333D01*
X59015238Y-109053333D01*
X59110476Y-109100952D01*
X59158095Y-109148571D01*
X59205714Y-109243809D01*
X59205714Y-109481904D01*
X59158095Y-109577142D01*
X59110476Y-109624761D01*
X59015238Y-109672380D01*
X58729523Y-109672380D01*
X58634285Y-109624761D01*
X58586666Y-109577142D01*
X58253333Y-118562380D02*
X57920000Y-118086190D01*
X57681904Y-118562380D02*
X57681904Y-117562380D01*
X58062857Y-117562380D01*
X58158095Y-117610000D01*
X58205714Y-117657619D01*
X58253333Y-117752857D01*
X58253333Y-117895714D01*
X58205714Y-117990952D01*
X58158095Y-118038571D01*
X58062857Y-118086190D01*
X57681904Y-118086190D01*
X59110476Y-117895714D02*
X59110476Y-118562380D01*
X58872380Y-117514761D02*
X58634285Y-118229047D01*
X59253333Y-118229047D01*
X58253333Y-127452380D02*
X57920000Y-126976190D01*
X57681904Y-127452380D02*
X57681904Y-126452380D01*
X58062857Y-126452380D01*
X58158095Y-126500000D01*
X58205714Y-126547619D01*
X58253333Y-126642857D01*
X58253333Y-126785714D01*
X58205714Y-126880952D01*
X58158095Y-126928571D01*
X58062857Y-126976190D01*
X57681904Y-126976190D01*
X59158095Y-126452380D02*
X58681904Y-126452380D01*
X58634285Y-126928571D01*
X58681904Y-126880952D01*
X58777142Y-126833333D01*
X59015238Y-126833333D01*
X59110476Y-126880952D01*
X59158095Y-126928571D01*
X59205714Y-127023809D01*
X59205714Y-127261904D01*
X59158095Y-127357142D01*
X59110476Y-127404761D01*
X59015238Y-127452380D01*
X58777142Y-127452380D01*
X58681904Y-127404761D01*
X58634285Y-127357142D01*
X58253333Y-123007380D02*
X57920000Y-122531190D01*
X57681904Y-123007380D02*
X57681904Y-122007380D01*
X58062857Y-122007380D01*
X58158095Y-122055000D01*
X58205714Y-122102619D01*
X58253333Y-122197857D01*
X58253333Y-122340714D01*
X58205714Y-122435952D01*
X58158095Y-122483571D01*
X58062857Y-122531190D01*
X57681904Y-122531190D01*
X58586666Y-122007380D02*
X59253333Y-122007380D01*
X58824761Y-123007380D01*
X62452380Y-80176666D02*
X61976190Y-80510000D01*
X62452380Y-80748095D02*
X61452380Y-80748095D01*
X61452380Y-80367142D01*
X61500000Y-80271904D01*
X61547619Y-80224285D01*
X61642857Y-80176666D01*
X61785714Y-80176666D01*
X61880952Y-80224285D01*
X61928571Y-80271904D01*
X61976190Y-80367142D01*
X61976190Y-80748095D01*
X61880952Y-79605238D02*
X61833333Y-79700476D01*
X61785714Y-79748095D01*
X61690476Y-79795714D01*
X61642857Y-79795714D01*
X61547619Y-79748095D01*
X61500000Y-79700476D01*
X61452380Y-79605238D01*
X61452380Y-79414761D01*
X61500000Y-79319523D01*
X61547619Y-79271904D01*
X61642857Y-79224285D01*
X61690476Y-79224285D01*
X61785714Y-79271904D01*
X61833333Y-79319523D01*
X61880952Y-79414761D01*
X61880952Y-79605238D01*
X61928571Y-79700476D01*
X61976190Y-79748095D01*
X62071428Y-79795714D01*
X62261904Y-79795714D01*
X62357142Y-79748095D01*
X62404761Y-79700476D01*
X62452380Y-79605238D01*
X62452380Y-79414761D01*
X62404761Y-79319523D01*
X62357142Y-79271904D01*
X62261904Y-79224285D01*
X62071428Y-79224285D01*
X61976190Y-79271904D01*
X61928571Y-79319523D01*
X61880952Y-79414761D01*
X36242380Y-80176666D02*
X35766190Y-80510000D01*
X36242380Y-80748095D02*
X35242380Y-80748095D01*
X35242380Y-80367142D01*
X35290000Y-80271904D01*
X35337619Y-80224285D01*
X35432857Y-80176666D01*
X35575714Y-80176666D01*
X35670952Y-80224285D01*
X35718571Y-80271904D01*
X35766190Y-80367142D01*
X35766190Y-80748095D01*
X36242380Y-79700476D02*
X36242380Y-79510000D01*
X36194761Y-79414761D01*
X36147142Y-79367142D01*
X36004285Y-79271904D01*
X35813809Y-79224285D01*
X35432857Y-79224285D01*
X35337619Y-79271904D01*
X35290000Y-79319523D01*
X35242380Y-79414761D01*
X35242380Y-79605238D01*
X35290000Y-79700476D01*
X35337619Y-79748095D01*
X35432857Y-79795714D01*
X35670952Y-79795714D01*
X35766190Y-79748095D01*
X35813809Y-79700476D01*
X35861428Y-79605238D01*
X35861428Y-79414761D01*
X35813809Y-79319523D01*
X35766190Y-79271904D01*
X35670952Y-79224285D01*
X57777142Y-105227380D02*
X57443809Y-104751190D01*
X57205714Y-105227380D02*
X57205714Y-104227380D01*
X57586666Y-104227380D01*
X57681904Y-104275000D01*
X57729523Y-104322619D01*
X57777142Y-104417857D01*
X57777142Y-104560714D01*
X57729523Y-104655952D01*
X57681904Y-104703571D01*
X57586666Y-104751190D01*
X57205714Y-104751190D01*
X58729523Y-105227380D02*
X58158095Y-105227380D01*
X58443809Y-105227380D02*
X58443809Y-104227380D01*
X58348571Y-104370238D01*
X58253333Y-104465476D01*
X58158095Y-104513095D01*
X59348571Y-104227380D02*
X59443809Y-104227380D01*
X59539047Y-104275000D01*
X59586666Y-104322619D01*
X59634285Y-104417857D01*
X59681904Y-104608333D01*
X59681904Y-104846428D01*
X59634285Y-105036904D01*
X59586666Y-105132142D01*
X59539047Y-105179761D01*
X59443809Y-105227380D01*
X59348571Y-105227380D01*
X59253333Y-105179761D01*
X59205714Y-105132142D01*
X59158095Y-105036904D01*
X59110476Y-104846428D01*
X59110476Y-104608333D01*
X59158095Y-104417857D01*
X59205714Y-104322619D01*
X59253333Y-104275000D01*
X59348571Y-104227380D01*
X39457380Y-153161904D02*
X40266904Y-153161904D01*
X40362142Y-153114285D01*
X40409761Y-153066666D01*
X40457380Y-152971428D01*
X40457380Y-152780952D01*
X40409761Y-152685714D01*
X40362142Y-152638095D01*
X40266904Y-152590476D01*
X39457380Y-152590476D01*
X39457380Y-152209523D02*
X39457380Y-151590476D01*
X39838333Y-151923809D01*
X39838333Y-151780952D01*
X39885952Y-151685714D01*
X39933571Y-151638095D01*
X40028809Y-151590476D01*
X40266904Y-151590476D01*
X40362142Y-151638095D01*
X40409761Y-151685714D01*
X40457380Y-151780952D01*
X40457380Y-152066666D01*
X40409761Y-152161904D01*
X40362142Y-152209523D01*
X44886666Y-110152380D02*
X44886666Y-110866666D01*
X44839047Y-111009523D01*
X44743809Y-111104761D01*
X44600952Y-111152380D01*
X44505714Y-111152380D01*
X45362857Y-111152380D02*
X45362857Y-110152380D01*
X45743809Y-110152380D01*
X45839047Y-110200000D01*
X45886666Y-110247619D01*
X45934285Y-110342857D01*
X45934285Y-110485714D01*
X45886666Y-110580952D01*
X45839047Y-110628571D01*
X45743809Y-110676190D01*
X45362857Y-110676190D01*
X46886666Y-111152380D02*
X46315238Y-111152380D01*
X46600952Y-111152380D02*
X46600952Y-110152380D01*
X46505714Y-110295238D01*
X46410476Y-110390476D01*
X46315238Y-110438095D01*
X48696666Y-110152380D02*
X48696666Y-110866666D01*
X48649047Y-111009523D01*
X48553809Y-111104761D01*
X48410952Y-111152380D01*
X48315714Y-111152380D01*
X49172857Y-111152380D02*
X49172857Y-110152380D01*
X49553809Y-110152380D01*
X49649047Y-110200000D01*
X49696666Y-110247619D01*
X49744285Y-110342857D01*
X49744285Y-110485714D01*
X49696666Y-110580952D01*
X49649047Y-110628571D01*
X49553809Y-110676190D01*
X49172857Y-110676190D01*
X50125238Y-110247619D02*
X50172857Y-110200000D01*
X50268095Y-110152380D01*
X50506190Y-110152380D01*
X50601428Y-110200000D01*
X50649047Y-110247619D01*
X50696666Y-110342857D01*
X50696666Y-110438095D01*
X50649047Y-110580952D01*
X50077619Y-111152380D01*
X50696666Y-111152380D01*
X52792380Y-150621904D02*
X53601904Y-150621904D01*
X53697142Y-150574285D01*
X53744761Y-150526666D01*
X53792380Y-150431428D01*
X53792380Y-150240952D01*
X53744761Y-150145714D01*
X53697142Y-150098095D01*
X53601904Y-150050476D01*
X52792380Y-150050476D01*
X52887619Y-149621904D02*
X52840000Y-149574285D01*
X52792380Y-149479047D01*
X52792380Y-149240952D01*
X52840000Y-149145714D01*
X52887619Y-149098095D01*
X52982857Y-149050476D01*
X53078095Y-149050476D01*
X53220952Y-149098095D01*
X53792380Y-149669523D01*
X53792380Y-149050476D01*
X37457142Y-106497380D02*
X37123809Y-106021190D01*
X36885714Y-106497380D02*
X36885714Y-105497380D01*
X37266666Y-105497380D01*
X37361904Y-105545000D01*
X37409523Y-105592619D01*
X37457142Y-105687857D01*
X37457142Y-105830714D01*
X37409523Y-105925952D01*
X37361904Y-105973571D01*
X37266666Y-106021190D01*
X36885714Y-106021190D01*
X38409523Y-106497380D02*
X37838095Y-106497380D01*
X38123809Y-106497380D02*
X38123809Y-105497380D01*
X38028571Y-105640238D01*
X37933333Y-105735476D01*
X37838095Y-105783095D01*
X39361904Y-106497380D02*
X38790476Y-106497380D01*
X39076190Y-106497380D02*
X39076190Y-105497380D01*
X38980952Y-105640238D01*
X38885714Y-105735476D01*
X38790476Y-105783095D01*
X33107380Y-110616904D02*
X33916904Y-110616904D01*
X34012142Y-110569285D01*
X34059761Y-110521666D01*
X34107380Y-110426428D01*
X34107380Y-110235952D01*
X34059761Y-110140714D01*
X34012142Y-110093095D01*
X33916904Y-110045476D01*
X33107380Y-110045476D01*
X33440714Y-109140714D02*
X34107380Y-109140714D01*
X33059761Y-109378809D02*
X33774047Y-109616904D01*
X33774047Y-108997857D01*
X58928333Y-138672142D02*
X58880714Y-138719761D01*
X58737857Y-138767380D01*
X58642619Y-138767380D01*
X58499761Y-138719761D01*
X58404523Y-138624523D01*
X58356904Y-138529285D01*
X58309285Y-138338809D01*
X58309285Y-138195952D01*
X58356904Y-138005476D01*
X58404523Y-137910238D01*
X58499761Y-137815000D01*
X58642619Y-137767380D01*
X58737857Y-137767380D01*
X58880714Y-137815000D01*
X58928333Y-137862619D01*
X59785476Y-137767380D02*
X59595000Y-137767380D01*
X59499761Y-137815000D01*
X59452142Y-137862619D01*
X59356904Y-138005476D01*
X59309285Y-138195952D01*
X59309285Y-138576904D01*
X59356904Y-138672142D01*
X59404523Y-138719761D01*
X59499761Y-138767380D01*
X59690238Y-138767380D01*
X59785476Y-138719761D01*
X59833095Y-138672142D01*
X59880714Y-138576904D01*
X59880714Y-138338809D01*
X59833095Y-138243571D01*
X59785476Y-138195952D01*
X59690238Y-138148333D01*
X59499761Y-138148333D01*
X59404523Y-138195952D01*
X59356904Y-138243571D01*
X59309285Y-138338809D01*
X37893333Y-131842142D02*
X37845714Y-131889761D01*
X37702857Y-131937380D01*
X37607619Y-131937380D01*
X37464761Y-131889761D01*
X37369523Y-131794523D01*
X37321904Y-131699285D01*
X37274285Y-131508809D01*
X37274285Y-131365952D01*
X37321904Y-131175476D01*
X37369523Y-131080238D01*
X37464761Y-130985000D01*
X37607619Y-130937380D01*
X37702857Y-130937380D01*
X37845714Y-130985000D01*
X37893333Y-131032619D01*
X38750476Y-131270714D02*
X38750476Y-131937380D01*
X38512380Y-130889761D02*
X38274285Y-131604047D01*
X38893333Y-131604047D01*
X46656666Y-119042380D02*
X46656666Y-119756666D01*
X46609047Y-119899523D01*
X46513809Y-119994761D01*
X46370952Y-120042380D01*
X46275714Y-120042380D01*
X47037619Y-119042380D02*
X47656666Y-119042380D01*
X47323333Y-119423333D01*
X47466190Y-119423333D01*
X47561428Y-119470952D01*
X47609047Y-119518571D01*
X47656666Y-119613809D01*
X47656666Y-119851904D01*
X47609047Y-119947142D01*
X47561428Y-119994761D01*
X47466190Y-120042380D01*
X47180476Y-120042380D01*
X47085238Y-119994761D01*
X47037619Y-119947142D01*
X33964761Y-119368333D02*
X34012380Y-119225476D01*
X34012380Y-118987380D01*
X33964761Y-118892142D01*
X33917142Y-118844523D01*
X33821904Y-118796904D01*
X33726666Y-118796904D01*
X33631428Y-118844523D01*
X33583809Y-118892142D01*
X33536190Y-118987380D01*
X33488571Y-119177857D01*
X33440952Y-119273095D01*
X33393333Y-119320714D01*
X33298095Y-119368333D01*
X33202857Y-119368333D01*
X33107619Y-119320714D01*
X33060000Y-119273095D01*
X33012380Y-119177857D01*
X33012380Y-118939761D01*
X33060000Y-118796904D01*
X33012380Y-118463571D02*
X34012380Y-118225476D01*
X33298095Y-118035000D01*
X34012380Y-117844523D01*
X33012380Y-117606428D01*
X34012380Y-116701666D02*
X34012380Y-117273095D01*
X34012380Y-116987380D02*
X33012380Y-116987380D01*
X33155238Y-117082619D01*
X33250476Y-117177857D01*
X33298095Y-117273095D01*
X33964761Y-129043333D02*
X34012380Y-128900476D01*
X34012380Y-128662380D01*
X33964761Y-128567142D01*
X33917142Y-128519523D01*
X33821904Y-128471904D01*
X33726666Y-128471904D01*
X33631428Y-128519523D01*
X33583809Y-128567142D01*
X33536190Y-128662380D01*
X33488571Y-128852857D01*
X33440952Y-128948095D01*
X33393333Y-128995714D01*
X33298095Y-129043333D01*
X33202857Y-129043333D01*
X33107619Y-128995714D01*
X33060000Y-128948095D01*
X33012380Y-128852857D01*
X33012380Y-128614761D01*
X33060000Y-128471904D01*
X33012380Y-128138571D02*
X34012380Y-127900476D01*
X33298095Y-127710000D01*
X34012380Y-127519523D01*
X33012380Y-127281428D01*
X33107619Y-126948095D02*
X33060000Y-126900476D01*
X33012380Y-126805238D01*
X33012380Y-126567142D01*
X33060000Y-126471904D01*
X33107619Y-126424285D01*
X33202857Y-126376666D01*
X33298095Y-126376666D01*
X33440952Y-126424285D01*
X34012380Y-126995714D01*
X34012380Y-126376666D01*
M02*
