G04 #@! TF.GenerationSoftware,KiCad,Pcbnew,(5.0.0-rc2-dev-40-gfef1ba999)*
G04 #@! TF.CreationDate,2018-03-01T23:08:39+01:00*
G04 #@! TF.ProjectId,HAN_ESP_TSS721,48414E5F4553505F5453533732312E6B,rev?*
G04 #@! TF.SameCoordinates,Original*
G04 #@! TF.FileFunction,Soldermask,Top*
G04 #@! TF.FilePolarity,Negative*
%FSLAX46Y46*%
G04 Gerber Fmt 4.6, Leading zero omitted, Abs format (unit mm)*
G04 Created by KiCad (PCBNEW (5.0.0-rc2-dev-40-gfef1ba999)) date 03/01/18 23:08:39*
%MOMM*%
%LPD*%
G01*
G04 APERTURE LIST*
%ADD10R,1.200000X1.300000*%
%ADD11C,2.000000*%
%ADD12O,2.000000X2.000000*%
%ADD13C,4.050000*%
%ADD14R,1.900000X1.900000*%
%ADD15C,1.900000*%
%ADD16R,0.800000X1.750000*%
%ADD17O,1.650000X1.350000*%
%ADD18O,1.400000X1.950000*%
%ADD19R,1.900000X1.000000*%
%ADD20R,2.400000X2.400000*%
%ADD21C,2.400000*%
%ADD22R,4.200000X2.400000*%
%ADD23R,1.900000X2.400000*%
%ADD24R,2.100000X2.100000*%
%ADD25O,2.100000X2.100000*%
%ADD26R,2.900000X1.500000*%
%ADD27R,1.500000X2.900000*%
%ADD28R,1.920000X1.920000*%
%ADD29C,1.920000*%
G04 APERTURE END LIST*
D10*
X49210000Y-88535000D03*
X47310000Y-88535000D03*
X48260000Y-90535000D03*
D11*
X53340000Y-102235000D03*
D12*
X63500000Y-102235000D03*
D11*
X53340000Y-115570000D03*
D12*
X63500000Y-115570000D03*
D13*
X42960000Y-76200000D03*
X54830000Y-76200000D03*
D14*
X53340000Y-82550000D03*
D15*
X52070000Y-85090000D03*
X50800000Y-82550000D03*
X49530000Y-85090000D03*
X48260000Y-82550000D03*
X46990000Y-85090000D03*
X45720000Y-82550000D03*
X44450000Y-85090000D03*
D16*
X35530000Y-161210000D03*
X36180000Y-161210000D03*
X36830000Y-161210000D03*
X37480000Y-161210000D03*
X38130000Y-161210000D03*
D17*
X34330000Y-161210000D03*
X39330000Y-161210000D03*
D18*
X33330000Y-163910000D03*
X40330000Y-163910000D03*
D19*
X45560000Y-98425000D03*
X45560000Y-99695000D03*
X45560000Y-100965000D03*
X45560000Y-102235000D03*
X45560000Y-103505000D03*
X45560000Y-104775000D03*
X45560000Y-106045000D03*
X45560000Y-107315000D03*
X50960000Y-107315000D03*
X50960000Y-106045000D03*
X50960000Y-104775000D03*
X50960000Y-103505000D03*
X50960000Y-102235000D03*
X50960000Y-100965000D03*
X50960000Y-99695000D03*
X50960000Y-98425000D03*
D20*
X40005000Y-92710000D03*
D21*
X35005000Y-92710000D03*
D11*
X45720000Y-94615000D03*
X50720000Y-94615000D03*
X34290000Y-156210000D03*
X39290000Y-156210000D03*
D20*
X62230000Y-92710000D03*
D21*
X57230000Y-92710000D03*
D11*
X43180000Y-100965000D03*
D12*
X33020000Y-100965000D03*
D11*
X53340000Y-111125000D03*
D12*
X63500000Y-111125000D03*
D11*
X63500000Y-120015000D03*
D12*
X53340000Y-120015000D03*
D11*
X63500000Y-128905000D03*
D12*
X53340000Y-128905000D03*
D11*
X63500000Y-124460000D03*
D12*
X53340000Y-124460000D03*
D11*
X59690000Y-74930000D03*
D12*
X59690000Y-85090000D03*
D11*
X38100000Y-85090000D03*
D12*
X38100000Y-74930000D03*
D11*
X63500000Y-106680000D03*
D12*
X53340000Y-106680000D03*
D22*
X36830000Y-152375000D03*
D23*
X36830000Y-146075000D03*
X34530000Y-146075000D03*
X39130000Y-146075000D03*
D24*
X45720000Y-113030000D03*
D25*
X45720000Y-115570000D03*
D24*
X49530000Y-113030000D03*
D25*
X49530000Y-115570000D03*
D26*
X62930000Y-156210000D03*
X62930000Y-154210000D03*
X62930000Y-152210000D03*
X62930000Y-150210000D03*
X62930000Y-148210000D03*
X62930000Y-146210000D03*
X62930000Y-144210000D03*
X62930000Y-142210000D03*
X47530000Y-142210000D03*
X47530000Y-144210000D03*
X47530000Y-146210000D03*
X47530000Y-148210000D03*
X47530000Y-150210000D03*
X47530000Y-152210000D03*
X47530000Y-154210000D03*
X47530000Y-156210000D03*
D27*
X60240000Y-140510000D03*
X58240000Y-140510000D03*
X56240000Y-140510000D03*
X54240000Y-140510000D03*
X52240000Y-140510000D03*
X50240000Y-140510000D03*
D12*
X33020000Y-104140000D03*
D11*
X43180000Y-104140000D03*
D28*
X35560000Y-109855000D03*
D29*
X40640000Y-109855000D03*
X38100000Y-109855000D03*
D11*
X56595000Y-135255000D03*
X61595000Y-135255000D03*
D21*
X40560000Y-137795000D03*
D20*
X35560000Y-137795000D03*
D25*
X46990000Y-134620000D03*
X46990000Y-132080000D03*
X46990000Y-129540000D03*
X46990000Y-127000000D03*
X46990000Y-124460000D03*
D24*
X46990000Y-121920000D03*
D21*
X35560000Y-114785000D03*
X40060000Y-114785000D03*
X35560000Y-121285000D03*
X40060000Y-121285000D03*
X40060000Y-130960000D03*
X35560000Y-130960000D03*
X40060000Y-124460000D03*
X35560000Y-124460000D03*
M02*
