<?xml version="1.0" standalone="no"?>
 <!DOCTYPE svg PUBLIC "-//W3C//DTD SVG 1.1//EN" 
 "http://www.w3.org/Graphics/SVG/1.1/DTD/svg11.dtd"> 
<svg xmlns="http://www.w3.org/2000/svg" version="1.1" 
    width="29.7002cm" height="21.0007cm" viewBox="0 0 116930 82680 ">
<title>SVG Picture created as mbus_master-B.Cu.svg date 2018/02/26 23:02:40 </title>
  <desc>Picture generated by PCBNEW </desc>
<g style="fill:#000000; fill-opacity:1;stroke:#000000; stroke-opacity:1;
stroke-linecap:round; stroke-linejoin:round; "
 transform="translate(0 0) scale(1 1)">
</g>
<g style="fill:#000000; fill-opacity:0.0; 
stroke:#000000; stroke-width:-0.000393701; stroke-opacity:1; 
stroke-linecap:round; stroke-linejoin:round;">
</g>
<g style="fill:#000000; fill-opacity:1.0; 
stroke:#000000; stroke-width:0; stroke-opacity:1; 
stroke-linecap:round; stroke-linejoin:round;">
<circle cx="49409.4" cy="40649.6" r="118.11" /> 
</g>
<g style="fill:#000000; fill-opacity:1.0; 
stroke:#000000; stroke-width:39.3701; stroke-opacity:1; 
stroke-linecap:round; stroke-linejoin:round;">
</g>
<g style="fill:#000000; fill-opacity:1.0; 
stroke:#000000; stroke-width:0; stroke-opacity:1; 
stroke-linecap:round; stroke-linejoin:round;">
<circle cx="46259.8" cy="39862.2" r="118.11" /> 
</g>
<g style="fill:#000000; fill-opacity:1.0; 
stroke:#000000; stroke-width:39.3701; stroke-opacity:1; 
stroke-linecap:round; stroke-linejoin:round;">
</g>
<g style="fill:#000000; fill-opacity:1.0; 
stroke:#000000; stroke-width:0; stroke-opacity:1; 
stroke-linecap:round; stroke-linejoin:round;">
<circle cx="45866.1" cy="40944.9" r="118.11" /> 
</g>
<g style="fill:#000000; fill-opacity:1.0; 
stroke:#000000; stroke-width:39.3701; stroke-opacity:1; 
stroke-linecap:round; stroke-linejoin:round;">
</g>
<g style="fill:#000000; fill-opacity:1.0; 
stroke:#000000; stroke-width:0; stroke-opacity:1; 
stroke-linecap:round; stroke-linejoin:round;">
<circle cx="46850.4" cy="44488.2" r="118.11" /> 
</g>
<g style="fill:#000000; fill-opacity:1.0; 
stroke:#000000; stroke-width:39.3701; stroke-opacity:1; 
stroke-linecap:round; stroke-linejoin:round;">
</g>
<g style="fill:#000000; fill-opacity:1.0; 
stroke:#000000; stroke-width:0; stroke-opacity:1; 
stroke-linecap:round; stroke-linejoin:round;">
<circle cx="51378" cy="45177.2" r="118.11" /> 
</g>
<g style="fill:#000000; fill-opacity:1.0; 
stroke:#000000; stroke-width:39.3701; stroke-opacity:1; 
stroke-linecap:round; stroke-linejoin:round;">
</g>
<g style="fill:#000000; fill-opacity:1.0; 
stroke:#000000; stroke-width:0; stroke-opacity:1; 
stroke-linecap:round; stroke-linejoin:round;">
<circle cx="51771.7" cy="46752" r="118.11" /> 
</g>
<g style="fill:#000000; fill-opacity:1.0; 
stroke:#000000; stroke-width:39.3701; stroke-opacity:1; 
stroke-linecap:round; stroke-linejoin:round;">
</g>
<g style="fill:#000000; fill-opacity:1.0; 
stroke:#000000; stroke-width:0; stroke-opacity:1; 
stroke-linecap:round; stroke-linejoin:round;">
<circle cx="53543.3" cy="44586.6" r="118.11" /> 
</g>
<g style="fill:#000000; fill-opacity:1.0; 
stroke:#000000; stroke-width:39.3701; stroke-opacity:1; 
stroke-linecap:round; stroke-linejoin:round;">
</g>
<g style="fill:#000000; fill-opacity:1.0; 
stroke:#000000; stroke-width:0; stroke-opacity:1; 
stroke-linecap:round; stroke-linejoin:round;">
<circle cx="54291.3" cy="41338.6" r="118.11" /> 
</g>
<g style="fill:#000000; fill-opacity:1.0; 
stroke:#000000; stroke-width:39.3701; stroke-opacity:1; 
stroke-linecap:round; stroke-linejoin:round;">
</g>
<g style="fill:#000000; fill-opacity:1.0; 
stroke:#000000; stroke-width:0; stroke-opacity:1; 
stroke-linecap:round; stroke-linejoin:round;">
<circle cx="55905.5" cy="47637.8" r="118.11" /> 
</g>
<g style="fill:#000000; fill-opacity:1.0; 
stroke:#000000; stroke-width:39.3701; stroke-opacity:1; 
stroke-linecap:round; stroke-linejoin:round;">
</g>
<g style="fill:#000000; fill-opacity:1.0; 
stroke:#000000; stroke-width:0; stroke-opacity:1; 
stroke-linecap:round; stroke-linejoin:round;">
<circle cx="54822.8" cy="46259.8" r="118.11" /> 
</g>
<g style="fill:#000000; fill-opacity:1.0; 
stroke:#000000; stroke-width:39.3701; stroke-opacity:1; 
stroke-linecap:round; stroke-linejoin:round;">
</g>
<g style="fill:#000000; fill-opacity:1.0; 
stroke:#000000; stroke-width:0; stroke-opacity:1; 
stroke-linecap:round; stroke-linejoin:round;">
<circle cx="49212.6" cy="48720.5" r="118.11" /> 
</g>
<g style="fill:#000000; fill-opacity:1.0; 
stroke:#000000; stroke-width:39.3701; stroke-opacity:1; 
stroke-linecap:round; stroke-linejoin:round;">
</g>
<g style="fill:#000000; fill-opacity:1.0; 
stroke:#000000; stroke-width:0; stroke-opacity:1; 
stroke-linecap:round; stroke-linejoin:round;">
<circle cx="47736.2" cy="48720.5" r="118.11" /> 
</g>
<g style="fill:#000000; fill-opacity:1.0; 
stroke:#000000; stroke-width:39.3701; stroke-opacity:1; 
stroke-linecap:round; stroke-linejoin:round;">
</g>
<g style="fill:#000000; fill-opacity:1.0; 
stroke:#000000; stroke-width:0; stroke-opacity:1; 
stroke-linecap:round; stroke-linejoin:round;">
<circle cx="48622" cy="44586.6" r="118.11" /> 
</g>
<g style="fill:#000000; fill-opacity:1.0; 
stroke:#000000; stroke-width:39.3701; stroke-opacity:1; 
stroke-linecap:round; stroke-linejoin:round;">
</g>
<g style="fill:#000000; fill-opacity:1.0; 
stroke:#000000; stroke-width:0; stroke-opacity:1; 
stroke-linecap:round; stroke-linejoin:round;">
<circle cx="41929.1" cy="44980.3" r="118.11" /> 
</g>
<g style="fill:#000000; fill-opacity:1.0; 
stroke:#000000; stroke-width:39.3701; stroke-opacity:1; 
stroke-linecap:round; stroke-linejoin:round;">
</g>
<g style="fill:#000000; fill-opacity:1.0; 
stroke:#000000; stroke-width:0; stroke-opacity:1; 
stroke-linecap:round; stroke-linejoin:round;">
<circle cx="41338.6" cy="45866.1" r="118.11" /> 
</g>
<g style="fill:#000000; fill-opacity:1.0; 
stroke:#000000; stroke-width:39.3701; stroke-opacity:1; 
stroke-linecap:round; stroke-linejoin:round;">
</g>
<g style="fill:#000000; fill-opacity:1.0; 
stroke:#000000; stroke-width:0; stroke-opacity:1; 
stroke-linecap:round; stroke-linejoin:round;">
<circle cx="43700.8" cy="47637.8" r="118.11" /> 
</g>
<g style="fill:#000000; fill-opacity:1.0; 
stroke:#000000; stroke-width:39.3701; stroke-opacity:1; 
stroke-linecap:round; stroke-linejoin:round;">
</g>
<g style="fill:#000000; fill-opacity:1.0; 
stroke:#000000; stroke-width:0; stroke-opacity:1; 
stroke-linecap:round; stroke-linejoin:round;">
<circle cx="42421.3" cy="47637.8" r="118.11" /> 
</g>
<g style="fill:#000000; fill-opacity:1.0; 
stroke:#000000; stroke-width:39.3701; stroke-opacity:1; 
stroke-linecap:round; stroke-linejoin:round;">
</g>
<g style="fill:#000000; fill-opacity:1.0; 
stroke:#000000; stroke-width:0; stroke-opacity:1; 
stroke-linecap:round; stroke-linejoin:round;">
<circle cx="42815" cy="41141.7" r="118.11" /> 
</g>
<g style="fill:#000000; fill-opacity:1.0; 
stroke:#000000; stroke-width:39.3701; stroke-opacity:1; 
stroke-linecap:round; stroke-linejoin:round;">
</g>
<g style="fill:#000000; fill-opacity:1.0; 
stroke:#000000; stroke-width:0; stroke-opacity:1; 
stroke-linecap:round; stroke-linejoin:round;">
<circle cx="44094.5" cy="41929.1" r="118.11" /> 
</g>
<g style="fill:#000000; fill-opacity:1.0; 
stroke:#000000; stroke-width:39.3701; stroke-opacity:1; 
stroke-linecap:round; stroke-linejoin:round;">
</g>
<g style="fill:#000000; fill-opacity:1.0; 
stroke:#000000; stroke-width:0; stroke-opacity:1; 
stroke-linecap:round; stroke-linejoin:round;">
<circle cx="50098.4" cy="44488.2" r="118.11" /> 
</g>
<g style="fill:#000000; fill-opacity:1.0; 
stroke:#000000; stroke-width:39.3701; stroke-opacity:1; 
stroke-linecap:round; stroke-linejoin:round;">
</g>
<g style="fill:#000000; fill-opacity:1.0; 
stroke:#000000; stroke-width:0; stroke-opacity:1; 
stroke-linecap:round; stroke-linejoin:round;">
<circle cx="48425.2" cy="41535.4" r="118.11" /> 
</g>
<g style="fill:#000000; fill-opacity:1.0; 
stroke:#000000; stroke-width:39.3701; stroke-opacity:1; 
stroke-linecap:round; stroke-linejoin:round;">
</g>
<g style="fill:#000000; fill-opacity:1.0; 
stroke:#000000; stroke-width:0; stroke-opacity:1; 
stroke-linecap:round; stroke-linejoin:round;">
<circle cx="55807.1" cy="43503.9" r="118.11" /> 
</g>
<g style="fill:#000000; fill-opacity:1.0; 
stroke:#000000; stroke-width:39.3701; stroke-opacity:1; 
stroke-linecap:round; stroke-linejoin:round;">
</g>
<g style="fill:#000000; fill-opacity:1.0; 
stroke:#000000; stroke-width:0; stroke-opacity:1; 
stroke-linecap:round; stroke-linejoin:round;">
<circle cx="55708.7" cy="41338.6" r="118.11" /> 
</g>
<g style="fill:#000000; fill-opacity:1.0; 
stroke:#000000; stroke-width:39.3701; stroke-opacity:1; 
stroke-linecap:round; stroke-linejoin:round;">
</g>
<g style="fill:#000000; fill-opacity:1.0; 
stroke:#000000; stroke-width:0; stroke-opacity:1; 
stroke-linecap:round; stroke-linejoin:round;">
<circle cx="53543.3" cy="40255.9" r="118.11" /> 
</g>
<g style="fill:#000000; fill-opacity:1.0; 
stroke:#000000; stroke-width:39.3701; stroke-opacity:1; 
stroke-linecap:round; stroke-linejoin:round;">
</g>
<g style="fill:#000000; fill-opacity:1.0; 
stroke:#000000; stroke-width:0; stroke-opacity:1; 
stroke-linecap:round; stroke-linejoin:round;">
<circle cx="48925.2" cy="45775.6" r="196.85" /> 
</g>
<g style="fill:#000000; fill-opacity:1.0; 
stroke:#000000; stroke-width:39.3701; stroke-opacity:1; 
stroke-linecap:round; stroke-linejoin:round;">
</g>
<g style="fill:#000000; fill-opacity:1.0; 
stroke:#000000; stroke-width:0; stroke-opacity:1; 
stroke-linecap:round; stroke-linejoin:round;">
<circle cx="48425.2" cy="46275.6" r="196.85" /> 
</g>
<g style="fill:#000000; fill-opacity:1.0; 
stroke:#000000; stroke-width:39.3701; stroke-opacity:1; 
stroke-linecap:round; stroke-linejoin:round;">
</g>
<g style="fill:#000000; fill-opacity:1.0; 
stroke:#000000; stroke-width:0; stroke-opacity:1; 
stroke-linecap:round; stroke-linejoin:round;">
<polyline style="fill-rule:evenodd;"
points="48228,45472
48228,45078
48622,45078
48622,45472
48228,45472
" /> 
<circle cx="48925.2" cy="43413.4" r="196.85" /> 
</g>
<g style="fill:#000000; fill-opacity:1.0; 
stroke:#000000; stroke-width:39.3701; stroke-opacity:1; 
stroke-linecap:round; stroke-linejoin:round;">
</g>
<g style="fill:#000000; fill-opacity:1.0; 
stroke:#000000; stroke-width:0; stroke-opacity:1; 
stroke-linecap:round; stroke-linejoin:round;">
<circle cx="48425.2" cy="43913.4" r="196.85" /> 
</g>
<g style="fill:#000000; fill-opacity:1.0; 
stroke:#000000; stroke-width:39.3701; stroke-opacity:1; 
stroke-linecap:round; stroke-linejoin:round;">
</g>
<g style="fill:#000000; fill-opacity:1.0; 
stroke:#000000; stroke-width:0; stroke-opacity:1; 
stroke-linecap:round; stroke-linejoin:round;">
<polyline style="fill-rule:evenodd;"
points="48228,43110
48228,42716
48622,42716
48622,43110
48228,43110
" /> 
<circle cx="48925.2" cy="48137.8" r="196.85" /> 
</g>
<g style="fill:#000000; fill-opacity:1.0; 
stroke:#000000; stroke-width:39.3701; stroke-opacity:1; 
stroke-linecap:round; stroke-linejoin:round;">
</g>
<g style="fill:#000000; fill-opacity:1.0; 
stroke:#000000; stroke-width:0; stroke-opacity:1; 
stroke-linecap:round; stroke-linejoin:round;">
<circle cx="48425.2" cy="48637.8" r="196.85" /> 
</g>
<g style="fill:#000000; fill-opacity:1.0; 
stroke:#000000; stroke-width:39.3701; stroke-opacity:1; 
stroke-linecap:round; stroke-linejoin:round;">
</g>
<g style="fill:#000000; fill-opacity:1.0; 
stroke:#000000; stroke-width:0; stroke-opacity:1; 
stroke-linecap:round; stroke-linejoin:round;">
<polyline style="fill-rule:evenodd;"
points="48228,47834
48228,47440
48622,47440
48622,47834
48228,47834
" /> 
<polyline style="fill-rule:evenodd;"
points="52913,47874
52913,48582
52204,48582
52204,47874
52913,47874
" /> 
</g>
<g style="fill:#000000; fill-opacity:1.0; 
stroke:#000000; stroke-width:708.661; stroke-opacity:1; 
stroke-linecap:round; stroke-linejoin:round;">
</g>
<g style="fill:#000000; fill-opacity:0.0; 
stroke:#000000; stroke-width:708.661; stroke-opacity:1; 
stroke-linecap:round; stroke-linejoin:round;">
<path d="M51559 48228
L51559 48228
" />
<path d="M50559 48228
L50559 48228
" />
</g>
<g style="fill:#000000; fill-opacity:1.0; 
stroke:#000000; stroke-width:0; stroke-opacity:1; 
stroke-linecap:round; stroke-linejoin:round;">
<circle cx="47047.2" cy="48425.2" r="314.961" /> 
</g>
<g style="fill:#000000; fill-opacity:1.0; 
stroke:#000000; stroke-width:39.3701; stroke-opacity:1; 
stroke-linecap:round; stroke-linejoin:round;">
</g>
<g style="fill:#000000; fill-opacity:1.0; 
stroke:#000000; stroke-width:629.921; stroke-opacity:1; 
stroke-linecap:round; stroke-linejoin:round;">
</g>
<g style="fill:#000000; fill-opacity:0.0; 
stroke:#000000; stroke-width:629.921; stroke-opacity:1; 
stroke-linecap:round; stroke-linejoin:round;">
<path d="M43047 48425
L43047 48425
" />
</g>
<g style="fill:#000000; fill-opacity:1.0; 
stroke:#000000; stroke-width:0; stroke-opacity:1; 
stroke-linecap:round; stroke-linejoin:round;">
<circle cx="50196.9" cy="45275.6" r="314.961" /> 
</g>
<g style="fill:#000000; fill-opacity:1.0; 
stroke:#000000; stroke-width:39.3701; stroke-opacity:1; 
stroke-linecap:round; stroke-linejoin:round;">
</g>
<g style="fill:#000000; fill-opacity:1.0; 
stroke:#000000; stroke-width:629.921; stroke-opacity:1; 
stroke-linecap:round; stroke-linejoin:round;">
</g>
<g style="fill:#000000; fill-opacity:0.0; 
stroke:#000000; stroke-width:629.921; stroke-opacity:1; 
stroke-linecap:round; stroke-linejoin:round;">
<path d="M54196 45275
L54196 45275
" />
</g>
<g style="fill:#000000; fill-opacity:1.0; 
stroke:#000000; stroke-width:0; stroke-opacity:1; 
stroke-linecap:round; stroke-linejoin:round;">
<circle cx="47047.2" cy="46850.4" r="314.961" /> 
</g>
<g style="fill:#000000; fill-opacity:1.0; 
stroke:#000000; stroke-width:39.3701; stroke-opacity:1; 
stroke-linecap:round; stroke-linejoin:round;">
</g>
<g style="fill:#000000; fill-opacity:1.0; 
stroke:#000000; stroke-width:629.921; stroke-opacity:1; 
stroke-linecap:round; stroke-linejoin:round;">
</g>
<g style="fill:#000000; fill-opacity:0.0; 
stroke:#000000; stroke-width:629.921; stroke-opacity:1; 
stroke-linecap:round; stroke-linejoin:round;">
<path d="M43047 46850
L43047 46850
" />
</g>
<g style="fill:#000000; fill-opacity:1.0; 
stroke:#000000; stroke-width:0; stroke-opacity:1; 
stroke-linecap:round; stroke-linejoin:round;">
<circle cx="43011.8" cy="45275.6" r="314.961" /> 
</g>
<g style="fill:#000000; fill-opacity:1.0; 
stroke:#000000; stroke-width:39.3701; stroke-opacity:1; 
stroke-linecap:round; stroke-linejoin:round;">
</g>
<g style="fill:#000000; fill-opacity:1.0; 
stroke:#000000; stroke-width:629.921; stroke-opacity:1; 
stroke-linecap:round; stroke-linejoin:round;">
</g>
<g style="fill:#000000; fill-opacity:0.0; 
stroke:#000000; stroke-width:629.921; stroke-opacity:1; 
stroke-linecap:round; stroke-linejoin:round;">
<path d="M47011 45275
L47011 45275
" />
</g>
<g style="fill:#000000; fill-opacity:1.0; 
stroke:#000000; stroke-width:0; stroke-opacity:1; 
stroke-linecap:round; stroke-linejoin:round;">
<circle cx="43011.8" cy="43700.8" r="314.961" /> 
</g>
<g style="fill:#000000; fill-opacity:1.0; 
stroke:#000000; stroke-width:39.3701; stroke-opacity:1; 
stroke-linecap:round; stroke-linejoin:round;">
</g>
<g style="fill:#000000; fill-opacity:1.0; 
stroke:#000000; stroke-width:629.921; stroke-opacity:1; 
stroke-linecap:round; stroke-linejoin:round;">
</g>
<g style="fill:#000000; fill-opacity:0.0; 
stroke:#000000; stroke-width:629.921; stroke-opacity:1; 
stroke-linecap:round; stroke-linejoin:round;">
<path d="M47011 43700
L47011 43700
" />
</g>
<g style="fill:#000000; fill-opacity:1.0; 
stroke:#000000; stroke-width:0; stroke-opacity:1; 
stroke-linecap:round; stroke-linejoin:round;">
<circle cx="43011.8" cy="42126" r="314.961" /> 
</g>
<g style="fill:#000000; fill-opacity:1.0; 
stroke:#000000; stroke-width:39.3701; stroke-opacity:1; 
stroke-linecap:round; stroke-linejoin:round;">
</g>
<g style="fill:#000000; fill-opacity:1.0; 
stroke:#000000; stroke-width:629.921; stroke-opacity:1; 
stroke-linecap:round; stroke-linejoin:round;">
</g>
<g style="fill:#000000; fill-opacity:0.0; 
stroke:#000000; stroke-width:629.921; stroke-opacity:1; 
stroke-linecap:round; stroke-linejoin:round;">
<path d="M47011 42125
L47011 42125
" />
</g>
<g style="fill:#000000; fill-opacity:0.0; 
stroke:#000000; stroke-width:0; stroke-opacity:1; 
stroke-linecap:round; stroke-linejoin:round;">
</g>
<g style="fill:#000000; fill-opacity:1.0; 
stroke:#000000; stroke-width:0; stroke-opacity:1; 
stroke-linecap:round; stroke-linejoin:round;">
<polyline style="fill-rule:evenodd;"
points="46889,40905
46889,39803
47992,39803
47992,40905
46889,40905
" /> 
</g>
<g style="fill:#000000; fill-opacity:1.0; 
stroke:#000000; stroke-width:1102.36; stroke-opacity:1; 
stroke-linecap:round; stroke-linejoin:round;">
</g>
<g style="fill:#000000; fill-opacity:0.0; 
stroke:#000000; stroke-width:1102.36; stroke-opacity:1; 
stroke-linecap:round; stroke-linejoin:round;">
<path d="M52440 40354
L52440 40354
" />
</g>
<g style="fill:#000000; fill-opacity:0.0; 
stroke:#000000; stroke-width:0; stroke-opacity:1; 
stroke-linecap:round; stroke-linejoin:round;">
</g>
<g style="fill:#000000; fill-opacity:1.0; 
stroke:#000000; stroke-width:0; stroke-opacity:1; 
stroke-linecap:round; stroke-linejoin:round;">
<polyline style="fill-rule:evenodd;"
points="55157,41771
55866,41771
55866,42480
55157,42480
55157,41771
" /> 
</g>
<g style="fill:#000000; fill-opacity:1.0; 
stroke:#000000; stroke-width:708.661; stroke-opacity:1; 
stroke-linecap:round; stroke-linejoin:round;">
</g>
<g style="fill:#000000; fill-opacity:0.0; 
stroke:#000000; stroke-width:708.661; stroke-opacity:1; 
stroke-linecap:round; stroke-linejoin:round;">
<path d="M55511 45125
L55511 45125
" />
</g>
<g style="fill:#000000; fill-opacity:1.0; 
stroke:#000000; stroke-width:0; stroke-opacity:1; 
stroke-linecap:round; stroke-linejoin:round;">
<circle cx="58177.2" cy="44791.3" r="196.85" /> 
</g>
<g style="fill:#000000; fill-opacity:1.0; 
stroke:#000000; stroke-width:39.3701; stroke-opacity:1; 
stroke-linecap:round; stroke-linejoin:round;">
</g>
<g style="fill:#000000; fill-opacity:1.0; 
stroke:#000000; stroke-width:0; stroke-opacity:1; 
stroke-linecap:round; stroke-linejoin:round;">
<circle cx="57677.2" cy="45291.3" r="196.85" /> 
</g>
<g style="fill:#000000; fill-opacity:1.0; 
stroke:#000000; stroke-width:39.3701; stroke-opacity:1; 
stroke-linecap:round; stroke-linejoin:round;">
</g>
<g style="fill:#000000; fill-opacity:1.0; 
stroke:#000000; stroke-width:0; stroke-opacity:1; 
stroke-linecap:round; stroke-linejoin:round;">
<polyline style="fill-rule:evenodd;"
points="57480,44488
57480,44094
57874,44094
57874,44488
57480,44488
" /> 
<circle cx="54232.3" cy="46850.4" r="314.961" /> 
</g>
<g style="fill:#000000; fill-opacity:1.0; 
stroke:#000000; stroke-width:39.3701; stroke-opacity:1; 
stroke-linecap:round; stroke-linejoin:round;">
</g>
<g style="fill:#000000; fill-opacity:1.0; 
stroke:#000000; stroke-width:629.921; stroke-opacity:1; 
stroke-linecap:round; stroke-linejoin:round;">
</g>
<g style="fill:#000000; fill-opacity:0.0; 
stroke:#000000; stroke-width:629.921; stroke-opacity:1; 
stroke-linecap:round; stroke-linejoin:round;">
<path d="M50232 46850
L50232 46850
" />
</g>
<g style="fill:#000000; fill-opacity:1.0; 
stroke:#000000; stroke-width:0; stroke-opacity:1; 
stroke-linecap:round; stroke-linejoin:round;">
<circle cx="50196.9" cy="42126" r="314.961" /> 
</g>
<g style="fill:#000000; fill-opacity:1.0; 
stroke:#000000; stroke-width:39.3701; stroke-opacity:1; 
stroke-linecap:round; stroke-linejoin:round;">
</g>
<g style="fill:#000000; fill-opacity:1.0; 
stroke:#000000; stroke-width:629.921; stroke-opacity:1; 
stroke-linecap:round; stroke-linejoin:round;">
</g>
<g style="fill:#000000; fill-opacity:0.0; 
stroke:#000000; stroke-width:629.921; stroke-opacity:1; 
stroke-linecap:round; stroke-linejoin:round;">
<path d="M54196 42125
L54196 42125
" />
</g>
<g style="fill:#000000; fill-opacity:1.0; 
stroke:#000000; stroke-width:0; stroke-opacity:1; 
stroke-linecap:round; stroke-linejoin:round;">
<circle cx="54232.3" cy="43700.8" r="314.961" /> 
</g>
<g style="fill:#000000; fill-opacity:1.0; 
stroke:#000000; stroke-width:39.3701; stroke-opacity:1; 
stroke-linecap:round; stroke-linejoin:round;">
</g>
<g style="fill:#000000; fill-opacity:1.0; 
stroke:#000000; stroke-width:629.921; stroke-opacity:1; 
stroke-linecap:round; stroke-linejoin:round;">
</g>
<g style="fill:#000000; fill-opacity:0.0; 
stroke:#000000; stroke-width:629.921; stroke-opacity:1; 
stroke-linecap:round; stroke-linejoin:round;">
<path d="M50232 43700
L50232 43700
" />
</g>
<g style="fill:#000000; fill-opacity:0.0; 
stroke:#000000; stroke-width:0; stroke-opacity:1; 
stroke-linecap:round; stroke-linejoin:round;">
</g>
<g style="fill:#000000; fill-opacity:1.0; 
stroke:#000000; stroke-width:0; stroke-opacity:1; 
stroke-linecap:round; stroke-linejoin:round;">
<polyline style="fill-rule:evenodd;"
points="40019,44232
40019,43562
40688,43562
40688,44232
40019,44232
" /> 
</g>
<g style="fill:#000000; fill-opacity:1.0; 
stroke:#000000; stroke-width:669.291; stroke-opacity:1; 
stroke-linecap:round; stroke-linejoin:round;">
</g>
<g style="fill:#000000; fill-opacity:0.0; 
stroke:#000000; stroke-width:669.291; stroke-opacity:1; 
stroke-linecap:round; stroke-linejoin:round;">
<path d="M40354 44897
L40354 44897
" />
</g>
<g style="fill:#000000; fill-opacity:0.0; 
stroke:#000000; stroke-width:0; stroke-opacity:1; 
stroke-linecap:round; stroke-linejoin:round;">
</g>
<g style="fill:#000000; fill-opacity:1.0; 
stroke:#000000; stroke-width:0; stroke-opacity:1; 
stroke-linecap:round; stroke-linejoin:round;">
<polyline style="fill-rule:evenodd;"
points="43838,40688
43169,40688
43169,40019
43838,40019
43838,40688
" /> 
</g>
<g style="fill:#000000; fill-opacity:1.0; 
stroke:#000000; stroke-width:669.291; stroke-opacity:1; 
stroke-linecap:round; stroke-linejoin:round;">
</g>
<g style="fill:#000000; fill-opacity:0.0; 
stroke:#000000; stroke-width:669.291; stroke-opacity:1; 
stroke-linecap:round; stroke-linejoin:round;">
<path d="M44503 40354
L44503 40354
" />
</g>
<g style="fill:#000000; fill-opacity:0.0; 
stroke:#000000; stroke-width:0; stroke-opacity:1; 
stroke-linecap:round; stroke-linejoin:round;">
</g>
<g style="fill:#000000; fill-opacity:1.0; 
stroke:#000000; stroke-width:0; stroke-opacity:1; 
stroke-linecap:round; stroke-linejoin:round;">
<polyline style="fill-rule:evenodd;"
points="54980,39822
55649,39822
55649,40492
54980,40492
54980,39822
" /> 
</g>
<g style="fill:#000000; fill-opacity:1.0; 
stroke:#000000; stroke-width:669.291; stroke-opacity:1; 
stroke-linecap:round; stroke-linejoin:round;">
</g>
<g style="fill:#000000; fill-opacity:0.0; 
stroke:#000000; stroke-width:669.291; stroke-opacity:1; 
stroke-linecap:round; stroke-linejoin:round;">
<path d="M54314 40157
L54314 40157
" />
</g>
<g style="fill:#000000; fill-opacity:0.0; 
stroke:#000000; stroke-width:0; stroke-opacity:1; 
stroke-linecap:round; stroke-linejoin:round;">
</g>
<g style="fill:#000000; fill-opacity:1.0; 
stroke:#000000; stroke-width:0; stroke-opacity:1; 
stroke-linecap:round; stroke-linejoin:round;">
<polyline style="fill-rule:evenodd;"
points="54665,48759
53996,48759
53996,48090
54665,48090
54665,48759
" /> 
</g>
<g style="fill:#000000; fill-opacity:1.0; 
stroke:#000000; stroke-width:669.291; stroke-opacity:1; 
stroke-linecap:round; stroke-linejoin:round;">
</g>
<g style="fill:#000000; fill-opacity:0.0; 
stroke:#000000; stroke-width:669.291; stroke-opacity:1; 
stroke-linecap:round; stroke-linejoin:round;">
<path d="M55330 48425
L55330 48425
" />
</g>
<g style="fill:#000000; fill-opacity:1.0; 
stroke:#000000; stroke-width:0; stroke-opacity:1; 
stroke-linecap:round; stroke-linejoin:round;">
<circle cx="51771.7" cy="41437" r="118.11" /> 
</g>
<g style="fill:#000000; fill-opacity:1.0; 
stroke:#000000; stroke-width:39.3701; stroke-opacity:1; 
stroke-linecap:round; stroke-linejoin:round;">
</g>
<g style="fill:#000000; fill-opacity:1.0; 
stroke:#000000; stroke-width:0; stroke-opacity:1; 
stroke-linecap:round; stroke-linejoin:round;">
<circle cx="51771.7" cy="46063" r="118.11" /> 
</g>
<g style="fill:#000000; fill-opacity:1.0; 
stroke:#000000; stroke-width:39.3701; stroke-opacity:1; 
stroke-linecap:round; stroke-linejoin:round;">
</g>
<g style="fill:#000000; fill-opacity:1.0; 
stroke:#000000; stroke-width:98.4252; stroke-opacity:1; 
stroke-linecap:round; stroke-linejoin:round;">
</g>
<g style="fill:#000000; fill-opacity:0.0; 
stroke:#000000; stroke-width:98.4252; stroke-opacity:1; 
stroke-linecap:round; stroke-linejoin:round;">
<path d="M52559 48228
L52559 44291
" />
<path d="M55314 40748
L55314 40157
" />
<path d="M54822 41240
L55314 40748
" />
<path d="M54822 42421
L54822 41240
" />
<path d="M54429 42814
L54822 42421
" />
<path d="M54035 42814
L54429 42814
" />
<path d="M52559 44291
L54035 42814
" />
<path d="M52440 40354
L52440 43031
" />
<path d="M52440 43031
L50196 45275
" />
<path d="M55330 48425
L55330 45980
" />
<path d="M54822 44291
L54232 43700
" />
<path d="M54822 45472
L54822 44291
" />
<path d="M55330 45980
L54822 45472
" />
<path d="M51771 46062
L50984 46062
" />
<path d="M50787 46259
L50000 46259
" />
<path d="M50984 46062
L50787 46259
" />
<path d="M50000 46259
L48622 47637
" />
<path d="M48622 47637
L48425 47637
" />
</g>
<g style="fill:#000000; fill-opacity:1.0; 
stroke:#000000; stroke-width:100; stroke-opacity:1; 
stroke-linecap:round; stroke-linejoin:round;">
<polyline style="fill-rule:evenodd;"
points="58775,48933
55619,48933
55744,48850
55870,48660
55915,48436
55915,48413
55870,48190
55744,48000
55629,47924
55629,47854
56383,47854
56550,48258
56858,48566
57261,48734
57697,48734
58100,48567
58409,48259
58576,47856
58576,47420
58410,47017
58102,46708
57699,46541
57263,46541
56860,46707
56551,47015
56384,47418
56383,47854
55629,47854
55629,45980
55607,45865
55578,45823
55542,45768
55446,45673
55461,45665
55461,45175
55561,45175
55561,45665
55655,45713
55825,45642
55869,45602
57436,45602
57451,45687
57620,45743
57797,45730
57902,45687
57917,45602
57677,45362
57436,45602
55869,45602
55999,45483
56098,45269
56080,45234
57225,45234
57237,45411
57281,45517
57366,45531
57606,45291
57366,45050
57281,45065
57225,45234
56080,45234
56051,45175
55561,45175
55461,45175
55453,45175
55453,45075
55461,45075
55461,44586
55561,44586
55561,45075
56051,45075
56098,44982
55999,44768
55825,44609
55655,44538
55561,44586
55461,44586
55368,44538
55198,44609
55122,44679
55122,44291
55099,44180
55099,44176
55044,44094
57225,44094
57225,44488
57242,44580
57297,44665
57381,44723
57480,44743
57730,44743
57730,44839
57556,44851
57451,44895
57436,44980
57677,45220
57682,45215
57753,45285
57747,45291
57988,45531
58072,45517
58129,45348
58121,45238
58265,45238
58429,45170
58555,45044
58623,44880
58624,44702
58556,44538
58430,44412
58266,44344
58128,44344
58128,44094
58111,44001
58056,43916
57973,43859
57874,43839
57480,43839
57387,43857
57302,43911
57245,43995
57225,44094
55044,44094
55034,44079
54788,43834
54797,43813
54797,43588
54711,43381
54552,43222
54345,43135
54137,43135
54159,43114
54429,43114
54543,43091
54640,43026
54995,42672
55058,42715
55157,42735
55866,42735
55958,42717
56043,42663
56100,42579
56121,42480
56121,41771
56103,41679
56048,41593
55965,41536
55866,41516
55157,41516
55122,41523
55122,41364
55324,41162
56383,41162
56550,41565
56858,41873
57261,42041
57697,42041
58100,41874
58409,41566
58576,41163
58576,40727
58410,40324
58102,40015
57699,39848
57263,39848
56860,40014
56551,40322
56384,40725
56383,41162
55324,41162
55526,40959
55591,40862
55614,40748
55614,40747
55649,40747
55742,40729
55827,40674
55884,40591
55904,40492
55904,39822
55887,39730
55835,39649
58775,39649
58775,48933
" /> 
<polyline style="fill-rule:evenodd;"
points="46654,39703
46634,39803
46634,40905
46652,40998
46707,41083
46790,41140
46889,41160
47992,41160
48084,41142
48169,41088
48226,41004
48247,40905
48247,39803
48229,39710
48190,39649
52065,39649
51858,39787
51685,40047
51624,40354
51685,40660
51858,40920
52118,41094
52141,41099
52141,42907
50330,44719
50309,44710
50084,44710
49877,44796
49718,44955
49631,45162
49631,45387
49717,45595
49876,45754
50083,45840
50308,45840
50516,45754
50675,45596
50761,45388
50761,45163
50753,45142
52652,43243
52717,43146
52740,43031
52740,41099
52763,41094
53023,40920
53196,40660
53257,40354
53196,40047
53023,39787
52816,39649
54025,39649
53901,39732
53774,39922
53730,40146
53730,40168
53774,40392
53901,40582
54091,40709
54314,40753
54538,40709
54728,40582
54739,40565
54742,40584
54797,40669
54881,40726
54907,40732
54611,41028
54546,41125
54523,41240
54523,41670
54424,41604
54207,41561
54185,41561
53969,41604
53786,41726
53663,41909
53620,42125
53663,42342
53786,42525
53863,42576
53823,42603
52347,44079
52282,44176
52259,44291
52259,47619
52204,47619
52112,47636
52026,47691
51969,47774
51968,47781
51802,47670
51570,47624
51547,47624
51315,47670
51119,47801
51059,47892
50998,47801
50802,47670
50570,47624
50547,47624
50315,47670
50119,47801
49988,47997
49942,48228
49988,48459
50119,48655
50315,48786
50547,48832
50570,48832
50802,48786
50998,48655
51059,48564
51119,48655
51315,48786
51547,48832
51570,48832
51802,48786
51967,48676
52022,48760
52105,48817
52204,48837
52913,48837
53006,48820
53091,48765
53148,48681
53168,48582
53168,48040
53746,48040
53746,48312
53808,48375
54280,48375
54280,47903
54218,47840
53946,47840
53854,47878
53784,47948
53746,48040
53168,48040
53168,47874
53150,47781
53096,47696
53012,47639
52913,47619
52858,47619
52858,46962
53667,46962
53753,47170
53911,47329
54119,47415
54344,47415
54551,47329
54710,47170
54797,46963
54797,46738
54711,46530
54552,46371
54345,46285
54120,46285
53912,46371
53753,46529
53667,46737
53667,46962
52858,46962
52858,44415
53667,43606
53667,43812
53753,44020
53911,44179
54119,44265
54344,44265
54365,44257
54523,44415
54523,44820
54424,44753
54207,44710
54185,44710
53969,44753
53786,44876
53663,45059
53620,45275
53663,45491
53786,45675
53969,45797
54185,45840
54207,45840
54424,45797
54605,45676
54611,45684
55031,46104
55031,47924
54917,48000
54905,48017
54877,47948
54806,47878
54715,47840
54443,47840
54380,47903
54380,48375
54388,48375
54388,48475
54380,48475
54380,48483
54280,48483
54280,48475
53808,48475
53746,48537
53746,48809
53784,48901
53815,48933
48772,48933
48782,48923
48736,48878
48820,48863
48877,48694
48869,48584
49013,48584
49177,48516
49303,48391
49371,48227
49372,48049
49304,47885
49178,47759
49014,47691
48991,47691
49687,46995
49747,47140
49895,47304
50094,47398
50182,47350
50182,46900
50282,46900
50282,47350
50369,47398
50568,47304
50716,47140
50780,46987
50732,46900
50282,46900
50182,46900
50174,46900
50174,46800
50182,46800
50182,46792
50282,46792
50282,46800
50732,46800
50780,46712
50716,46560
50716,46559
50787,46559
50901,46536
50998,46471
51108,46362
51550,46362
51562,46374
51698,46431
51844,46431
51979,46375
52083,46271
52139,46136
52139,45990
52083,45854
51980,45751
51845,45694
51698,45694
51563,45750
51550,45763
50984,45763
50869,45786
50772,45851
50663,45960
50000,45960
49904,45979
49885,45983
49788,46048
48645,47190
48622,47186
48228,47186
48135,47203
48050,47258
47993,47341
47973,47440
47973,47834
47990,47927
48045,48012
48129,48069
48228,48089
48478,48089
48478,48186
48304,48198
48199,48242
48184,48326
48425,48567
48430,48561
48501,48632
48495,48637
48501,48643
48430,48714
48425,48708
48419,48714
48348,48643
48354,48637
48114,48397
48029,48412
47973,48580
47985,48758
48029,48863
48114,48878
48068,48923
48077,48933
47297,48933
47366,48904
47525,48745
47612,48538
47612,48313
47526,48105
47367,47946
47160,47860
46935,47860
46727,47945
46568,48104
46482,48312
46482,48537
46568,48744
46726,48903
46797,48933
43295,48933
43457,48824
43580,48641
43623,48425
43580,48208
43457,48025
43274,47903
43058,47860
43036,47860
42819,47903
42636,48025
42514,48208
42471,48425
42514,48641
42636,48824
42798,48933
39649,48933
39649,47854
39848,47854
40014,48258
40322,48566
40725,48734
41162,48734
41565,48567
41873,48259
42041,47856
42041,47420
41874,47017
41708,46850
42471,46850
42514,47066
42636,47249
42819,47372
43036,47415
43058,47415
43274,47372
43457,47249
43580,47066
43601,46962
46482,46962
46568,47170
46726,47329
46934,47415
47159,47415
47366,47329
47525,47170
47612,46963
47612,46738
47549,46586
48184,46586
48199,46671
48368,46727
48545,46715
48650,46671
48665,46586
48425,46346
48184,46586
47549,46586
47526,46530
47367,46371
47160,46285
46935,46285
46727,46371
46568,46529
46482,46737
46482,46962
43601,46962
43623,46850
43580,46634
43457,46450
43274,46328
43058,46285
43036,46285
42819,46328
42636,46450
42514,46634
42471,46850
41708,46850
41566,46708
41163,46541
40727,46541
40324,46707
40015,47015
39848,47418
39848,47854
39649,47854
39649,46218
47973,46218
47985,46395
48029,46501
48114,46515
48354,46275
48114,46035
48029,46049
47973,46218
39649,46218
39649,44897
39758,44897
39802,45121
39929,45311
40119,45437
40342,45482
40365,45482
40589,45437
40664,45387
42446,45387
42532,45595
42691,45754
42898,45840
43123,45840
43331,45754
43490,45596
43576,45388
43576,45275
46435,45275
46478,45491
46601,45675
46784,45797
47000,45840
47022,45840
47239,45797
47422,45675
47544,45491
47587,45275
47548,45078
47973,45078
47973,45472
47990,45565
48045,45650
48129,45707
48228,45727
48478,45727
48478,45823
48304,45836
48199,45879
48184,45964
48425,46204
48430,46199
48501,46270
48495,46275
48736,46515
48820,46501
48877,46332
48869,46222
49013,46222
49177,46154
49303,46029
49371,45864
49372,45687
49304,45522
49178,45396
49014,45328
48876,45328
48876,45078
48859,44986
48804,44901
48721,44843
48622,44823
48228,44823
48135,44841
48050,44896
47993,44979
47973,45078
47548,45078
47544,45059
47422,44876
47239,44753
47022,44710
47000,44710
46784,44753
46601,44876
46478,45059
46435,45275
43576,45275
43576,45163
43491,44955
43332,44796
43124,44710
42899,44710
42692,44796
42533,44955
42446,45162
42446,45387
40664,45387
40779,45311
40905,45121
40950,44897
40905,44673
40779,44484
40761,44472
40830,44444
40900,44373
40938,44282
40938,44010
40876,43947
40404,43947
40404,43955
40304,43955
40304,43947
39832,43947
39769,44010
39769,44282
39807,44373
39878,44444
39946,44472
39929,44484
39802,44673
39758,44897
39649,44897
39649,43513
39769,43513
39769,43785
39832,43847
40304,43847
40304,43375
40404,43375
40404,43847
40876,43847
40911,43812
42446,43812
42532,44020
42691,44179
42898,44265
43123,44265
43331,44180
43490,44021
43576,43813
43576,43700
46435,43700
46478,43916
46601,44100
46784,44222
47000,44265
47022,44265
47239,44222
47422,44100
47544,43916
47587,43700
47544,43484
47422,43301
47239,43178
47022,43135
47000,43135
46784,43178
46601,43301
46478,43484
46435,43700
43576,43700
43576,43588
43491,43381
43332,43222
43124,43135
42899,43135
42692,43221
42533,43380
42446,43587
42446,43812
40911,43812
40938,43785
40938,43513
40900,43421
40830,43351
40738,43312
40466,43312
40404,43375
40304,43375
40241,43312
39969,43312
39878,43351
39807,43421
39769,43513
39649,43513
39649,42716
47973,42716
47973,43110
47990,43202
48045,43287
48129,43345
48228,43365
48478,43365
48478,43466
48336,43466
48172,43534
48046,43659
47978,43824
47978,44001
48046,44166
48171,44291
48335,44360
48513,44360
48677,44292
48803,44166
48871,44002
48872,43860
49013,43860
49177,43792
49269,43700
49656,43700
49699,43916
49821,44100
50005,44222
50221,44265
50243,44265
50459,44222
50642,44100
50765,43916
50808,43700
50765,43484
50642,43301
50459,43178
50243,43135
50221,43135
50005,43178
49821,43301
49699,43484
49656,43700
49269,43700
49303,43666
49371,43502
49372,43324
49304,43160
49178,43034
49014,42966
48876,42966
48876,42716
48859,42623
48804,42538
48721,42481
48622,42461
48228,42461
48135,42479
48050,42533
47993,42617
47973,42716
39649,42716
39649,41358
39848,41358
40014,41762
40322,42070
40725,42237
41162,42238
41163,42237
42446,42237
42532,42445
42691,42604
42898,42690
43123,42691
43331,42605
43490,42446
43576,42238
43576,42125
46435,42125
46478,42342
46601,42525
46784,42647
47000,42690
47022,42690
47239,42647
47422,42525
47544,42342
47565,42237
49631,42237
49717,42445
49876,42604
50083,42690
50308,42691
50516,42605
50675,42446
50761,42238
50761,42014
50676,41806
50517,41647
50309,41561
50084,41560
49877,41646
49718,41805
49631,42013
49631,42237
47565,42237
47587,42125
47544,41909
47422,41726
47239,41604
47022,41561
47000,41561
46784,41604
46601,41726
46478,41909
46435,42125
43576,42125
43576,42014
43491,41806
43332,41647
43124,41561
42899,41560
42692,41646
42533,41805
42446,42013
42446,42237
41163,42237
41565,42071
41873,41763
42041,41360
42041,40924
41874,40521
41820,40466
42919,40466
42919,40738
42957,40830
43027,40900
43119,40938
43391,40938
43453,40876
43453,40404
42981,40404
42919,40466
41820,40466
41566,40212
41163,40045
40727,40045
40324,40211
40015,40519
39848,40922
39848,41358
39649,41358
39649,39969
42919,39969
42919,40241
42981,40304
43453,40304
43453,39832
43553,39832
43553,40304
43561,40304
43561,40404
43553,40404
43553,40876
43616,40938
43888,40938
43980,40900
44050,40830
44078,40761
44090,40779
44280,40905
44503,40950
44727,40905
44917,40779
45044,40589
45088,40365
45088,40342
45044,40119
44917,39929
44727,39802
44503,39758
44280,39802
44090,39929
44078,39946
44050,39878
43980,39807
43888,39769
43616,39769
43553,39832
43453,39832
43391,39769
43119,39769
43027,39807
42957,39878
42919,39969
39649,39969
39649,39649
46692,39649
46654,39703
" /> 
</g> 
</svg>
